<?xml version="1.0" encoding="utf-8"?>
<!-- Generator: Adobe Illustrator 25.3.0, SVG Export Plug-In . SVG Version: 6.00 Build 0)  -->
<svg version="1.1" id="Calque_1" xmlns="http://www.w3.org/2000/svg" xmlns:xlink="http://www.w3.org/1999/xlink" x="0px" y="0px"
	 viewBox="0 0 100 100" style="enable-background:new 0 0 100 100;" xml:space="preserve">
<style type="text/css">
	.st0{fill:#FED0AC;}
	.st1{fill:#E0A372;}
	.st2{fill:#FFFCFC;}
	.st3{fill-rule:evenodd;clip-rule:evenodd;fill:#7A7A7A;}
</style>
<g>
	<path class="st0" d="M52.9,67.1l11.7,2.5l9.6-54.8c0.6-3.7-1.5-7.3-4.7-8c-3.3-0.7-6.5,1.8-7.1,5.5L52.9,67.1z"/>
	<path class="st1" d="M69.7,6.8c-0.4-0.2-0.8-0.2-1.2-0.2c2.7,1.2,4.2,4.3,3.6,7.7l-9.6,54.8l2.1,0.5l9.6-54.8
		C74.9,11,72.8,7.5,69.7,6.8z"/>
	<path class="st0" d="M40.9,68.8H55V8.3C55,3.8,51.8,0,47.9,0c-3.8,0-7.1,3.7-7.1,8.3V68.8z"/>
	<path class="st1" d="M48.1,0c-0.3,0-0.8,0-1.1,0.2c3.5,0.7,6,4,6,8.2v60.6h2.1V8.3C55.1,3.7,52,0,48.1,0z"/>
	<path class="st0" d="M33.4,68.6l12-3.5L32.3,10c-0.9-3.8-4.4-6.2-7.7-5.3c-3.3,1-5.3,4.8-4.4,8.7L33.4,68.6z"/>
	<path class="st1" d="M24.7,4.7l-0.9,0.5c3-0.2,5.7,2,6.6,5.5l13.1,55.1l2.1-0.7L32.3,10C31.4,6.2,28,3.8,24.7,4.7z"/>
	<path class="st0" d="M7.9,19c-2.9,1.5-3.8,5.5-2.3,8.8l19.8,43.8l10.1-5.7L15.7,22.1C14.2,18.8,10.7,17.5,7.9,19z"/>
	<path class="st1" d="M7.9,19c-0.3,0.2-0.6,0.3-0.9,0.7c2.6-0.8,5.4,0.7,6.8,3.7l19.8,43.8l2-1l-19.8-44C14.2,18.8,10.7,17.5,7.9,19
		z"/>
	<path class="st0" d="M94.4,45.5c-2.4-5.2-9.9-4.8-17.6,4.5c-5.4,6.5-6.5,8.7-11.9,8.5v-6.8c0,0-11.6-9.5-34.5-5.2
		c0,0-13.1,2-13.1,9.7c0,0-2.3,18.5,2.4,30.1c6.9,17.3,42.3,21.8,53.4-7.7c2.3-5.8,6.8-10.2,10.8-15.7C88.7,56.3,97,51,94.4,45.5z"
		/>
	<path class="st1" d="M94.4,45.5c-0.4-1-1.1-1.7-1.8-2.3c0.2,0.2,0.3,0.3,0.3,0.7c2.6,5.7-5.7,10.8-10.7,17.5
		c-4.1,5.5-8.6,9.8-10.8,15.7c-9.6,25.5-37.5,25.5-49.2,13.8c10.7,13.3,40.7,14.7,50.7-12.2c2.3-5.8,6.8-10.2,10.8-15.7
		C88.7,56.3,97,51,94.4,45.5z"/>
	<path class="st1" d="M66.5,58.4c-9.8-4-27.2,3.3-24.8,22.8c0-18.2,14.9-22.6,23-22.6C65.9,58.4,66.5,58.4,66.5,58.4z"/>
	<path class="st2" d="M39.5,52l4.5-9.9l16.8,3.3L74.1,52v10.6l8.1,6.3l-4.2,19l-28,7.9l-6.7-9.2l-12.7-5.8l4.5-15.7l-6.3-9L39.5,52z
		"/>
	<path class="st3" d="M44.1,39.5c-0.5-0.1-0.9-0.1-1.4,0.2c-0.4,0.2-0.7,0.6-0.9,1l-4,9.8l-10,3.9c-0.3,0.1-0.5,0.3-0.7,0.5
		c-0.2,0.2-0.3,0.5-0.4,0.8c-0.1,0.3-0.1,0.6,0,0.9c0.1,0.3,0.2,0.6,0.4,0.8l5.9,7.7l-4.1,16c-0.1,0.4-0.1,0.9,0.2,1.3
		c0.2,0.4,0.6,0.7,1,0.9l12.4,5l6.2,9c0.2,0.3,0.6,0.6,0.9,0.7c0.4,0.1,0.8,0.2,1.2,0l15.1-4.2c0,0,0.1,0,0.1,0l13-4.2
		c0.3-0.1,0.6-0.3,0.8-0.5c0.2-0.2,0.4-0.5,0.5-0.9l4.3-18.9c0.1-0.4,0.1-0.7-0.1-1.1c-0.1-0.3-0.4-0.6-0.7-0.9l-7.9-5.7v-9.6
		c0-0.4-0.1-0.7-0.3-1c-0.2-0.3-0.5-0.5-0.8-0.7l-13-6.3c-0.1-0.1-0.3-0.1-0.4-0.1L44.1,39.5L44.1,39.5z M73.5,64.6l5.8,4.2l-11.1,9
		c-0.3,0.2-0.5,0.5-0.6,0.9L64.1,89l-6.5-4c-0.2-0.1-0.5-0.2-0.7-0.3c-0.3,0-0.5,0-0.8,0c-0.2,0.1-0.5,0.2-0.7,0.3
		c-0.2,0.1-0.4,0.3-0.5,0.5c-0.1,0.2-0.2,0.4-0.3,0.7s0,0.5,0,0.7c0.1,0.2,0.2,0.5,0.3,0.7c0.1,0.2,0.3,0.4,0.6,0.5l4.9,3l-9.5,2.7
		l-5.7-8.3c-0.2-0.3-0.5-0.6-0.9-0.7l-11.4-4.6l3.5-13.8h9.3c0.3,0,0.5,0,0.7-0.1c0.2-0.1,0.5-0.2,0.6-0.4c0.2-0.2,0.3-0.4,0.4-0.6
		c0.1-0.2,0.1-0.5,0.1-0.7s-0.1-0.5-0.1-0.7c-0.1-0.2-0.2-0.4-0.4-0.6c-0.2-0.2-0.4-0.3-0.6-0.4c-0.2-0.1-0.5-0.1-0.7-0.1h-9.8
		l-4.4-5.7l7.8-3l12.3,4c0.4,0.1,0.8,0.1,1.2,0c0.4-0.1,0.7-0.3,1-0.6l7.7-9.3l10.5,5.1v8.1l-9.6,3.7c-0.3,0.1-0.5,0.3-0.7,0.5
		c-0.2,0.2-0.3,0.4-0.4,0.7L59,72.3c-0.1,0.2-0.1,0.5-0.1,0.7c0,0.2,0.1,0.5,0.2,0.7c0.1,0.2,0.3,0.4,0.5,0.6
		c0.2,0.2,0.4,0.3,0.7,0.4c0.2,0.1,0.5,0.1,0.8,0.1c0.3,0,0.5-0.1,0.7-0.2c0.2-0.1,0.4-0.3,0.6-0.5c0.2-0.2,0.3-0.4,0.4-0.6l1.9-5.5
		L73.5,64.6L73.5,64.6z M57.4,46.7l-5.9,7.2l-9.7-3.2l2.9-7.1L57.4,46.7z M68.2,88.9l8.2-2.7l2.8-12.5l-8.2,6.6L68.2,88.9z"/>
</g>
</svg>
