<svg width="87" height="99" viewBox="0 0 87 99" fill="none" xmlns="http://www.w3.org/2000/svg">
<path d="M46.2871 66.4333L57.5771 68.9061L66.8406 14.6707C67.4196 11.044 65.3932 7.41731 62.3536 6.75791C59.1692 6.09852 56.1296 8.57125 55.5507 12.1979L46.2871 66.4333Z" fill="#FED0AC"/>
<path d="M62.4984 6.7586C62.0642 6.59375 61.7747 6.59375 61.3405 6.59375C63.9459 7.74769 65.3933 10.8798 64.8143 14.1768L55.5508 68.4122L57.5772 68.9068L66.8407 14.6714C67.5645 10.8798 65.5381 7.418 62.4984 6.7586Z" fill="#E0A372"/>
<path d="M34.707 68.0827H48.3129V8.24246C48.3129 3.79153 45.2733 0 41.51 0C37.8914 0 34.707 3.62668 34.707 8.24246V68.0827Z" fill="#FED0AC"/>
<path d="M41.6548 0C41.3653 0 40.9311 -1.59669e-07 40.6416 0.164849C43.9707 0.824246 46.4313 4.12123 46.4313 8.24246V68.2476H48.4577V8.24246C48.4577 3.62668 45.4181 0 41.6548 0Z" fill="#E0A372"/>
<path d="M27.4704 67.918L39.0499 64.4561L26.4572 9.89104C25.5888 6.09951 22.2597 3.79162 19.0753 4.61586C15.891 5.60496 14.0093 9.39649 14.8778 13.188L27.4704 67.918Z" fill="#FED0AC"/>
<path d="M19.0745 4.61586L18.2061 5.11041C21.1009 4.94556 23.7063 7.0886 24.5748 10.5504L37.1674 65.1155L39.1938 64.4561L26.4564 9.89104C25.588 6.09951 22.2589 3.79162 19.0745 4.61586Z" fill="#E0A372"/>
<path d="M2.8635 18.7929C0.113381 20.2765 -0.755077 24.2329 0.692354 27.5299L19.7984 70.8852L29.4962 65.2803L10.3901 21.925C8.94271 18.628 5.61362 17.3092 2.8635 18.7929Z" fill="#FED0AC"/>
<path d="M2.86455 18.7929C2.57507 18.9577 2.28558 19.1225 1.99609 19.4522C4.45673 18.628 7.20685 20.1116 8.50954 23.0789L27.6156 66.4343L29.4973 65.4452L10.3912 21.925C8.94376 18.628 5.61467 17.3092 2.86455 18.7929Z" fill="#E0A372"/>
<path d="M86.3799 45.0034C84.064 39.8931 76.8269 40.2228 69.445 49.4544C64.2342 55.8835 63.221 58.0265 58.0103 57.8617V51.1028C58.0103 51.1028 46.8651 41.7064 24.7194 45.9925C24.7194 45.9925 12.1267 47.9707 12.1267 55.5538C12.1267 55.5538 9.95555 73.852 14.4426 85.3915C21.1008 102.536 55.2602 106.987 65.9711 77.8084C68.1423 72.0387 72.4846 67.7526 76.3927 62.3126C80.8797 55.7186 88.8406 50.4434 86.3799 45.0034Z" fill="#FED0AC"/>
<path d="M86.3802 45.0042C85.946 44.0151 85.367 43.3557 84.6433 42.6963C84.7881 42.8611 84.9328 43.026 84.9328 43.3557C87.3934 48.9606 79.4326 54.0709 74.656 60.6649C70.748 66.1049 66.4057 70.391 64.2345 76.1607C54.971 101.383 28.0488 101.383 16.7588 89.8432C27.0356 103.031 55.9842 104.35 65.682 77.8092C67.8531 72.0395 72.1954 67.7534 76.1035 62.3133C80.88 55.7194 88.8409 50.4442 86.3802 45.0042Z" fill="#E0A372"/>
<path d="M59.4569 57.8621C50.0486 53.9057 33.2584 61.1591 35.5743 80.4465C35.5743 62.4779 49.9038 58.027 57.72 58.027C58.8779 57.8621 59.4569 57.8621 59.4569 57.8621Z" fill="#E0A372"/>
<path d="M33.4061 51.4685L37.7687 41.6963L53.9976 45.0119L66.7364 51.4685V61.9388L74.5891 68.221L70.5755 87.0674L43.5274 94.9201L37.0707 85.8459L24.8554 80.0873L29.218 64.5564L23.1104 55.6566L33.4061 51.4685Z" fill="#FFFCFC"/>
<path fill-rule="evenodd" clip-rule="evenodd" d="M37.7607 39.1359C37.3199 39.0249 36.8537 39.0778 36.4489 39.2848C36.0441 39.4918 35.7283 39.8387 35.5602 40.2612L31.6925 49.9303L22.0192 53.8063C21.7524 53.9133 21.5138 54.0802 21.3218 54.294C21.1297 54.5079 20.9894 54.7631 20.9117 55.0398C20.834 55.3165 20.8209 55.6074 20.8734 55.89C20.926 56.1726 21.0428 56.4393 21.2148 56.6695L26.9288 64.2923L22.9778 80.0964C22.8696 80.5318 22.9212 80.9916 23.123 81.3923C23.3249 81.793 23.6637 82.1081 24.0781 82.2803L36.052 87.2732L41.991 96.1797C42.2115 96.5103 42.5314 96.7624 42.9044 96.8995C43.2774 97.0365 43.6844 97.0516 44.0665 96.9424L58.6536 92.7747C58.6788 92.7669 58.7038 92.7586 58.7286 92.7496L71.2318 88.5819C71.5395 88.4792 71.8152 88.2986 72.0322 88.0575C72.2491 87.8165 72.3998 87.5233 72.4697 87.2066L76.6374 68.4517C76.7152 68.1002 76.6902 67.7336 76.5653 67.3958C76.4404 67.0581 76.2209 66.7634 75.933 66.5471L68.3478 60.8581V51.3765C68.3473 51.0285 68.25 50.6874 68.0667 50.3915C67.8834 50.0956 67.6214 49.8566 67.31 49.7011L54.8068 43.4495C54.6847 43.387 54.5561 43.3381 54.4233 43.3036L37.7524 39.1359H37.7607ZM66.193 63.9297L71.7903 68.1267L61.1084 77.0248C60.8398 77.2486 60.6392 77.5431 60.5291 77.875L57.1115 88.1151L50.7974 84.1683C50.5883 84.0377 50.3556 83.9497 50.1125 83.9091C49.8694 83.8685 49.6207 83.8762 49.3805 83.9317C49.1404 83.9873 48.9135 84.0895 48.7129 84.2328C48.5123 84.376 48.3419 84.5573 48.2113 84.7663C48.0808 84.9754 47.9927 85.2082 47.9521 85.4513C47.9115 85.6944 47.9192 85.9431 47.9748 86.1833C48.0303 86.4234 48.1326 86.6502 48.2758 86.8509C48.419 87.0515 48.6003 87.2219 48.8094 87.3524L53.569 90.324L44.3583 92.958L38.8569 84.7184C38.6525 84.4124 38.3626 84.1732 38.0233 84.0307L27.008 79.4421L30.4297 65.7552H39.3862C39.6324 65.7552 39.8763 65.7067 40.1039 65.6125C40.3314 65.5182 40.5382 65.3801 40.7123 65.2059C40.8865 65.0317 41.0246 64.825 41.1189 64.5975C41.2131 64.3699 41.2616 64.126 41.2616 63.8797C41.2616 63.6334 41.2131 63.3896 41.1189 63.162C41.0246 62.9345 40.8865 62.7277 40.7123 62.5536C40.5382 62.3794 40.3314 62.2413 40.1039 62.147C39.8763 62.0528 39.6324 62.0043 39.3862 62.0043H29.9045L25.6826 56.3778L33.1929 53.3729L45.0459 57.3239C45.4096 57.4445 45.8014 57.4508 46.1688 57.342C46.5361 57.2332 46.8613 57.0145 47.1006 56.7154L54.49 47.4797L64.601 52.5352V60.5247L55.3611 64.2215C55.1076 64.3228 54.8794 64.4783 54.6922 64.6769C54.5051 64.8756 54.3635 65.1127 54.2775 65.3718L52.1936 71.6234C52.1142 71.8575 52.0819 72.105 52.0985 72.3517C52.1151 72.5983 52.1803 72.8393 52.2904 73.0607C52.4005 73.282 52.5532 73.4794 52.7398 73.6416C52.9265 73.8037 53.1433 73.9273 53.3779 74.0053C53.6125 74.0833 53.8602 74.1142 54.1068 74.0961C54.3533 74.0781 54.5939 74.0115 54.8146 73.9001C55.0353 73.7887 55.2318 73.6348 55.3929 73.4472C55.5539 73.2596 55.6762 73.0421 55.7529 72.807L57.5575 67.3806L66.1889 63.9297H66.193ZM50.6849 46.2335L44.9918 53.352L35.6143 50.2262L38.4359 43.1744L50.6849 46.2335ZM61.1042 88.0068L69.0438 85.3603L71.7903 73.0071L63.9175 79.5671L61.1042 88.0068Z" fill="#7A7A7A"/>
</svg>
