<?xml version="1.0" encoding="utf-8"?>
<!-- Generator: Adobe Illustrator 25.3.0, SVG Export Plug-In . SVG Version: 6.00 Build 0)  -->
<svg version="1.1" id="Calque_1" xmlns="http://www.w3.org/2000/svg" xmlns:xlink="http://www.w3.org/1999/xlink" x="0px" y="0px"
	 viewBox="0 0 100 100" style="enable-background:new 0 0 100 100;" xml:space="preserve">
<style type="text/css">
	.st0{fill:#FF9D33;}
	.st1{fill:#FFCE31;}
	.st2{fill:#FFDF85;}
</style>
<g>
	<path class="st0" d="M90.3,40.3c0,0-5.2,4.7-14.1,10.2C73.8,37,67,20.3,53.7,0c0,0-4.4,21.8-18.8,42.3c-6.3-9.3-9.1-16.7-9.1-16.7
		c-45.3,43.5-7.7,74.3,16,74.3C72.2,100,98.8,86,90.3,40.3z"/>
	<path class="st1" d="M77.3,78c2.7-5.7,4.7-13.1,5.1-22.4c0,0-3.8,3.1-10.3,7.1c-1.8-9.3-6.7-20.7-16.3-34.8c0,0-3.1,15-13.6,29.3
		c-4.5-6.4-6.5-11.5-6.5-11.5c-7.8,11.7-10.9,21-11.1,28.4c-4.3-1.6-7.1-2.8-7.1-2.8c7.4,21,22.8,25.7,29.7,25.7
		c12.3,0,24.8-3.4,37.1-20.2C84.4,76.6,81.7,77.3,77.3,78z"/>
	<path class="st2" d="M30.9,68.6c0,0,5.1,6.5,9,5c0,0,7.3-10.8,17.9-16.8c0,0-2.2,16.5,0.4,19.4c3.3,4,12.2-4.3,12.2-4.3
		c0,9.8-11.3,22-21.6,22C38.9,93.8,24.7,83.2,30.9,68.6z"/>
	<path class="st0" d="M84.8,23.8c3.8-5.2,6.4-10.8,6.4-10.8c6.4,10.1,2.5,16.1-0.2,18C87.1,33.9,80.4,29.9,84.8,23.8z"/>
	<path class="st0" d="M15.4,22.1C11.6,16,11.2,8.4,11.2,8.4c-9.1,13-5.6,20.3-2.5,22.4C12.7,33.7,19.6,29.2,15.4,22.1z"/>
	<path class="st0" d="M36.5,8.5c0.5-4.2-1.3-8.3-1.3-8.3c8.5,5.4,8.5,9.9,7.4,11.8C41,14.3,35.9,13.2,36.5,8.5z"/>
</g>
</svg>
