<svg width="80" height="92" viewBox="0 0 80 92" fill="none" xmlns="http://www.w3.org/2000/svg">
<path d="M75.4044 37.1067C75.4044 37.1067 70.8064 41.4 62.9897 46.46C60.8439 34.04 54.8665 18.7067 43.2181 0C43.2181 0 39.3864 20.0867 26.6651 38.9467C21.1475 30.36 18.6952 23.6133 18.6952 23.6133C-21.1545 63.6333 11.9514 92 32.7959 92C59.4645 92 82.9145 79.12 75.4044 37.1067Z" fill="#FF9D33"/>
<path d="M63.9699 71.7231C66.3603 66.4936 68.1133 59.6794 68.432 51.122C68.432 51.122 65.0854 53.9745 59.3484 57.6193C57.7548 49.0619 53.4521 38.6029 45.006 25.6084C45.006 25.6084 42.2969 39.3953 33.0539 52.5483C29.0699 46.6849 27.3169 41.9308 27.3169 41.9308C20.4644 52.7067 17.7553 61.2641 17.5959 68.0783C13.7713 66.6521 11.3809 65.5428 11.3809 65.5428C17.9147 84.8761 31.4603 89.1548 37.516 89.1548C48.3526 89.1548 59.3484 85.9854 70.185 70.6138C70.185 70.4554 67.7946 71.0892 63.9699 71.7231Z" fill="#FFCE31"/>
<path d="M23.1478 63.0723C23.1478 63.0723 27.647 69.0791 31.0214 67.6564C31.0214 67.6564 37.4487 57.6977 46.7684 52.165C46.7684 52.165 44.8402 67.3403 47.0898 70.0276C49.9821 73.6633 57.8557 66.0757 57.8557 66.0757C57.8557 75.086 47.8932 86.3094 38.8949 86.3094C30.2179 86.3094 17.6845 76.5087 23.1478 63.0723Z" fill="#FFDF85"/>
<path d="M70.5252 21.9109C73.878 17.1212 76.1132 12.0122 76.1132 12.0122C81.7012 21.2723 78.3484 26.8602 75.9536 28.6165C72.6008 31.171 66.6935 27.4989 70.5252 21.9109Z" fill="#FF9D33"/>
<path d="M9.53704 20.315C6.18426 14.727 5.86494 7.70215 5.86494 7.70215C-2.11788 19.6764 0.915595 26.3819 3.62975 28.2978C7.14219 31.012 13.2091 26.8609 9.53704 20.315Z" fill="#FF9D33"/>
<path d="M28.057 7.86126C28.536 4.02951 26.9395 0.197754 26.9395 0.197754C34.4433 5.1471 34.4433 9.29817 33.4854 11.0544C32.0485 13.1299 27.5781 12.172 28.057 7.86126Z" fill="#FF9D33"/>
</svg>
