<svg width="80" height="92" viewBox="0 0 80 92" fill="none" xmlns="http://www.w3.org/2000/svg">
<path d="M75.4044 37.1067C75.4044 37.1067 70.8064 41.4 62.9897 46.46C60.8439 34.04 54.8665 18.7067 43.2181 0C43.2181 0 39.3864 20.0867 26.6651 38.9467C21.1475 30.36 18.6952 23.6133 18.6952 23.6133C-21.1545 63.6333 11.9514 92 32.7959 92C59.4645 92 82.9145 79.12 75.4044 37.1067Z" fill="#FF9D33"/>
<path d="M63.9709 71.7231C66.3613 66.4936 68.1143 59.6794 68.433 51.122C68.433 51.122 65.0864 53.9745 59.3494 57.6193C57.7558 49.0619 53.4531 38.6029 45.007 25.6084C45.007 25.6084 42.2978 39.3953 33.0549 52.5483C29.0709 46.6849 27.3179 41.9308 27.3179 41.9308C20.4654 52.7067 17.7563 61.2641 17.5969 68.0783C13.7722 66.6521 11.3818 65.5428 11.3818 65.5428C17.9156 84.8761 31.4613 89.1548 37.517 89.1548C48.3535 89.1548 59.3494 85.9854 70.186 70.6138C70.186 70.4554 67.7956 71.0892 63.9709 71.7231Z" fill="#FFCE31"/>
<path d="M23.1478 63.0723C23.1478 63.0723 27.647 69.0791 31.0214 67.6564C31.0214 67.6564 37.4487 57.6977 46.7684 52.165C46.7684 52.165 44.8402 67.3403 47.0898 70.0276C49.9821 73.6633 57.8557 66.0757 57.8557 66.0757C57.8557 75.086 47.8932 86.3094 38.8949 86.3094C30.2179 86.3094 17.6845 76.5087 23.1478 63.0723Z" fill="#FFDF85"/>
<path d="M70.5233 21.9104C73.8761 17.1207 76.1113 12.0117 76.1113 12.0117C81.6992 21.2718 78.3465 26.8598 75.9516 28.616C72.5988 31.1705 66.6915 27.4984 70.5233 21.9104Z" fill="#FF9D33"/>
<path d="M9.53606 20.314C6.18328 14.7261 5.86397 7.70117 5.86397 7.70117C-2.11885 19.6754 0.914619 26.381 3.62878 28.2968C7.14122 31.011 13.2082 26.8599 9.53606 20.314Z" fill="#FF9D33"/>
<path d="M28.0561 7.86077C28.535 4.02902 26.9385 0.197266 26.9385 0.197266C34.4423 5.14661 34.4423 9.29768 33.4844 11.0539C32.0475 13.1294 27.5771 12.1715 28.0561 7.86077Z" fill="#FF9D33"/>
</svg>
