<?xml version="1.0" encoding="utf-8"?>
<!-- Generator: Adobe Illustrator 25.3.0, SVG Export Plug-In . SVG Version: 6.00 Build 0)  -->
<svg version="1.1" id="Calque_1" xmlns="http://www.w3.org/2000/svg" xmlns:xlink="http://www.w3.org/1999/xlink" x="0px" y="0px"
	 viewBox="0 0 100 100" style="enable-background:new 0 0 100 100;" xml:space="preserve">
<style type="text/css">
	.st0{fill-rule:evenodd;clip-rule:evenodd;fill:#4E94B5;}
	.st1{fill-rule:evenodd;clip-rule:evenodd;fill:#F1F1F1;fill-opacity:0.6;}
	.st2{fill:#4490B3;}
	.st3{fill-rule:evenodd;clip-rule:evenodd;fill:#66B1DE;fill-opacity:0.6;}
	.st4{fill:#56A4C7;fill-opacity:0.6;}
	.st5{fill:#66B1DE;fill-opacity:0.6;}
	.st6{fill:#286B82;}
</style>
<g>
	<path class="st0" d="M28.6,67.2c0.2,0.1,0.4,0.3,0.6,0.4c0.5,0.1,1,0.3,1.5,0.4c2.5,0.8,5,1.4,7.5,2.1c0.1,0,0.4,0,0.5,0.1
		c0.6,0.1,1.1,0.1,1.6,0.3c2.1-0.6,4.4-0.7,6.5-0.7c4.1,0.1,8.4,0.4,12.5,2c2.7,1.1,5.5,2.3,8.2,3.4c0.9-0.4,1.6-0.7,2.6-1.1
		l2.7-0.3l-0.1-0.1c-0.4-0.3-0.6-0.7-1-1.1c-1.5-2-3.1-4.2-4.1-7.4c-1-2.7-1.2-5.7-1.2-8.5c0.2-3.1,1-5.7,2.1-7.9
		c2.1-4.2,4.9-6.8,8-7.4c1.2-0.3,2.5,0,3.7,1.3c1.6,1.7,2.2,4.5,2.2,7.9c0,1.8-0.1,3.7-0.2,5.7c1.6-2,3.4-4.4,4.4-7.8
		c1.2-3.8,1.2-7.6-0.1-11.3c-1-2.7-2.2-4.5-3.7-5.9c-3.4-3.3-6.9-4.2-10.6-4.5c-2.5-0.1-5,0.3-7.4,1.1c-3,1-5.9,2.4-8.6,4.2
		c-8.7,5.5-16.1,14.7-22.7,26C32,60.8,30.3,64.1,28.6,67.2z M75.9,39.2L75.9,39.2c0.6-0.1,1-0.1,1-0.1l0.7,0.4
		C76.9,39.5,76.4,39.3,75.9,39.2z M66.5,29.1c0.7-0.3,1.4-0.6,2.1-0.7c1.6-0.4,3.4-0.4,5,0c1.2,0.3,2.6,0.7,3.9,1.3h-5.2l-0.4,0.6
		c-0.5-0.1-1-0.3-1.4-0.4c-1.2-0.1-2.4-0.3-3.6-0.4c-0.1,0-0.1,0-0.2,0C66.5,29.3,66.5,29.1,66.5,29.1z"/>
	<path class="st1" d="M84,49.4c0.1-1.1,0.2-2.4,0.2-3.5c0-2.4-0.9-4-2-4.4c-0.7-0.4-1.5-0.6-2.2-0.8c0.1-0.1,0.4-0.3,0.5-0.6
		c0.4-0.6,0.4-1.1,0-1.4c-0.5-0.4-1.1-0.4-1.6-0.4c-0.2,0-0.6,0.1-0.9,0.1c0.2-0.3,0.5-0.6,0.7-0.8c0.5-0.7,0.5-1.4,0-2
		c-0.6-0.7-1.2-0.8-1.7-1.1c-0.7-0.1-1.4-0.3-2.2-0.4h-0.1V34c0.5-0.1,0.9-0.3,1.2-0.3c1.1-0.1,2,0,3.1,0.3c2,0.6,4,1.6,5.7,3.8
		c0.5,0.7,0.9,1.4,1.2,2.3c0.6,1.4,0.6,3.3,0.1,5C85.6,46.4,84.6,48.6,84,49.4"/>
	<path class="st2" d="M99.8,71.1v15.6c0,7.2-4.7,13.2-10.7,13.2H10.9c-6,0.1-10.7-5.8-10.7-13V71.3h99.6"/>
	<path class="st3" d="M1.1,75.4C2.5,74.3,4,73.1,5.5,72c1-0.8,2-1.3,3.1-1.8c5.5-3.3,11.2-5.7,17.1-6.4c5.6-0.7,11.2-1.4,16.9,0.1
		c5.9,1.4,11.6,2.8,17.4,4.2c0.9,0.1,1.6,0.4,2.4,0.7c0-0.1,0-0.1,0-0.3c-0.4-0.3-0.7-0.6-1.1-0.8c0.6-1.4,0.5-3.4-0.7-4.1
		c-0.5-0.3-1-0.8-1.4-1.4c-2.4-2.4-4.7-5.1-6.6-9.1c-1.6-3.4-2.6-7.2-2.7-11.2c-0.1-4.2,0.5-7.8,1.6-11C53.7,24.7,57,21,61,19.3
		c1.6-0.7,3.4-0.6,5,0.8c2.5,1.8,3.7,5.7,4.1,10c0.2,2.4,0.4,5,0.5,7.5c2-3.1,3.7-6.6,4.7-11.3c1.1-5.4,0.5-10.3-1.7-15.1
		c-1.6-3.4-3.7-5.5-5.9-7.1c-4.9-3.7-9.9-4.2-14.7-4c-3.4,0.3-6.5,1.4-9.6,3c-3.7,1.8-7.5,4.4-10.9,7.4C21.8,20.1,13.5,33.8,6,50.2
		c-2,5.5-4.1,10.9-6.1,16.3L1.1,75.4L1.1,75.4z M46.2,5.4c1-0.4,1.7-1,2.7-1.4c2.1-0.8,4.4-1.3,6.5-1.1c4.5,0.1,9,1.3,13.5,5.2
		c1.2,1.1,2.2,2.5,3.4,4.2c1.7,3,2.4,6.6,2.1,10.6c-0.2,3.5-1.5,9.1-2.5,10.5c-0.2-2.4-0.4-5.1-0.9-7.6c-1-5.2-3.1-7.8-5.9-8.5
		c-1.7-0.4-3.5-0.3-5.1-0.4c0.2-0.4,0.6-0.8,0.9-1.4c0.7-1.4,0.5-2.4-0.6-3c-1.2-0.6-2.4-0.4-3.6,0c-0.6,0.3-1.2,0.4-1.7,0.7
		c0.5-0.8,0.9-1.4,1.2-2.1c0.9-1.7,0.6-3.4-0.7-4.2c-1.2-1.1-2.7-1.3-4.1-1.4c-1.6,0-3.2,0.1-4.9,0.3c-0.1,0-0.1,0-0.2,0
		C46.2,5.5,46.2,5.4,46.2,5.4z"/>
	<path class="st1" d="M71.7,33.4c-0.2-2.4-0.4-5.1-0.9-7.6c-1-5.2-3.1-7.8-5.9-8.5c-1.7-0.4-3.5-0.3-5.1-0.4
		c0.2-0.4,0.6-0.8,0.9-1.4c0.6-1.4,0.5-2.4-0.6-3c-1.2-0.6-2.4-0.4-3.6,0c-0.6,0.3-1.2,0.4-1.7,0.7c0.5-0.8,0.9-1.4,1.2-2.1
		c0.9-1.7,0.6-3.4-0.7-4.2c-1.2-1-2.7-1.3-4.1-1.4c-1.6,0-3.2,0.1-4.9,0.3c-0.1,0-0.1,0-0.2,0c0-0.1,0-0.3,0-0.3
		c1-0.4,1.7-1,2.7-1.4c2.1-0.8,4.4-1.3,6.5-1.1c4.5,0.1,9,1.3,13.5,5.2c1.2,1.1,2.2,2.5,3.4,4.2c1.7,3,2.4,6.6,2.1,10.6
		C73.9,26.4,72.7,32,71.7,33.4z"/>
	<path class="st4" d="M0.2,66C7.3,56.8,15.4,53.3,23,54.4c4,0.7,8.1,3.7,12.1,5.5c4.6,2.1,8.7,0.1,13.5-1.4c4-1.4,8.2-0.8,12.2,1.4
		c4.6,2.5,9,7.1,13.7,6.2c4.1-0.7,8.2-4.2,12.4-5.1c4.1-0.8,8.5,3.4,12.6,5.9v9.3c-0.1,0-0.2-0.1-0.4-0.1c-4.1-2.5-8-6.1-12.2-4.7
		c-4.1,1.4-8.2,4.4-12.4,4.8c-3.7,0.1-7.4-2.5-11-5.2c-4.2-3.1-8.6-4-13.1-2.7c-3.7,1-7.2,3.1-11.1,2.5c-4-0.7-8.1-3.7-12.1-5.5
		c-8-3.6-16.8,0.3-24.2,10.6c-1,1.3-2,1-3-0.1L0.2,66"/>
	<path class="st4" d="M0.1,71.8C7.2,62.6,15.4,59.1,23,60.2c4,0.7,8.1,3.7,12.1,5.5c4.6,2.1,8.7,0.1,13.5-1.4
		c4-1.4,8.2-0.8,12.2,1.4c4.6,2.5,9,7.1,13.7,6.2c4.1-0.7,8.2-4.2,12.4-5.1c4.2-1,8.5,3.4,12.6,5.9V82c-0.1,0-0.2-0.1-0.4-0.1
		c-4.1-2.5-8-6.1-12.2-4.7c-4.1,1.4-8.2,4.4-12.4,4.8c-3.7,0.3-7.5-2.4-11.1-5.1c-4.2-3.1-8.6-4-13.1-2.7c-3.7,1-7.2,3.1-11.1,2.5
		c-4-0.7-8.1-3.7-12.1-5.5c-8.1-3.6-17,0.4-24.4,10.7c-1,1.3-2,1-3-0.1L0.1,71.8"/>
	<path class="st5" d="M0.1,77.4c7.1-9.5,15.2-13,23-11.9c4,0.7,8.1,3.7,12.1,5.7c4.6,2.3,8.9,0.1,13.5-1.4c4-1.4,8.2-0.8,12.2,1.4
		c4.6,2.5,9,7.2,13.9,6.4c4.1-0.8,8.2-4.2,12.4-5.2c4.2-1.1,8.5,3.4,12.6,6.1V88c-0.1,0-0.2-0.1-0.4-0.1c-4.1-2.5-8-6.2-12.2-4.8
		c-4.1,1.4-8.2,4.5-12.4,5c-3.7,0.3-7.5-2.5-11.1-5.2c-4.2-3.3-8.6-4-13.1-2.7c-3.7,1.1-7.2,3.3-11.1,2.5c-4-0.7-8.1-3.8-12.1-5.7
		c-8.2-4-17-0.1-24.4,10.4c-1,1.4-2,1.1-3-0.1L0.1,77.4"/>
	<g id="Dcflss_1_">
		<g>
			<path class="st6" d="M30,33.9c-0.1-0.3-0.2-0.6-0.4-0.8c-0.1-0.4-0.4-0.7-0.5-1.1c-0.1-0.7-0.5-1.3-0.7-1.8
				c-0.1-0.3,0-0.4,0.1-0.6c0.4-0.3,0.6-0.7,1-1s0.9-0.7,1.2-1c8.7-5.1,17.6-10.2,26.3-15.4c2.4-1.4,4.7-2.7,7.1-4.2
				c2.1-1.3,4.2-1.4,6.4-0.3c0.4,0.1,0.9,0.4,1.2,0.6c0.7,0.3,1.5,0.3,2.2-0.1C75,7.6,76,7.1,77.1,6.6c2.6-1.4,5.2-2.8,7.7-4.2
				c0.4-0.1,0.6-0.4,1-0.6c0.2-0.1,0.4-0.3,0.5-0.6C86.5,1,86.6,1,86.8,1c0.4-0.3,0.7-0.4,1.1-0.6c0.1,0,0.2-0.1,0.4-0.1
				c0.2,0,0.5-0.1,0.7-0.3c0.4-0.3,0.7-0.1,0.9,0.3c0.5,1.3,1.1,2.3,1.5,3.5c0.1,0.3,0.2,0.7,0.4,1c0.1,0.4,0.1,0.7-0.2,1
				c-0.1,0.1-0.2,0.1-0.4,0.3c-0.1,0-0.1,0.1-0.2,0.1c-0.4,0.6-1,0.8-1.4,1.1c-1.5,0.7-3,1.6-4.5,2.5c-1.2,0.7-2.2,1.4-3.5,2
				c-1.4,1-3,1.7-4.4,2.7c-1,0.6-1.4,1.4-1.6,2.7c-0.2,1.3-0.5,2.4-1.1,3.5c-0.5,1-1.2,1.7-1.9,2.4c-0.1,0.1-0.4,0.3-0.5,0.4
				c-11.2,6.6-22.6,13.2-33.8,19.8c-0.9,0.6-1.7,1-2.7,1.3c-0.4,0.1-0.5,0-0.7-0.4c-0.1-0.1-0.1-0.3-0.2-0.4
				c-0.2-0.4-0.5-0.8-0.7-1.3c-0.2-0.6-0.5-1-0.7-1.4c0-0.1-0.1-0.3-0.1-0.3C32.1,38.7,31.1,36.2,30,33.9z"/>
		</g>
	</g>
</g>
</svg>
