<svg width="48" height="48" viewBox="0 0 48 48" fill="none" xmlns="http://www.w3.org/2000/svg">
<path d="M33.551 3.00005H33.437C31.6325 2.99514 29.8495 3.39181 28.2172 4.16131C26.585 4.93081 25.1445 6.05386 24 7.44904C22.8566 6.0544 21.4173 4.93164 19.7862 4.16214C18.1552 3.39264 16.3734 2.99568 14.57 3.00005H14.453C11.1585 3.01395 8.00259 4.32727 5.67087 6.65469C3.33915 8.9821 2.01999 12.1356 2 15.43C2 27.2 22.5 44.062 23.367 44.774C23.5456 44.9201 23.7693 44.9999 24 44.9999C24.2307 44.9999 24.4544 44.9201 24.633 44.774C25.505 44.062 46 27.2 46 15.426C45.9805 12.1325 44.662 8.97972 42.3309 6.65294C39.9998 4.32616 36.8446 3.01343 33.551 3.00005Z" fill="#ED7064"/>
<path d="M24 7.44911C23.3765 6.69344 22.6636 6.01616 21.877 5.43211L17 16.0001L26 23.0001L22 35.0001L31 22.0001L23 15.0001L28.471 4.05811C26.7364 4.82396 25.2052 5.98528 24 7.44911Z" fill="#C94D47"/>
</svg>
