<svg width="48" height="48" viewBox="0 0 48 48" fill="none" xmlns="http://www.w3.org/2000/svg">
<path d="M16.7498 31.2498C16.5623 31.0623 16.308 30.957 16.0428 30.957C15.7776 30.957 15.5233 31.0623 15.3358 31.2498L10.5858 35.9998H6.99979C6.73459 35.9999 6.48028 36.1053 6.29279 36.2928L2.29279 40.2928C2.15298 40.4327 2.05777 40.6108 2.0192 40.8048C1.98064 40.9987 2.00044 41.1998 2.07611 41.3825C2.15178 41.5652 2.27992 41.7213 2.44433 41.8312C2.60874 41.9411 2.80204 41.9998 2.99979 41.9998H5.99979V44.9998C5.99974 45.1976 6.05833 45.3909 6.16815 45.5554C6.27798 45.7199 6.4341 45.8481 6.61679 45.9238C6.73812 45.9744 6.86833 46.0002 6.99979 45.9998C7.26498 45.9998 7.51929 45.8944 7.70679 45.7068L11.7068 41.7068C11.8943 41.5193 11.9997 41.265 11.9998 40.9998V37.4138L16.7498 32.6638C16.9373 32.4763 17.0426 32.222 17.0426 31.9568C17.0426 31.6917 16.9373 31.4373 16.7498 31.2498Z" fill="#DDBE99"/>
<path d="M31 8.00002C28.3809 7.99544 25.8657 9.02382 24 10.862C22.5938 9.48371 20.8121 8.5512 18.8781 8.18139C16.9442 7.81159 14.9441 8.02095 13.1286 8.78323C11.3131 9.54552 9.76311 10.8268 8.67286 12.4664C7.58262 14.106 7.00067 16.031 7 18C7 27.368 22.7 40.233 23.369 40.776C23.5473 40.9211 23.7701 41.0002 24 41.0002C24.2299 41.0002 24.4527 40.9211 24.631 40.776C25.3 40.233 41 27.368 41 18C40.9971 15.3487 39.9426 12.8069 38.0679 10.9322C36.1931 9.05743 33.6513 8.00293 31 8.00002Z" fill="#ED7064"/>
<path d="M46.7064 1.29305C46.8325 1.41901 46.9226 1.57637 46.9674 1.74885C47.0123 1.92132 47.0102 2.10265 46.9614 2.27405L44.9614 9.27405C44.9137 9.44166 44.8229 9.59387 44.6982 9.7156C44.5735 9.83733 44.4191 9.92436 44.2504 9.96805C44.1684 9.98907 44.0841 9.99982 43.9994 10.0001C43.7342 9.99999 43.4799 9.8946 43.2924 9.70705L41.4994 7.91405L32.7064 16.7071C32.5178 16.8892 32.2652 16.99 32.003 16.9877C31.7408 16.9854 31.49 16.8803 31.3046 16.6949C31.1192 16.5095 31.014 16.2586 31.0118 15.9965C31.0095 15.7343 31.1103 15.4817 31.2924 15.2931L40.0854 6.50005L38.2924 4.70705C38.1692 4.58388 38.0803 4.43066 38.0345 4.26256C37.9887 4.09446 37.9877 3.91731 38.0314 3.74867C38.0752 3.58003 38.1622 3.42575 38.284 3.3011C38.4057 3.17646 38.5579 3.08578 38.7254 3.03805L45.7254 1.03805C45.8969 0.990238 46.078 0.988644 46.2503 1.03343C46.4226 1.07821 46.5799 1.16779 46.7064 1.29305Z" fill="#DDBE99"/>
<path d="M6.99979 46C6.86833 46.0004 6.73812 45.9746 6.61679 45.924C6.4341 45.8483 6.27798 45.72 6.16815 45.5556C6.05833 45.3911 5.99974 45.1978 5.99979 45V42H2.99979C2.80204 42 2.60874 41.9413 2.44433 41.8314C2.27992 41.7215 2.15178 41.5654 2.07611 41.3827C2.00044 41.2 1.98064 40.9989 2.0192 40.805C2.05777 40.611 2.15298 40.4329 2.29279 40.293L6.29279 36.293C6.48028 36.1054 6.73459 36.0001 6.99979 36H10.9998C11.265 36 11.5194 36.1054 11.7069 36.2929C11.8944 36.4804 11.9998 36.7348 11.9998 37V41C11.9997 41.2652 11.8943 41.5195 11.7068 41.707L7.70679 45.707C7.51929 45.8946 7.26498 45.9999 6.99979 46Z" fill="#C6A279"/>
<path d="M44 9.99989C43.7348 9.99983 43.4805 9.89444 43.293 9.70689L38.293 4.70689C38.1698 4.58372 38.0809 4.4305 38.0351 4.2624C37.9894 4.09429 37.9883 3.91715 38.032 3.74851C38.0758 3.57987 38.1628 3.42558 38.2846 3.30094C38.4063 3.1763 38.5585 3.08562 38.726 3.03789L45.726 1.03789C45.8975 0.988975 46.0789 0.986779 46.2514 1.03153C46.424 1.07628 46.5815 1.16635 46.7075 1.29241C46.8336 1.41846 46.9237 1.57593 46.9684 1.7485C47.0132 1.92106 47.011 2.10246 46.962 2.27389L44.962 9.27389C44.9143 9.44149 44.8235 9.59371 44.6988 9.71544C44.5741 9.83717 44.4198 9.9242 44.251 9.96789C44.169 9.98891 44.0847 9.99966 44 9.99989Z" fill="#C6A279"/>
</svg>
