<svg width="48" height="48" viewBox="0 0 48 48" fill="none" xmlns="http://www.w3.org/2000/svg">
<path d="M24 46C19.6488 46 15.3953 44.7097 11.7775 42.2923C8.15958 39.875 5.33979 36.439 3.67466 32.419C2.00953 28.3991 1.57386 23.9756 2.42273 19.708C3.27161 15.4404 5.36691 11.5204 8.44366 8.44366C11.5204 5.36691 15.4404 3.27161 19.708 2.42273C23.9756 1.57386 28.3991 2.00953 32.419 3.67466C36.439 5.33979 39.875 8.15958 42.2923 11.7775C44.7097 15.3953 46 19.6488 46 24C45.9934 29.8327 43.6734 35.4247 39.5491 39.5491C35.4247 43.6734 29.8327 45.9934 24 46Z" fill="#E86C60"/>
<path d="M33 28C34.6569 28 36 26.6569 36 25C36 23.3431 34.6569 22 33 22C31.3431 22 30 23.3431 30 25C30 26.6569 31.3431 28 33 28Z" fill="#444444"/>
<path d="M15 28C16.6569 28 18 26.6569 18 25C18 23.3431 16.6569 22 15 22C13.3431 22 12 23.3431 12 25C12 26.6569 13.3431 28 15 28Z" fill="#444444"/>
<path d="M17.2919 36.9997C17.0989 36.9997 16.9099 36.9438 16.7479 36.8387C16.5859 36.7337 16.4578 36.584 16.379 36.4077C16.3002 36.2314 16.2742 36.0361 16.304 35.8454C16.3338 35.6546 16.4182 35.4766 16.5469 35.3327C17.4849 34.2842 18.6336 33.4454 19.9178 32.8711C21.2021 32.2968 22.5931 32 23.9999 32C25.4068 32 26.7978 32.2968 28.082 32.8711C29.3663 33.4454 30.515 34.2842 31.4529 35.3327C31.542 35.4303 31.6108 35.5446 31.6554 35.6689C31.7 35.7933 31.7195 35.9252 31.7128 36.0571C31.7062 36.1891 31.6734 36.3184 31.6165 36.4376C31.5596 36.5568 31.4796 36.6635 31.3812 36.7516C31.2827 36.8398 31.1678 36.9075 31.0431 36.951C30.9183 36.9944 30.7862 37.0127 30.6543 37.0048C30.5225 36.9969 30.3935 36.963 30.2748 36.9049C30.1561 36.8469 30.0501 36.7659 29.9629 36.6667C29.2126 35.8277 28.2936 35.1565 27.266 34.6969C26.2385 34.2374 25.1255 33.9999 23.9999 33.9999C22.8743 33.9999 21.7614 34.2374 20.7338 34.6969C19.7063 35.1565 18.7873 35.8277 18.0369 36.6667C17.9431 36.7715 17.8283 36.8553 17.6999 36.9127C17.5716 36.97 17.4325 36.9997 17.2919 36.9997Z" fill="#444444"/>
<path d="M29.9997 21.0005C29.781 21.0006 29.5683 20.9291 29.3942 20.7968C29.2201 20.6646 29.0941 20.4789 29.0355 20.2682C28.977 20.0575 28.9891 19.8334 29.0701 19.6303C29.151 19.4272 29.2963 19.2562 29.4837 19.1435L34.4837 16.1435C34.7108 16.0125 34.9801 15.976 35.2339 16.0417C35.4876 16.1074 35.7054 16.27 35.8404 16.4947C35.9754 16.7193 36.0168 16.988 35.9557 17.2429C35.8946 17.4977 35.7359 17.7184 35.5137 17.8575L30.5137 20.8575C30.3586 20.9511 30.1809 21.0005 29.9997 21.0005Z" fill="#444444"/>
<path d="M18.0001 21.0005C17.819 21.0005 17.6412 20.9511 17.4861 20.8575L12.4861 17.8575C12.264 17.7184 12.1052 17.4977 12.0442 17.2429C11.9831 16.988 12.0245 16.7193 12.1595 16.4947C12.2945 16.27 12.5123 16.1074 12.766 16.0417C13.0197 15.976 13.2891 16.0125 13.5161 16.1435L18.5161 19.1435C18.7035 19.2562 18.8488 19.4272 18.9298 19.6303C19.0107 19.8334 19.0229 20.0575 18.9643 20.2682C18.9058 20.4789 18.7798 20.6646 18.6056 20.7968C18.4315 20.9291 18.2188 21.0006 18.0001 21.0005Z" fill="#444444"/>
</svg>
