<svg width="48" height="48" viewBox="0 0 48 48" fill="none" xmlns="http://www.w3.org/2000/svg">
<path d="M24 46C19.6488 46 15.3953 44.7097 11.7775 42.2923C8.15958 39.875 5.33979 36.439 3.67466 32.419C2.00953 28.3991 1.57386 23.9756 2.42273 19.708C3.27161 15.4404 5.36691 11.5204 8.44366 8.44366C11.5204 5.36691 15.4404 3.27161 19.708 2.42273C23.9756 1.57386 28.3991 2.00953 32.419 3.67466C36.439 5.33979 39.875 8.15958 42.2923 11.7775C44.7097 15.3953 46 19.6488 46 24C45.9934 29.8327 43.6734 35.4247 39.5491 39.5491C35.4247 43.6734 29.8327 45.9934 24 46Z" fill="#FFD764"/>
<path opacity="0.5" d="M38 25C39.6569 25 41 23.6569 41 22C41 20.3431 39.6569 19 38 19C36.3431 19 35 20.3431 35 22C35 23.6569 36.3431 25 38 25Z" fill="#E86C60"/>
<path opacity="0.5" d="M10 25C11.6569 25 13 23.6569 13 22C13 20.3431 11.6569 19 10 19C8.34315 19 7 20.3431 7 22C7 23.6569 8.34315 25 10 25Z" fill="#E86C60"/>
<path d="M19 18C18.7348 18 18.4804 17.8946 18.2929 17.7071C18.1054 17.5196 18 17.2652 18 17C18 16.4696 17.7893 15.9609 17.4142 15.5858C17.0391 15.2107 16.5304 15 16 15C15.4696 15 14.9609 15.2107 14.5858 15.5858C14.2107 15.9609 14 16.4696 14 17C14 17.2652 13.8946 17.5196 13.7071 17.7071C13.5196 17.8946 13.2652 18 13 18C12.7348 18 12.4804 17.8946 12.2929 17.7071C12.1054 17.5196 12 17.2652 12 17C12 15.9391 12.4214 14.9217 13.1716 14.1716C13.9217 13.4214 14.9391 13 16 13C17.0609 13 18.0783 13.4214 18.8284 14.1716C19.5786 14.9217 20 15.9391 20 17C20 17.2652 19.8946 17.5196 19.7071 17.7071C19.5196 17.8946 19.2652 18 19 18Z" fill="#444444"/>
<path d="M35 18C34.7348 18 34.4804 17.8946 34.2929 17.7071C34.1054 17.5196 34 17.2652 34 17C34 16.4696 33.7893 15.9609 33.4142 15.5858C33.0391 15.2107 32.5304 15 32 15C31.4696 15 30.9609 15.2107 30.5858 15.5858C30.2107 15.9609 30 16.4696 30 17C30 17.2652 29.8946 17.5196 29.7071 17.7071C29.5196 17.8946 29.2652 18 29 18C28.7348 18 28.4804 17.8946 28.2929 17.7071C28.1054 17.5196 28 17.2652 28 17C28 15.9391 28.4214 14.9217 29.1716 14.1716C29.9217 13.4214 30.9391 13 32 13C33.0609 13 34.0783 13.4214 34.8284 14.1716C35.5786 14.9217 36 15.9391 36 17C36 17.2652 35.8946 17.5196 35.7071 17.7071C35.5196 17.8946 35.2652 18 35 18Z" fill="#444444"/>
<path d="M24.0594 30C22.4738 29.9965 20.9171 29.5753 19.546 28.7788C18.1749 27.9824 17.0379 26.8387 16.2494 25.463C16.1176 25.2328 16.0826 24.9597 16.1522 24.7037C16.2218 24.4477 16.3902 24.2299 16.6204 24.098C16.8506 23.9662 17.1238 23.9313 17.3797 24.0008C17.6357 24.0704 17.8536 24.2388 17.9854 24.469C18.596 25.5413 19.4795 26.4329 20.5463 27.053C21.613 27.6732 22.825 27.9999 24.0589 27.9999C25.2928 27.9999 26.5048 27.6732 27.5715 27.053C28.6383 26.4329 29.5219 25.5413 30.1324 24.469C30.2642 24.2388 30.4821 24.0704 30.7381 24.0008C30.9941 23.9313 31.2672 23.9662 31.4974 24.098C31.7276 24.2299 31.896 24.4477 31.9656 24.7037C32.0352 24.9597 32.0002 25.2328 31.8684 25.463C31.0801 26.8386 29.9432 27.9822 28.5723 28.7787C27.2014 29.5752 25.6449 29.9965 24.0594 30Z" fill="#444444"/>
<path d="M16.0004 41.0002H21.5004C21.8983 41.0002 22.2798 40.8421 22.5611 40.5608C22.8424 40.2795 23.0004 39.898 23.0004 39.5002C23.0004 39.1023 22.8424 38.7208 22.5611 38.4395C22.2798 38.1582 21.8983 38.0002 21.5004 38.0002H16.0004C15.7352 38.0002 15.4809 37.8948 15.2933 37.7073C15.1058 37.5197 15.0004 37.2654 15.0004 37.0002C15.0004 36.7349 15.1058 36.4806 15.2933 36.2931C15.4809 36.1055 15.7352 36.0002 16.0004 36.0002H20.5004C20.8983 36.0002 21.2798 35.8421 21.5611 35.5608C21.8424 35.2795 22.0004 34.898 22.0004 34.5002C22.0004 34.1023 21.8424 33.7208 21.5611 33.4395C21.2798 33.1582 20.8983 33.0002 20.5004 33.0002H11.5164L13.6164 30.9002C13.9808 30.523 14.1823 30.0178 14.1778 29.4934C14.1732 28.969 13.9629 28.4673 13.5921 28.0965C13.2213 27.7257 12.7196 27.5154 12.1952 27.5108C11.6708 27.5063 11.1656 27.7078 10.7884 28.0722C10.7884 28.0722 4.16544 34.7122 3.70044 35.1822C2.80321 36.1353 2.22843 37.3464 2.05744 38.6442C1.93685 39.5617 2.01334 40.4945 2.28182 41.3801C2.55029 42.2658 3.00456 43.084 3.61433 43.7802C4.22409 44.4763 4.97533 45.0345 5.81789 45.4173C6.66046 45.8001 7.57498 45.9988 8.50044 46.0002H20.5004C20.8983 46.0002 21.2798 45.8421 21.5611 45.5608C21.8424 45.2795 22.0004 44.898 22.0004 44.5002C22.0004 44.1023 21.8424 43.7208 21.5611 43.4395C21.2798 43.1582 20.8983 43.0002 20.5004 43.0002H16.0004C15.7352 43.0002 15.4809 42.8948 15.2933 42.7073C15.1058 42.5197 15.0004 42.2654 15.0004 42.0002C15.0004 41.7349 15.1058 41.4806 15.2933 41.2931C15.4809 41.1055 15.7352 41.0002 16.0004 41.0002Z" fill="#E2AC4B"/>
<path d="M32 41.0005H26.5C26.1022 41.0005 25.7206 40.8425 25.4393 40.5612C25.158 40.2798 25 39.8983 25 39.5005C25 39.1027 25.158 38.7211 25.4393 38.4398C25.7206 38.1585 26.1022 38.0005 26.5 38.0005H32C32.2652 38.0005 32.5196 37.8951 32.7071 37.7076C32.8946 37.5201 33 37.2657 33 37.0005C33 36.7353 32.8946 36.4809 32.7071 36.2934C32.5196 36.1058 32.2652 36.0005 32 36.0005H27.5C27.1022 36.0005 26.7206 35.8425 26.4393 35.5612C26.158 35.2798 26 34.8983 26 34.5005C26 34.1027 26.158 33.7211 26.4393 33.4398C26.7206 33.1585 27.1022 33.0005 27.5 33.0005H36.484L34.384 30.9005C34.193 30.716 34.0406 30.4953 33.9358 30.2513C33.831 30.0073 33.7758 29.7449 33.7735 29.4793C33.7712 29.2137 33.8218 28.9504 33.9224 28.7046C34.0229 28.4588 34.1714 28.2355 34.3592 28.0477C34.547 27.8599 34.7703 27.7114 35.0161 27.6108C35.2619 27.5103 35.5252 27.4597 35.7908 27.462C36.0564 27.4643 36.3188 27.5195 36.5628 27.6243C36.8068 27.7291 37.0275 27.8815 37.212 28.0725C37.212 28.0725 43.836 34.7145 44.303 35.1845C45.2002 36.1376 45.775 37.3487 45.946 38.6465C46.0663 39.5642 45.9895 40.4969 45.7207 41.3826C45.4519 42.2682 44.9973 43.0863 44.3873 43.7823C43.7772 44.4783 43.0257 45.0361 42.183 45.4187C41.3402 45.8012 40.4255 45.9995 39.5 46.0005H27.5C27.1022 46.0005 26.7206 45.8425 26.4393 45.5612C26.158 45.2798 26 44.8983 26 44.5005C26 44.1027 26.158 43.7211 26.4393 43.4398C26.7206 43.1585 27.1022 43.0005 27.5 43.0005H32C32.2652 43.0005 32.5196 42.8951 32.7071 42.7076C32.8946 42.5201 33 42.2657 33 42.0005C33 41.7353 32.8946 41.4809 32.7071 41.2934C32.5196 41.1058 32.2652 41.0005 32 41.0005Z" fill="#E2AC4B"/>
</svg>
