<svg width="48" height="48" viewBox="0 0 48 48" fill="none" xmlns="http://www.w3.org/2000/svg">
<path d="M2 7C1.448 7 1 7.448 1 8V18C1 18.552 1.448 19 2 19H38C38.552 19 39 18.552 39 18V8C39 7.448 38.552 7 38 7H2Z" fill="#E86C60"/>
<path d="M16 14H10C9.447 14 9 13.552 9 13C9 12.448 9.447 12 10 12H16C16.553 12 17 12.448 17 13C17 13.552 16.553 14 16 14Z" fill="#C64B4B"/>
<path d="M23 14H21C20.447 14 20 13.552 20 13C20 12.448 20.447 12 21 12H23C23.553 12 24 12.448 24 13C24 13.552 23.553 14 23 14Z" fill="#C64B4B"/>
<path d="M2 31C1.448 31 1 31.448 1 32V42C1 42.552 1.448 43 2 43H38C38.552 43 39 42.552 39 42V32C39 31.448 38.552 31 38 31H2Z" fill="#9BCED3"/>
<path d="M16 38H10C9.447 38 9 37.552 9 37C9 36.448 9.447 36 10 36H16C16.553 36 17 36.448 17 37C17 37.552 16.553 38 16 38Z" fill="#76B5B5"/>
<path d="M23 38H21C20.447 38 20 37.552 20 37C20 36.448 20.447 36 21 36H23C23.553 36 24 36.448 24 37C24 37.552 23.553 38 23 38Z" fill="#76B5B5"/>
<path d="M9 20V30C9 30.552 9.448 31 10 31H46C46.552 31 47 30.552 47 30V20C47 19.448 46.552 19 46 19H10C9.448 19 9 19.448 9 20Z" fill="#DDBE99"/>
<path d="M24 26H18C17.447 26 17 25.552 17 25C17 24.448 17.447 24 18 24H24C24.553 24 25 24.448 25 25C25 25.552 24.553 26 24 26Z" fill="#C6A279"/>
<path d="M31 26H29C28.447 26 28 25.552 28 25C28 24.448 28.447 24 29 24H31C31.553 24 32 24.448 32 25C32 25.552 31.553 26 31 26Z" fill="#C6A279"/>
</svg>
