<svg width="48" height="48" viewBox="0 0 48 48" fill="none" xmlns="http://www.w3.org/2000/svg">
<path d="M24 46C19.6488 46 15.3953 44.7097 11.7775 42.2923C8.15958 39.875 5.33979 36.439 3.67466 32.419C2.00953 28.3991 1.57386 23.9756 2.42273 19.708C3.27161 15.4404 5.36691 11.5204 8.44366 8.44366C11.5204 5.36691 15.4404 3.27161 19.708 2.42273C23.9756 1.57386 28.3991 2.00953 32.419 3.67466C36.439 5.33979 39.875 8.15958 42.2923 11.7775C44.7097 15.3953 46 19.6488 46 24C45.9934 29.8327 43.6734 35.4247 39.5491 39.5491C35.4247 43.6734 29.8327 45.9934 24 46Z" fill="#FA645A"/>
<path d="M30.0004 23.9998C29.7814 24.0003 29.5683 23.9289 29.3938 23.7966C29.2193 23.6643 29.0931 23.4784 29.0345 23.2674C28.9759 23.0564 28.9882 22.832 29.0695 22.6287C29.1507 22.4253 29.2965 22.2543 29.4844 22.1418L34.4844 19.1418C34.7118 19.0052 34.9842 18.9646 35.2416 19.0288C35.499 19.093 35.7203 19.2569 35.8569 19.4843C35.9935 19.7117 36.0341 19.9841 35.9699 20.2415C35.9057 20.4989 35.7418 20.7202 35.5144 20.8568L30.5144 23.8568C30.3593 23.9504 30.1816 23.9999 30.0004 23.9998Z" fill="#444444"/>
<path d="M18.0002 23.9998C17.8191 23.9999 17.6413 23.9504 17.4862 23.8568L12.4862 20.8568C12.2588 20.7202 12.095 20.4989 12.0307 20.2415C11.9665 19.9841 12.0072 19.7117 12.1437 19.4843C12.2803 19.2569 12.5017 19.093 12.7591 19.0288C13.0165 18.9646 13.2888 19.0052 13.5162 19.1418L18.5162 22.1418C18.7041 22.2543 18.8499 22.4253 18.9312 22.6287C19.0124 22.832 19.0247 23.0564 18.9661 23.2674C18.9075 23.4784 18.7813 23.6643 18.6068 23.7966C18.4323 23.9289 18.2192 24.0003 18.0002 23.9998Z" fill="#444444"/>
<path d="M34.9774 31C34.5154 30.3806 33.9155 29.8774 33.2252 29.5303C32.5348 29.1831 31.7731 29.0016 31.0004 29H17.0004C16.2277 29.0016 15.466 29.1831 14.7757 29.5303C14.0854 29.8774 13.4854 30.3806 13.0234 31H34.9774Z" fill="white"/>
<path d="M13.0234 37C13.4854 37.6194 14.0854 38.1226 14.7757 38.4697C15.466 38.8169 16.2277 38.9984 17.0004 39H31.0004C31.7731 38.9984 32.5348 38.8169 33.2252 38.4697C33.9155 38.1226 34.5154 37.6194 34.9774 37H13.0234Z" fill="white"/>
<path d="M34.965 37C35.6286 36.1438 35.9923 35.0932 36 34.01V33.98C35.9924 32.9018 35.6332 31.8555 34.977 31H13.023C12.3668 31.8555 12.0076 32.9018 12 33.98V34.01C12.0077 35.0932 12.3714 36.1438 13.035 37H34.965Z" fill="#444444"/>
</svg>
