<svg width="22" height="22" viewBox="0 0 22 22" fill="none" xmlns="http://www.w3.org/2000/svg">
<g clip-path="url(#clip0)">
<path d="M11.9739 21.0893C10.1102 21.0893 8.2883 20.5367 6.73868 19.5012C5.18906 18.4658 3.98128 16.9941 3.26807 15.2723C2.55486 13.5505 2.36826 11.6558 2.73185 9.82789C3.09544 8 3.9929 6.32096 5.31074 5.00312C6.62858 3.68528 8.30761 2.78782 10.1355 2.42423C11.9634 2.06064 13.8581 2.24725 15.5799 2.96046C17.3018 3.67367 18.7734 4.88145 19.8089 6.43106C20.8443 7.98068 21.3969 9.80254 21.3969 11.6662C21.3941 14.1645 20.4004 16.5597 18.6338 18.3262C16.8673 20.0928 14.4721 21.0865 11.9739 21.0893Z" fill="#FFD764"/>
<path d="M8.38424 17.0507C8.02722 17.0507 7.68482 16.9089 7.43237 16.6564C7.17991 16.404 7.03809 16.0616 7.03809 15.7046C7.03809 15.3475 7.17991 15.0051 7.43237 14.7527C7.68482 14.5002 8.02722 14.3584 8.38424 14.3584C8.50325 14.3584 8.61738 14.4057 8.70153 14.4898C8.78568 14.574 8.83296 14.6881 8.83296 14.8071C8.83296 14.9261 8.78568 15.0403 8.70153 15.1244C8.61738 15.2086 8.50325 15.2558 8.38424 15.2558C8.26523 15.2558 8.1511 15.3031 8.06695 15.3873C7.9828 15.4714 7.93552 15.5855 7.93552 15.7046C7.93552 15.8236 7.9828 15.9377 8.06695 16.0218C8.1511 16.106 8.26523 16.1533 8.38424 16.1533C8.50325 16.1533 8.61738 16.2005 8.70153 16.2847C8.78568 16.3688 8.83296 16.483 8.83296 16.602C8.83296 16.721 8.78568 16.8351 8.70153 16.9193C8.61738 17.0034 8.50325 17.0507 8.38424 17.0507Z" fill="#444444"/>
<path d="M8.38424 8.97356C8.02722 8.97356 7.68482 8.83173 7.43237 8.57928C7.17991 8.32683 7.03809 7.98443 7.03809 7.6274C7.03809 7.27038 7.17991 6.92798 7.43237 6.67553C7.68482 6.42308 8.02722 6.28125 8.38424 6.28125C8.50325 6.28125 8.61738 6.32853 8.70153 6.41268C8.78568 6.49683 8.83296 6.61096 8.83296 6.72997C8.83296 6.84898 8.78568 6.96311 8.70153 7.04726C8.61738 7.13141 8.50325 7.17869 8.38424 7.17869C8.26523 7.17869 8.1511 7.22596 8.06695 7.31011C7.9828 7.39426 7.93552 7.5084 7.93552 7.6274C7.93552 7.74641 7.9828 7.86054 8.06695 7.9447C8.1511 8.02885 8.26523 8.07612 8.38424 8.07612C8.50325 8.07612 8.61738 8.1234 8.70153 8.20755C8.78568 8.2917 8.83296 8.40583 8.83296 8.52484C8.83296 8.64385 8.78568 8.75798 8.70153 8.84213C8.61738 8.92628 8.50325 8.97356 8.38424 8.97356Z" fill="#444444"/>
<path d="M13.769 15.7049C13.65 15.7049 13.5359 15.6576 13.4517 15.5734C13.3676 15.4893 13.3203 15.3751 13.3203 15.2561V8.07665C13.3203 7.95764 13.3676 7.84351 13.4517 7.75936C13.5359 7.6752 13.65 7.62793 13.769 7.62793H14.2177V15.7049H13.769Z" fill="white"/>
<path d="M3.44817 18.3975H2.10201C1.74499 18.3975 1.40259 18.5393 1.15014 18.7917C0.897686 19.0442 0.755859 19.3866 0.755859 19.7436C0.755859 20.1006 0.897686 20.443 1.15014 20.6955C1.40259 20.9479 1.74499 21.0898 2.10201 21.0898H3.44817C3.80519 21.0898 4.14759 20.9479 4.40004 20.6955C4.65249 20.443 4.79432 20.1006 4.79432 19.7436C4.79432 19.3866 4.65249 19.0442 4.40004 18.7917C4.14759 18.5393 3.80519 18.3975 3.44817 18.3975Z" fill="#FFD764"/>
<path d="M14.2178 7.6543V15.6783C15.2024 15.565 16.111 15.0935 16.7705 14.3537C17.4301 13.6139 17.7946 12.6574 17.7946 11.6663C17.7946 10.6752 17.4301 9.71864 16.7705 8.97883C16.111 8.23903 15.2024 7.7676 14.2178 7.6543Z" fill="#AE453E"/>
<path d="M17.1556 13.8585C17.581 13.2064 17.8075 12.4447 17.8075 11.6661C17.8075 10.8875 17.581 10.1257 17.1556 9.47363C16.8027 9.72013 16.5145 10.0482 16.3156 10.4298C16.1166 10.8115 16.0127 11.2356 16.0127 11.6661C16.0127 12.0965 16.1166 12.5206 16.3156 12.9023C16.5145 13.284 16.8027 13.612 17.1556 13.8585Z" fill="#FA645A"/>
</g>
<defs>
<clipPath id="clip0">
<rect width="21.5385" height="21.5385" fill="white" transform="translate(0.307617)"/>
</clipPath>
</defs>
</svg>
