<svg width="48" height="48" viewBox="0 0 48 48" fill="none" xmlns="http://www.w3.org/2000/svg">
<path d="M24 2.87598L6 17.6V44C6 44.5304 6.21071 45.0391 6.58579 45.4142C6.96086 45.7893 7.46957 46 8 46H40C40.5304 46 41.0391 45.7893 41.4142 45.4142C41.7893 45.0391 42 44.5304 42 44V17.6L24 2.87598Z" fill="#EAD8C5"/>
<path d="M45.9999 21.9998C45.7694 21.9996 45.5462 21.9197 45.3679 21.7738L23.9999 4.29185L2.63285 21.7738C2.42708 21.9369 2.16543 22.0125 1.90438 21.9844C1.64334 21.9562 1.40385 21.8265 1.23763 21.6232C1.07141 21.42 0.991793 21.1595 1.01597 20.8981C1.04015 20.6366 1.16618 20.3952 1.36685 20.2258L23.3669 2.22585C23.5455 2.07979 23.7691 2 23.9999 2C24.2306 2 24.4542 2.07979 24.6329 2.22585L46.6329 20.2258C46.7925 20.3565 46.9079 20.5332 46.9631 20.732C47.0184 20.9307 47.0108 21.1416 46.9415 21.3359C46.8722 21.5302 46.7445 21.6983 46.5759 21.8171C46.4073 21.936 46.2061 21.9998 45.9999 21.9998Z" fill="#E86C60"/>
<path d="M32.6943 19.2801C32.5938 19.1812 32.4732 19.105 32.3407 19.0567C32.2082 19.0083 32.0669 18.9891 31.9263 19.0001C31.5593 19.0271 22.8753 19.7081 19.2933 23.2901C14.9063 27.6771 16.9623 34.0441 17.0523 34.3131C17.1021 34.463 17.1867 34.5989 17.2991 34.7098C17.4116 34.8207 17.5487 34.9034 17.6993 34.9511C18.9285 35.3019 20.201 35.4779 21.4793 35.4741C22.8078 35.5173 24.1317 35.2945 25.3729 34.8188C26.6142 34.3431 27.7478 33.6241 28.7073 32.7041C32.6193 28.8001 32.9853 20.3941 33.0003 20.0391C33.0057 19.8981 32.9812 19.7577 32.9285 19.6269C32.8757 19.496 32.7959 19.3779 32.6943 19.2801Z" fill="#72C472"/>
<path d="M13.9998 38.9994C13.802 38.9994 13.6087 38.9407 13.4443 38.8308C13.2799 38.7209 13.1518 38.5648 13.0761 38.3821C13.0004 38.1994 12.9806 37.9984 13.0192 37.8044C13.0578 37.6104 13.153 37.4323 13.2928 37.2924L23.2928 27.2924C23.4814 27.1103 23.734 27.0095 23.9962 27.0118C24.2584 27.014 24.5092 27.1192 24.6946 27.3046C24.88 27.49 24.9852 27.7408 24.9875 28.003C24.9897 28.2652 24.8889 28.5178 24.7068 28.7064L14.7068 38.7064C14.5193 38.894 14.265 38.9994 13.9998 38.9994Z" fill="#4DA34D"/>
</svg>
