<svg width="48" height="48" viewBox="0 0 48 48" fill="none" xmlns="http://www.w3.org/2000/svg">
<path d="M37.6482 32.9789L15.0212 10.3519C14.9008 10.2313 14.7515 10.1435 14.5875 10.0968C14.4236 10.0501 14.2504 10.0461 14.0845 10.0852C13.9186 10.1243 13.7654 10.2051 13.6395 10.3201C13.5136 10.435 13.4192 10.5802 13.3652 10.7419L2.05222 44.6839C2.00217 44.8341 1.98853 44.9941 2.01241 45.1507C2.03629 45.3072 2.09702 45.4559 2.18958 45.5844C2.28215 45.7129 2.40391 45.8175 2.54484 45.8898C2.68578 45.962 2.84185 45.9997 3.00022 45.9999C3.10768 45.9998 3.21442 45.9823 3.31622 45.9479L37.2582 34.6349C37.4199 34.5809 37.5651 34.4865 37.68 34.3606C37.7949 34.2347 37.8758 34.0815 37.9149 33.9156C37.9539 33.7497 37.95 33.5765 37.9033 33.4126C37.8566 33.2486 37.7688 33.0993 37.6482 32.9789Z" fill="#EFD358"/>
<path d="M37.6475 34.3938C39.6001 32.4412 35.8011 25.4764 29.1622 18.8374C22.5233 12.1985 15.5585 8.39954 13.6058 10.3522C11.6532 12.3048 15.4522 19.2696 22.0911 25.9085C28.73 32.5474 35.6949 36.3464 37.6475 34.3938Z" fill="#E2AC4B"/>
<path d="M31.0002 25.0001C30.8321 24.9993 30.667 24.9562 30.52 24.8747C30.373 24.7932 30.2489 24.676 30.1592 24.5339C30.0695 24.3918 30.0171 24.2293 30.0068 24.0616C29.9964 23.8938 30.0286 23.7262 30.1002 23.5741C32.6162 18.2251 38.9052 16.3741 45.3902 19.0741C45.635 19.1762 45.8292 19.3714 45.9301 19.6167C46.031 19.862 46.0303 20.1373 45.9282 20.3821C45.8261 20.6269 45.6309 20.8211 45.3856 20.922C45.1403 21.0229 44.865 21.0222 44.6202 20.9201C39.1692 18.6501 33.9462 20.0921 31.9102 24.4201C31.8298 24.5937 31.7014 24.7406 31.5401 24.8434C31.3788 24.9462 31.1914 25.0006 31.0002 25.0001Z" fill="#43A6DD"/>
<path d="M37 12C38.6569 12 40 10.6569 40 9C40 7.34315 38.6569 6 37 6C35.3431 6 34 7.34315 34 9C34 10.6569 35.3431 12 37 12Z" fill="#E86C60"/>
<path d="M41 41C42.1046 41 43 40.1046 43 39C43 37.8954 42.1046 37 41 37C39.8954 37 39 37.8954 39 39C39 40.1046 39.8954 41 41 41Z" fill="#E2AC4B"/>
<path d="M28 20C29.1046 20 30 19.1046 30 18C30 16.8954 29.1046 16 28 16C26.8954 16 26 16.8954 26 18C26 19.1046 26.8954 20 28 20Z" fill="#5A7A84"/>
<path d="M42.5 28C43.3284 28 44 27.3284 44 26.5C44 25.6716 43.3284 25 42.5 25C41.6716 25 41 25.6716 41 26.5C41 27.3284 41.6716 28 42.5 28Z" fill="#AE453E"/>
<path d="M17.5 6C18.3284 6 19 5.32843 19 4.5C19 3.67157 18.3284 3 17.5 3C16.6716 3 16 3.67157 16 4.5C16 5.32843 16.6716 6 17.5 6Z" fill="#E2AC4B"/>
<path d="M21 19.0001C20.7901 19.0001 20.5856 18.9341 20.4153 18.8113C20.245 18.6886 20.1177 18.5154 20.0513 18.3163C19.9849 18.1172 19.9829 17.9023 20.0455 17.7019C20.1081 17.5016 20.2321 17.326 20.4 17.2001C22.6314 15.5388 24.2178 13.1553 24.889 10.4555C25.5601 7.75582 25.2746 4.90691 24.081 2.39409C23.9809 2.15115 23.9805 1.87858 24.0798 1.63531C24.179 1.39204 24.3701 1.19762 24.6116 1.09409C24.8531 0.990557 25.1256 0.986227 25.3703 1.08204C25.6149 1.17785 25.812 1.3661 25.919 1.60609C27.2987 4.52934 27.6224 7.8405 26.8349 10.9756C26.0473 14.1107 24.1974 16.8758 21.6 18.8001C21.4271 18.9303 21.2164 19.0005 21 19.0001Z" fill="#E86C60"/>
<path d="M4.17192 13.8279C3.90672 13.8279 3.65241 13.7225 3.46492 13.5349C2.98737 13.0737 2.60646 12.522 2.34441 11.9119C2.08237 11.3019 1.94443 10.6458 1.93867 9.98192C1.9329 9.31803 2.0594 8.65963 2.31081 8.04515C2.56221 7.43067 2.93348 6.87241 3.40294 6.40294C3.87241 5.93348 4.43067 5.56221 5.04515 5.31081C5.65963 5.0594 6.31803 4.9329 6.98192 4.93867C7.64582 4.94443 8.30192 5.08237 8.91194 5.34441C9.52196 5.60646 10.0737 5.98737 10.5349 6.46492C10.7171 6.65352 10.8179 6.90612 10.8156 7.16832C10.8133 7.43052 10.7081 7.68133 10.5227 7.86674C10.3373 8.05214 10.0865 8.15731 9.82432 8.15959C9.56212 8.16187 9.30952 8.06108 9.12092 7.87892C8.54947 7.33351 7.78987 7.0292 6.99992 7.0292C6.20996 7.0292 5.45037 7.33351 4.87892 7.87892C4.3165 8.4415 4.00056 9.20442 4.00056 9.99992C4.00056 10.7954 4.3165 11.5583 4.87892 12.1209C5.01873 12.2608 5.11393 12.4389 5.1525 12.6329C5.19107 12.8268 5.17127 13.0279 5.0956 13.2106C5.01993 13.3933 4.89179 13.5494 4.72738 13.6593C4.56297 13.7692 4.36967 13.8279 4.17192 13.8279Z" fill="#43A6DD"/>
</svg>
