<svg width="48" height="48" viewBox="0 0 48 48" fill="none" xmlns="http://www.w3.org/2000/svg">
<path d="M25.0004 8.00017C27.2433 8.00197 29.412 7.19697 31.1104 5.73217C31.6774 5.2598 32.1957 4.73183 32.6574 4.15617C32.8327 3.94239 32.995 3.71833 33.1434 3.48517C33.2561 3.29784 33.427 3.15258 33.63 3.07162C33.8331 2.99065 34.057 2.97844 34.2677 3.03686C34.4783 3.09527 34.664 3.2211 34.7963 3.39507C34.9287 3.56904 35.0004 3.78159 35.0004 4.00017V14.0002C35.0004 16.1219 34.1576 18.1567 32.6573 19.657C31.157 21.1573 29.1222 22.0002 27.0004 22.0002H20.2934C18.438 22.0272 16.6437 21.3369 15.2849 20.0731C13.9261 18.8093 13.1077 17.0697 13.0004 15.2172C12.9714 14.2798 13.1309 13.3462 13.4697 12.4717C13.8084 11.5972 14.3194 10.7997 14.9724 10.1265C15.6253 9.45337 16.4068 8.91826 17.2706 8.55299C18.1343 8.18771 19.0626 7.99972 20.0004 8.00017H25.0004Z" fill="#A67C52"/>
<path d="M14 32C12.1435 32 10.363 31.2625 9.05025 29.9497C7.7375 28.637 7 26.8565 7 25C7 23.1435 7.7375 21.363 9.05025 20.0503C10.363 18.7375 12.1435 18 14 18H34C35.8565 18 37.637 18.7375 38.9497 20.0503C40.2625 21.363 41 23.1435 41 25C41 26.8565 40.2625 28.637 38.9497 29.9497C37.637 31.2625 35.8565 32 34 32H14Z" fill="#A67C52"/>
<path d="M40 44H8C6.14348 44 4.36301 43.2625 3.05025 41.9497C1.7375 40.637 1 38.8565 1 37C1 35.1435 1.7375 33.363 3.05025 32.0503C4.36301 30.7375 6.14348 30 8 30H40C41.8565 30 43.637 30.7375 44.9497 32.0503C46.2625 33.363 47 35.1435 47 37C47 38.8565 46.2625 40.637 44.9497 41.9497C43.637 43.2625 41.8565 44 40 44Z" fill="#A67C52"/>
<path d="M17 28C19.2091 28 21 26.2091 21 24C21 21.7909 19.2091 20 17 20C14.7909 20 13 21.7909 13 24C13 26.2091 14.7909 28 17 28Z" fill="white"/>
<path d="M31 28C33.2091 28 35 26.2091 35 24C35 21.7909 33.2091 20 31 20C28.7909 20 27 21.7909 27 24C27 26.2091 28.7909 28 31 28Z" fill="white"/>
<path d="M17 26C18.1046 26 19 25.1046 19 24C19 22.8954 18.1046 22 17 22C15.8954 22 15 22.8954 15 24C15 25.1046 15.8954 26 17 26Z" fill="#444444"/>
<path d="M31 26C32.1046 26 33 25.1046 33 24C33 22.8954 32.1046 22 31 22C29.8954 22 29 22.8954 29 24C29 25.1046 29.8954 26 31 26Z" fill="#444444"/>
<path d="M24 40C22.1441 39.9979 20.3649 39.2597 19.0526 37.9474C17.7403 36.6351 17.0021 34.8559 17 33C17 32.7348 17.1054 32.4804 17.2929 32.2929C17.4804 32.1054 17.7348 32 18 32C18.2652 32 18.5196 32.1054 18.7071 32.2929C18.8946 32.4804 19 32.7348 19 33C19 34.3261 19.5268 35.5979 20.4645 36.5355C21.4021 37.4732 22.6739 38 24 38C25.3261 38 26.5979 37.4732 27.5355 36.5355C28.4732 35.5979 29 34.3261 29 33C29 32.7348 29.1054 32.4804 29.2929 32.2929C29.4804 32.1054 29.7348 32 30 32C30.2652 32 30.5196 32.1054 30.7071 32.2929C30.8946 32.4804 31 32.7348 31 33C30.9979 34.8559 30.2597 36.6351 28.9474 37.9474C27.6351 39.2597 25.8559 39.9979 24 40Z" fill="#444444"/>
</svg>
