<svg width="48" height="48" viewBox="0 0 48 48" fill="none" xmlns="http://www.w3.org/2000/svg">
<path d="M24 46C19.6488 46 15.3953 44.7097 11.7775 42.2923C8.15958 39.875 5.33979 36.439 3.67466 32.419C2.00953 28.3991 1.57386 23.9756 2.42273 19.708C3.27161 15.4404 5.36691 11.5204 8.44366 8.44366C11.5204 5.36691 15.4404 3.27161 19.708 2.42273C23.9756 1.57386 28.3991 2.00953 32.419 3.67466C36.439 5.33979 39.875 8.15958 42.2923 11.7775C44.7097 15.3953 46 19.6488 46 24C45.9934 29.8327 43.6734 35.4247 39.5491 39.5491C35.4247 43.6734 29.8327 45.9934 24 46Z" fill="#FFD764"/>
<path d="M35.6 32C35.8601 31.021 35.9945 30.0129 36 29C36 28.7348 35.8946 28.4804 35.7071 28.2929C35.5196 28.1054 35.2652 28 35 28H13C12.7348 28 12.4804 28.1054 12.2929 28.2929C12.1054 28.4804 12 28.7348 12 29C12.0038 30.0127 12.1366 31.0208 12.395 32H35.6Z" fill="white"/>
<path d="M12.4004 32C13.0655 34.5707 14.5657 36.8476 16.6653 38.4731C18.765 40.0986 21.3451 40.9806 24.0004 40.9806C26.6557 40.9806 29.2358 40.0986 31.3354 38.4731C33.4351 36.8476 34.9353 34.5707 35.6004 32H12.4004Z" fill="#AE453E"/>
<path d="M18.0137 39.3848C19.8312 40.4426 21.8967 41 23.9997 41C26.1027 41 28.1681 40.4426 29.9857 39.3848C29.3647 38.3521 28.4871 37.4976 27.4381 36.9044C26.3892 36.3113 25.2047 35.9995 23.9997 35.9995C22.7946 35.9995 21.6101 36.3113 20.5612 36.9044C19.5123 37.4976 18.6347 38.3521 18.0137 39.3848Z" fill="#E86C60"/>
<path d="M12 24.9998C11.7744 25.0002 11.5554 24.9244 11.3784 24.7847C11.2013 24.6449 11.0768 24.4494 11.0249 24.2299C10.973 24.0104 10.9968 23.7798 11.0925 23.5756C11.1882 23.3713 11.3501 23.2054 11.552 23.1048L15.764 20.9998L11.553 18.8998C11.3156 18.7813 11.1351 18.5733 11.051 18.3216C10.967 18.0699 10.9864 17.7952 11.105 17.5578C11.2235 17.3204 11.4315 17.1399 11.6832 17.0559C11.9349 16.9719 12.2096 16.9913 12.447 17.1098L18.447 20.1098C18.6134 20.1927 18.7534 20.3204 18.8512 20.4785C18.9491 20.6366 19.0009 20.8189 19.0009 21.0048C19.0009 21.1907 18.9491 21.373 18.8512 21.5311C18.7534 21.6892 18.6134 21.8169 18.447 21.8998L12.447 24.8998C12.3077 24.9673 12.1547 25.0015 12 24.9998Z" fill="#444444"/>
<path d="M35.9999 24.9999C35.8451 24.9999 35.6925 24.964 35.5539 24.8949L29.5539 21.8949C29.3875 21.812 29.2475 21.6843 29.1497 21.5262C29.0518 21.3681 29 21.1859 29 20.9999C29 20.814 29.0518 20.6318 29.1497 20.4737C29.2475 20.3156 29.3875 20.1879 29.5539 20.1049L35.5539 17.1049C35.6715 17.0462 35.7994 17.0113 35.9305 17.002C36.0615 16.9927 36.1931 17.0094 36.3177 17.051C36.4423 17.0926 36.5575 17.1583 36.6567 17.2445C36.756 17.3306 36.8372 17.4354 36.8959 17.5529C36.9546 17.6705 36.9896 17.7984 36.9989 17.9295C37.0081 18.0605 36.9915 18.1921 36.9499 18.3167C36.9083 18.4413 36.8425 18.5565 36.7564 18.6557C36.6703 18.755 36.5655 18.8362 36.4479 18.8949L32.2359 20.9999L36.4469 23.1049C36.6487 23.2055 36.8106 23.3713 36.9063 23.5754C37.002 23.7796 37.0259 24.0101 36.9742 24.2295C36.9224 24.449 36.798 24.6445 36.6212 24.7843C36.4443 24.9242 36.2254 25.0001 35.9999 24.9999Z" fill="#444444"/>
</svg>
