<svg width="48" height="48" viewBox="0 0 48 48" fill="none" xmlns="http://www.w3.org/2000/svg">
<path d="M46.0044 0H36.9956C36.4457 0 36 0.443359 36 1.00928V2.9906C36 3.5481 36.4379 4 37.0029 4H40.1719L34.0677 10.1042C32.0309 8.77832 29.6063 8 27 8V12C31.9624 12 36 16.0371 36 21C36 25.9629 31.9624 30 27 30C22.0376 30 18 25.9629 18 21H14C14 28.168 19.8315 34 27 34C34.1685 34 40 28.168 40 21C40 17.8806 38.8939 15.0155 37.0555 12.7727L43 6.82812V9.99707C43 10.551 43.4434 11 44.0094 11H45.9906C46.5481 11 47 10.5552 47 10.0044V0.995606C47 0.445801 46.5552 0 46.0044 0Z" fill="#42A6DD"/>
<path fill-rule="evenodd" clip-rule="evenodd" d="M27 21C27 13.8207 21.1793 8 14 8C6.82068 8 1 13.8207 1 21C1 27.4973 5.77264 32.8662 12 33.8306V40H9.0025C8.45581 40 8 40.4519 8 41.0093V42.9906C8 43.5566 8.44879 44 9.0025 44H12V47C12 47.5453 12.4519 48 13.0094 48H14.9906C15.5566 48 16 47.5522 16 47V44H18.9975C19.5442 44 20 43.5481 20 42.9906V41.0093C20 40.4434 19.5512 40 18.9975 40H16V33.8306C22.2274 32.8662 27 27.4973 27 21ZM5 21C5 16.0298 9.02979 12 14 12C18.9702 12 23 16.0298 23 21C23 25.9702 18.9702 30 14 30C9.02979 30 5 25.9702 5 21Z" fill="#ED69AB"/>
<path d="M27 12V8C19.8315 8 14 13.832 14 21H18C18 16.0371 22.0376 12 27 12Z" fill="#43A6DD"/>
</svg>
