<svg width="21" height="22" viewBox="0 0 21 22" fill="none" xmlns="http://www.w3.org/2000/svg">
<path d="M10.5 21.0837C8.59636 21.0837 6.73546 20.4923 5.15264 19.3843C3.56982 18.2763 2.33616 16.7015 1.60766 14.8591C0.87917 13.0166 0.688563 10.9891 1.05995 9.03317C1.43133 7.07719 2.34802 5.28052 3.6941 3.87034C5.04018 2.46016 6.75519 1.49981 8.62226 1.11075C10.4893 0.721677 12.4246 0.921361 14.1833 1.68454C15.9421 2.44773 17.4453 3.74013 18.5029 5.39833C19.5605 7.05653 20.125 9.00603 20.125 11.0003C20.1221 13.6737 19.1071 16.2366 17.3027 18.127C15.4983 20.0173 13.0518 21.0806 10.5 21.0837Z" fill="#FFD764"/>
<path d="M15.575 14.6673C15.6888 14.2186 15.7476 13.7566 15.75 13.2923C15.75 13.1708 15.7039 13.0542 15.6219 12.9682C15.5398 12.8823 15.4285 12.834 15.3125 12.834H5.6875C5.57147 12.834 5.46019 12.8823 5.37814 12.9682C5.29609 13.0542 5.25 13.1708 5.25 13.2923C5.25167 13.7565 5.30974 14.2185 5.42281 14.6673H15.575Z" fill="white"/>
<path d="M5.4248 14.667C5.7158 15.8452 6.37214 16.8888 7.29072 17.6338C8.20931 18.3788 9.3381 18.7831 10.4998 18.7831C11.6615 18.7831 12.7903 18.3788 13.7089 17.6338C14.6275 16.8888 15.2838 15.8452 15.5748 14.667H5.4248Z" fill="#AE453E"/>
<path d="M7.88086 18.0516C8.67604 18.5364 9.57967 18.7919 10.4997 18.7919C11.4198 18.7919 12.3234 18.5364 13.1186 18.0516C12.8469 17.5783 12.463 17.1866 12.0041 16.9148C11.5452 16.6429 11.0269 16.5 10.4997 16.5C9.97254 16.5 9.4543 16.6429 8.9954 16.9148C8.53651 17.1866 8.15255 17.5783 7.88086 18.0516Z" fill="#E86C60"/>
<path d="M9.1656 6.4551L7.16579 6.50644L5.99198 4.8106C5.94411 4.74135 5.8787 4.68751 5.80315 4.65516C5.72759 4.62281 5.64491 4.61325 5.56444 4.62755C5.48398 4.64186 5.40893 4.67946 5.34779 4.7361C5.28666 4.79275 5.24186 4.86618 5.21848 4.9481L4.6471 6.95652L2.74398 7.60185C2.66636 7.62821 2.59733 7.67679 2.54468 7.74209C2.49203 7.80739 2.45786 7.88681 2.44603 7.97138C2.4342 8.05595 2.44518 8.14231 2.47773 8.22069C2.51028 8.29907 2.5631 8.36635 2.63023 8.41494L4.27654 9.6066V11.7021C4.27611 11.7878 4.2986 11.8718 4.34146 11.9448C4.38433 12.0178 4.44586 12.0767 4.51906 12.1148C4.59226 12.153 4.67422 12.1689 4.75562 12.1608C4.83702 12.1527 4.91462 12.1208 4.9796 12.0688L6.56904 10.796L8.47042 11.4454C8.548 11.472 8.63113 11.4753 8.71041 11.4549C8.78969 11.4346 8.86195 11.3914 8.91902 11.3303C8.9761 11.2691 9.01571 11.1925 9.03339 11.109C9.05106 11.0255 9.04609 10.9385 9.01904 10.8579L8.35229 8.87694L9.5296 7.18339C9.57771 7.11429 9.60639 7.03247 9.61242 6.94718C9.61846 6.86189 9.60159 6.77654 9.56373 6.70077C9.52854 6.62271 9.47176 6.55755 9.40076 6.51374C9.32976 6.46993 9.24783 6.4495 9.1656 6.4551Z" fill="#E2AC4B"/>
<path d="M18.5543 7.97093C18.5425 7.88638 18.5083 7.80698 18.4556 7.7417C18.403 7.67643 18.334 7.62787 18.2564 7.60151L16.3532 6.95618L15.7819 4.95005C15.7585 4.86814 15.7137 4.7947 15.6525 4.73806C15.5914 4.68141 15.5164 4.64381 15.4359 4.62951C15.3554 4.6152 15.2727 4.62476 15.1972 4.65711C15.1216 4.68946 15.0562 4.7433 15.0084 4.81255L13.8345 6.50839L11.8347 6.45706C11.7524 6.45088 11.6703 6.47106 11.5992 6.51494C11.5281 6.55882 11.4714 6.62431 11.4366 6.70272C11.3988 6.77849 11.3819 6.86385 11.3879 6.94914C11.3939 7.03443 11.4226 7.11625 11.4707 7.18535L12.648 8.87889L11.9835 10.8557C11.9564 10.9364 11.9515 11.0234 11.9691 11.1068C11.9868 11.1903 12.0264 11.267 12.0835 11.3281C12.1406 11.3892 12.2128 11.4324 12.2921 11.4527C12.3714 11.4731 12.4545 11.4698 12.5321 11.4433L14.4335 10.7938L16.0229 12.0666C16.0995 12.1268 16.1928 12.159 16.2885 12.1583C16.4045 12.1583 16.5158 12.11 16.5978 12.024C16.6799 11.9381 16.726 11.8215 16.726 11.6999L16.7238 9.60443L18.3701 8.41276C18.437 8.36431 18.4896 8.29731 18.5221 8.21927C18.5547 8.14123 18.5658 8.05523 18.5543 7.97093Z" fill="#E2AC4B"/>
</svg>
