<svg width="48" height="48" viewBox="0 0 48 48" fill="none" xmlns="http://www.w3.org/2000/svg">
<path d="M24 46C19.6488 46 15.3953 44.7097 11.7775 42.2923C8.15958 39.875 5.33979 36.439 3.67466 32.419C2.00953 28.3991 1.57386 23.9756 2.42273 19.708C3.27161 15.4404 5.36691 11.5204 8.44366 8.44366C11.5204 5.36691 15.4404 3.27161 19.708 2.42273C23.9756 1.57386 28.3991 2.00953 32.419 3.67466C36.439 5.33979 39.875 8.15958 42.2923 11.7775C44.7097 15.3953 46 19.6488 46 24C45.9934 29.8327 43.6734 35.4247 39.5491 39.5491C35.4247 43.6734 29.8327 45.9934 24 46Z" fill="#FFD764"/>
<path d="M15 25C14.4067 25 13.8266 24.8241 13.3333 24.4944C12.8399 24.1648 12.4554 23.6962 12.2284 23.1481C12.0013 22.5999 11.9419 21.9967 12.0576 21.4147C12.1734 20.8328 12.4591 20.2982 12.8787 19.8787C13.2982 19.4591 13.8328 19.1734 14.4147 19.0576C14.9967 18.9419 15.5999 19.0013 16.1481 19.2284C16.6962 19.4554 17.1648 19.8399 17.4944 20.3333C17.8241 20.8266 18 21.4067 18 22C18 22.7957 17.6839 23.5587 17.1213 24.1213C16.5587 24.6839 15.7957 25 15 25Z" fill="#444444"/>
<path d="M33 25C32.4067 25 31.8266 24.8241 31.3333 24.4944C30.8399 24.1648 30.4554 23.6962 30.2284 23.1481C30.0013 22.5999 29.9419 21.9967 30.0576 21.4147C30.1734 20.8328 30.4591 20.2982 30.8787 19.8787C31.2982 19.4591 31.8328 19.1734 32.4147 19.0576C32.9967 18.9419 33.5999 19.0013 34.148 19.2284C34.6962 19.4554 35.1648 19.8399 35.4944 20.3333C35.8241 20.8266 36 21.4067 36 22C36 22.7957 35.6839 23.5587 35.1213 24.1213C34.5587 24.6839 33.7957 25 33 25Z" fill="#444444"/>
<path d="M34 34.9998C33.2044 34.9998 32.4413 34.6837 31.8787 34.1211C31.3161 33.5585 31 32.7955 31 31.9998C31 30.7218 32.522 28.3788 33.177 27.4318C33.2739 27.3057 33.3986 27.2035 33.5413 27.1332C33.684 27.0629 33.8409 27.0264 34 27.0264C34.1591 27.0264 34.316 27.0629 34.4587 27.1332C34.6014 27.2035 34.7261 27.3057 34.823 27.4318C35.478 28.3788 37 30.7218 37 31.9998C37 32.7955 36.6839 33.5585 36.1213 34.1211C35.5587 34.6837 34.7956 34.9998 34 34.9998Z" fill="#00B4DC"/>
<path d="M30.9425 39.0338C30.7666 39.0341 30.5937 38.9881 30.4414 38.9003C30.289 38.8125 30.1624 38.6861 30.0745 38.5338C29.4638 37.4615 28.5801 36.57 27.5133 35.9499C26.4464 35.3297 25.2345 35.0031 24.0005 35.0031C22.7665 35.0031 21.5545 35.3297 20.4877 35.9499C19.4208 36.57 18.5372 37.4615 17.9265 38.5338C17.7917 38.758 17.5745 38.9205 17.3213 38.9864C17.0681 39.0523 16.7992 39.0164 16.5722 38.8864C16.3452 38.7563 16.1782 38.5425 16.1071 38.2908C16.0359 38.039 16.0662 37.7694 16.1915 37.5398C16.9771 36.1618 18.1133 35.0163 19.4848 34.2195C20.8564 33.4226 22.4143 33.0029 24.0005 33.0029C25.5867 33.0029 27.1446 33.4226 28.5161 34.2195C29.8876 35.0163 31.0239 36.1618 31.8095 37.5398C31.8973 37.6919 31.9435 37.8644 31.9434 38.04C31.9434 38.2156 31.8971 38.3882 31.8092 38.5402C31.7213 38.6922 31.595 38.8185 31.4428 38.9062C31.2907 38.9939 31.1181 39.04 30.9425 39.0398V39.0338Z" fill="#444444"/>
</svg>
