<svg width="29" height="29" viewBox="0 0 29 29" fill="none" xmlns="http://www.w3.org/2000/svg">
<path d="M27.792 21.1457H26.5837C26.4899 21.1457 26.3972 21.1238 26.3134 21.082L19.0634 17.4569C18.8587 17.3543 18.7295 17.1454 18.7295 16.9165V12.0832C18.7295 11.8542 18.8587 11.6454 19.0634 11.5427L26.3134 7.91773C26.3972 7.87583 26.4899 7.854 26.5837 7.854H27.792C28.1259 7.854 28.3962 8.12423 28.3962 8.45817V20.5415C28.3962 20.8754 28.1259 21.1457 27.792 21.1457Z" fill="#B6B6F8"/>
<path d="M17.5212 23.5625H3.02116C1.68647 23.5625 0.604492 22.4805 0.604492 21.1458V7.85417C0.604492 6.51948 1.68647 5.4375 3.02116 5.4375H17.5212C18.8558 5.4375 19.9378 6.51948 19.9378 7.85417V21.1458C19.9378 22.4805 18.8558 23.5625 17.5212 23.5625Z" fill="#80A6E7"/>
</svg>
