<svg width="43" height="25" viewBox="0 0 43 25" fill="none" xmlns="http://www.w3.org/2000/svg">
<path d="M40.7774 19.2207H36.7361C36.7361 10.8507 29.9267 4.04124 21.5567 4.04124C13.1866 4.04124 6.37718 10.8507 6.37718 19.2207H2.33594C2.33594 8.62238 10.9583 0 21.5567 0C32.155 0 40.7774 8.62238 40.7774 19.2207Z" fill="url(#paint0_linear)"/>
<path d="M36.7358 19.2204H32.6945C32.696 17.7568 32.409 16.3072 31.85 14.9546C31.2909 13.6019 30.4707 12.3727 29.4363 11.3372C28.4018 10.3017 27.1735 9.4803 25.8214 8.91985C24.4693 8.35939 23.02 8.07092 21.5564 8.07092C20.0927 8.07092 18.6434 8.35939 17.2914 8.91985C15.9393 9.4803 14.7109 10.3017 13.6765 11.3372C12.6421 12.3727 11.8219 13.6019 11.2628 14.9546C10.7037 16.3072 10.4167 17.7568 10.4182 19.2204H6.37695C6.37695 10.8504 13.1864 4.04102 21.5563 4.04102C29.9262 4.04102 36.7358 10.8505 36.7358 19.2204Z" fill="url(#paint1_linear)"/>
<path d="M32.6945 19.2208H28.6532C28.6484 17.3417 27.8986 15.5412 26.5682 14.2141C25.2377 12.8871 23.4353 12.1418 21.5562 12.1418C19.6771 12.1418 17.8747 12.8871 16.5443 14.2141C15.2138 15.5412 14.464 17.3417 14.4592 19.2208H10.418C10.418 16.2667 11.5915 13.4337 13.6803 11.3448C15.7691 9.25601 18.6022 8.08252 21.5562 8.08252C24.5103 8.08252 27.3433 9.25601 29.4321 11.3448C31.521 13.4337 32.6945 16.2667 32.6945 19.2208Z" fill="url(#paint2_linear)"/>
<path d="M14.9154 24.2264C15.5978 24.2264 16.2523 23.9553 16.7348 23.4728C17.2173 22.9903 17.4884 22.3358 17.4884 21.6534C17.4884 20.971 17.2173 20.3166 16.7348 19.834C16.2523 19.3515 15.5978 19.0804 14.9154 19.0804H14.3951C14.5669 18.3776 14.5901 17.6467 14.4633 16.9344C14.3365 16.2221 14.0625 15.544 13.6587 14.9437C13.255 14.3433 12.7304 13.8338 12.1185 13.4477C11.5066 13.0617 10.8209 12.8075 10.1051 12.7016C9.38944 12.5956 8.65949 12.6402 7.96199 12.8324C7.26448 13.0246 6.61476 13.3603 6.05437 13.8179C5.49398 14.2755 5.03525 14.8451 4.70751 15.4901C4.37977 16.1351 4.19023 16.8414 4.15102 17.5639C3.93253 17.5201 3.71025 17.498 3.48742 17.498H3.36415C2.92236 17.498 2.4849 17.5851 2.07674 17.7541C1.66858 17.9232 1.29772 18.171 0.985325 18.4834C0.672934 18.7958 0.425133 19.1667 0.256071 19.5748C0.0870083 19.983 -4.54874e-06 20.4204 1.78348e-10 20.8622C-1.51612e-06 21.304 0.0870139 21.7415 0.256078 22.1496C0.425141 22.5578 0.672943 22.9287 0.985334 23.2411C1.29772 23.5534 1.66859 23.8012 2.07674 23.9703C2.4849 24.1394 2.92236 24.2264 3.36415 24.2264H14.9154Z" fill="url(#paint3_linear)"/>
<path d="M39.636 24.2264C40.0778 24.2264 40.5152 24.1394 40.9234 23.9703C41.3315 23.8012 41.7024 23.5534 42.0148 23.2411C42.3272 22.9287 42.575 22.5578 42.744 22.1496C42.9131 21.7415 43.0001 21.304 43.0001 20.8622C43.0001 19.97 42.6457 19.1143 42.0148 18.4834C41.3839 17.8525 40.5282 17.4981 39.636 17.4981H39.5127C39.2899 17.4981 39.0676 17.5201 38.8491 17.5639C38.8095 16.8418 38.6196 16.1359 38.2918 15.4913C37.9639 14.8467 37.5051 14.2775 36.9448 13.8203C36.3845 13.363 35.735 13.0276 35.0378 12.8356C34.3405 12.6436 33.6109 12.5991 32.8955 12.705C32.1801 12.8109 31.4946 13.0649 30.8829 13.4507C30.2712 13.8365 29.7467 14.3457 29.343 14.9457C28.9392 15.5457 28.665 16.2233 28.538 16.9352C28.4109 17.6472 28.4337 18.3778 28.605 19.0805H28.0847C27.4023 19.0805 26.7479 19.3515 26.2653 19.8341C25.7828 20.3166 25.5117 20.971 25.5117 21.6534C25.5117 22.3358 25.7828 22.9903 26.2653 23.4728C26.7479 23.9553 27.4023 24.2264 28.0847 24.2264L39.636 24.2264Z" fill="url(#paint4_linear)"/>
<defs>
<linearGradient id="paint0_linear" x1="21.5567" y1="19.7064" x2="21.5567" y2="3.23873" gradientUnits="userSpaceOnUse">
<stop offset="0.0305" stop-color="#627EB2"/>
<stop offset="0.6688" stop-color="#83AFCB"/>
<stop offset="1" stop-color="#90C3D5"/>
</linearGradient>
<linearGradient id="paint1_linear" x1="21.5564" y1="19.972" x2="21.5564" y2="4.31666" gradientUnits="userSpaceOnUse">
<stop offset="0.0012" stop-color="#FF596C"/>
<stop offset="0.3858" stop-color="#FF7B71"/>
<stop offset="1" stop-color="#FFB97B"/>
</linearGradient>
<linearGradient id="paint2_linear" x1="21.5562" y1="25.4153" x2="21.5562" y2="11.7742" gradientUnits="userSpaceOnUse">
<stop stop-color="#FF8B6C"/>
<stop offset="0.2725" stop-color="#FFA371"/>
<stop offset="0.7478" stop-color="#FFC878"/>
<stop offset="1" stop-color="#FFD67B"/>
</linearGradient>
<linearGradient id="paint3_linear" x1="0.216495" y1="15.9576" x2="19.6918" y2="23.6049" gradientUnits="userSpaceOnUse">
<stop offset="0.0014" stop-color="#F7F8FA"/>
<stop offset="0.1532" stop-color="#ECF3F6"/>
<stop offset="0.7064" stop-color="#C7E2EA"/>
<stop offset="1" stop-color="#B9DBE5"/>
</linearGradient>
<linearGradient id="paint4_linear" x1="5191.36" y1="3402.27" x2="7618.76" y2="4900.5" gradientUnits="userSpaceOnUse">
<stop offset="0.0014" stop-color="#F7F8FA"/>
<stop offset="0.1532" stop-color="#ECF3F6"/>
<stop offset="0.7064" stop-color="#C7E2EA"/>
<stop offset="1" stop-color="#B9DBE5"/>
</linearGradient>
</defs>
</svg>
