<svg xmlns="http://www.w3.org/2000/svg" xmlns:xlink="http://www.w3.org/1999/xlink" viewBox="0 0 512 512"><defs><linearGradient id="linear-gradient" x1="202.9495" y1="266.8551" x2="139.5761" y2="192.2381" gradientUnits="userSpaceOnUse"><stop offset="0" stop-color="#ff8b6c"/><stop offset="0.103" stop-color="#ff926e"/><stop offset="1" stop-color="#ffce7b"/></linearGradient><linearGradient id="linear-gradient-2" x1="265.0489" y1="214.1131" x2="201.6755" y2="139.4961" xlink:href="#linear-gradient"/><linearGradient id="linear-gradient-3" x1="129.8324" y1="328.9545" x2="66.459" y2="254.3375" xlink:href="#linear-gradient"/><linearGradient id="linear-gradient-4" x1="195.1588" y1="273.4718" x2="131.7855" y2="198.8548" xlink:href="#linear-gradient"/><linearGradient id="linear-gradient-5" x1="150.5942" y1="222.0515" x2="413.266" y2="395.2626" gradientUnits="userSpaceOnUse"><stop offset="0.0014" stop-color="#f7f8fa"/><stop offset="0.3677" stop-color="#e3eff3"/><stop offset="1" stop-color="#b9dbe5"/></linearGradient></defs><g id="Cloudy_Day"><circle cx="191.5993" cy="253.4911" r="93.1213" style="fill:url(#linear-gradient)"/><circle cx="191.5993" cy="127.6321" r="11.3801" style="fill:url(#linear-gradient-2)"/><circle cx="65.7402" cy="253.4911" r="11.3801" style="fill:url(#linear-gradient-3)"/><circle cx="102.6035" cy="164.4954" r="11.3801" style="fill:url(#linear-gradient-4)"/><path d="M403.6087,395.748A54.0314,54.0314,0,0,0,457.64,341.7165h0a54.0312,54.0312,0,0,0-54.0311-54.0313H392.6819a109.2019,109.2019,0,1,0-215.12-31.8471,70.9582,70.9582,0,0,0-13.9352-1.3814h-2.5885a70.6455,70.6455,0,0,0-70.6454,70.6456h0a70.6456,70.6456,0,0,0,70.6454,70.6457Z" style="fill:url(#linear-gradient-5)"/></g></svg>