<svg width="39" height="26" viewBox="0 0 39 26" fill="none" xmlns="http://www.w3.org/2000/svg">
<path d="M33.2621 25.826C34.7839 25.826 36.2433 25.2214 37.3194 24.1454C38.3955 23.0693 39 21.6098 39 20.0881C39 18.5663 38.3955 17.1068 37.3194 16.0308C36.2433 14.9547 34.7839 14.3502 33.2621 14.3502H32.1017C32.4848 12.7828 32.5366 11.1528 32.2539 9.56435C31.9711 7.97586 31.36 6.46386 30.4596 5.12502C29.5592 3.78617 28.3893 2.64995 27.0247 1.789C25.6602 0.928049 24.131 0.361313 22.5349 0.125029C20.9389 -0.111255 19.3111 -0.0118881 17.7556 0.416778C16.2001 0.845445 14.7512 1.59398 13.5015 2.61451C12.2518 3.63505 11.2288 4.90513 10.4979 6.34356C9.76707 7.78198 9.3444 9.35709 9.25694 10.9682C8.76971 10.8706 8.27401 10.8215 7.7771 10.8215H7.50222C6.51701 10.8215 5.54145 11.0155 4.63124 11.3926C3.72103 11.7696 2.89399 12.3222 2.19734 13.0188C1.5007 13.7155 0.948089 14.5425 0.571069 15.4527C0.194048 16.3629 -1.40946e-06 17.3385 0 18.3237C-2.81895e-06 19.3089 0.194046 20.2845 0.571066 21.1947C0.948087 22.1049 1.50069 22.9319 2.19734 23.6286C2.89399 24.3252 3.72103 24.8779 4.63124 25.2549C5.54145 25.6319 6.51701 25.826 7.50222 25.826H33.2621Z" fill="url(#paint0_linear)"/>
<defs>
<linearGradient id="paint0_linear" x1="4.21951" y1="6.77689" x2="44.0904" y2="30.0678" gradientUnits="userSpaceOnUse">
<stop offset="0.0014" stop-color="#F7F8FA"/>
<stop offset="0.3677" stop-color="#E3EFF3"/>
<stop offset="1" stop-color="#B9DBE5"/>
</linearGradient>
</defs>
</svg>
