<svg width="55" height="39" viewBox="0 0 55 39" fill="none" xmlns="http://www.w3.org/2000/svg">
<path d="M18.821 31.7119C25.752 31.7119 31.3706 26.0933 31.3706 19.1623C31.3706 12.2314 25.752 6.61279 18.821 6.61279C11.8901 6.61279 6.27148 12.2314 6.27148 19.1623C6.27148 26.0933 11.8901 31.7119 18.821 31.7119Z" fill="url(#paint0_linear)"/>
<path d="M18.8217 3.73429C19.6687 3.73429 20.3554 3.04765 20.3554 2.20064C20.3554 1.35363 19.6687 0.666992 18.8217 0.666992C17.9747 0.666992 17.2881 1.35363 17.2881 2.20064C17.2881 3.04765 17.9747 3.73429 18.8217 3.73429Z" fill="url(#paint1_linear)"/>
<path d="M1.85982 20.6957C2.70683 20.6957 3.39346 20.0091 3.39346 19.1621C3.39346 18.3151 2.70683 17.6284 1.85982 17.6284C1.01281 17.6284 0.326172 18.3151 0.326172 19.1621C0.326172 20.0091 1.01281 20.6957 1.85982 20.6957Z" fill="url(#paint2_linear)"/>
<path d="M6.82759 8.70205C7.6746 8.70205 8.36124 8.01542 8.36124 7.16841C8.36124 6.3214 7.6746 5.63477 6.82759 5.63477C5.98058 5.63477 5.29395 6.3214 5.29395 7.16841C5.29395 8.01542 5.98058 8.70205 6.82759 8.70205Z" fill="url(#paint3_linear)"/>
<path d="M47.3934 38.3335C48.3496 38.3335 49.2964 38.1451 50.1799 37.7792C51.0633 37.4133 51.866 36.8769 52.5422 36.2008C53.2184 35.5246 53.7547 34.7219 54.1206 33.8384C54.4866 32.955 54.6749 32.0081 54.6749 31.0519C54.6749 30.0957 54.4866 29.1488 54.1206 28.2654C53.7547 27.3819 53.2184 26.5792 52.5422 25.9031C51.8661 25.2269 51.0633 24.6906 50.1799 24.3246C49.2965 23.9587 48.3496 23.7703 47.3934 23.7703H45.9208C46.407 21.7813 46.4728 19.7128 46.114 17.6969C45.7552 15.681 44.9797 13.7622 43.837 12.0631C42.6944 10.364 41.2098 8.92206 39.4781 7.82945C37.7464 6.73684 35.8058 6.01761 33.7803 5.71775C31.7548 5.41789 29.689 5.544 27.715 6.08801C25.7411 6.63202 23.9023 7.58196 22.3164 8.8771C20.7305 10.1722 19.4323 11.7841 18.5048 13.6095C17.5773 15.435 17.0409 17.4339 16.93 19.4784C16.3117 19.3546 15.6826 19.2923 15.052 19.2923H14.7032C13.4529 19.2923 12.2149 19.5385 11.0598 20.017C9.90473 20.4955 8.85519 21.1967 7.97112 22.0808C7.08706 22.9649 6.38578 24.0144 5.90732 25.1695C5.42887 26.3246 5.18262 27.5626 5.18262 28.8129C5.18261 31.3379 6.18567 33.7595 7.97112 35.545C9.75657 37.3304 12.1782 38.3335 14.7032 38.3335H47.3934Z" fill="url(#paint4_linear)"/>
<defs>
<linearGradient id="paint0_linear" x1="20.3507" y1="20.9634" x2="11.8101" y2="10.9075" gradientUnits="userSpaceOnUse">
<stop stop-color="#FF8B6C"/>
<stop offset="0.103" stop-color="#FF926E"/>
<stop offset="1" stop-color="#FFCE7B"/>
</linearGradient>
<linearGradient id="paint1_linear" x1="830.272" y1="657.415" x2="635.887" y2="428.542" gradientUnits="userSpaceOnUse">
<stop stop-color="#FF8B6C"/>
<stop offset="0.103" stop-color="#FF926E"/>
<stop offset="1" stop-color="#FFCE7B"/>
</linearGradient>
<linearGradient id="paint2_linear" x1="398.56" y1="1026.63" x2="204.175" y2="797.756" gradientUnits="userSpaceOnUse">
<stop stop-color="#FF8B6C"/>
<stop offset="0.103" stop-color="#FF926E"/>
<stop offset="1" stop-color="#FFCE7B"/>
</linearGradient>
<linearGradient id="paint3_linear" x1="603.903" y1="844.452" x2="409.519" y2="615.58" gradientUnits="userSpaceOnUse">
<stop stop-color="#FF8B6C"/>
<stop offset="0.103" stop-color="#FF926E"/>
<stop offset="1" stop-color="#FFCE7B"/>
</linearGradient>
<linearGradient id="paint4_linear" x1="13.2957" y1="14.9252" x2="48.6948" y2="38.2681" gradientUnits="userSpaceOnUse">
<stop offset="0.0014" stop-color="#F7F8FA"/>
<stop offset="0.3677" stop-color="#E3EFF3"/>
<stop offset="1" stop-color="#B9DBE5"/>
</linearGradient>
</defs>
</svg>
