<svg width="33" height="33" viewBox="0 0 33 33" fill="none" xmlns="http://www.w3.org/2000/svg">
<path d="M27.3806 21.2593C28.6333 21.2593 29.8347 20.7617 30.7204 19.8759C31.6062 18.9901 32.1039 17.7887 32.1039 16.536C32.1039 15.2833 31.6062 14.0819 30.7204 13.1961C29.8347 12.3103 28.6333 11.8127 27.3806 11.8127H26.4254C26.7407 10.5225 26.7834 9.18074 26.5506 7.87314C26.3178 6.56554 25.8148 5.32089 25.0736 4.21879C24.3324 3.11669 23.3694 2.18138 22.2461 1.47266C21.1228 0.763947 19.864 0.297424 18.5502 0.10292C17.2364 -0.0915828 15.8964 -0.00978551 14.616 0.343082C13.3355 0.69595 12.1428 1.31212 11.1141 2.1522C10.0854 2.99228 9.2433 4.03779 8.64166 5.22186C8.04002 6.40594 7.69208 7.70253 7.62009 9.02873C7.21901 8.94841 6.81097 8.90796 6.40192 8.90798H6.17564C5.36465 8.90798 4.56159 9.06771 3.81233 9.37807C3.06306 9.68842 2.38226 10.1433 1.8088 10.7168C1.23534 11.2902 0.780445 11.971 0.47009 12.7203C0.159735 13.4696 -1.16025e-06 14.2726 0 15.0836C-1.16025e-06 15.8946 0.159735 16.6977 0.47009 17.4469C0.780444 18.1962 1.23534 18.877 1.8088 19.4505C2.38226 20.0239 3.06306 20.4788 3.81233 20.7892C4.56159 21.0995 5.36465 21.2593 6.17564 21.2593L27.3806 21.2593Z" fill="url(#paint0_linear)"/>
<path d="M8.23419 26.7152C8.07572 26.715 7.92021 26.6722 7.78396 26.5912C7.64772 26.5103 7.53574 26.3942 7.45976 26.2552C7.38378 26.1161 7.34659 25.9591 7.3521 25.8008C7.3576 25.6424 7.40559 25.4884 7.49105 25.3549C7.59648 25.1903 7.70268 25.0255 7.80964 24.8603C8.20369 24.2504 8.61107 23.6197 8.96404 22.9987C9.02137 22.8978 9.09801 22.8092 9.18958 22.738C9.28115 22.6667 9.38586 22.6142 9.49773 22.5834C9.6096 22.5526 9.72643 22.5442 9.84156 22.5586C9.9567 22.5729 10.0679 22.6098 10.1687 22.6672C10.2696 22.7245 10.3582 22.8011 10.4295 22.8927C10.5007 22.9843 10.5532 23.089 10.584 23.2008C10.6148 23.3127 10.6232 23.4295 10.6089 23.5447C10.5945 23.6598 10.5576 23.771 10.5003 23.8719C10.1225 24.5365 9.70131 25.1886 9.29394 25.8192C9.18846 25.9824 9.08347 26.1454 8.97897 26.3081C8.89903 26.4331 8.78888 26.5359 8.65871 26.607C8.52854 26.6781 8.38254 26.7154 8.23419 26.7152Z" fill="url(#paint1_linear)"/>
<path d="M15.3026 26.7152C15.1441 26.715 14.9886 26.6722 14.8523 26.5912C14.7161 26.5103 14.6041 26.3942 14.5281 26.2552C14.4521 26.1161 14.415 25.9591 14.4205 25.8008C14.426 25.6424 14.474 25.4884 14.5594 25.3549C14.6648 25.1903 14.771 25.0255 14.878 24.8603C15.2721 24.2504 15.6794 23.6198 16.0324 22.9987C16.1482 22.795 16.3402 22.6456 16.5661 22.5834C16.792 22.5213 17.0334 22.5514 17.2371 22.6672C17.4408 22.783 17.5902 22.9749 17.6524 23.2008C17.7145 23.4268 17.6844 23.6681 17.5686 23.8719C17.1909 24.5365 16.7697 25.1886 16.3623 25.8192C16.2568 25.9824 16.1518 26.1454 16.0473 26.3081C15.9674 26.4331 15.8572 26.5359 15.7271 26.607C15.5969 26.6782 15.4509 26.7154 15.3026 26.7152Z" fill="url(#paint2_linear)"/>
<path d="M22.3709 26.7152C22.2124 26.715 22.0569 26.6722 21.9207 26.5912C21.7844 26.5103 21.6725 26.3942 21.5965 26.2552C21.5205 26.1161 21.4833 25.9591 21.4888 25.8008C21.4943 25.6424 21.5423 25.4884 21.6278 25.3549C21.7332 25.1903 21.8394 25.0255 21.9464 24.8603C22.3404 24.2504 22.7478 23.6197 23.1008 22.9987C23.1581 22.8978 23.2347 22.8092 23.3263 22.738C23.4179 22.6667 23.5226 22.6142 23.6344 22.5834C23.7463 22.5526 23.8631 22.5442 23.9783 22.5586C24.0934 22.5729 24.2046 22.6098 24.3055 22.6672C24.4063 22.7245 24.4949 22.8011 24.5662 22.8927C24.6374 22.9843 24.6899 23.089 24.7207 23.2008C24.7515 23.3127 24.76 23.4295 24.7456 23.5447C24.7312 23.6598 24.6943 23.771 24.637 23.8719C24.2593 24.5365 23.838 25.1886 23.4307 25.8192C23.3252 25.9824 23.2202 26.1454 23.1157 26.3081C23.0357 26.4331 22.9256 26.5359 22.7954 26.607C22.6653 26.6781 22.5193 26.7154 22.3709 26.7152Z" fill="url(#paint3_linear)"/>
<path d="M10.4432 32.7572C10.2847 32.757 10.1292 32.7142 9.99297 32.6333C9.85672 32.5524 9.74474 32.4363 9.66876 32.2972C9.59277 32.1582 9.55558 32.0012 9.56108 31.8429C9.56658 31.6845 9.61456 31.5305 9.70001 31.397C9.80558 31.2322 9.9119 31.0671 10.019 30.9019C10.4128 30.2921 10.8201 29.6616 11.173 29.0407C11.2888 28.837 11.4808 28.6876 11.7067 28.6254C11.9326 28.5632 12.174 28.5934 12.3777 28.7092C12.5814 28.8249 12.7308 29.0169 12.793 29.2428C12.8552 29.4688 12.825 29.7101 12.7093 29.9139C12.3316 30.5783 11.9105 31.2302 11.5032 31.8607C11.3977 32.0241 11.2926 32.1872 11.188 32.3501C11.108 32.4751 10.9979 32.5779 10.8677 32.649C10.7375 32.7202 10.5915 32.7574 10.4432 32.7572Z" fill="url(#paint4_linear)"/>
<path d="M17.5116 32.7572C17.3531 32.757 17.1976 32.7142 17.0613 32.6333C16.9251 32.5524 16.8131 32.4363 16.7371 32.2972C16.6611 32.1582 16.6239 32.0012 16.6294 31.8428C16.6349 31.6845 16.6829 31.5305 16.7684 31.397C16.8739 31.2322 16.9803 31.0671 17.0873 30.9019C17.4812 30.2921 17.8885 29.6616 18.2414 29.0407C18.2987 28.9398 18.3753 28.8512 18.4669 28.78C18.5585 28.7087 18.6632 28.6562 18.7751 28.6254C18.8869 28.5946 19.0038 28.5862 19.1189 28.6006C19.234 28.6149 19.3452 28.6518 19.4461 28.7092C19.5469 28.7665 19.6355 28.8431 19.7068 28.9347C19.778 29.0263 19.8306 29.131 19.8613 29.2428C19.8921 29.3547 19.9006 29.4715 19.8862 29.5867C19.8718 29.7018 19.8349 29.813 19.7776 29.9139C19.4 30.5783 18.9789 31.2302 18.5716 31.8607C18.466 32.0241 18.361 32.1872 18.2563 32.3501C18.1764 32.4751 18.0662 32.5779 17.9361 32.649C17.8059 32.7202 17.6599 32.7574 17.5116 32.7572Z" fill="url(#paint5_linear)"/>
<defs>
<linearGradient id="paint0_linear" x1="2.81679" y1="4.99388" x2="34.1846" y2="23.9676" gradientUnits="userSpaceOnUse">
<stop offset="0.0014" stop-color="#F7F8FA"/>
<stop offset="0.3677" stop-color="#E3EFF3"/>
<stop offset="1" stop-color="#B9DBE5"/>
</linearGradient>
<linearGradient id="paint1_linear" x1="8.98361" y1="22.364" x2="8.98361" y2="31.7716" gradientUnits="userSpaceOnUse">
<stop offset="0.0305" stop-color="#6C92B2"/>
<stop offset="0.501" stop-color="#7EA9C2"/>
<stop offset="1" stop-color="#8EBDD0"/>
</linearGradient>
<linearGradient id="paint2_linear" x1="850.036" y1="1370.43" x2="850.036" y2="1813.74" gradientUnits="userSpaceOnUse">
<stop offset="0.0305" stop-color="#6C92B2"/>
<stop offset="0.501" stop-color="#7EA9C2"/>
<stop offset="1" stop-color="#8EBDD0"/>
</linearGradient>
<linearGradient id="paint3_linear" x1="1118.23" y1="1370.43" x2="1118.23" y2="1813.74" gradientUnits="userSpaceOnUse">
<stop offset="0.0305" stop-color="#6C92B2"/>
<stop offset="0.501" stop-color="#7EA9C2"/>
<stop offset="1" stop-color="#8EBDD0"/>
</linearGradient>
<linearGradient id="paint4_linear" x1="665.647" y1="1376.48" x2="665.647" y2="1819.81" gradientUnits="userSpaceOnUse">
<stop offset="0.0305" stop-color="#6C92B2"/>
<stop offset="0.501" stop-color="#7EA9C2"/>
<stop offset="1" stop-color="#8EBDD0"/>
</linearGradient>
<linearGradient id="paint5_linear" x1="933.844" y1="1376.48" x2="933.844" y2="1819.8" gradientUnits="userSpaceOnUse">
<stop offset="0.0305" stop-color="#6C92B2"/>
<stop offset="0.501" stop-color="#7EA9C2"/>
<stop offset="1" stop-color="#8EBDD0"/>
</linearGradient>
</defs>
</svg>
