<svg xmlns="http://www.w3.org/2000/svg" xmlns:xlink="http://www.w3.org/1999/xlink" viewBox="0 0 512 512"><defs><linearGradient id="linear-gradient" x1="130.0047" y1="146.0148" x2="411.3165" y2="347.2061" gradientUnits="userSpaceOnUse"><stop offset="0.0014" stop-color="#f7f8fa"/><stop offset="0.0404" stop-color="#f2f5f8"/><stop offset="0.3601" stop-color="#c9e2ea"/><stop offset="0.525" stop-color="#b9dbe5"/><stop offset="1" stop-color="#97c2cc"/></linearGradient><linearGradient id="linear-gradient-2" x1="135.9999" y1="352.706" x2="135.9999" y2="426.3348" gradientUnits="userSpaceOnUse"><stop offset="0.0305" stop-color="#6c92b2"/><stop offset="0.501" stop-color="#7ea9c2"/><stop offset="1" stop-color="#8ebdd0"/></linearGradient><linearGradient id="linear-gradient-3" x1="195.9999" y1="352.706" x2="195.9999" y2="426.3348" xlink:href="#linear-gradient-2"/><linearGradient id="linear-gradient-4" x1="255.9998" y1="352.706" x2="255.9998" y2="426.3348" xlink:href="#linear-gradient-2"/><linearGradient id="linear-gradient-5" x1="315.9999" y1="352.706" x2="315.9999" y2="426.3348" xlink:href="#linear-gradient-2"/><linearGradient id="linear-gradient-6" x1="375.9999" y1="352.706" x2="375.9999" y2="426.3348" xlink:href="#linear-gradient-2"/></defs><g id="Pouring_Rain"><path d="M384.2218,325.29a53.46,53.46,0,0,0,53.46-53.46h0a53.46,53.46,0,0,0-53.46-53.46H373.4107a108.0468,108.0468,0,1,0-212.8451-31.51,70.2045,70.2045,0,0,0-13.7877-1.3668h-2.5611a69.8982,69.8982,0,0,0-69.8982,69.8983h0A69.8983,69.8983,0,0,0,144.2168,325.29Z" style="fill:url(#linear-gradient)"/><path d="M118.4906,427.33a10.0023,10.0023,0,0,1-8.665-14.9771l35-61.018a10,10,0,1,1,17.3486,9.9512l-35,61.018A9.9958,9.9958,0,0,1,118.4906,427.33Z" style="fill:url(#linear-gradient-2)"/><path d="M178.4906,427.33a10.0023,10.0023,0,0,1-8.665-14.9771l35-61.018a10,10,0,1,1,17.3486,9.9512l-35,61.018A9.9958,9.9958,0,0,1,178.4906,427.33Z" style="fill:url(#linear-gradient-3)"/><path d="M238.4906,427.33a10.0023,10.0023,0,0,1-8.665-14.9771l35-61.018a10,10,0,1,1,17.3481,9.9512l-34.9995,61.018A9.9958,9.9958,0,0,1,238.4906,427.33Z" style="fill:url(#linear-gradient-4)"/><path d="M298.49,427.33a10.0019,10.0019,0,0,1-8.664-14.9771l35-61.018a10,10,0,1,1,17.3476,9.9512l-35,61.018A9.9952,9.9952,0,0,1,298.49,427.33Z" style="fill:url(#linear-gradient-5)"/><path d="M358.49,427.33a10.0019,10.0019,0,0,1-8.664-14.9771l35-61.018a10,10,0,1,1,17.3476,9.9512l-35,61.018A9.9952,9.9952,0,0,1,358.49,427.33Z" style="fill:url(#linear-gradient-6)"/></g></svg>