<svg xmlns="http://www.w3.org/2000/svg" xmlns:xlink="http://www.w3.org/1999/xlink" viewBox="0 0 512 512"><defs><linearGradient id="linear-gradient" x1="256.4902" y1="321.7624" x2="256.4902" y2="179.1405" gradientUnits="userSpaceOnUse"><stop offset="0.0305" stop-color="#627eb2"/><stop offset="0.6688" stop-color="#83afcb"/><stop offset="1" stop-color="#90c3d5"/></linearGradient><linearGradient id="linear-gradient-2" x1="256.4907" y1="324.0641" x2="256.4907" y2="188.4781" gradientUnits="userSpaceOnUse"><stop offset="0.0012" stop-color="#ff596c"/><stop offset="0.3858" stop-color="#ff7b71"/><stop offset="1" stop-color="#ffb97b"/></linearGradient><linearGradient id="linear-gradient-3" x1="256.4902" y1="371.2044" x2="256.4902" y2="253.0628" gradientUnits="userSpaceOnUse"><stop offset="0" stop-color="#ff8b6c"/><stop offset="0.2725" stop-color="#ffa371"/><stop offset="0.7478" stop-color="#ffc878"/><stop offset="1" stop-color="#ffd67b"/></linearGradient><linearGradient id="linear-gradient-4" x1="71.67" y1="289.2954" x2="240.3394" y2="355.5268" gradientUnits="userSpaceOnUse"><stop offset="0.0014" stop-color="#f7f8fa"/><stop offset="0.1532" stop-color="#ecf3f6"/><stop offset="0.7064" stop-color="#c7e2ea"/><stop offset="1" stop-color="#b9dbe5"/></linearGradient><linearGradient id="linear-gradient-5" x1="295.3872" y1="292.7767" x2="459.6412" y2="359.8913" xlink:href="#linear-gradient-4"/></defs><g id="Rainbow"><path d="M422.9551,317.5552h-35c0-72.49-58.9746-131.4644-131.4649-131.4644S125.0254,245.0654,125.0254,317.5552h-35c0-91.7886,74.6758-166.4644,166.4648-166.4644S422.9551,225.7666,422.9551,317.5552Z" style="fill:url(#linear-gradient)"/><path d="M387.9551,317.5552h-35a96.4644,96.4644,0,1,0-192.9287,0h-35c0-72.49,58.9746-131.4644,131.4638-131.4644S387.9551,245.0654,387.9551,317.5552Z" style="fill:url(#linear-gradient-2)"/><path d="M352.9551,317.5552h-35a61.4652,61.4652,0,0,0-122.93,0h-35a96.465,96.465,0,0,1,192.93,0Z" style="fill:url(#linear-gradient-3)"/><path d="M198.973,360.9092a22.2839,22.2839,0,0,0,22.2838-22.2839h0a22.2838,22.2838,0,0,0-22.2838-22.2838h-4.5064a45.0375,45.0375,0,1,0-88.7209-13.1345,29.26,29.26,0,0,0-5.7472-.57H98.9309A29.1359,29.1359,0,0,0,69.795,331.7732h0a29.1359,29.1359,0,0,0,29.1359,29.136Z" style="fill:url(#linear-gradient-4)"/><path d="M413.0691,360.9092a29.1359,29.1359,0,0,0,29.1359-29.136h0a29.1359,29.1359,0,0,0-29.1359-29.1359h-1.0676a29.26,29.26,0,0,0-5.7472.57,45.035,45.035,0,1,0-88.7209,13.1345H313.027a22.2838,22.2838,0,0,0-22.2838,22.2838h0a22.2839,22.2839,0,0,0,22.2838,22.2839Z" style="fill:url(#linear-gradient-5)"/></g></svg>