<svg width="67" height="67" viewBox="0 0 67 67" fill="none" xmlns="http://www.w3.org/2000/svg">
<path d="M33.5004 56.2313C46.0543 56.2313 56.2313 46.0543 56.2313 33.5004C56.2313 20.9465 46.0543 10.7695 33.5004 10.7695C20.9465 10.7695 10.7695 20.9465 10.7695 33.5004C10.7695 46.0543 20.9465 56.2313 33.5004 56.2313Z" fill="url(#paint0_linear)"/>
<path d="M33.5005 67.0001C35.0347 67.0001 36.2784 65.7564 36.2784 64.2222C36.2784 62.688 35.0347 61.4443 33.5005 61.4443C31.9663 61.4443 30.7227 62.688 30.7227 64.2222C30.7227 65.7564 31.9663 67.0001 33.5005 67.0001Z" fill="url(#paint1_linear)"/>
<path d="M33.5005 5.55572C35.0347 5.55572 36.2784 4.31203 36.2784 2.77786C36.2784 1.24369 35.0347 0 33.5005 0C31.9663 0 30.7227 1.24369 30.7227 2.77786C30.7227 4.31203 31.9663 5.55572 33.5005 5.55572Z" fill="url(#paint2_linear)"/>
<path d="M64.2222 36.2779C65.7564 36.2779 67.0001 35.0342 67.0001 33.5C67.0001 31.9659 65.7564 30.7222 64.2222 30.7222C62.688 30.7222 61.4443 31.9659 61.4443 33.5C61.4443 35.0342 62.688 36.2779 64.2222 36.2779Z" fill="url(#paint3_linear)"/>
<path d="M2.77786 36.2779C4.31203 36.2779 5.55572 35.0342 5.55572 33.5C5.55572 31.9659 4.31203 30.7222 2.77786 30.7222C1.24369 30.7222 0 31.9659 0 33.5C0 35.0342 1.24369 36.2779 2.77786 36.2779Z" fill="url(#paint4_linear)"/>
<path d="M55.2241 14.5538C56.7583 14.5538 58.002 13.3101 58.002 11.7759C58.002 10.2417 56.7583 8.99805 55.2241 8.99805C53.69 8.99805 52.4463 10.2417 52.4463 11.7759C52.4463 13.3101 53.69 14.5538 55.2241 14.5538Z" fill="url(#paint5_linear)"/>
<path d="M11.7759 58.0015C13.3101 58.0015 14.5538 56.7578 14.5538 55.2237C14.5538 53.6895 13.3101 52.4458 11.7759 52.4458C10.2417 52.4458 8.99805 53.6895 8.99805 55.2237C8.99805 56.7578 10.2417 58.0015 11.7759 58.0015Z" fill="url(#paint6_linear)"/>
<path d="M11.7759 14.5538C13.3101 14.5538 14.5538 13.3101 14.5538 11.7759C14.5538 10.2417 13.3101 8.99805 11.7759 8.99805C10.2417 8.99805 8.99805 10.2417 8.99805 11.7759C8.99805 13.3101 10.2417 14.5538 11.7759 14.5538Z" fill="url(#paint7_linear)"/>
<path d="M55.2241 58.0015C56.7583 58.0015 58.002 56.7578 58.002 55.2237C58.002 53.6895 56.7583 52.4458 55.2241 52.4458C53.69 52.4458 52.4463 53.6895 52.4463 55.2237C52.4463 56.7578 53.69 58.0015 55.2241 58.0015Z" fill="url(#paint8_linear)"/>
<defs>
<linearGradient id="paint0_linear" x1="41.2566" y1="49.2344" x2="23.5525" y2="13.3204" gradientUnits="userSpaceOnUse">
<stop stop-color="#FF8B6C"/>
<stop offset="0.5719" stop-color="#FFAC77"/>
<stop offset="0.8875" stop-color="#FFB97B"/>
</linearGradient>
<linearGradient id="paint1_linear" x1="28.2432" y1="57.9134" x2="5.86831" y2="31.0636" gradientUnits="userSpaceOnUse">
<stop stop-color="#FFB97B"/>
<stop offset="1" stop-color="#FFB97B"/>
</linearGradient>
<linearGradient id="paint2_linear" x1="2149.7" y1="1400.81" x2="1525.17" y2="651.379" gradientUnits="userSpaceOnUse">
<stop stop-color="#FFB97B"/>
<stop offset="1" stop-color="#FFB97B"/>
</linearGradient>
<linearGradient id="paint3_linear" x1="2264.76" y1="1361.24" x2="1640.24" y2="611.813" gradientUnits="userSpaceOnUse">
<stop stop-color="#FFB97B"/>
<stop offset="1" stop-color="#FFB97B"/>
</linearGradient>
<linearGradient id="paint4_linear" x1="1191.18" y1="2204.69" x2="566.654" y2="1455.27" gradientUnits="userSpaceOnUse">
<stop stop-color="#FFB97B"/>
<stop offset="1" stop-color="#FFB97B"/>
</linearGradient>
<linearGradient id="paint5_linear" x1="2405.75" y1="1214.53" x2="1781.22" y2="465.105" gradientUnits="userSpaceOnUse">
<stop stop-color="#FFB97B"/>
<stop offset="1" stop-color="#FFB97B"/>
</linearGradient>
<linearGradient id="paint6_linear" x1="1050.19" y1="2351.4" x2="425.671" y2="1601.97" gradientUnits="userSpaceOnUse">
<stop stop-color="#FFB97B"/>
<stop offset="1" stop-color="#FFB97B"/>
</linearGradient>
<linearGradient id="paint7_linear" x1="1646.6" y1="1810.94" x2="1022.08" y2="1061.52" gradientUnits="userSpaceOnUse">
<stop stop-color="#FFB97B"/>
<stop offset="1" stop-color="#FFB97B"/>
</linearGradient>
<linearGradient id="paint8_linear" x1="1809.34" y1="1754.99" x2="1184.81" y2="1005.56" gradientUnits="userSpaceOnUse">
<stop stop-color="#FFB97B"/>
<stop offset="1" stop-color="#FFB97B"/>
</linearGradient>
</defs>
</svg>
