<svg xmlns="http://www.w3.org/2000/svg" xmlns:xlink="http://www.w3.org/1999/xlink" viewBox="0 0 512 512"><defs><linearGradient id="linear-gradient" x1="294.9671" y1="335.0475" x2="206.0221" y2="154.6162" gradientUnits="userSpaceOnUse"><stop offset="0" stop-color="#ff8b6c"/><stop offset="0.5719" stop-color="#ffac77"/><stop offset="0.8875" stop-color="#ffb97b"/></linearGradient><linearGradient id="linear-gradient-2" x1="229.5874" y1="378.6522" x2="117.1764" y2="243.7591" gradientUnits="userSpaceOnUse"><stop offset="0" stop-color="#ffb97b"/><stop offset="1" stop-color="#ffb97b"/></linearGradient><linearGradient id="linear-gradient-3" x1="381.4045" y1="252.138" x2="268.9935" y2="117.2448" xlink:href="#linear-gradient-2"/><linearGradient id="linear-gradient-4" x1="396.5862" y1="239.4866" x2="284.1752" y2="104.5934" xlink:href="#linear-gradient-2"/><linearGradient id="linear-gradient-5" x1="214.4057" y1="391.3037" x2="101.9947" y2="256.4105" xlink:href="#linear-gradient-2"/><linearGradient id="linear-gradient-6" x1="423.5819" y1="216.9901" x2="311.171" y2="82.0969" xlink:href="#linear-gradient-2"/><linearGradient id="linear-gradient-7" x1="187.4099" y1="413.8001" x2="74.999" y2="278.9069" xlink:href="#linear-gradient-2"/><linearGradient id="linear-gradient-8" x1="294.7608" y1="324.341" x2="182.3499" y2="189.4479" xlink:href="#linear-gradient-2"/><linearGradient id="linear-gradient-9" x1="316.231" y1="306.4492" x2="203.82" y2="171.556" xlink:href="#linear-gradient-2"/></defs><g id="Sunny_Day"><circle cx="256" cy="256" r="114.1994" style="fill:url(#linear-gradient)"/><circle cx="256" cy="410.3474" r="13.9559" style="fill:url(#linear-gradient-2)"/><circle cx="256" cy="101.6526" r="13.9559" style="fill:url(#linear-gradient-3)"/><circle cx="410.3474" cy="256" r="13.9559" style="fill:url(#linear-gradient-4)"/><circle cx="101.6526" cy="256" r="13.9559" style="fill:url(#linear-gradient-5)"/><circle cx="365.1401" cy="146.8599" r="13.9559" style="fill:url(#linear-gradient-6)"/><circle cx="146.8599" cy="365.1401" r="13.9559" style="fill:url(#linear-gradient-7)"/><circle cx="146.8599" cy="146.8599" r="13.9559" style="fill:url(#linear-gradient-8)"/><circle cx="365.1401" cy="365.1401" r="13.9559" style="fill:url(#linear-gradient-9)"/></g></svg>