<svg width="30" height="50" viewBox="0 0 30 50" fill="none" xmlns="http://www.w3.org/2000/svg">
<path d="M24.7103 1.26227L19.7479 20.2514C19.7154 20.3759 19.7118 20.5062 19.7375 20.6323C19.7632 20.7584 19.8174 20.8769 19.8961 20.9788C19.9747 21.0806 20.0757 21.1631 20.1912 21.2198C20.3067 21.2765 20.4337 21.306 20.5624 21.306H29.0132C29.1749 21.306 29.3332 21.3527 29.4692 21.4403C29.6052 21.5279 29.713 21.6529 29.7798 21.8002C29.8466 21.9475 29.8696 22.1109 29.8459 22.2709C29.8223 22.431 29.753 22.5808 29.6465 22.7025L6.87742 48.7026C6.72789 48.8734 6.52509 48.9886 6.30187 49.0297C6.07866 49.0708 5.8481 49.0353 5.64757 48.929C5.44704 48.8227 5.28827 48.6518 5.19699 48.444C5.10571 48.2362 5.08727 48.0037 5.14465 47.7841L10.1071 28.795C10.1396 28.6705 10.1432 28.5402 10.1175 28.4141C10.0918 28.288 10.0375 28.1695 9.95889 28.0676C9.88023 27.9658 9.77928 27.8833 9.66377 27.8266C9.54827 27.7698 9.4213 27.7403 9.29262 27.7403H0.841812C0.680058 27.7403 0.521731 27.6937 0.38577 27.6061C0.249809 27.5184 0.141973 27.3935 0.0751634 27.2462C0.00835366 27.0989 -0.0146024 26.9354 0.0090444 26.7754C0.0326912 26.6154 0.10194 26.4656 0.208502 26.3439L22.9775 0.343746C23.1271 0.173 23.3299 0.0577443 23.5531 0.016652C23.7763 -0.0244403 24.0069 0.0110389 24.2074 0.11734C24.4079 0.223641 24.5667 0.394537 24.658 0.60234C24.7493 0.810143 24.7677 1.04268 24.7103 1.26227Z" fill="url(#paint0_linear)"/>
<defs>
<linearGradient id="paint0_linear" x1="28.8367" y1="10.614" x2="-10.1208" y2="49.5714" gradientUnits="userSpaceOnUse">
<stop stop-color="#FFE17B"/>
<stop offset="0.4847" stop-color="#FFD178"/>
<stop offset="1" stop-color="#FFC476"/>
</linearGradient>
</defs>
</svg>
