<svg width="25" height="25" viewBox="0 0 25 25" fill="none" xmlns="http://www.w3.org/2000/svg">
<g filter="url(#filter0_d)">
<path d="M3 9L10.5 3L18 9" stroke="#80A6E7" stroke-linecap="round" stroke-linejoin="round"/>
<path d="M5 10V18" stroke="#80A6E7" stroke-linecap="round" stroke-linejoin="round"/>
<path d="M16 10V18" stroke="#80A6E7" stroke-linecap="round" stroke-linejoin="round"/>
<path d="M8 18V13.5C8 12.837 8.26339 12.2011 8.73223 11.7322C9.20107 11.2634 9.83696 11 10.5 11C11.163 11 11.7989 11.2634 12.2678 11.7322C12.7366 12.2011 13 12.837 13 13.5V18" fill="#F1C4D9"/>
<path d="M8 18V13.5C8 12.837 8.26339 12.2011 8.73223 11.7322C9.20107 11.2634 9.83696 11 10.5 11V11C11.163 11 11.7989 11.2634 12.2678 11.7322C12.7366 12.2011 13 12.837 13 13.5V18" stroke="#F1C4D9" stroke-linecap="round" stroke-linejoin="round"/>
<path d="M3 18H18" stroke="#80A6E7" stroke-linecap="round" stroke-linejoin="round"/>
</g>
<defs>
<filter id="filter0_d" x="0.5" y="0.5" width="24" height="24" filterUnits="userSpaceOnUse" color-interpolation-filters="sRGB">
<feFlood flood-opacity="0" result="BackgroundImageFix"/>
<feColorMatrix in="SourceAlpha" type="matrix" values="0 0 0 0 0 0 0 0 0 0 0 0 0 0 0 0 0 0 127 0"/>
<feOffset dx="2" dy="2"/>
<feGaussianBlur stdDeviation="2"/>
<feColorMatrix type="matrix" values="0 0 0 0 0.270729 0 0 0 0 0.458592 0 0 0 0 0.941667 0 0 0 0.54 0"/>
<feBlend mode="normal" in2="BackgroundImageFix" result="effect1_dropShadow"/>
<feBlend mode="normal" in="SourceGraphic" in2="effect1_dropShadow" result="shape"/>
</filter>
</defs>
</svg>
