<svg width="37" height="37" viewBox="0 0 37 37" fill="none" xmlns="http://www.w3.org/2000/svg">
<g clip-path="url(#clip0)">
<path d="M18.5 37C28.7173 37 37 28.7173 37 18.5C37 8.28273 28.7173 0 18.5 0C8.28273 0 0 8.28273 0 18.5C0 28.7173 8.28273 37 18.5 37Z" fill="#F58D89"/>
<path d="M35.0322 26.8105C32.9427 30.96 29.3699 34.1724 25.0225 35.8106C20.6751 37.4488 15.8707 37.3931 11.5625 35.6544L11.5314 35.6421C10.6373 35.2784 9.77327 34.8449 8.94719 34.3457C5.95912 32.5394 3.54028 29.928 1.96777 26.8105C3.25195 24.2618 5.10666 22.0436 7.38769 20.3283C7.64785 20.1322 7.91282 19.9431 8.18262 19.761C8.42687 19.5972 8.67547 19.4385 8.9284 19.2848C9.24492 19.0921 9.56771 18.9097 9.89676 18.7378C10.3241 18.5123 10.7611 18.3039 11.2077 18.1127C11.3168 18.0657 11.4245 18.0194 11.5379 17.9746C11.6824 17.9168 11.827 17.8605 11.9715 17.807C12.0315 17.7831 12.0915 17.7607 12.1514 17.739L12.2187 17.7152C12.8354 17.4919 13.4638 17.3023 14.1012 17.1472C14.2197 17.1183 14.3389 17.0901 14.4589 17.0641C14.8853 16.9677 15.3172 16.8875 15.7546 16.8234L15.8269 16.8133C16.0962 16.7738 16.3674 16.7406 16.6406 16.7136C17.2584 16.6517 17.879 16.6208 18.5 16.6211C19.1142 16.6211 19.7213 16.651 20.3211 16.7107C20.5422 16.7319 20.7621 16.756 20.9809 16.783C21.0322 16.7902 21.0842 16.7967 21.1355 16.8047C21.5539 16.8639 21.9687 16.9376 22.377 17.0214C23.233 17.2033 24.0746 17.4467 24.8955 17.7499L24.9959 17.7875C25.2527 17.8838 25.5064 17.9855 25.7569 18.0924C26.2141 18.2851 26.6617 18.4981 27.0996 18.7313C27.446 18.9124 27.7859 19.1051 28.1193 19.3094C28.3442 19.4457 28.5656 19.5874 28.7834 19.7343C29.0536 19.915 29.3186 20.1029 29.5783 20.298C31.874 22.0156 33.7405 24.2418 35.0315 26.8019L35.0322 26.8105Z" fill="#EF7070"/>
<path d="M10.2793 15.001H6.70215V16.0488H10.2793V15.001Z" fill="#9E4830"/>
<path d="M9.90039 15.001H8.70801V16.0488H9.90039V15.001Z" fill="#823C2B"/>
<path d="M6.01562 16.645C6.63425 16.645 7.13574 16.1435 7.13574 15.5249C7.13574 14.9063 6.63425 14.4048 6.01562 14.4048C5.397 14.4048 4.89551 14.9063 4.89551 15.5249C4.89551 16.1435 5.397 16.645 6.01562 16.645Z" fill="#FA3268"/>
<path d="M10.2793 12.7065H3.99219V13.7544H10.2793V12.7065Z" fill="#9E4830"/>
<path d="M10.795 10.8999H26.205C26.4422 10.8999 26.6698 10.9942 26.8376 11.1619C27.0054 11.3297 27.0996 11.5573 27.0996 11.7946V21.1978H9.90039V11.7946C9.90039 11.5573 9.99465 11.3297 10.1624 11.1619C10.3302 10.9942 10.5578 10.8999 10.795 10.8999Z" fill="#9E4830"/>
<path d="M27.0996 19.5537V21.1978H9.90039V11.7938C9.90039 11.6764 9.92354 11.5601 9.96851 11.4516C10.0135 11.3431 10.0794 11.2445 10.1625 11.1615C10.2456 11.0785 10.3442 11.0126 10.4527 10.9677C10.5613 10.9229 10.6776 10.8998 10.795 10.8999H11.6297V15.6492C11.6297 16.6842 12.0408 17.6767 12.7727 18.4086C13.5045 19.1404 14.4971 19.5515 15.5321 19.5515L27.0996 19.5537Z" fill="#823C2B"/>
<path d="M7.77434 20.6802H29.2257C29.3997 20.6802 29.5666 20.7493 29.6896 20.8724C29.8127 20.9954 29.8818 21.1623 29.8818 21.3363V23.7334C29.8818 24.5782 29.5462 25.3885 28.9488 25.9859C28.3514 26.5833 27.5412 26.9189 26.6964 26.9189H10.3036C9.45879 26.9189 8.64856 26.5833 8.05117 25.9859C7.45378 25.3885 7.11816 24.5782 7.11816 23.7334V21.3363C7.11816 21.1623 7.1873 20.9954 7.31035 20.8724C7.43341 20.7493 7.60031 20.6802 7.77434 20.6802Z" fill="#A65C3B"/>
<path d="M13.8564 19.9575C15.413 19.9575 16.6748 18.6957 16.6748 17.1392C16.6748 15.5826 15.413 14.3208 13.8564 14.3208C12.2999 14.3208 11.0381 15.5826 11.0381 17.1392C11.0381 18.6957 12.2999 19.9575 13.8564 19.9575Z" fill="white"/>
<path d="M13.857 19.1388C14.9614 19.1388 15.8566 18.2436 15.8566 17.1392C15.8566 16.0349 14.9614 15.1396 13.857 15.1396C12.7527 15.1396 11.8574 16.0349 11.8574 17.1392C11.8574 18.2436 12.7527 19.1388 13.857 19.1388Z" fill="#32314B"/>
<path d="M23.1064 19.9575C24.663 19.9575 25.9248 18.6957 25.9248 17.1392C25.9248 15.5826 24.663 14.3208 23.1064 14.3208C21.5499 14.3208 20.2881 15.5826 20.2881 17.1392C20.2881 18.6957 21.5499 19.9575 23.1064 19.9575Z" fill="white"/>
<path d="M23.107 19.1388C24.2114 19.1388 25.1066 18.2436 25.1066 17.1392C25.1066 16.0349 24.2114 15.1396 23.107 15.1396C22.0027 15.1396 21.1074 16.0349 21.1074 17.1392C21.1074 18.2436 22.0027 19.1388 23.107 19.1388Z" fill="#32314B"/>
<path d="M10.3311 23.6431H9.14449C8.90343 23.6431 8.70801 23.8385 8.70801 24.0795V25.2662C8.70801 25.5072 8.90343 25.7026 9.14449 25.7026H10.3311C10.5722 25.7026 10.7676 25.5072 10.7676 25.2662V24.0795C10.7676 23.8385 10.5722 23.6431 10.3311 23.6431Z" fill="#C67E61"/>
<path d="M13.1856 23.6431H11.999C11.7579 23.6431 11.5625 23.8385 11.5625 24.0795V25.2662C11.5625 25.5072 11.7579 25.7026 11.999 25.7026H13.1856C13.4267 25.7026 13.6221 25.5072 13.6221 25.2662V24.0795C13.6221 23.8385 13.4267 23.6431 13.1856 23.6431Z" fill="#C67E61"/>
<path d="M16.0401 23.6431H14.8535C14.6124 23.6431 14.417 23.8385 14.417 24.0795V25.2662C14.417 25.5072 14.6124 25.7026 14.8535 25.7026H16.0401C16.2811 25.7026 16.4766 25.5072 16.4766 25.2662V24.0795C16.4766 23.8385 16.2811 23.6431 16.0401 23.6431Z" fill="#C67E61"/>
<path d="M18.8946 23.6431H17.708C17.4669 23.6431 17.2715 23.8385 17.2715 24.0795V25.2662C17.2715 25.5072 17.4669 25.7026 17.708 25.7026H18.8946C19.1356 25.7026 19.3311 25.5072 19.3311 25.2662V24.0795C19.3311 23.8385 19.1356 23.6431 18.8946 23.6431Z" fill="#C67E61"/>
<path d="M21.7491 23.6431H20.5625C20.3214 23.6431 20.126 23.8385 20.126 24.0795V25.2662C20.126 25.5072 20.3214 25.7026 20.5625 25.7026H21.7491C21.9901 25.7026 22.1855 25.5072 22.1855 25.2662V24.0795C22.1855 23.8385 21.9901 23.6431 21.7491 23.6431Z" fill="#C67E61"/>
<path d="M24.6036 23.6431H23.417C23.1759 23.6431 22.9805 23.8385 22.9805 24.0795V25.2662C22.9805 25.5072 23.1759 25.7026 23.417 25.7026H24.6036C24.8446 25.7026 25.04 25.5072 25.04 25.2662V24.0795C25.04 23.8385 24.8446 23.6431 24.6036 23.6431Z" fill="#C67E61"/>
<path d="M27.458 23.6431H26.2714C26.0304 23.6431 25.835 23.8385 25.835 24.0795V25.2662C25.835 25.5072 26.0304 25.7026 26.2714 25.7026H27.458C27.6991 25.7026 27.8945 25.5072 27.8945 25.2662V24.0795C27.8945 23.8385 27.6991 23.6431 27.458 23.6431Z" fill="#C67E61"/>
<path d="M29.8818 21.5952H7.11816V22.7515H29.8818V21.5952Z" fill="#C67E61"/>
<path d="M9.90039 12.7065H8.70801V13.7544H9.90039V12.7065Z" fill="#823C2B"/>
<path d="M3.48633 14.3506C4.10495 14.3506 4.60645 13.8491 4.60645 13.2305C4.60645 12.6118 4.10495 12.1104 3.48633 12.1104C2.8677 12.1104 2.36621 12.6118 2.36621 13.2305C2.36621 13.8491 2.8677 14.3506 3.48633 14.3506Z" fill="#FA3268"/>
<path d="M26.792 13.7549H33.0791V12.707H26.792V13.7549Z" fill="#9E4830"/>
<path d="M27.1719 13.7549H28.3643V12.707H27.1719V13.7549Z" fill="#823C2B"/>
<path d="M26.792 16.0493H30.3691V15.0015H26.792V16.0493Z" fill="#9E4830"/>
<path d="M27.1719 16.0493H28.3643V15.0015H27.1719V16.0493Z" fill="#823C2B"/>
<path d="M33.585 14.3506C34.2036 14.3506 34.7051 13.8491 34.7051 13.2305C34.7051 12.6118 34.2036 12.1104 33.585 12.1104C32.9663 12.1104 32.4648 12.6118 32.4648 13.2305C32.4648 13.8491 32.9663 14.3506 33.585 14.3506Z" fill="#FA3268"/>
<path d="M31.0557 16.645C31.6743 16.645 32.1758 16.1435 32.1758 15.5249C32.1758 14.9063 31.6743 14.4048 31.0557 14.4048C30.437 14.4048 29.9355 14.9063 29.9355 15.5249C29.9355 16.1435 30.437 16.645 31.0557 16.645Z" fill="#FA3268"/>
<path d="M20.3247 9.17781H18.8613V7.67252C18.8613 7.57669 18.8233 7.48478 18.7555 7.41702C18.6877 7.34926 18.5958 7.31119 18.5 7.31119H16.8379V5.93814H18.5C18.5958 5.93814 18.6877 5.90008 18.7555 5.83231C18.8233 5.76455 18.8613 5.67265 18.8613 5.57682V4.78189H20.3247C20.4205 4.78189 20.5124 4.74383 20.5802 4.67606C20.648 4.6083 20.686 4.5164 20.686 4.42057C20.686 4.32474 20.648 4.23283 20.5802 4.16507C20.5124 4.09731 20.4205 4.05924 20.3247 4.05924H18.8613V2.69775C18.8613 2.60192 18.8233 2.51002 18.7555 2.44226C18.6877 2.37449 18.5958 2.33643 18.5 2.33643C18.4042 2.33643 18.3123 2.37449 18.2445 2.44226C18.1767 2.51002 18.1387 2.60192 18.1387 2.69775V4.05924H16.6753C16.5795 4.05924 16.4876 4.09731 16.4198 4.16507C16.352 4.23283 16.314 4.32474 16.314 4.42057C16.314 4.5164 16.352 4.6083 16.4198 4.67606C16.4876 4.74383 16.5795 4.78189 16.6753 4.78189H18.1387V5.21549H16.4766C16.3807 5.21549 16.2888 5.25356 16.2211 5.32132C16.1533 5.38908 16.1152 5.48099 16.1152 5.57682V7.67252C16.1152 7.76835 16.1533 7.86025 16.2211 7.92802C16.2888 7.99578 16.3807 8.03385 16.4766 8.03385H18.1387V9.17781H16.6753C16.5795 9.17781 16.4876 9.21588 16.4198 9.28364C16.352 9.3514 16.314 9.44331 16.314 9.53914C16.314 9.63497 16.352 9.72688 16.4198 9.79464C16.4876 9.8624 16.5795 9.90047 16.6753 9.90047H18.1387V10.8999C18.1387 10.9957 18.1767 11.0876 18.2445 11.1554C18.3123 11.2232 18.4042 11.2612 18.5 11.2612C18.5958 11.2612 18.6877 11.2232 18.7555 11.1554C18.8233 11.0876 18.8613 10.9957 18.8613 10.8999V9.90047H20.3247C20.4205 9.90047 20.5124 9.8624 20.5802 9.79464C20.648 9.72688 20.686 9.63497 20.686 9.53914C20.686 9.44331 20.648 9.3514 20.5802 9.28364C20.5124 9.21588 20.4205 9.17781 20.3247 9.17781Z" fill="#9E4830"/>
<path d="M22.8781 12.5801C23.4489 12.5801 23.9115 12.3698 23.9115 12.1104C23.9115 11.8509 23.4489 11.6406 22.8781 11.6406C22.3074 11.6406 21.8447 11.8509 21.8447 12.1104C21.8447 12.3698 22.3074 12.5801 22.8781 12.5801Z" fill="#A65C3B"/>
<path d="M25.3762 12.4736C25.818 12.4736 26.1761 12.3108 26.1761 12.1101C26.1761 11.9093 25.818 11.7466 25.3762 11.7466C24.9343 11.7466 24.5762 11.9093 24.5762 12.1101C24.5762 12.3108 24.9343 12.4736 25.3762 12.4736Z" fill="#A65C3B"/>
<path d="M21.6464 26.9189H14.9561V29.3637H21.6464V26.9189Z" fill="#9E4830"/>
<path d="M25.04 30.9897V35.8106C20.6866 37.4488 15.8768 37.3931 11.5625 35.6545V30.9897C11.5625 30.5633 11.7319 30.1543 12.0334 29.8528C12.335 29.5512 12.744 29.3818 13.1704 29.3818H23.4321C23.8586 29.3818 24.2676 29.5512 24.5691 29.8528C24.8706 30.1543 25.04 30.5633 25.04 30.9897Z" fill="#A65C3B"/>
<path d="M21.6464 26.9189H14.9561V28.0513H21.6464V26.9189Z" fill="#823C2B"/>
<path d="M18.5 3.51709C19.1186 3.51709 19.6201 3.0156 19.6201 2.39697C19.6201 1.77835 19.1186 1.27686 18.5 1.27686C17.8814 1.27686 17.3799 1.77835 17.3799 2.39697C17.3799 3.0156 17.8814 3.51709 18.5 3.51709Z" fill="#FA3268"/>
</g>
<defs>
<clipPath id="clip0">
<rect width="37" height="37" fill="white"/>
</clipPath>
</defs>
</svg>
