<?xml version="1.0" encoding="utf-8"?>
<!-- Generator: Adobe Illustrator 25.2.3, SVG Export Plug-In . SVG Version: 6.00 Build 0)  -->
<svg version="1.1" id="Layer_1" xmlns="http://www.w3.org/2000/svg" xmlns:xlink="http://www.w3.org/1999/xlink" x="0px" y="0px"
	 viewBox="0 0 375 404" style="enable-background:new 0 0 375 404;" xml:space="preserve">
<style type="text/css">
	.st0{fill:url(#SVGID_1_);}
	.st1{fill:url(#SVGID_2_);}
	.st2{fill:#FFFFFF;}
	.st3{fill:url(#SVGID_3_);}
	.st4{fill:#80A6E7;}
	.st5{fill:#151E27;}
	.st6{fill:#FA9278;}
	.st7{fill:#C4DBF1;}
	.st8{fill:url(#SVGID_4_);}
	.st9{fill:url(#SVGID_5_);}
	.st10{fill:url(#SVGID_6_);}
</style>
<g>
	
		<linearGradient id="SVGID_1_" gradientUnits="userSpaceOnUse" x1="121.9264" y1="129.4459" x2="202.8886" y2="176.1961" gradientTransform="matrix(1 0 0 -1 0 408)">
		<stop  offset="7.000000e-02" style="stop-color:#F1C4D9"/>
		<stop  offset="0.7" style="stop-color:#2755A3"/>
	</linearGradient>
	<path class="st0" d="M194.7,227.3c-1-0.2-9.2-16-22.4-17.3c-13.2-1.3-22.9,12.1-23.4,14.4s5.7-2.1,13.8,0.1
		c8.1,2.3,12.1,7.4,2.4,6.6c-9.7-0.9-13.9-5.4-19.5-2.2c-5.6,3.3-10.8,8-12.4,15.7c-1.7,7.7,1.3,9.8,6.4,4s19.8-5.9,21.2-3.6
		c1.4,2.3-12,11.9-22,11.9c-6.6,0-12.4,7.4-13.8,12.7c-1.4,5.2-1.8,16,4.2,19.4c6,3.4,21.7,0.4,26.2-4.3c4.5-4.9,8.1-10.6,10.7-16.7
		c2.1-5.2,5.3-9.5,5.2-4.6s-6.9,13.8-6.9,17.2c0,3.4,5.2,3.6,9.2,2.5c8.8-2.6,12.5-10.7,10.2-21.1c-1.7-7.6,2.5-6.5,4-3.8
		s2.3,11.5-0.5,15.9c-2.8,4.4,2.3,5.9,7.4,4.9c6.1-1.2,18.2-7.5,19.7-21C215.8,244.4,194.7,227.3,194.7,227.3z"/>
	
		<linearGradient id="SVGID_2_" gradientUnits="userSpaceOnUse" x1="303.8" y1="201.4352" x2="262.5461" y2="218.2922" gradientTransform="matrix(1 0 0 -1 0 408)">
		<stop  offset="7.000000e-02" style="stop-color:#F1C4D9"/>
		<stop  offset="0.7" style="stop-color:#2755A3"/>
	</linearGradient>
	<path class="st1" d="M250.7,214.8c0,0-4.4-8.1,1.1-15.4s17-16.7,29.5-18.2c8.1-0.9,10.2-3,10.2-3s0.2,2.9,1.5,2.7
		c1.3-0.2,3-3,4.2-2.9c1.2,0.1,9.8-2,10.4,0c0.6,2-3.7,8.7-14.6,13.6c-10.8,4.9-13.8,4.9-19.1,12.1c-5.2,7.2-12,12.9-16.8,13
		C252.3,216.8,250.7,214.8,250.7,214.8z"/>
	<path class="st2" d="M252.3,213.6c-0.2,0-0.3-0.1-0.4-0.2c-0.2-0.2-0.2-0.6,0-0.9l0,0c0.1-0.1,8.6-9,15.1-15.9
		c6.7-7.2,12.7-9.3,20.8-10.5c7.8-1.1,18-7.6,18.1-7.7c0.3-0.2,0.7-0.1,0.8,0.2s0.1,0.6-0.2,0.8c0,0,0,0,0,0
		c-0.4,0.3-10.6,6.7-18.6,7.9c-8,1.2-13.6,3.2-20.1,10.1c-6.4,6.9-15,15.9-15.1,16C252.6,213.5,252.4,213.6,252.3,213.6z"/>
	
		<linearGradient id="SVGID_3_" gradientUnits="userSpaceOnUse" x1="247.2321" y1="327.1591" x2="261.2332" y2="202.3409" gradientTransform="matrix(1 0 0 -1 0 408)">
		<stop  offset="7.000000e-02" style="stop-color:#EEC6A7"/>
		<stop  offset="0.7" style="stop-color:#2755A3"/>
	</linearGradient>
	<path class="st3" d="M258.4,186.5c0.7,0.8,0.8,2,0.3,2.9c-2.5,5-10.3,18.6-22.9,21.1c-15.5,3-9.4-25.4-5.2-36.4
		c3.2-8.4,6.6-16.4,8.1-19.8c0.4-1,1.2-1.7,2.2-1.9l2.3-0.4l-1.6-2.8c-0.4-0.9-0.3-2,0.3-2.8c2.1-3.2,12.4-5,14.6-16.6
		c2.7-14.2,12.1-20.6,17.2-26.3c2.1-2.4,4.5-4.5,7-6.4c1.7-1.3,3.6-0.2,3.3,1.9c-0.8,4.4-1.9,10.6-2.6,14c-0.7,3.5-1.3,6-1.6,7.3
		c-0.2,0.7-0.6,1.4-1.1,1.8l-4.2,3.5l2,1.7c0.5,0.5,0.8,1.3,0.6,2c-0.5,4,0.5,15.9-8.2,26.5c-6.8,8.3,1.2,11.7-4.1,23.6
		c-0.4,0.9-1.2,1.6-2.2,1.9l-2.4,0.5C258.1,182.4,257,185.3,258.4,186.5L258.4,186.5z"/>
	<path class="st2" d="M231.7,208.5c-0.3,0-0.6-0.2-0.6-0.6c0-0.1,0-0.3,0.1-0.4c13.4-17.7,17.2-29.3,24.6-53.7
		c7.1-23.5,24.4-54.2,24.6-54.5c0.2-0.3,0.6-0.4,0.8-0.2c0.3,0.2,0.3,0.5,0.2,0.8c-0.2,0.3-17.4,30.9-24.5,54.3
		c-7.5,24.6-11.3,36.2-24.8,54.1C232.1,208.4,231.9,208.5,231.7,208.5z"/>
	<path class="st4" d="M236.9,127.9c-0.2,0.1-0.4,0.2-0.6,0.3c0.7-2,1.3-4.1,1.8-6.2c0.7,0.2,4.8,1.1,8.1-1.5
		c3.5-2.8,4.3-9.6,4.3-9.6s-7.3,0.5-11,3.7c-0.1,0.1-0.2,0.2-0.3,0.3c0.1-1.3,0.1-2.6,0.1-3.9c0-1.6-0.1-3-0.2-4.4
		c0.1,0.1,0.2,0.2,0.2,0.2s4.8,0.4,7.7-3s2.3-10.2,2.3-10.2s-7.1,1.9-10,5.8c-0.4,0.5-0.7,1-0.9,1.6c-0.5-3.2-1.3-6.3-2.4-9.4
		c1.1-2.3,1.3-5,0.4-7.4c-1.7-4.1-8.1-6.7-8.1-6.7s-1.5,7.2,0.6,11.6c1.1,2.4,3.5,3.8,6.1,3.5c1.1,3.3,1.9,6.7,2.4,10.1
		c-0.5-1.3-1.3-2.5-2.4-3.4c-3.5-2.9-10.3-2.2-10.3-2.2s2,7,5.9,10c2.1,1.7,5.1,1.7,7.3,0.1c0.1,1.3,0.2,2.6,0.2,4c0,2,0,4-0.3,6
		c-0.3,0.8-0.4,1.7-0.4,2.5c0,0.2-0.1,0.4-0.1,0.6c-0.4-2.7-1.8-5.1-4.1-6.6c-3.8-2.4-10.5-0.8-10.5-0.8s2.9,6.7,7.2,9.1
		c2.3,1.3,5.2,1,7.1-0.9c-0.6,3.1-1.6,6.1-2.8,9c-0.3,0.5-0.5,1-0.7,1.6c-0.2,0.4-0.4,0.9-0.6,1.3c-0.2-1.1-0.9-4.9-4.1-6.9
		c-3.8-2.4-10.5-0.8-10.5-0.8s2.9,6.7,7.2,9.1c2.2,1.3,5.1,1,7-0.8c-2,4-4.3,7.8-6.9,11.4c0-0.7-0.3-4.9-3.7-7.4
		c-3.7-2.6-10.4-1.4-10.4-1.4s2.5,6.9,6.6,9.5c2.2,1.5,5.2,1.3,7.3-0.4c-0.9,1.2-1.8,2.5-2.8,3.8c-4.2,5.4-6,13.1-5.2,22.4
		c-0.3-2.4-1.6-4.5-3.5-6c-3.6-2.6-10.4-1.4-10.4-1.4s2.5,6.9,6.6,9.5c2.3,1.5,5.4,1.3,7.4-0.6c0.5,4.4,1.4,8.7,2.8,12.8
		c0.1,0.2,0.3,0.4,0.6,0.4c0.1,0,0.1,0,0.2,0c0.3-0.1,0.5-0.4,0.4-0.8c0,0,0,0,0,0c-1.4-4.2-2.3-8.5-2.7-12.9
		c1.2,0.4,4.7,1.3,7.8-0.6c3.8-2.3,5.4-9,5.4-9s-7.3-0.4-11.3,2.3c-1,0.6-1.7,1.5-2.2,2.5c-0.1-3.4,0.4-6.7,1.2-10
		c1.9,1.7,4.5,2.5,7.1,2.2c4.4-0.6,8.5-6.1,8.5-6.1s-6.5-3.3-11.3-2.3c-0.7,0.1-1.4,0.4-2.1,0.8c0.5-0.9,1-1.7,1.6-2.4
		c0.9-1.1,1.7-2.2,2.5-3.3c0.8,0.7,3.8,3.2,7.6,2.7c4.4-0.6,8.5-6.1,8.5-6.1s-6.5-3.3-11.3-2.3c-0.4,0.1-0.7,0.2-1.1,0.3
		c1.3-2.2,2.5-4.3,3.6-6.4c0.4,0.2,4.3,2.4,8.2,0.7c4.1-1.8,6.6-8.2,6.6-8.2S241.3,125.7,236.9,127.9z"/>
	<path class="st4" d="M211.4,157.3c2.3,1.5,5.4,1.3,7.4-0.6c0,0,0-4.8-3.6-7.4s-10.4-1.4-10.4-1.4S207.3,154.6,211.4,157.3z"/>
	<path class="st4" d="M204.1,125.7c0.1,1.1,0.4,2.1,1,3c1,3.3,1.1,6.8,0.4,10.1c-0.1,0.3,0.1,0.7,0.5,0.7h0.1c0.3,0,0.5-0.2,0.6-0.5
		c0.6-3,0.6-6.1-0.1-9.2c1.2-0.2,4.8-1.2,6.5-4.4c2.2-3.9,0.2-10.5,0.2-10.5s-6.5,3.3-8.7,7.7c-0.1,0.3-0.2,0.5-0.3,0.8
		c-0.6-1.2-1.2-2.4-1.9-3.5c-1.1-1.7-2.1-3.4-3.1-4.9c0.4,0.4,0.9,0.8,1.4,1.1c0,0,4.6-1.5,6-5.8S205,100,205,100s-5.8,4.5-7,9.2
		c-0.4,1.2-0.3,2.5,0.1,3.7c-2.6-4-4.8-7.1-6.2-9.1c0.1-1.1,0.2-4.9-2.5-7.6c-3.2-3.2-10-3.1-10-3.1s1.3,7.2,5,10.4
		c1.8,1.7,4.4,2.1,6.6,1.1c1.2,1.6,2.8,3.9,4.7,6.8c-0.5-0.3-1.1-0.6-1.7-0.8c-4.3-1.3-10.3,2-10.3,2s4.6,5.7,9.3,6.9
		c2.4,0.7,5-0.3,6.5-2.3c0.7,1.1,1.4,2.2,2.1,3.3C202.5,122.2,203.4,123.9,204.1,125.7z"/>
	<path class="st5" d="M271.7,283.8h-0.1c-1.4,0.1-2.8,0.4-4.1,0.9c-1.3,0.5-2.4,1.2-3.4,2.2c-0.7,0.5-1.1,1.3-1.2,2.1l0.6,7.9
		c0,0.7,0.4,1.2,1.3,1.6c0.3,0.1,0.5,0.3,0.6,0.6c0.5,1.2-1.4,4.1-1.4,4.1s0.3,4.3,0.9,12.2c0.4,5.2,3.1,8.9,4.8,11
		c0.4,0.5,1,0.6,1.5,0.2c0.2-0.2,0.4-0.5,0.5-0.8c0.3-1.9,0.5-3.9,0.6-5.8c0.3-3.2,0.8-6.4,1.5-9.6h0c-1.3-1.4-2.4-3.1-3.1-5
		c-0.8-2.2,0.8-8,2.5-12.7C274.8,288.2,271.7,283.8,271.7,283.8z"/>
	<path class="st6" d="M269.2,274.8c1.2,2.9,2,5.9,2.4,9v0.1h0.1c0,0,3,4.3,1.3,9c-1.7,4.7-3.3,10.4-2.5,12.7c0.7,1.8,1.7,3.5,3.1,5
		c1.3-6.4,4.7-23.9,5-25.9c0.4-2.4,0.9-4.7,1.2-6.7C278.4,277.5,269.8,274.8,269.2,274.8z"/>
	<path class="st5" d="M194.4,294.8c0,0,0-0.1-0.1-0.1c-0.7-1.2-1.6-2.4-2.7-3.3c-1-0.9-2.2-1.6-3.4-2.1c-0.8-0.4-1.6-0.5-2.5-0.2
		l-6.8,4c-0.6,0.4-1,1.1-0.9,1.8c0,0.3-0.1,0.6-0.3,0.8c-0.8,0.9-4.3,0.5-4.3,0.5l-10.6,6.1c-4.5,2.6-6.6,6.8-7.8,9.1
		c-0.3,0.6,0,1.2,0.5,1.5c0.2,0.1,0.5,0.1,0.8,0.1c1.9-0.6,3.7-1.2,5.5-2c3-1.2,6.1-2.1,9.3-2.8v-0.1c0.7-1.9,1.8-3.6,3.1-5
		c1.7-1.7,7.5-2.8,12.5-3.3C191.8,299.4,194.4,294.8,194.4,294.8z"/>
	<path class="st6" d="M201.4,288.5c-2.1,2.3-4.4,4.4-7,6.1h-0.1c0,0,0,0.1,0.1,0.1c0,0-2.6,4.6-7.5,5.1s-10.8,1.6-12.5,3.3
		c-1.4,1.4-2.4,3.1-3.1,5c6.3-1.7,23.4-6.3,25.4-7l6.2-2.1C202.6,297.6,201.7,289.1,201.4,288.5z"/>
	<path class="st7" d="M68,142.7c4.5,0.2,8.9,6.6,11.8,6.6c2.8,0,5.6-1.9,10.3-2.1c4.7-0.2,8,5.7,11.1,11.3c3.1,5.6,6.4,9.9,10.6,8.9
		c4.2-0.9,6.1-1.6,10.6,0.2c4.5,1.9,13.9-0.7,20,2.6s10.4,6.1,15.3,4.5c4.9-1.7,5.8-5.3,12.6-3.6c6.8,1.6,6.2-3,16.9-4.1
		c3.9-0.4,6.4,0.4,8,1.6c4.1-4.6,6.9-7.8,6.9-7.8c0.1-0.3,8-11.6,4.5-21.1c-3.5-9.5-9.4-13.8-19.7-13.8s-18.8,11.5-30.4,12.1
		c-11.6,0.6-29.9-10.7-43.7-14.6c-13.8-3.9-31.4,0-38.9,5.4c-5.8,4.1-14.8,12.9-18.4,24.3C60.9,147.6,66.1,142.6,68,142.7z
		 M165.8,166c2.3,0,12.2,0.3,8.8,1c-2.9,0.6-32.3,0.6-32.7,0.1s5-0.7,5-0.7s-0.4-0.6,2.7-0.9c3.1-0.2,3.4,0,3.4,0s1.2-0.8,6.7-0.6
		C161.8,165,163.8,165.3,165.8,166z M129.7,158.9c0,0-0.4-1.8,2.8-2.3c3.2-0.6,3.6,0,3.6,0s1.3-2.1,7-1.6c4.4,0.4,6.4,2.6,6.4,2.6
		c2.4,0,12.8,0.8,9.2,2.9c-3,1.8-33.9,1.8-34.3,0.3C124.1,159.3,129.7,158.9,129.7,158.9z M91.8,138.3c0,0-0.4-2,2.7-2.7
		c3.1-0.6,3.5,0,3.5,0s1.2-2.3,6.8-1.8c2.4,0.2,4.6,1.2,6.2,3c2.3,0,12.3,0.9,8.9,3.2c-2.9,2-32.8,2-33.2,0.3S91.8,138.3,91.8,138.3
		z"/>
	<path class="st5" d="M54,164c0.2,5.4,1,10.8,2.5,15.9h128.6c3.8-4.1,7.3-8.1,10.2-11.3c-1.7-1.2-4.2-2-8-1.6
		c-10.7,1.1-10.1,5.8-16.9,4.1c-6.8-1.7-7.7,2-12.6,3.6s-9.2-1.2-15.3-4.5c-6.1-3.3-15.5-0.7-20-2.6c-4.5-1.9-6.4-1.2-10.6-0.2
		c-4.2,0.9-7.5-3.3-10.6-8.9c-3.1-5.6-6.4-11.5-11.1-11.3c-4.7,0.2-7.5,2.1-10.4,2.1s-7.3-6.4-11.8-6.6c-1.9-0.1-7.1,4.8-12.5,10.5
		C54.5,156.7,53.9,160.3,54,164z"/>
	
		<linearGradient id="SVGID_4_" gradientUnits="userSpaceOnUse" x1="56.5498" y1="208.1225" x2="185.1" y2="208.1225" gradientTransform="matrix(1 0 0 -1 0 408)">
		<stop  offset="0" style="stop-color:#18222D"/>
		<stop  offset="0.14" style="stop-color:#1D3456"/>
		<stop  offset="0.29" style="stop-color:#214277"/>
		<stop  offset="0.43" style="stop-color:#254D8F"/>
		<stop  offset="0.56" style="stop-color:#26539E"/>
		<stop  offset="0.67" style="stop-color:#2755A3"/>
	</linearGradient>
	<path class="st8" d="M56.5,179.9l0.1,0.5c0.6,1.8,1.2,3.7,2,5.5c5.1,12.6,15.3,25.1,34.2,30.7c30.6,9.1,57.3-3.1,70-14.2
		c4.4-3.9,10.5-10.1,16.6-16.5c1.7-1.8,3.5-3.7,5.2-5.5l0.5-0.5H56.5z"/>
	<path class="st2" d="M120,140.1c3.4-2.3-6.6-3.2-8.9-3.2c-1.6-1.8-3.8-2.8-6.2-3c-5.5-0.6-6.8,1.8-6.8,1.8s-0.4-0.7-3.5,0
		c-3.1,0.7-2.7,2.7-2.7,2.7s-5.4,0.4-5,2.1C87.3,142.1,117.1,142.1,120,140.1z"/>
	<path class="st2" d="M158.7,160.5c3.5-2.1-6.8-2.9-9.2-2.9c0,0-2-2.2-6.4-2.6c-5.7-0.5-7,1.6-7,1.6s-0.4-0.6-3.6,0
		c-3.2,0.6-2.8,2.3-2.8,2.3s-5.6,0.4-5.2,1.9C124.9,162.2,155.7,162.2,158.7,160.5z"/>
	<path class="st2" d="M153,165.6c0,0-0.4-0.2-3.4,0c-3.1,0.2-2.7,0.9-2.7,0.9s-5.4,0.1-5,0.7s29.8,0.5,32.7-0.1c3.4-0.8-6.5-1-8.8-1
		c-2-0.7-4-1-6.1-1C154.2,164.8,153,165.6,153,165.6z"/>
	<path class="st6" d="M119.5,174.1c0,0-6.5-5.4-13.9-6.6c-1.8-0.3-3.3-1.2-4.2-0.6c-0.9,0.6,0.9,2.5,0.9,2.5c-1-0.1-2-0.2-2.9-0.4
		c-1.7-0.4-4.2-2.9-5.1-2.6s-0.8,1.4-0.8,1.4s-1.2-0.6-1.8,0c-0.9,0.9-0.3,2.5-0.3,2.5s-1.2,0.4,0,2.4c0.4,0.7,3,3,8.2,4.3
		c3,0.8,6,1.3,9.1,1.5h0.4C110.2,178,119.3,173.8,119.5,174.1z"/>
	<path class="st2" d="M205.6,171.6c-7.6-11.7-17.5-10.6-17.5-10.6c-2.1,0.4-4.2-0.5-5.4-2.3c-1.1-1.6-4.8-3.5-7.7-4.1
		c-7.7-1.5-14.1,0.3-21.2,11.3c-6.6,10.2-8.1,18-14.8,20.4c-7.1,2.6-13.8-1.4-19.5-12.3c-0.2-0.4-9.3,3.9-10.4,4.4l-0.1,0.1
		c0,0,4.7,24.9,21.4,28.2c18.8,3.6,31.4-11.9,31.4-11.9s-6.6,15-6.3,30.6c0.4,19.6,6,20.5,6,20.5l44.6-49.3
		C206,196.5,211,179.8,205.6,171.6z"/>
	<path class="st6" d="M191.1,139.3c0,0-5.2,2.7-7.4,6.3c-1.3,2.3-1.9,5-1.7,7.6c0.1,0.8,0.5,1.4,1.2,1.8l1.1,0.6c0,0-0.7,1.2-1.2,2
		c-1.1,1.6-0.4,3,1.5,3.7c1.2,0.2,2.4,0.1,3.5-0.3l6.6-11.9c1.1-2,0.8-4.4-0.6-6.2L191.1,139.3z"/>
	<path d="M186.1,148.6c-0.1,0-0.1,0-0.2-0.1l-1.1-0.9c-0.1-0.1-0.1-0.3,0-0.4c0,0,0,0,0,0l2.1-2.1c0.1-0.1,0.3-0.1,0.4,0
		c0,0,0,0,0,0c0.1,0.1,0.1,0.3,0,0.4l-1.9,1.8l0.9,0.6c0.1,0.1,0.2,0.3,0.1,0.4C186.4,148.5,186.3,148.6,186.1,148.6z"/>
	<path d="M185.4,151.3c-0.6-0.1-1.1-0.3-1.4-0.8c-0.1-0.1-0.1-0.3,0-0.4c0.1-0.1,0.3-0.1,0.4,0c0,0,0,0,0,0c0.6,0.8,1.1,0.6,1.1,0.6
		c0.2-0.1,0.3,0,0.4,0.1c0.1,0.1,0,0.3-0.1,0.4c0,0,0,0,0,0C185.7,151.3,185.5,151.3,185.4,151.3z"/>
	<path d="M190.5,147.8c-0.4,0-0.7-0.1-1-0.3c-0.4-0.3-0.6-0.7-0.7-1.1c0-0.2,0.1-0.3,0.2-0.3c0,0,0,0,0,0c0.1,0,0.3,0.1,0.3,0.2
		c0,0,0,0,0,0c0.1,0.3,0.2,0.5,0.4,0.7c0.3,0.2,0.7,0.2,1.1,0.1c0.2,0,0.3,0.1,0.4,0.2v0c0,0.2-0.1,0.3-0.2,0.4h0
		C190.9,147.8,190.7,147.8,190.5,147.8z"/>
	
		<linearGradient id="SVGID_5_" gradientUnits="userSpaceOnUse" x1="167.4489" y1="162.4285" x2="294.8369" y2="159.7495" gradientTransform="matrix(1 0 0 -1 0 408)">
		<stop  offset="0" style="stop-color:#604CD8"/>
		<stop  offset="1" style="stop-color:#C4DBF1"/>
	</linearGradient>
	<path class="st9" d="M174,216c0,0-22.2,15-6.1,29.2c16.9,14.9,49.8-0.7,58.8-11.6c0.1-0.1-6.7,8.8-9.6,17
		c-6.9,20-11.2,31.2-13.5,34.7l-2.3,3.4l1.6,10.3c17.5-9.1,33-21.5,45.7-36.5c20.6-24.6,26.5-39.6,25.4-46.2
		c-1.1-6.5-29.1-20.6-50.2-22.2C185.3,191.3,174,216,174,216z"/>
	<path class="st2" d="M202.4,299.9l-1.8-11.2l2.4-3.6c2.1-3.2,6.2-13.5,13.4-34.5c1.6-4.3,3.7-8.4,6.2-12.2
		c-7.9,6.4-21.2,12.5-33.3,13.5c-9.1,0.7-16.4-1.3-21.9-6.1c-4.3-3.8-6.4-8-6.1-12.5c0.6-9.2,10.7-16.6,12.1-17.5
		c2.6-4.8,6.2-8.9,10.6-12.1c7-5.4,19.7-11.5,39.7-10c21,1.6,49.5,15.4,50.8,22.7c0.7,4-0.4,16.6-25.5,46.7
		c-12.8,15.1-28.4,27.5-45.9,36.6L202.4,299.9z M201.8,288.9l1.5,9.2c17.1-9,32.3-21.3,44.8-36c25.5-30.5,25.8-42.7,25.3-45.7
		c-1-6-28.7-20.1-49.7-21.6c-19.6-1.5-31.9,4.4-38.8,9.7c-4.3,3.1-7.8,7.2-10.4,11.8l-0.1,0.1l-0.1,0.1c-0.1,0.1-11.1,7.6-11.7,16.7
		c-0.3,4.1,1.6,8,5.6,11.5c5.2,4.6,12.3,6.5,21,5.8c14.5-1.2,30.8-9.9,36.9-17.3l0.4-0.5l0.9,0.7l-0.4,0.5
		c-0.7,0.9-6.8,9.2-9.5,16.8c-7.4,21.4-11.4,31.5-13.6,34.8L201.8,288.9z"/>
	
		<linearGradient id="SVGID_6_" gradientUnits="userSpaceOnUse" x1="163.5777" y1="182.4351" x2="302.8377" y2="179.1091" gradientTransform="matrix(1 0 0 -1 0 408)">
		<stop  offset="0" style="stop-color:#604CD8"/>
		<stop  offset="1" style="stop-color:#C4DBF1"/>
	</linearGradient>
	<path class="st10" d="M280.1,278.4l-11-3.1l-2.2-3.8c-2.3-3.8-10.3-13.1-25.5-26.9c-12.1-11-14.3-25.2-14.7-31.1
		c-2.4,4.9-5.3,9.5-8.6,13.9c-1.4,1.9-2.6,3.8-3.9,5.9c-5.8,9.1-11.8,18.6-28.6,21.7c-11.2,2.1-18.2-1.9-22.1-5.6
		c-2.6-2.4-4.6-5.3-5.9-8.6l0-0.2v-0.2c0.1-0.6,2.4-15.4,26.5-37.2c15-13.6,43.9-27.8,51-25.9c3.9,1.1,14.8,7.5,31.3,43
		c8.2,18,12.8,37.4,13.6,57.1L280.1,278.4z"/>
	<path class="st2" d="M280.7,279l-11.9-3.4l-2.4-3.9c-2.2-3.8-10.3-13-25.4-26.8c-11.2-10.2-14-23.1-14.7-29.7
		c-2.3,4.3-4.9,8.5-7.8,12.4c-1.4,1.9-2.6,3.8-3.9,5.8c-5.9,9.2-11.9,18.8-28.9,21.9c-11.4,2.1-18.5-1.9-22.5-5.7
		c-2.6-2.4-4.7-5.5-6-8.8l-0.1-0.3l0-0.3c0.5-2.7,4-16.9,26.7-37.4c14.6-13.2,44-28.1,51.5-26c4,1.1,15.1,7.5,31.6,43.3
		c8.2,18.1,12.8,37.4,13.6,57.3L280.7,279z M269.5,274.8l10.1,2.9l0-0.1c-0.8-19.8-5.3-39-13.5-57c-16.4-35.3-27.1-41.6-31-42.7
		c-7.7-2.1-37.6,14-50.5,25.8c-2.4,2.2-23.7,21.8-26.4,36.9l0,0.1c1.2,3.1,3.2,6.1,5.7,8.4c3.8,3.6,10.7,7.5,21.6,5.4
		c16.6-3.1,22.5-12.4,28.3-21.4c1.3-2,2.5-4,3.9-5.9c3.2-4.3,6.1-9,8.5-13.8l0.8-1.7l0.1,1.9c0.3,5.6,2.5,19.8,14.6,30.7
		c15.2,13.8,23.3,23.2,25.6,27L269.5,274.8z"/>
</g>
</svg>
