<svg width="375" height="404" viewBox="0 0 375 404" fill="none" xmlns="http://www.w3.org/2000/svg">
<path d="M194.66 227.32C193.66 227.13 185.49 211.32 172.29 210.02C159.09 208.72 149.4 222.14 148.86 224.47C148.32 226.8 154.55 222.36 162.69 224.62C170.83 226.88 174.74 232.06 165.06 231.2C155.38 230.34 151.16 225.75 145.58 229.04C140 232.33 134.79 237 133.13 244.7C131.47 252.4 134.42 254.5 139.58 248.7C144.74 242.9 159.41 242.78 160.79 245.05C162.17 247.32 148.79 256.94 138.79 256.91C132.17 256.91 126.4 264.33 125 269.57C123.6 274.81 123.17 285.57 129.21 288.96C135.25 292.35 150.92 289.34 155.39 284.67C159.9 279.75 163.53 274.09 166.13 267.94C168.27 262.74 171.4 258.46 171.34 263.31C171.28 268.16 164.41 277.14 164.42 280.53C164.43 283.92 169.57 284.15 173.58 282.98C182.35 280.43 186.11 272.25 183.76 261.93C182.04 254.36 186.26 255.38 187.76 258.09C189.26 260.8 190.05 269.56 187.21 274C184.37 278.44 189.55 279.91 194.65 278.88C200.7 277.66 212.84 271.35 214.3 257.88C215.76 244.41 194.66 227.32 194.66 227.32Z" fill="url(#paint0_linear)"/>
<path d="M250.69 214.79C250.69 214.79 246.28 206.64 251.74 199.36C257.2 192.08 268.74 182.62 281.22 181.18C289.35 180.24 291.45 178.18 291.45 178.18C291.45 178.18 291.66 181.08 292.96 180.92C294.26 180.76 295.96 177.92 297.13 178.05C298.3 178.18 306.93 176.05 307.51 178.05C308.09 180.05 303.77 186.73 292.95 191.63C282.13 196.53 279.14 196.52 273.9 203.7C268.66 210.88 261.9 216.57 257.11 216.7C252.32 216.83 250.69 214.79 250.69 214.79Z" fill="url(#paint1_linear)"/>
<path d="M252.27 213.56C252.11 213.56 251.96 213.5 251.85 213.39C251.61 213.16 251.61 212.78 251.84 212.54L251.85 212.53C251.94 212.44 260.46 203.53 266.96 196.58C273.64 189.39 279.64 187.3 287.75 186.12C295.5 184.99 305.75 178.51 305.84 178.44C306.13 178.27 306.5 178.35 306.68 178.63C306.86 178.91 306.78 179.28 306.51 179.46C306.5 179.46 306.5 179.47 306.49 179.47C306.07 179.74 295.93 186.16 287.93 187.32C279.93 188.48 274.28 190.48 267.86 197.4C261.44 204.32 252.86 213.29 252.73 213.4C252.6 213.51 252.44 213.57 252.27 213.56Z" fill="white"/>
<path d="M258.36 186.51C259.08 187.32 259.2 188.5 258.64 189.43C256.15 194.43 248.36 208.07 235.76 210.53C220.25 213.53 226.4 185.1 230.58 174.08C233.77 165.67 237.2 157.65 238.65 154.32C239.04 153.37 239.87 152.66 240.87 152.42L243.17 151.98L241.62 149.2C241.18 148.28 241.29 147.19 241.89 146.36C243.94 143.2 254.25 141.36 256.5 129.71C259.22 115.56 268.64 109.1 273.68 103.44C275.8 101.09 278.15 98.9503 280.68 97.0503C282.42 95.7303 284.33 96.8403 283.96 98.9603C283.19 103.32 282.07 109.6 281.39 112.96C280.67 116.49 280.09 118.96 279.77 120.3C279.59 121.02 279.19 121.66 278.63 122.13L274.44 125.63L276.44 127.34C276.98 127.85 277.22 128.61 277.06 129.34C276.52 133.34 277.57 145.19 268.88 155.87C262.1 164.2 270.1 167.6 264.81 179.47C264.42 180.4 263.62 181.1 262.65 181.37L260.21 181.9C258.14 182.35 257 185.3 258.4 186.58L258.36 186.51Z" fill="url(#paint2_linear)"/>
<path d="M231.67 208.52C231.33 208.53 231.05 208.27 231.04 207.93C231.03 207.78 231.08 207.63 231.18 207.52C244.54 189.8 248.38 178.25 255.8 153.82C262.94 130.29 280.18 99.6301 280.36 99.3201C280.54 99.0401 280.92 98.9501 281.2 99.1401C281.46 99.3101 281.55 99.6401 281.42 99.9201C281.25 100.23 264.06 130.78 256.96 154.18C249.5 178.75 245.64 190.36 232.16 208.26C232.05 208.42 231.87 208.52 231.67 208.52Z" fill="white"/>
<path d="M236.88 127.91C236.69 128 236.51 128.1 236.33 128.22C237.06 126.21 237.66 124.16 238.13 122.07C238.8 122.24 242.97 123.17 246.19 120.61C249.71 117.83 250.48 111.02 250.48 111.02C250.48 111.02 243.18 111.49 239.48 114.72C239.35 114.83 239.24 114.95 239.13 115.06C239.21 113.75 239.26 112.44 239.22 111.13C239.22 109.57 239.09 108.13 238.97 106.68C239.07 106.82 239.14 106.9 239.14 106.9C239.14 106.9 243.96 107.33 246.86 103.9C249.76 100.47 249.19 93.6502 249.19 93.6502C249.19 93.6502 242.12 95.5402 239.19 99.4302C238.82 99.9102 238.52 100.43 238.29 100.99C237.77 97.7902 236.98 94.6402 235.91 91.5802C237.06 89.2702 237.22 86.5902 236.33 84.1602C234.6 80.0202 228.26 77.4302 228.26 77.4302C228.26 77.4302 226.72 84.5802 228.83 88.9902C229.88 91.3602 232.35 92.7702 234.92 92.4802C236.02 95.7802 236.82 99.1802 237.31 102.63C236.82 101.33 236 100.17 234.94 99.2702C231.48 96.4102 224.66 97.0802 224.66 97.0802C224.66 97.0802 226.66 104.08 230.56 107.08C232.69 108.74 235.65 108.77 237.82 107.17C237.93 108.46 238.01 109.8 238.04 111.17C238.08 113.17 237.99 115.18 237.77 117.17C237.47 117.97 237.35 118.83 237.41 119.68C237.41 119.89 237.35 120.1 237.31 120.31C236.95 117.64 235.48 115.24 233.26 113.71C229.44 111.35 222.78 112.94 222.78 112.94C222.78 112.94 225.7 119.64 229.99 122C232.3 123.33 235.2 122.98 237.13 121.14C236.49 124.22 235.56 127.24 234.34 130.14C234.04 130.63 233.82 131.16 233.67 131.72C233.48 132.14 233.28 132.57 233.08 132.99C232.93 131.87 232.21 128.13 228.99 126.14C225.17 123.78 218.51 125.37 218.51 125.37C218.51 125.37 221.43 132.07 225.72 134.43C227.97 135.72 230.8 135.41 232.72 133.67C230.75 137.65 228.45 141.45 225.85 145.05C225.85 144.39 225.57 140.1 222.2 137.7C218.54 135.1 211.79 136.26 211.79 136.26C211.79 136.26 214.27 143.13 218.4 145.76C220.65 147.26 223.62 147.08 225.66 145.31C224.76 146.56 223.83 147.83 222.82 149.11C218.61 154.48 216.82 162.22 217.62 171.51C217.28 169.13 216.02 166.97 214.11 165.51C210.46 162.91 203.7 164.07 203.7 164.07C203.7 164.07 206.19 170.95 210.31 173.57C212.62 175.12 215.69 174.87 217.73 172.98C218.21 177.34 219.16 181.64 220.56 185.8C220.65 186.04 220.87 186.2 221.13 186.2C221.2 186.21 221.27 186.21 221.34 186.2C221.65 186.09 221.82 185.75 221.71 185.43C221.71 185.43 221.71 185.42 221.7 185.42C220.33 181.22 219.43 176.89 219 172.5C220.22 172.91 223.72 173.81 226.82 171.92C230.66 169.59 232.26 162.92 232.26 162.92C232.26 162.92 224.96 162.48 220.92 165.23C219.96 165.85 219.2 166.73 218.72 167.77C218.66 164.4 219.07 161.03 219.95 157.77C221.9 159.44 224.44 160.25 227 160C231.44 159.36 235.53 153.87 235.53 153.87C235.53 153.87 228.99 150.6 224.19 151.54C223.47 151.68 222.78 151.93 222.14 152.3C222.63 151.45 223.18 150.64 223.78 149.87C224.66 148.74 225.49 147.63 226.29 146.52C227.08 147.25 230.06 149.73 233.85 149.18C238.3 148.54 242.39 143.05 242.39 143.05C242.39 143.05 235.85 139.78 231.05 140.72C230.69 140.8 230.34 140.9 229.99 141.02C231.33 138.87 232.53 136.73 233.58 134.62C233.95 134.83 237.88 137.02 241.8 135.32C245.91 133.53 248.41 127.15 248.41 127.15C248.41 127.15 241.26 125.73 236.88 127.91Z" fill="#80A6E7"/>
<path d="M211.411 157.28C213.741 158.81 216.821 158.56 218.861 156.66C218.861 156.66 218.861 151.82 215.221 149.22C211.581 146.62 204.811 147.78 204.811 147.78C204.811 147.78 207.291 154.65 211.411 157.28Z" fill="#80A6E7"/>
<path d="M204.1 125.66C204.16 126.73 204.5 127.77 205.1 128.66C206.08 131.95 206.23 135.43 205.55 138.79C205.48 139.12 205.69 139.44 206.02 139.51H206.15C206.43 139.51 206.68 139.31 206.74 139.03C207.37 136.01 207.34 132.88 206.66 129.87C207.89 129.63 211.42 128.67 213.19 125.46C215.36 121.52 213.42 114.95 213.42 114.95C213.42 114.95 206.88 118.21 204.75 122.61C204.62 122.87 204.51 123.13 204.42 123.4C203.84 122.19 203.21 121.01 202.51 119.87C201.44 118.13 200.42 116.51 199.45 114.99C199.86 115.42 200.32 115.78 200.83 116.08C200.83 116.08 205.44 114.6 206.83 110.32C208.22 106.04 205 100 205 100C205 100 199.22 104.48 198 109.21C197.65 110.42 197.69 111.71 198.12 112.9C195.48 108.9 193.32 105.8 191.9 103.84C192.01 102.72 192.14 98.9101 189.44 96.2501C186.25 93.1001 179.44 93.17 179.44 93.17C179.44 93.17 180.79 100.35 184.44 103.6C186.2 105.27 188.81 105.69 191.01 104.65C192.16 106.24 193.79 108.53 195.75 111.47C195.21 111.15 194.64 110.9 194.05 110.71C189.75 109.42 183.72 112.71 183.72 112.71C183.72 112.71 188.27 118.44 193.02 119.61C195.45 120.28 198.05 119.34 199.48 117.26C200.15 118.32 200.84 119.42 201.55 120.58C202.54 122.2 203.39 123.9 204.1 125.66Z" fill="#80A6E7"/>
<path d="M271.74 283.84H271.59C270.16 283.93 268.76 284.24 267.44 284.78C266.18 285.28 265.03 286.02 264.05 286.95C263.37 287.47 262.92 288.24 262.82 289.09L263.4 296.95C263.4 297.67 263.81 298.12 264.66 298.54C264.95 298.65 265.17 298.88 265.29 299.16C265.75 300.32 263.86 303.24 263.86 303.24C263.86 303.24 264.18 307.51 264.76 315.44C265.14 320.6 267.91 324.37 269.54 326.44C269.9 326.94 270.59 327.05 271.09 326.69C271.34 326.51 271.5 326.24 271.54 325.94C271.85 324.01 272.05 322.07 272.16 320.12C272.43 316.9 272.94 313.7 273.68 310.55H273.63C272.29 309.1 271.24 307.4 270.55 305.55C269.78 303.32 271.32 297.55 273.05 292.88C274.78 288.21 271.74 283.84 271.74 283.84Z" fill="#151E27"/>
<path d="M269.18 274.75C270.36 277.64 271.17 280.66 271.62 283.75V283.84H271.77C271.77 283.84 274.77 288.17 273.06 292.84C271.35 297.51 269.79 303.28 270.56 305.51C271.25 307.36 272.3 309.06 273.64 310.51C274.9 304.13 278.32 286.65 278.64 284.57C279.01 282.17 279.51 279.89 279.85 277.89C278.44 277.49 269.82 274.81 269.18 274.75Z" fill="#FA9278"/>
<path d="M194.38 294.77C194.36 294.72 194.34 294.68 194.32 294.64C193.62 293.39 192.72 292.27 191.65 291.31C190.65 290.4 189.49 289.69 188.22 289.22C187.46 288.83 186.57 288.77 185.76 289.05L178.94 293.05C178.3 293.42 177.95 294.15 178.06 294.88C178.09 295.19 177.99 295.49 177.78 295.72C176.95 296.64 173.49 296.23 173.49 296.23L162.92 302.38C158.45 304.99 156.27 309.13 155.12 311.5C154.85 312.06 155.08 312.73 155.64 313C155.89 313.12 156.18 313.14 156.45 313.06C158.32 312.49 160.15 311.82 161.95 311.06C164.96 309.89 168.06 308.94 171.21 308.23V308.18C171.91 306.32 172.97 304.62 174.33 303.18C175.99 301.52 181.85 300.38 186.81 299.88C191.77 299.38 194.38 294.77 194.38 294.77Z" fill="#151E27"/>
<path d="M201.43 288.48C199.35 290.8 197 292.86 194.43 294.61H194.34C194.36 294.65 194.38 294.69 194.4 294.74C194.4 294.74 191.83 299.35 186.86 299.85C181.89 300.35 176.04 301.49 174.38 303.15C173.02 304.59 171.96 306.29 171.26 308.15C177.54 306.48 194.69 301.81 196.67 301.15L202.9 299.01C202.64 297.56 201.66 289.09 201.43 288.48Z" fill="#FA9278"/>
<path d="M68.0496 142.73C72.5196 142.97 76.9896 149.32 79.8196 149.32C82.6496 149.32 85.4696 147.44 90.1696 147.2C94.8696 146.96 98.1696 152.85 101.23 158.5C104.29 164.15 107.59 168.39 111.83 167.45C116.07 166.51 117.95 165.8 122.42 167.68C126.89 169.56 136.3 166.97 142.42 170.27C148.54 173.57 152.78 176.39 157.72 174.74C162.66 173.09 163.52 169.48 170.35 171.13C177.18 172.78 176.58 168.13 187.28 167.03C191.16 166.64 193.63 167.41 195.28 168.63C199.42 164.01 202.16 160.87 202.16 160.87C202.26 160.59 210.16 149.3 206.68 139.8C203.2 130.3 197.31 126 187 126C176.69 126 168.19 137.48 156.62 138.13C145.05 138.78 126.7 127.41 112.87 123.55C99.0396 119.69 81.4496 123.55 74.0196 128.91C68.2496 133 59.2196 141.8 55.5996 153.2C60.9296 147.55 66.1296 142.63 68.0496 142.73ZM165.79 166C168.09 166 177.97 166.28 174.59 167C171.72 167.64 142.27 167.64 141.89 167.11C141.51 166.58 146.89 166.43 146.89 166.43C146.89 166.43 146.51 165.78 149.57 165.57C152.63 165.36 153.01 165.57 153.01 165.57C153.01 165.57 154.24 164.81 159.7 165C161.77 164.99 163.83 165.33 165.79 166ZM129.68 158.93C129.68 158.93 129.28 157.16 132.49 156.58C135.7 156 136.09 156.58 136.09 156.58C136.09 156.58 137.38 154.5 143.09 155.01C147.5 155.4 149.5 157.65 149.5 157.65C151.9 157.65 162.25 158.42 158.71 160.5C155.71 162.26 124.86 162.26 124.46 160.79C124.06 159.32 129.68 158.92 129.68 158.93ZM91.8396 138.33C91.8396 138.33 91.4496 136.33 94.5596 135.68C97.6696 135.03 98.0496 135.68 98.0496 135.68C98.0496 135.68 99.2996 133.34 104.83 133.91C107.21 134.07 109.44 135.14 111.04 136.91C113.37 136.91 123.39 137.78 119.96 140.12C117.05 142.12 87.1896 142.12 86.7996 140.45C86.4096 138.78 91.8396 138.32 91.8396 138.33Z" fill="#C4DBF1"/>
<path d="M54.0005 164C54.1605 169.4 55.0105 174.75 56.5105 179.94H185.091C188.881 175.82 192.441 171.88 195.321 168.66C193.631 167.44 191.161 166.66 187.321 167.06C176.621 168.13 177.211 172.81 170.391 171.16C163.571 169.51 162.711 173.16 157.761 174.77C152.811 176.38 148.581 173.59 142.461 170.3C136.341 167.01 126.931 169.59 122.461 167.71C117.991 165.83 116.101 166.53 111.871 167.48C107.641 168.43 104.331 164.18 101.271 158.53C98.2105 152.88 94.9205 147 90.2105 147.23C85.5005 147.46 82.6805 149.35 79.8605 149.35C77.0405 149.35 72.5605 143 68.0905 142.76C66.1705 142.66 60.9705 147.58 55.6405 153.23C54.4905 156.7 53.9405 160.34 54.0005 164Z" fill="#151E27"/>
<path d="M56.5498 179.91L56.6998 180.39C57.2498 182.23 57.9198 184.08 58.6998 185.93C63.7998 198.54 73.9998 211 92.8898 216.65C123.46 225.78 150.18 213.55 162.89 202.45C167.31 198.59 173.41 192.38 179.49 185.93C181.23 184.09 182.96 182.23 184.65 180.39L185.1 179.91H56.5498Z" fill="url(#paint3_linear)"/>
<path d="M120 140.09C123.43 137.75 113.41 136.88 111.08 136.88C109.48 135.11 107.25 134.04 104.87 133.88C99.3397 133.31 98.0897 135.65 98.0897 135.65C98.0897 135.65 97.6997 134.99 94.5997 135.65C91.4997 136.31 91.8797 138.3 91.8797 138.3C91.8797 138.3 86.4497 138.74 86.8797 140.4C87.3097 142.06 117.05 142.08 120 140.09Z" fill="white"/>
<path d="M158.72 160.49C162.26 158.41 151.91 157.64 149.51 157.64C149.51 157.64 147.51 155.39 143.1 155C137.38 154.49 136.1 156.57 136.1 156.57C136.1 156.57 135.7 155.98 132.5 156.57C129.3 157.16 129.69 158.92 129.69 158.92C129.69 158.92 124.08 159.31 124.48 160.78C124.88 162.25 155.72 162.25 158.72 160.49Z" fill="white"/>
<path d="M153 165.6C153 165.6 152.62 165.39 149.56 165.6C146.5 165.81 146.88 166.46 146.88 166.46C146.88 166.46 141.52 166.6 141.88 167.14C142.24 167.68 171.71 167.67 174.58 167.03C177.96 166.27 168.08 166.03 165.78 166.03C163.81 165.36 161.74 165.02 159.66 165.03C154.21 164.84 153 165.6 153 165.6Z" fill="white"/>
<path d="M119.47 174.14C119.47 174.14 112.93 168.73 105.55 167.5C103.8 167.2 102.27 166.31 101.34 166.95C100.41 167.59 102.27 169.45 102.27 169.45C101.28 169.39 100.29 169.24 99.3299 169C97.6499 168.61 95.1199 166.12 94.2199 166.45C93.3199 166.78 93.4499 167.9 93.4499 167.9C93.4499 167.9 92.2699 167.26 91.6499 167.9C90.7899 168.77 91.3699 170.35 91.3699 170.35C91.3699 170.35 90.1399 170.79 91.3699 172.77C91.7999 173.44 94.3699 175.77 99.5299 177.09C102.51 177.86 105.56 178.35 108.63 178.57H109.02C110.21 178 119.27 173.77 119.47 174.14Z" fill="#FA9278"/>
<path d="M205.65 171.63C198 159.9 188.11 161.06 188.11 161.06C186.01 161.49 183.86 160.58 182.69 158.78C181.55 157.23 177.91 155.28 174.99 154.73C167.26 153.27 160.87 155.06 153.77 165.99C147.13 176.2 145.65 183.99 138.96 186.41C131.89 188.98 125.16 184.96 119.47 174.15C119.27 173.78 110.21 178.01 109.08 178.54L108.97 178.59C108.97 178.59 113.62 203.53 130.34 206.74C149.12 210.36 161.73 194.8 161.73 194.8C161.73 194.8 155.1 209.8 155.39 225.37C155.75 244.99 161.39 245.84 161.39 245.84L206 196.49C206 196.49 211 179.8 205.65 171.63Z" fill="white"/>
<path d="M191.08 139.32C191.08 139.32 185.86 142.02 183.69 145.65C182.41 147.98 181.83 150.63 182.04 153.28C182.1 154.04 182.55 154.71 183.22 155.07L184.28 155.64C184.28 155.64 183.61 156.85 183.06 157.64C181.94 159.29 182.65 160.64 184.59 161.32C185.77 161.5 186.97 161.41 188.11 161.04L194.72 149.1C195.77 147.1 195.52 144.67 194.08 142.93L191.08 139.32Z" fill="#FA9278"/>
<path d="M186.15 148.57C186.08 148.57 186.02 148.55 185.97 148.51L184.82 147.65C184.69 147.54 184.68 147.35 184.78 147.23C184.79 147.22 184.8 147.2 184.82 147.19L186.95 145.1C187.07 144.98 187.26 144.98 187.37 145.09C187.37 145.09 187.37 145.09 187.38 145.1C187.5 145.22 187.5 145.41 187.38 145.53L185.51 147.37L186.37 148.01C186.5 148.11 186.53 148.3 186.43 148.44C186.37 148.53 186.26 148.58 186.15 148.57Z" fill="black"/>
<path d="M185.4 151.33C184.84 151.28 184.33 150.99 184.01 150.54C183.89 150.42 183.89 150.23 184.01 150.11C184.13 149.99 184.32 149.99 184.43 150.1C184.43 150.1 184.43 150.1 184.44 150.11C185.09 150.86 185.49 150.68 185.51 150.67C185.66 150.6 185.83 150.65 185.91 150.8C185.99 150.94 185.94 151.12 185.81 151.2C185.81 151.2 185.81 151.2 185.8 151.2C185.68 151.27 185.54 151.32 185.4 151.33Z" fill="black"/>
<path d="M190.51 147.77C190.15 147.78 189.8 147.67 189.51 147.47C189.15 147.2 188.9 146.81 188.81 146.37C188.79 146.21 188.9 146.05 189.06 146.03C189.06 146.03 189.06 146.03 189.07 146.03C189.22 146 189.37 146.09 189.4 146.24C189.4 146.25 189.4 146.27 189.41 146.28C189.48 146.56 189.64 146.8 189.86 146.98C190.18 147.17 190.57 147.22 190.93 147.12C191.09 147.08 191.25 147.19 191.29 147.35V147.36C191.33 147.52 191.22 147.68 191.06 147.72H191.05C190.87 147.75 190.69 147.77 190.51 147.77Z" fill="black"/>
<path d="M174 216C174 216 151.77 231 167.92 245.16C184.81 260.01 217.74 244.46 226.67 233.6C226.73 233.53 219.93 242.39 217.07 250.6C210.14 270.6 205.85 281.83 203.55 285.28L201.24 288.72L202.88 299C220.35 289.94 235.87 277.55 248.57 262.52C269.17 237.87 275.08 222.89 273.96 216.35C272.84 209.81 244.82 195.8 223.74 194.2C185.31 191.27 174 216 174 216Z" fill="url(#paint4_linear)"/>
<path d="M202.4 299.88L200.56 288.63L203 285C205.15 281.79 209.17 271.46 216.45 250.46C218.07 246.18 220.16 242.1 222.68 238.28C214.8 244.64 201.47 250.78 189.36 251.76C180.3 252.5 172.93 250.44 167.48 245.65C163.16 241.85 161.12 237.65 161.42 233.13C162.01 223.88 172.1 216.58 173.48 215.62C176.08 210.86 179.69 206.74 184.07 203.54C191.12 198.16 203.75 192.08 223.78 193.54C244.78 195.13 273.32 208.95 274.56 216.2C275.25 220.2 274.14 232.82 249.03 262.86C236.25 277.93 220.66 290.38 203.13 299.5L202.4 299.88ZM201.84 288.88L203.34 298.05C220.41 289 235.6 276.78 248.1 262.05C273.58 231.57 273.88 219.38 273.36 216.37C272.36 210.37 244.65 196.31 223.69 194.73C204.08 193.23 191.75 199.16 184.86 204.38C180.57 207.51 177.04 211.55 174.51 216.21L174.44 216.36L174.3 216.46C174.18 216.53 163.22 224.02 162.63 233.13C162.37 237.24 164.27 241.13 168.28 244.65C173.48 249.22 180.54 251.18 189.28 250.47C203.81 249.29 220.09 240.57 226.18 233.16L226.56 232.7L227.5 233.44L227.12 233.94C226.42 234.86 220.27 243.15 217.63 250.78C210.21 272.17 206.27 282.25 204.04 285.6L201.84 288.88Z" fill="white"/>
<path d="M280.14 278.36L269.14 275.22L266.89 271.46C264.62 267.69 256.59 258.39 241.4 244.58C229.28 233.58 227.06 219.43 226.69 213.5C224.25 218.38 221.38 223.04 218.13 227.42C216.77 229.3 215.53 231.23 214.23 233.28C208.42 242.41 202.4 251.85 185.61 254.95C174.42 257.01 167.43 253.05 163.53 249.37C160.97 246.97 158.97 244.03 157.68 240.77L157.63 240.62V240.46C157.74 239.87 160 225.09 184.16 203.28C199.16 189.7 228.1 175.45 235.16 177.41C239.09 178.5 250.01 184.88 266.48 220.41C274.66 238.4 279.27 257.8 280.04 277.55L280.14 278.36Z" fill="url(#paint5_linear)"/>
<path d="M280.73 279.05L268.81 275.65L266.46 271.72C264.21 267.97 256.2 258.72 241.06 244.95C229.82 234.75 227.02 221.83 226.33 215.28C224.06 219.61 221.44 223.79 218.52 227.71C217.15 229.6 215.91 231.54 214.64 233.54C208.77 242.76 202.71 252.29 185.69 255.43C174.3 257.53 167.16 253.48 163.18 249.72C160.58 247.29 158.52 244.25 157.21 240.94L157.12 240.61L157.14 240.32C157.61 237.67 161.1 223.41 183.82 202.9C198.45 189.65 227.8 174.84 235.29 176.92C239.29 178.03 250.37 184.46 266.93 220.19C275.18 238.33 279.75 257.61 280.54 277.52L280.73 279.05ZM269.47 274.79L279.55 277.67L279.54 277.61C278.76 257.79 274.21 238.63 266.02 220.62C249.64 185.27 238.88 178.97 235.02 177.89C227.33 175.76 197.46 191.9 184.49 203.65C182.07 205.83 160.79 225.41 158.12 240.5L158.14 240.61C159.39 243.76 161.37 246.67 163.86 249C167.68 252.6 174.53 256.47 185.51 254.45C202.1 251.39 208.05 242.04 213.8 233C215.07 230.99 216.33 229.03 217.72 227.12C220.95 222.77 223.81 218.11 226.24 213.27L227.07 211.61L227.19 213.46C227.54 219.05 229.65 233.23 241.74 244.2C256.96 258.03 265.03 267.39 267.32 271.19L269.47 274.79Z" fill="white"/>
<defs>
<linearGradient id="paint0_linear" x1="121.927" y1="278.554" x2="202.889" y2="231.804" gradientUnits="userSpaceOnUse">
<stop offset="0.07" stop-color="#F1C4D9"/>
<stop offset="0.7" stop-color="#2755A3"/>
</linearGradient>
<linearGradient id="paint1_linear" x1="303.8" y1="206.565" x2="262.546" y2="189.708" gradientUnits="userSpaceOnUse">
<stop offset="0.07" stop-color="#F1C4D9"/>
<stop offset="0.7" stop-color="#2755A3"/>
</linearGradient>
<linearGradient id="paint2_linear" x1="247.206" y1="80.8438" x2="261.207" y2="205.662" gradientUnits="userSpaceOnUse">
<stop offset="0.07" stop-color="#EEC6A7"/>
<stop offset="0.7" stop-color="#2755A3"/>
</linearGradient>
<linearGradient id="paint3_linear" x1="56.5498" y1="199.878" x2="185.1" y2="199.878" gradientUnits="userSpaceOnUse">
<stop stop-color="#18222D"/>
<stop offset="0.14" stop-color="#1D3456"/>
<stop offset="0.29" stop-color="#214277"/>
<stop offset="0.43" stop-color="#254D8F"/>
<stop offset="0.56" stop-color="#26539E"/>
<stop offset="0.67" stop-color="#2755A3"/>
</linearGradient>
<linearGradient id="paint4_linear" x1="167.862" y1="225.928" x2="295.25" y2="228.607" gradientUnits="userSpaceOnUse">
<stop stop-color="#604CD8"/>
<stop offset="1" stop-color="#C4DBF1"/>
</linearGradient>
<linearGradient id="paint5_linear" x1="163.997" y1="208.008" x2="303.257" y2="211.334" gradientUnits="userSpaceOnUse">
<stop stop-color="#604CD8"/>
<stop offset="1" stop-color="#C4DBF1"/>
</linearGradient>
</defs>
</svg>
