<svg width="249" height="195" viewBox="0 0 249 195" fill="none" xmlns="http://www.w3.org/2000/svg">
<path d="M67.8394 53.4502C67.8394 53.4502 51.4894 63.5502 50.2494 82.2502C49.0094 100.95 53.7094 111.02 66.6494 126.25C75.5194 136.71 83.7894 146.43 89.4894 153.18C73.1494 149.5 49.3994 155.58 49.3994 155.58L50.7794 180.18L116.089 180.88C118.782 180.241 121.319 179.071 123.554 177.439C125.788 175.807 127.675 173.746 129.103 171.376C130.532 169.006 131.473 166.375 131.872 163.637C132.272 160.899 132.121 158.109 131.429 155.43L110.999 76.3902L67.8394 53.4502Z" fill="#F1C4D9" stroke="white" stroke-miterlimit="10"/>
<path d="M87.7291 64C87.7291 64 72.3091 75.47 72.7291 94.21C73.1491 112.95 78.6491 122.58 92.8691 136.67C102.599 146.32 111.669 155.3 117.939 161.53C101.339 159.27 78.2091 167.38 78.2091 167.38L81.6991 191.76L146.829 186.83C149.455 185.961 151.882 184.577 153.967 182.759C156.052 180.941 157.754 178.726 158.972 176.243C160.191 173.759 160.903 171.058 161.065 168.297C161.228 165.535 160.838 162.769 159.919 160.16L129.979 90.51L87.7291 64Z" fill="url(#paint0_linear)"/>
<path d="M81.1391 192.39L77.4891 167L77.9691 166.83C78.1891 166.76 99.8391 159.25 116.229 160.76C112.539 157.09 108.029 152.62 103.049 147.69L92.3991 137.08C78.9491 123.75 72.4791 113.93 72.0791 94.21C71.6991 75.37 87.2191 63.61 87.3691 63.49L87.7091 63.25L130.429 90.07L130.499 90.25L160.439 159.9C161.392 162.586 161.799 165.435 161.637 168.28C161.475 171.125 160.746 173.909 159.495 176.469C158.243 179.029 156.493 181.313 154.348 183.189C152.202 185.064 149.704 186.492 146.999 187.39H146.849L81.1391 192.39ZM78.8391 167.77L82.1791 191.09L146.669 186.21C149.21 185.36 151.556 184.012 153.571 182.246C155.586 180.479 157.229 178.329 158.405 175.921C159.58 173.514 160.265 170.896 160.418 168.221C160.572 165.546 160.191 162.867 159.299 160.34L129.459 90.9L87.7791 64.73C85.5791 66.51 72.9591 77.49 73.2991 94.18C73.6891 113.61 79.7691 122.85 93.2491 136.18L103.909 146.74C109.459 152.23 114.429 157.16 118.329 161.04L119.609 162.32L117.809 162.07C102.849 160.08 82.2091 166.65 78.8391 167.77Z" fill="white"/>
<path d="M177.44 88.0003C176.744 87.0394 176.248 85.9486 175.982 84.7925C175.716 83.6365 175.684 82.4387 175.89 81.2703C176.116 78.9136 177.007 76.6698 178.46 74.8003C182.353 75.0703 186.191 75.8676 189.87 77.1703C195.97 79.3203 198.82 82.4503 199.27 83.3203C200.58 85.8703 199.04 86.2503 199.04 86.2503C199.04 86.2503 199.56 88.2503 198.43 89.2003C197.6 89.9003 196.24 88.9903 196.24 88.9903C196.24 88.9903 196.24 90.3603 195.14 90.6603C194.04 90.9603 191.23 87.6603 189.24 86.9903C188.097 86.5983 186.923 86.3072 185.73 86.1203C185.73 86.1203 187.73 88.5903 186.57 89.2603C185.41 89.9303 183.67 88.4003 181.52 88.1103C180.166 87.9422 178.8 87.9054 177.44 88.0003Z" fill="#EF6744"/>
<path d="M184.5 26.5901C183.28 22.8001 178.5 17.8801 171.43 17.1001C165.72 16.4801 163.05 20.4701 158.88 17.4501C155.48 14.9801 153.22 7.45007 145.22 2.97007C136.39 -1.90993 103.22 -0.379932 116.86 33.0701C121.05 43.3501 134.35 35.3901 151.97 33.2301C152.321 32.5269 152.736 31.8574 153.21 31.2301L171.27 28.2301C172.23 28.0205 173.23 28.0985 174.146 28.4542C175.062 28.8099 175.853 29.4276 176.42 30.2301L178.85 33.6401C178.197 34.348 177.503 35.0159 176.77 35.6401H176.83C182.42 37.6101 185.72 30.3701 184.5 26.5901Z" fill="#5D2E0C"/>
<path d="M176.42 30.22C175.853 29.4175 175.062 28.7998 174.146 28.4441C173.23 28.0884 172.23 28.0105 171.27 28.22L153.21 31.22C152.736 31.8473 152.321 32.5168 151.97 33.22C151.356 34.241 151.099 35.4371 151.24 36.62C151.76 38.86 152.42 43.45 153.74 42.03C159.09 36.32 163.29 35.71 163.29 35.71L163.53 36.71C163.607 37.0336 163.763 37.333 163.985 37.5809C164.206 37.8289 164.487 38.0176 164.8 38.13C167.022 38.9254 169.43 39.0437 171.72 38.47C173.561 37.8276 175.259 36.8324 176.72 35.54C177.453 34.9158 178.147 34.2479 178.8 33.54L176.42 30.22Z" fill="#EF6744"/>
<path d="M170.93 37.06H170.83C170.788 37.0462 170.75 37.024 170.717 36.9947C170.685 36.9655 170.658 36.9298 170.64 36.89L170.17 35.71C170.14 35.6343 170.141 35.55 170.173 35.4752C170.205 35.4004 170.265 35.341 170.34 35.31C170.416 35.2802 170.5 35.2813 170.575 35.3131C170.65 35.3449 170.709 35.4048 170.74 35.48L171.08 36.34L173.26 35.09C173.329 35.0502 173.411 35.0394 173.488 35.0601C173.565 35.0807 173.63 35.131 173.67 35.2C173.71 35.2689 173.721 35.3509 173.7 35.4278C173.679 35.5046 173.629 35.5702 173.56 35.61L171.08 37C171.037 37.0343 170.985 37.0551 170.93 37.06Z" fill="black"/>
<path d="M168.259 37.0002C168.209 36.9987 168.161 36.9852 168.117 36.9609C168.074 36.9365 168.037 36.902 168.009 36.8602C167.239 35.7302 167.809 35.1302 167.829 35.1002C167.887 35.0514 167.961 35.0255 168.037 35.0274C168.113 35.0294 168.185 35.059 168.24 35.1107C168.296 35.1624 168.33 35.2327 168.338 35.3081C168.345 35.3836 168.324 35.459 168.279 35.5202C168.279 35.5202 168.049 35.8402 168.509 36.5202C168.533 36.5525 168.55 36.5894 168.559 36.6285C168.568 36.6677 168.569 36.7083 168.562 36.7478C168.554 36.7873 168.538 36.8248 168.516 36.8579C168.493 36.8911 168.463 36.9191 168.429 36.9402C168.381 36.9791 168.321 37.0003 168.259 37.0002Z" fill="black"/>
<path d="M172.83 33.3703C172.768 33.3697 172.708 33.3502 172.658 33.3144C172.608 33.2786 172.57 33.2283 172.55 33.1703L172.06 31.8703C172.046 31.8329 172.039 31.793 172.04 31.753C172.042 31.713 172.051 31.6737 172.068 31.6373C172.084 31.601 172.108 31.5684 172.138 31.5414C172.167 31.5144 172.202 31.4936 172.24 31.4803C172.277 31.466 172.317 31.4593 172.357 31.4606C172.397 31.462 172.436 31.4713 172.473 31.4881C172.509 31.5048 172.542 31.5287 172.569 31.5583C172.596 31.5879 172.616 31.6225 172.63 31.6603L173.12 32.9503C173.134 32.9883 173.141 33.0289 173.14 33.0696C173.139 33.1103 173.129 33.1504 173.113 33.1876C173.096 33.2247 173.072 33.2582 173.042 33.2861C173.013 33.314 172.978 33.3358 172.94 33.3503L172.83 33.3703Z" fill="black"/>
<path d="M160.06 64.3899C152.5 55.3899 153.74 42.0399 153.74 42.0399L153.21 31.2699C153.21 31.2699 151.15 17.5399 129.41 12.9999C114.6 9.88993 91.89 19.9999 83.14 36.1699C82.301 37.7277 81.5628 39.3376 80.93 40.9899C68.68 47.7999 56.61 60.2699 51.37 76.7499C44.8 97.4099 46.77 130.06 46.77 130.06C46.77 130.06 76.48 156.27 120.57 141.29C138.65 135.15 150.57 134.1 150.57 134.1C150.57 134.1 144.7 120.26 139 109.26C149.06 109.44 154.94 106.7 154.94 106.7L153.52 96.6999C153.52 96.6999 138.62 92.0599 127.89 83.6999C128.421 80.0181 130.29 76.661 133.14 74.2699L133.61 73.8499C137.405 78.8272 142.373 82.7882 148.07 85.3799C157.323 89.3902 167.623 90.3091 177.44 87.9999L178.44 74.7999C171.29 73.5701 164.792 69.8895 160.06 64.3899Z" fill="#2755A3"/>
<path d="M241.39 172.45C241.39 172.45 250.46 178.7 248.39 186.92C246.7 193.56 240.28 194.66 236.93 194.82C236.792 194.83 236.656 194.792 236.543 194.712C236.43 194.633 236.348 194.518 236.311 194.385C236.273 194.253 236.282 194.111 236.337 193.985C236.391 193.858 236.488 193.754 236.61 193.69C239.46 192.02 244.29 188.6 243.78 184.84C242.78 177.5 237.24 176.84 237.24 176.84L241.39 172.45Z" fill="#7E2A2F"/>
<path d="M214.799 117.3C214.799 117.3 214.799 117.24 214.749 117.22C213.934 116.848 213.214 116.294 212.646 115.6C212.077 114.907 211.675 114.093 211.469 113.22C210.389 108.58 211.469 100.79 211.039 98.4103C210.609 96.0303 210.389 93.7703 210.389 93.7703L210.749 93.6603C208.897 92.4682 206.751 91.8139 204.549 91.7703C201.329 91.6203 200.309 93.0803 196.549 96.0203C194.039 97.8055 190.979 98.6482 187.909 98.4002C188.446 98.6268 188.928 98.9681 189.319 99.4002C189.478 99.6673 189.583 99.9631 189.627 100.271C189.671 100.578 189.654 100.892 189.577 101.193C189.5 101.494 189.364 101.777 189.178 102.025C188.991 102.273 188.757 102.482 188.489 102.64C187.587 103.189 186.545 103.463 185.489 103.43C185.489 103.43 184.929 108.13 190.149 112.05C195.369 115.97 199.809 114.51 199.809 114.51C199.809 114.51 202.599 154.67 202.049 158.7C201.499 162.73 200.689 167.7 199.819 168.59C194.459 173.94 195.359 177.5 195.359 177.5L206.779 177.26C206.142 177.72 205.694 178.395 205.519 179.161C205.345 179.927 205.455 180.73 205.829 181.42C205.829 181.42 227.149 180.97 230.319 180.97C235.459 180.97 242.509 180.53 242.319 169.21C241.849 144.16 216.259 119.59 214.799 117.3Z" fill="white"/>
<path d="M218.82 97.2901C216.17 92.5301 211.96 93.2901 210.75 93.6201L210.39 93.7301C210.39 93.7301 210.61 96.0001 211.04 98.3701C211.47 100.74 210.39 108.54 211.47 113.18C211.675 114.053 212.078 114.867 212.646 115.56C213.215 116.253 213.934 116.808 214.75 117.18C216.629 118.027 218.702 118.352 220.75 118.12C223.56 117.79 225.07 114.22 225.07 114.22C225.07 114.22 222 102.91 218.82 97.2901Z" fill="#7E2A2F"/>
<path d="M189.3 99.3702C188.908 98.938 188.427 98.5967 187.89 98.3702C186.66 97.8102 185.04 97.6002 184.26 98.7202C183.08 100.43 185.49 103.41 185.49 103.41C186.545 103.443 187.587 103.169 188.49 102.62C188.757 102.461 188.99 102.25 189.176 102C189.362 101.75 189.496 101.466 189.571 101.164C189.647 100.862 189.661 100.548 189.615 100.24C189.568 99.932 189.461 99.6364 189.3 99.3702Z" fill="#7E2A2F"/>
<path d="M199.109 102.33C198.698 102.382 198.28 102.339 197.888 102.204C197.496 102.069 197.141 101.845 196.849 101.55C196.721 101.368 196.635 101.159 196.599 100.939C196.563 100.719 196.576 100.494 196.639 100.28C196.673 100.214 196.73 100.162 196.799 100.135C196.869 100.107 196.945 100.105 197.016 100.129C197.086 100.154 197.145 100.202 197.183 100.267C197.22 100.331 197.233 100.407 197.219 100.48C197.184 100.6 197.176 100.726 197.197 100.849C197.218 100.972 197.267 101.089 197.339 101.19C197.549 101.46 198.089 101.79 199.469 101.71C199.548 101.71 199.624 101.74 199.682 101.794C199.739 101.848 199.774 101.921 199.779 102C199.782 102.04 199.776 102.081 199.763 102.119C199.75 102.157 199.729 102.192 199.702 102.222C199.675 102.251 199.642 102.276 199.606 102.293C199.569 102.309 199.53 102.319 199.489 102.32L199.109 102.33Z" fill="black"/>
<path d="M220.479 141.3C223.299 146.87 225.679 148.86 227.839 150.37C229.709 151.67 234.319 151.12 232.839 147.22C231.359 143.32 228.839 141.57 226.959 136.72C225.779 133.6 223.829 130.62 222.399 131.04C220.969 131.46 217.669 135.74 220.479 141.3Z" fill="#7E2A2F"/>
<path d="M237.64 150C237.64 150 234.46 150.91 236.8 157.73C239.14 164.55 242.08 165.88 242.08 165.88C241.884 163.092 241.36 160.336 240.52 157.67C239.722 155.055 238.76 152.494 237.64 150Z" fill="#7E2A2F"/>
<path d="M148.55 72.7602C147.896 70.5893 147.074 68.4728 146.09 66.4302C146.09 66.2302 147.77 57.2402 154.87 53.7302L157.64 52.3602C163.1 49.6702 169.91 46.3602 171.84 44.9902C174.43 43.2102 172.98 38.3502 172.92 38.1402L171.75 38.4902C172.11 39.6602 172.69 42.9302 171.15 43.9902C169.29 45.2702 162.25 48.7402 157.1 51.2702L154.33 52.6302C148.41 55.5702 146.06 61.7802 145.25 64.6802L145.2 64.5702C142.63 59.2702 140.42 54.6902 142.2 47.3002C144.78 36.5202 155.25 24.0702 161.2 22.6402C161.822 22.4268 162.485 22.36 163.137 22.445C163.789 22.53 164.413 22.7645 164.96 23.1302C166.54 24.3602 166.59 26.9202 166.59 26.9402H167.81C167.81 26.8102 167.76 23.7802 165.71 22.1702C165.021 21.6879 164.23 21.3726 163.399 21.2494C162.567 21.1261 161.718 21.1983 160.92 21.4602C154.51 23.0002 143.72 35.6602 141 47.0002C139.14 54.8102 141.55 59.8002 144.1 65.0802C145.423 67.6466 146.521 70.3234 147.38 73.0802C149.843 81.1929 153.402 88.9311 157.96 96.0802C158.43 96.0802 158.96 96.0802 159.49 96.1502C154.735 88.9213 151.051 81.0432 148.55 72.7602Z" fill="#2755A3"/>
<path d="M172.43 101C172.96 102.26 169.83 102.94 169.83 102.94C170.881 103.531 171.982 104.03 173.12 104.43C175.12 105.13 179.33 104.26 180.03 105.2C180.162 105.371 180.245 105.575 180.27 105.79C180.693 105.507 181.052 105.14 181.326 104.711C181.6 104.283 181.781 103.802 181.86 103.3C182.15 100.86 179.54 98.5299 176.03 98.1199C175.014 97.9546 173.974 98.0112 172.981 98.2856C171.989 98.5601 171.067 99.0459 170.28 99.7099C171.29 99.9999 172.14 100.3 172.43 101Z" fill="#2755A3"/>
<path d="M181.7 108.39C181.49 107.33 179.86 107.21 179.86 107.21C180.17 106.809 180.317 106.305 180.27 105.8C180.244 105.585 180.161 105.382 180.03 105.21C179.33 104.27 175.1 105.14 173.12 104.44C171.982 104.04 170.881 103.541 169.83 102.95C169.83 102.95 172.96 102.27 172.43 101.01C172.14 100.3 171.29 100.01 170.28 99.7201C169.408 99.4977 168.564 99.1826 167.76 98.7801C165.22 97.3343 162.4 96.4479 159.49 96.18C158.95 96.18 158.43 96.1201 157.96 96.1101C156.484 96.0816 155.013 96.284 153.6 96.7101L154.16 106.06C158.418 108.616 162.896 110.788 167.54 112.55C173.66 114.63 177.84 113.94 178.73 113.55C181.33 112.36 180.36 111.11 180.36 111.11C180.36 111.11 182 109.86 181.7 108.39Z" fill="#EF6744"/>
<path d="M213.109 187.69C213.109 187.69 206.249 191.75 194.109 191.75C180.269 191.75 173.609 187.69 173.609 187.69L179.999 171L207.929 171.28L213.109 187.69Z" fill="url(#paint1_linear)"/>
<path d="M194 174.53C201.566 174.53 207.7 173.093 207.7 171.32C207.7 169.547 201.566 168.11 194 168.11C186.434 168.11 180.3 169.547 180.3 171.32C180.3 173.093 186.434 174.53 194 174.53Z" fill="#2755A3"/>
<path d="M193.999 175.14C187.109 175.14 179.689 173.94 179.689 171.32C179.689 168.7 187.109 167.5 193.999 167.5C200.889 167.5 208.299 168.69 208.299 171.32C208.299 173.95 200.889 175.14 193.999 175.14ZM193.999 168.72C185.529 168.72 180.909 170.44 180.909 171.32C180.909 172.2 185.529 173.92 193.999 173.92C202.469 173.92 207.079 172.2 207.079 171.32C207.079 170.44 202.459 168.72 193.999 168.72Z" fill="white"/>
<path d="M199.12 180.29C199.12 180.29 201.05 178.18 202.76 179.96C203.76 181.05 202.15 182.13 202.15 182.13C202.15 182.13 203.8 184.3 202.05 185.05C200.3 185.8 198.87 183.65 198.87 183.65H188.87C188.87 183.65 188.37 186.27 186.5 185.53C184.63 184.79 186.13 182.16 186.13 182.16C186.13 182.16 184.05 180.49 185.31 179.21C186.92 177.58 188.75 180.29 188.75 180.29H199.12Z" fill="white"/>
<path d="M133.15 110.29C127.132 110.387 121.142 109.436 115.45 107.48C99.5399 101.67 74.1199 82.1903 79.6999 45.9903C79.7292 45.8319 79.8181 45.6908 79.9483 45.5959C80.0785 45.5011 80.2401 45.4597 80.3999 45.4803C80.4791 45.4924 80.5552 45.5202 80.6235 45.5622C80.6918 45.6042 80.7511 45.6594 80.7977 45.7247C80.8443 45.7899 80.8774 45.8639 80.8949 45.9421C80.9125 46.0204 80.9141 46.1014 80.8999 46.1803C75.4399 81.5903 100.31 100.65 115.9 106.33C131.49 112.01 150.52 107.21 153.71 106.33L153.06 97.1903C150.19 96.3603 133.34 91.1203 123.16 80.8103C113.71 71.2403 110.87 60.7403 114.72 49.6203C114.742 49.54 114.781 49.4651 114.833 49.4003C114.886 49.3356 114.951 49.2822 115.025 49.2435C115.098 49.2049 115.179 49.1818 115.263 49.1757C115.346 49.1695 115.429 49.1805 115.508 49.2078C115.587 49.2352 115.659 49.2784 115.72 49.3348C115.782 49.3912 115.831 49.4596 115.865 49.5357C115.899 49.6119 115.917 49.6941 115.917 49.7775C115.918 49.8608 115.902 49.9434 115.87 50.0203C112.18 60.6703 114.93 70.7403 124.03 79.9603C134.89 90.9603 153.6 96.0803 153.79 96.1303C153.912 96.1648 154.021 96.236 154.101 96.3344C154.182 96.4328 154.23 96.5535 154.24 96.6803L154.96 106.74C154.972 106.878 154.935 107.015 154.857 107.128C154.778 107.241 154.663 107.323 154.53 107.36C147.563 109.273 140.374 110.258 133.15 110.29Z" fill="white"/>
<path d="M65.4293 78.8201C63.9956 78.8284 62.5768 78.5283 61.2693 77.9401C61.1984 77.9047 61.1351 77.8556 61.0832 77.7957C61.0313 77.7358 60.9916 77.6663 60.9665 77.5911C60.9415 77.5158 60.9314 77.4364 60.9371 77.3573C60.9427 77.2783 60.9638 77.2011 60.9993 77.1301C61.0347 77.0592 61.0838 76.996 61.1437 76.944C61.2036 76.8921 61.2732 76.8525 61.3484 76.8274C61.4236 76.8023 61.503 76.7923 61.5821 76.7979C61.6612 76.8035 61.7384 76.8247 61.8093 76.8601C63.2575 77.4942 64.8472 77.7356 66.4184 77.5601C67.9895 77.3845 69.4867 76.7982 70.7593 75.8601C75.1793 72.6401 75.0893 69.5501 75.0893 69.4201C75.0839 69.3405 75.0944 69.2606 75.1203 69.1851C75.1461 69.1096 75.1868 69.04 75.2398 68.9804C75.2929 68.9208 75.3574 68.8724 75.4294 68.838C75.5014 68.8036 75.5796 68.7839 75.6593 68.7801C75.8179 68.7718 75.9735 68.8257 76.093 68.9302C76.2125 69.0348 76.2865 69.1818 76.2993 69.3401C76.2993 69.5001 76.4793 73.2001 71.4793 76.8401C69.7291 78.1357 67.6068 78.8303 65.4293 78.8201Z" fill="white"/>
<path d="M128 168.86C127.857 168.864 127.718 168.814 127.61 168.72L122.61 164.58C122.548 164.529 122.497 164.466 122.459 164.395C122.422 164.324 122.399 164.247 122.391 164.167C122.384 164.087 122.392 164.006 122.416 163.93C122.44 163.853 122.478 163.782 122.53 163.72C122.581 163.658 122.644 163.607 122.715 163.57C122.786 163.532 122.863 163.509 122.943 163.502C123.023 163.494 123.104 163.503 123.18 163.526C123.257 163.55 123.328 163.589 123.39 163.64L128.39 167.79C128.488 167.868 128.56 167.976 128.594 168.097C128.629 168.218 128.624 168.347 128.581 168.466C128.538 168.584 128.458 168.686 128.354 168.757C128.25 168.828 128.126 168.864 128 168.86Z" fill="white"/>
<path d="M130 163.39H129.88L122.58 161.9C122.421 161.867 122.281 161.772 122.192 161.636C122.103 161.5 122.072 161.334 122.105 161.175C122.138 161.016 122.233 160.876 122.369 160.787C122.505 160.698 122.671 160.667 122.83 160.7L130.12 162.2C130.277 162.231 130.416 162.324 130.505 162.456C130.595 162.589 130.629 162.752 130.6 162.91C130.568 163.046 130.492 163.167 130.383 163.254C130.274 163.341 130.139 163.389 130 163.39Z" fill="white"/>
<path d="M93.1698 188.59C93.058 188.591 92.9482 188.56 92.8528 188.502C92.7574 188.444 92.6801 188.36 92.6298 188.26C89.7098 182.42 87.8698 168.38 87.7898 167.79C87.7699 167.628 87.8143 167.466 87.9135 167.336C88.0126 167.207 88.1586 167.122 88.3198 167.1C88.3995 167.089 88.4806 167.094 88.5583 167.115C88.636 167.135 88.7087 167.172 88.7721 167.221C88.8356 167.27 88.8884 167.332 88.9275 167.402C88.9666 167.473 88.9912 167.55 88.9998 167.63C88.9998 167.77 90.8898 182.06 93.7098 187.71C93.746 187.782 93.7677 187.86 93.7737 187.94C93.7797 188.02 93.7699 188.1 93.7448 188.176C93.7198 188.252 93.6799 188.323 93.6276 188.383C93.5752 188.444 93.5114 188.494 93.4398 188.53C93.3554 188.57 93.2632 188.59 93.1698 188.59Z" fill="white"/>
<path d="M137.81 50.2002C138.484 50.2002 139.03 49.654 139.03 48.9803C139.03 48.3065 138.484 47.7603 137.81 47.7603C137.136 47.7603 136.59 48.3065 136.59 48.9803C136.59 49.654 137.136 50.2002 137.81 50.2002Z" fill="white"/>
<path d="M130.26 56.44C130.934 56.44 131.48 55.8938 131.48 55.22C131.48 54.5462 130.934 54 130.26 54C129.586 54 129.04 54.5462 129.04 55.22C129.04 55.8938 129.586 56.44 130.26 56.44Z" fill="white"/>
<path d="M123.31 62.1802C123.984 62.1802 124.53 61.634 124.53 60.9602C124.53 60.2864 123.984 59.7402 123.31 59.7402C122.636 59.7402 122.09 60.2864 122.09 60.9602C122.09 61.634 122.636 62.1802 123.31 62.1802Z" fill="white"/>
<path d="M42.6096 168.93V168.78C42.2379 167.4 41.6434 166.089 40.8496 164.9C40.0943 163.76 39.1267 162.775 37.9996 162C37.6796 161.72 37.3069 161.507 36.9034 161.373C36.4998 161.239 36.0735 161.187 35.6496 161.22L28.0696 163.38C27.3796 163.56 27.0096 164.03 26.7696 164.94C26.745 165.09 26.6896 165.233 26.607 165.36C26.5244 165.488 26.4163 165.597 26.2896 165.68C25.2896 166.37 21.9996 165.12 21.9996 165.12L10.2496 168.5C5.2496 169.92 2.1396 173.4 0.449596 175.42C0.309276 175.584 0.219947 175.786 0.192554 176C0.165161 176.215 0.200896 176.432 0.295383 176.627C0.38987 176.821 0.538999 176.983 0.724483 177.094C0.909967 177.205 1.12374 177.259 1.3396 177.25C3.29139 177.16 5.23728 176.97 7.1696 176.68C10.3801 176.283 13.6159 176.129 16.8496 176.22V176.17C17.9907 174.571 19.4347 173.212 21.0996 172.17C23.0996 170.96 29.0996 171.31 34.0196 172.05C38.9396 172.79 42.6096 168.93 42.6096 168.93Z" fill="#151E27"/>
<path d="M50.5396 164.64C48.0893 166.321 45.4516 167.71 42.6796 168.78H42.5796V168.93C42.5796 168.93 38.9496 172.76 34.0196 172.02C29.0896 171.28 23.1196 170.93 21.0996 172.14C19.4347 173.182 17.9907 174.541 16.8496 176.14C23.3496 176.07 41.1596 175.88 43.2596 175.77C45.6896 175.65 49.1296 175.77 51.1596 175.71C51.3096 174.31 50.6096 165.29 50.5396 164.64Z" fill="#EF6744"/>
<path d="M70.9993 179.76C70.9993 179.76 70.9993 179.7 70.9993 179.62C70.5059 178.277 69.7965 177.024 68.8993 175.91C68.077 174.852 67.0584 173.962 65.8993 173.29C65.5561 173.039 65.166 172.859 64.752 172.761C64.3381 172.663 63.9087 172.649 63.4893 172.72L56.1293 175.53C55.4493 175.77 55.1293 176.26 54.9593 177.2C54.9496 177.351 54.9081 177.499 54.8374 177.634C54.7668 177.768 54.6686 177.886 54.5493 177.98C53.5493 178.75 50.2293 177.79 50.2293 177.79L38.8093 182.15C35.0378 183.739 31.8394 186.439 29.6393 189.89C29.511 190.067 29.4378 190.277 29.4287 190.496C29.4196 190.714 29.4752 190.93 29.5883 191.117C29.7015 191.304 29.8673 191.453 30.0649 191.546C30.2625 191.639 30.4832 191.672 30.6993 191.64C32.6342 191.385 34.5537 191.025 36.4493 190.56C39.6127 189.891 42.8216 189.46 46.0493 189.27V189.21C47.041 187.508 48.3597 186.02 49.9293 184.83C51.8393 183.45 57.7993 183.28 62.7893 183.59C67.7793 183.9 70.9993 179.76 70.9993 179.76Z" fill="#151E27"/>
<path d="M78.56 174.8C76.266 176.689 73.759 178.304 71.09 179.61H71C71 179.69 71 179.75 71 179.75C71 179.75 67.72 183.88 62.74 183.58C57.76 183.28 51.74 183.44 49.88 184.82C48.3104 186.01 46.9918 187.499 46 189.2C52.46 188.57 70.19 186.83 72.27 186.54C74.68 186.2 78.13 186.04 80.14 185.79C80.16 184.36 78.68 175.44 78.56 174.8Z" fill="#EF6744"/>
<defs>
<linearGradient id="paint0_linear" x1="13743.4" y1="24448.3" x2="21555.4" y2="24448.3" gradientUnits="userSpaceOnUse">
<stop offset="0.28" stop-color="#F1C4D9"/>
<stop offset="0.39" stop-color="#192A41"/>
<stop offset="0.58" stop-color="#1F3C6B"/>
<stop offset="0.75" stop-color="#234A8A"/>
<stop offset="0.9" stop-color="#26529C"/>
<stop offset="1" stop-color="#2755A3"/>
</linearGradient>
<linearGradient id="paint1_linear" x1="10270.6" y1="5241.89" x2="11830.5" y2="5241.89" gradientUnits="userSpaceOnUse">
<stop offset="0.28" stop-color="#151E27"/>
<stop offset="0.39" stop-color="#192A41"/>
<stop offset="0.58" stop-color="#1F3C6B"/>
<stop offset="0.75" stop-color="#234A8A"/>
<stop offset="0.9" stop-color="#26529C"/>
<stop offset="1" stop-color="#2755A3"/>
</linearGradient>
</defs>
</svg>
