<?xml version="1.0" encoding="utf-8"?>
<!-- Generator: Adobe Illustrator 25.2.3, SVG Export Plug-In . SVG Version: 6.00 Build 0)  -->
<svg version="1.1" id="Layer_1" xmlns="http://www.w3.org/2000/svg" xmlns:xlink="http://www.w3.org/1999/xlink" x="0px" y="0px"
	 viewBox="0 0 375 404" style="enable-background:new 0 0 375 404;" xml:space="preserve">
<style type="text/css">
	.st0{fill:#F1C4D9;stroke:#FFFFFF;stroke-miterlimit:10;}
	.st1{fill:url(#SVGID_1_);}
	.st2{fill:#FFFFFF;}
	.st3{fill:#EF6744;}
	.st4{fill:#5D2E0C;}
	.st5{fill:#2755A3;}
	.st6{fill:#7E2A2F;}
	.st7{fill:url(#SVGID_2_);}
	.st8{fill:#151E27;}
</style>
<g>
	<path class="st0" d="M118.6,143.1c0,0-18,13.3-19.4,37.9c-1.4,24.6,3.8,37.8,18.1,57.9c9.8,13.8,18.9,26.5,25.2,35.4
		c-18-4.8-44.2,3.2-44.2,3.2l1.5,32.3l72,0.9c3-0.8,5.8-2.4,8.2-4.5c2.5-2.1,4.5-4.9,6.1-8c1.6-3.1,2.6-6.6,3.1-10.2
		c0.4-3.6,0.3-7.3-0.5-10.8l-22.5-103.9L118.6,143.1z"/>
	
		<linearGradient id="SVGID_1_" gradientUnits="userSpaceOnUse" x1="15196.6582" y1="-44.9696" x2="23809.8223" y2="-44.9696" gradientTransform="matrix(1 0 0 -1 0 196)">
		<stop  offset="0.28" style="stop-color:#F1C4D9"/>
		<stop  offset="0.39" style="stop-color:#192A41"/>
		<stop  offset="0.58" style="stop-color:#1F3C6B"/>
		<stop  offset="0.75" style="stop-color:#234A8A"/>
		<stop  offset="0.9" style="stop-color:#26529C"/>
		<stop  offset="1" style="stop-color:#2755A3"/>
	</linearGradient>
	<path class="st1" d="M140.5,157c0,0-17,15.1-16.5,39.7s6.5,37.3,22.2,55.8c10.7,12.7,20.7,24.5,27.6,32.7
		c-18.3-3-43.8,7.7-43.8,7.7l3.8,32.1l71.8-6.5c2.9-1.1,5.6-3,7.9-5.4c2.3-2.4,4.2-5.3,5.5-8.6c1.3-3.3,2.1-6.8,2.3-10.4
		c0.2-3.6-0.3-7.3-1.3-10.7l-33-91.6L140.5,157z"/>
	<path class="st2" d="M133.3,325.8l-4-33.4l0.5-0.2c0.2-0.1,24.1-10,42.2-8c-4.1-4.8-9-10.7-14.5-17.2l-11.7-14
		c-14.8-17.5-22-30.4-22.4-56.4c-0.4-24.8,16.7-40.2,16.9-40.4l0.4-0.3l47.1,35.3l0.1,0.2l33,91.6c1.1,3.5,1.5,7.3,1.3,11
		c-0.2,3.7-1,7.4-2.4,10.8c-1.4,3.4-3.3,6.4-5.7,8.8c-2.4,2.5-5.1,4.3-8.1,5.5h-0.2L133.3,325.8z M130.7,293.4l3.7,30.7l71.1-6.4
		c2.8-1.1,5.4-2.9,7.6-5.2c2.2-2.3,4-5.2,5.3-8.3c1.3-3.2,2.1-6.6,2.2-10.1c0.2-3.5-0.3-7-1.2-10.4l-32.9-91.3l-46-34.4
		c-2.4,2.3-16.3,16.8-16,38.7c0.4,25.6,7.1,37.7,22,55.2l11.8,13.9c6.1,7.2,11.6,13.7,15.9,18.8l1.4,1.7l-2-0.3
		C157.2,283.3,134.4,292,130.7,293.4z"/>
	<path class="st3" d="M239.4,188.5c-0.8-1.3-1.3-2.7-1.6-4.2c-0.3-1.5-0.3-3.1-0.1-4.6c0.2-3.1,1.2-6,2.8-8.5
		c4.3,0.4,8.5,1.4,12.6,3.1c6.7,2.8,9.9,6.9,10.4,8.1c1.4,3.4-0.3,3.9-0.3,3.9s0.6,2.6-0.7,3.9c-0.9,0.9-2.4-0.3-2.4-0.3
		s0,1.8-1.2,2.2c-1.2,0.4-4.3-3.9-6.5-4.8c-1.3-0.5-2.6-0.9-3.9-1.1c0,0,2.2,3.2,0.9,4.1c-1.3,0.9-3.2-1.1-5.6-1.5
		C242.4,188.5,240.9,188.4,239.4,188.5z"/>
	<path class="st4" d="M247.2,107.8c-1.3-5-6.6-11.5-14.4-12.5c-6.3-0.8-9.2,4.4-13.8,0.5c-3.7-3.2-6.2-13.2-15.1-19
		c-9.7-6.4-46.3-4.4-31.3,39.6c4.6,13.5,19.3,3.1,38.7,0.2c0.4-0.9,0.8-1.8,1.4-2.6l19.9-3.9c1.1-0.3,2.2-0.2,3.2,0.3
		c1,0.5,1.9,1.3,2.5,2.3l2.7,4.5c-0.7,0.9-1.5,1.8-2.3,2.6h0.1C244.9,122.3,248.6,112.7,247.2,107.8z"/>
	<path class="st3" d="M238.3,112.5c-0.6-1.1-1.5-1.9-2.5-2.3c-1-0.5-2.1-0.6-3.2-0.3l-19.9,3.9c-0.5,0.8-1,1.7-1.4,2.6
		c-0.7,1.3-1,2.9-0.8,4.5c0.6,2.9,1.3,9,2.8,7.1c5.9-7.5,10.5-8.3,10.5-8.3l0.3,1.3c0.1,0.4,0.3,0.8,0.5,1.1
		c0.2,0.3,0.6,0.6,0.9,0.7c2.4,1,5.1,1.2,7.6,0.4c2-0.8,3.9-2.2,5.5-3.9c0.8-0.8,1.6-1.7,2.3-2.6L238.3,112.5z"/>
	<path d="M232.3,121.5h-0.1c0,0-0.1,0-0.1-0.1c0,0-0.1-0.1-0.1-0.1l-0.5-1.6c0-0.1,0-0.2,0-0.3s0.1-0.2,0.2-0.2c0.1,0,0.2,0,0.3,0
		s0.1,0.1,0.2,0.2l0.4,1.1l2.4-1.6c0.1-0.1,0.2-0.1,0.3,0c0.1,0,0.2,0.1,0.2,0.2c0,0.1,0.1,0.2,0,0.3c0,0.1-0.1,0.2-0.2,0.2
		l-2.7,1.8C232.4,121.5,232.3,121.5,232.3,121.5z"/>
	<path d="M229.3,121.5c-0.1,0-0.1,0-0.2-0.1c0,0-0.1-0.1-0.1-0.1c-0.8-1.5-0.2-2.3-0.2-2.3c0.1-0.1,0.1-0.1,0.2-0.1
		c0.1,0,0.2,0,0.2,0.1c0.1,0.1,0.1,0.2,0.1,0.3c0,0.1,0,0.2-0.1,0.3c0,0-0.3,0.4,0.3,1.3c0,0,0,0.1,0.1,0.1c0,0.1,0,0.1,0,0.2
		c0,0.1,0,0.1-0.1,0.1c0,0-0.1,0.1-0.1,0.1C229.4,121.4,229.4,121.5,229.3,121.5z"/>
	<path d="M234.4,116.7c-0.1,0-0.1,0-0.2-0.1c-0.1,0-0.1-0.1-0.1-0.2l-0.5-1.7c0,0,0-0.1,0-0.2c0-0.1,0-0.1,0-0.2c0,0,0-0.1,0.1-0.1
		c0,0,0.1-0.1,0.1-0.1c0,0,0.1,0,0.1,0c0,0,0.1,0,0.1,0c0,0,0.1,0.1,0.1,0.1c0,0,0.1,0.1,0.1,0.1l0.5,1.7c0,0,0,0.1,0,0.2
		c0,0.1,0,0.1,0,0.2c0,0,0,0.1-0.1,0.1c0,0-0.1,0.1-0.1,0.1L234.4,116.7z"/>
	<path class="st5" d="M220.3,157.5c-8.3-11.8-7-29.4-7-29.4l-0.6-14.2c0,0-2.3-18.1-26.2-24c-16.3-4.1-41.4,9.2-51,30.5
		c-0.9,2-1.7,4.2-2.4,6.3c-13.5,9-26.8,25.4-32.6,47c-7.2,27.2-5.1,70.1-5.1,70.1s32.8,34.5,81.4,14.8c19.9-8.1,33.1-9.5,33.1-9.5
		s-6.5-18.2-12.8-32.7c11.1,0.2,17.6-3.4,17.6-3.4l-1.6-13.2c0,0-16.4-6.1-28.3-17.1c0.6-4.8,2.6-9.3,5.8-12.4l0.5-0.6
		c4.2,6.5,9.7,11.8,15.9,15.2c10.2,5.3,21.6,6.5,32.4,3.4l1.1-17.4C232.7,169.6,225.5,164.7,220.3,157.5z"/>
	<path class="st6" d="M309.9,299.6c0,0,10,8.2,7.7,19c-1.9,8.7-8.9,10.2-12.6,10.4c-0.2,0-0.3,0-0.4-0.1c-0.1-0.1-0.2-0.3-0.3-0.4
		c0-0.2,0-0.4,0-0.5c0.1-0.2,0.2-0.3,0.3-0.4c3.1-2.2,8.5-6.7,7.9-11.6c-1.1-9.7-7.2-10.5-7.2-10.5L309.9,299.6z"/>
	<path class="st2" d="M280.6,227.1c0,0,0-0.1-0.1-0.1c-0.9-0.5-1.7-1.2-2.3-2.1c-0.6-0.9-1.1-2-1.3-3.1c-1.2-6.1,0-16.3-0.5-19.5
		c-0.5-3.1-0.7-6.1-0.7-6.1l0.4-0.1c-2-1.6-4.4-2.4-6.8-2.5c-3.6-0.2-4.7,1.7-8.8,5.6c-2.8,2.3-6.1,3.5-9.5,3.1
		c0.6,0.3,1.1,0.7,1.6,1.3c0.2,0.4,0.3,0.7,0.3,1.1c0,0.4,0,0.8-0.1,1.2c-0.1,0.4-0.2,0.8-0.4,1.1c-0.2,0.3-0.5,0.6-0.8,0.8
		c-1,0.7-2.1,1.1-3.3,1c0,0-0.6,6.2,5.1,11.3c5.8,5.2,10.7,3.2,10.7,3.2s3.1,52.8,2.5,58.1c-0.6,5.3-1.5,11.8-2.5,13
		c-5.9,7-4.9,11.7-4.9,11.7l12.6-0.3c-0.7,0.6-1.2,1.5-1.4,2.5c-0.2,1-0.1,2.1,0.3,3c0,0,23.5-0.6,27-0.6c5.7,0,13.4-0.6,13.2-15.5
		C310.4,262.4,282.2,230.1,280.6,227.1z"/>
	<path class="st6" d="M285.1,200.7c-2.9-6.3-7.6-5.3-8.9-4.8l-0.4,0.1c0,0,0.2,3,0.7,6.1c0.5,3.1-0.7,13.4,0.5,19.5
		c0.2,1.1,0.7,2.2,1.3,3.1c0.6,0.9,1.4,1.6,2.3,2.1c2.1,1.1,4.4,1.5,6.6,1.2c3.1-0.4,4.8-5.1,4.8-5.1S288.6,208.1,285.1,200.7z"/>
	<path class="st6" d="M252.5,203.5c-0.4-0.6-1-1-1.6-1.3c-1.4-0.7-3.1-1-4,0.5c-1.3,2.2,1.4,6.2,1.4,6.2c1.2,0,2.3-0.3,3.3-1
		c0.3-0.2,0.6-0.5,0.8-0.8c0.2-0.3,0.4-0.7,0.4-1.1c0.1-0.4,0.1-0.8,0-1.2C252.8,204.2,252.7,203.8,252.5,203.5z"/>
	<path d="M263.3,207.4c-0.5,0.1-0.9,0-1.3-0.2s-0.8-0.5-1.1-0.9c-0.1-0.2-0.2-0.5-0.3-0.8c0-0.3,0-0.6,0-0.9c0-0.1,0.1-0.2,0.2-0.2
		c0.1,0,0.2,0,0.2,0c0.1,0,0.1,0.1,0.2,0.2c0,0.1,0.1,0.2,0,0.3c0,0.2,0,0.3,0,0.5c0,0.2,0.1,0.3,0.2,0.4c0.2,0.4,0.8,0.8,2.3,0.7
		c0.1,0,0.2,0,0.2,0.1c0.1,0.1,0.1,0.2,0.1,0.3c0,0.1,0,0.1,0,0.2c0,0,0,0.1-0.1,0.1c0,0-0.1,0.1-0.1,0.1c0,0-0.1,0-0.1,0
		L263.3,207.4z"/>
	<path class="st6" d="M286.9,258.6c3.1,7.3,5.7,9.9,8.1,11.9c2.1,1.7,7.1,1,5.5-4.1c-1.6-5.1-4.4-7.4-6.5-13.8c-1.3-4.1-3.5-8-5-7.5
		C287.4,245.7,283.8,251.3,286.9,258.6z"/>
	<path class="st6" d="M305.8,270.1c0,0-3.5,1.2-0.9,10.2c2.6,9,5.8,10.7,5.8,10.7c-0.2-3.7-0.8-7.3-1.7-10.8
		C308.1,276.7,307,273.3,305.8,270.1z"/>
	<path class="st5" d="M207.6,168.5c-0.7-2.9-1.6-5.6-2.7-8.3c0-0.3,1.9-12.1,9.7-16.7l3.1-1.8c6-3.5,13.5-7.9,15.7-9.7
		c2.9-2.3,1.3-8.7,1.2-9l-1.3,0.5c0.4,1.5,1,5.8-0.7,7.2c-2.1,1.7-9.8,6.2-15.5,9.6L214,142c-6.5,3.9-9.1,12-10,15.8l-0.1-0.1
		c-2.8-7-5.3-13-3.3-22.7c2.8-14.2,14.4-30.5,20.9-32.4c0.7-0.3,1.4-0.4,2.1-0.3c0.7,0.1,1.4,0.4,2,0.9c1.7,1.6,1.8,5,1.8,5h1.3
		c0-0.2-0.1-4.2-2.3-6.3c-0.8-0.6-1.6-1-2.5-1.2c-0.9-0.2-1.9-0.1-2.7,0.3c-7.1,2-19,18.7-22,33.6c-2.1,10.3,0.6,16.8,3.4,23.8
		c1.5,3.4,2.7,6.9,3.6,10.5c2.7,10.7,6.6,20.8,11.7,30.2c0.5,0,1.1,0,1.7,0.1C214.4,189.7,210.3,179.4,207.6,168.5z"/>
	<path class="st5" d="M233.9,205.6c0.6,1.7-2.9,2.6-2.9,2.6c1.2,0.8,2.4,1.4,3.6,2c2.2,0.9,6.8-0.2,7.6,1c0.1,0.2,0.2,0.5,0.3,0.8
		c0.5-0.4,0.9-0.9,1.2-1.4c0.3-0.6,0.5-1.2,0.6-1.9c0.3-3.2-2.6-6.3-6.4-6.8c-1.1-0.2-2.3-0.1-3.4,0.2c-1.1,0.4-2.1,1-3,1.9
		C232.7,204.3,233.6,204.7,233.9,205.6z"/>
	<path class="st3" d="M244.1,215.3c-0.2-1.4-2-1.6-2-1.6c0.3-0.5,0.5-1.2,0.5-1.9c0-0.3-0.1-0.5-0.3-0.8c-0.8-1.2-5.4-0.1-7.6-1
		c-1.3-0.5-2.5-1.2-3.6-2c0,0,3.5-0.9,2.9-2.6c-0.3-0.9-1.3-1.3-2.4-1.7c-1-0.3-1.9-0.7-2.8-1.2c-2.8-1.9-5.9-3.1-9.1-3.4
		c-0.6,0-1.2-0.1-1.7-0.1c-1.6,0-3.2,0.2-4.8,0.8l0.6,12.3c4.7,3.4,9.6,6.2,14.8,8.5c6.7,2.7,11.4,1.8,12.3,1.3
		c2.9-1.6,1.8-3.2,1.8-3.2S244.5,217.3,244.1,215.3z"/>
	
		<linearGradient id="SVGID_2_" gradientUnits="userSpaceOnUse" x1="11367.7031" y1="-115.3173" x2="13087.5801" y2="-115.3173" gradientTransform="matrix(1 0 0 -1 0 196)">
		<stop  offset="0.28" style="stop-color:#151E27"/>
		<stop  offset="0.39" style="stop-color:#192A41"/>
		<stop  offset="0.58" style="stop-color:#1F3C6B"/>
		<stop  offset="0.75" style="stop-color:#234A8A"/>
		<stop  offset="0.9" style="stop-color:#26529C"/>
		<stop  offset="1" style="stop-color:#2755A3"/>
	</linearGradient>
	<path class="st7" d="M278.8,319.6c0,0-7.6,5.3-20.9,5.3c-15.3,0-22.6-5.3-22.6-5.3l7-21.9l30.8,0.4L278.8,319.6z"/>
	<path class="st5" d="M257.7,302.3c8.3,0,15.1-1.9,15.1-4.2c0-2.3-6.8-4.2-15.1-4.2c-8.3,0-15.1,1.9-15.1,4.2
		C242.6,300.4,249.4,302.3,257.7,302.3z"/>
	<path class="st2" d="M257.7,303.1c-7.6,0-15.8-1.6-15.8-5c0-3.4,8.2-5,15.8-5s15.8,1.6,15.8,5C273.5,301.6,265.3,303.1,257.7,303.1
		z M257.7,294.7c-9.3,0-14.4,2.3-14.4,3.4c0,1.2,5.1,3.4,14.4,3.4c9.3,0,14.4-2.3,14.4-3.4C272.1,296.9,267,294.7,257.7,294.7z"/>
	<path class="st2" d="M263.3,309.9c0,0,2.1-2.8,4-0.4c1.1,1.4-0.7,2.9-0.7,2.9s1.8,2.9-0.1,3.8s-3.5-1.8-3.5-1.8h-11
		c0,0-0.6,3.4-2.6,2.5c-2.1-1-0.4-4.4-0.4-4.4s-2.3-2.2-0.9-3.9c1.8-2.1,3.8,1.4,3.8,1.4H263.3z"/>
	<path class="st2" d="M190.6,217.8c-6.6,0.1-13.2-1.1-19.5-3.7c-17.5-7.6-45.6-33.3-39.4-80.9c0-0.2,0.1-0.4,0.3-0.5
		c0.1-0.1,0.3-0.2,0.5-0.2c0.1,0,0.2,0.1,0.2,0.1c0.1,0.1,0.1,0.1,0.2,0.2c0.1,0.1,0.1,0.2,0.1,0.3c0,0.1,0,0.2,0,0.3
		c-6,46.6,21.4,71.6,38.6,79.1s38.2,1.2,41.7,0l-0.7-12c-3.2-1.1-21.7-8-33-21.5c-10.4-12.6-13.6-26.4-9.3-41c0-0.1,0.1-0.2,0.1-0.3
		c0.1-0.1,0.1-0.2,0.2-0.2c0.1-0.1,0.2-0.1,0.3-0.1c0.1,0,0.2,0,0.3,0c0.1,0,0.2,0.1,0.2,0.2c0.1,0.1,0.1,0.2,0.2,0.3
		c0,0.1,0.1,0.2,0.1,0.3c0,0.1,0,0.2-0.1,0.3c-4.1,14-1,27.2,9,39.4c12,14.5,32.6,21.2,32.8,21.3c0.1,0,0.3,0.1,0.3,0.3
		c0.1,0.1,0.1,0.3,0.2,0.5l0.8,13.2c0,0.2,0,0.4-0.1,0.5c-0.1,0.1-0.2,0.3-0.4,0.3C206.5,216.5,198.6,217.8,190.6,217.8z"/>
	<path class="st2" d="M115.9,176.5c-1.6,0-3.1-0.4-4.6-1.2c-0.1,0-0.1-0.1-0.2-0.2c-0.1-0.1-0.1-0.2-0.1-0.3c0-0.1,0-0.2,0-0.3
		c0-0.1,0-0.2,0.1-0.3c0-0.1,0.1-0.2,0.2-0.2c0.1-0.1,0.1-0.1,0.2-0.2s0.2,0,0.3,0c0.1,0,0.2,0,0.3,0.1c1.6,0.8,3.3,1.2,5.1,0.9
		c1.7-0.2,3.4-1,4.8-2.2c4.9-4.2,4.8-8.3,4.8-8.5c0-0.1,0-0.2,0-0.3c0-0.1,0.1-0.2,0.1-0.3c0.1-0.1,0.1-0.1,0.2-0.2
		c0.1,0,0.2-0.1,0.3-0.1c0.2,0,0.3,0.1,0.5,0.2c0.1,0.1,0.2,0.3,0.2,0.5c0,0.2,0.2,5.1-5.3,9.9C120.7,175.6,118.3,176.5,115.9,176.5
		z"/>
	<path class="st2" d="M184.9,294.9c-0.2,0-0.3-0.1-0.4-0.2l-5.5-5.4c-0.1-0.1-0.1-0.1-0.2-0.2c0-0.1-0.1-0.2-0.1-0.3
		c0-0.1,0-0.2,0-0.3c0-0.1,0.1-0.2,0.1-0.3c0.1-0.1,0.1-0.1,0.2-0.2c0.1,0,0.2-0.1,0.3-0.1c0.1,0,0.2,0,0.3,0c0.1,0,0.2,0.1,0.2,0.1
		l5.5,5.5c0.1,0.1,0.2,0.2,0.2,0.4c0,0.2,0,0.3,0,0.5c0,0.2-0.1,0.3-0.3,0.4C185.2,294.8,185.1,294.9,184.9,294.9z"/>
	<path class="st2" d="M187.1,287.7H187l-8-2c-0.2,0-0.3-0.2-0.4-0.3c-0.1-0.2-0.1-0.4-0.1-0.6s0.1-0.4,0.3-0.5
		c0.1-0.1,0.3-0.2,0.5-0.1l8,2c0.2,0,0.3,0.2,0.4,0.3c0.1,0.2,0.1,0.4,0.1,0.6c0,0.2-0.1,0.3-0.2,0.5
		C187.4,287.6,187.3,287.7,187.1,287.7z"/>
	<path class="st2" d="M146.5,320.8c-0.1,0-0.2,0-0.3-0.1c-0.1-0.1-0.2-0.2-0.2-0.3c-3.2-7.7-5.2-26.1-5.3-26.9c0-0.2,0-0.4,0.1-0.6
		c0.1-0.2,0.3-0.3,0.4-0.3c0.1,0,0.2,0,0.3,0c0.1,0,0.2,0.1,0.2,0.1c0.1,0.1,0.1,0.1,0.2,0.2c0,0.1,0.1,0.2,0.1,0.3
		c0,0.2,2.1,19,5.2,26.4c0,0.1,0.1,0.2,0.1,0.3c0,0.1,0,0.2,0,0.3c0,0.1-0.1,0.2-0.1,0.3c-0.1,0.1-0.1,0.1-0.2,0.2
		C146.7,320.8,146.6,320.8,146.5,320.8z"/>
	<path class="st2" d="M195.7,138.8c0.7,0,1.3-0.7,1.3-1.6c0-0.9-0.6-1.6-1.3-1.6s-1.3,0.7-1.3,1.6
		C194.4,138.1,195,138.8,195.7,138.8z"/>
	<path class="st2" d="M187.4,147c0.7,0,1.3-0.7,1.3-1.6c0-0.9-0.6-1.6-1.3-1.6c-0.7,0-1.3,0.7-1.3,1.6
		C186.1,146.3,186.7,147,187.4,147z"/>
	<path class="st2" d="M179.8,154.6c0.7,0,1.3-0.7,1.3-1.6c0-0.9-0.6-1.6-1.3-1.6s-1.3,0.7-1.3,1.6
		C178.4,153.9,179,154.6,179.8,154.6z"/>
	<path class="st8" d="M90.8,295v-0.2c-0.4-1.8-1.1-3.5-1.9-5.1c-0.8-1.5-1.9-2.8-3.1-3.8c-0.4-0.4-0.8-0.6-1.2-0.8
		c-0.4-0.2-0.9-0.2-1.4-0.2l-8.4,2.8c-0.8,0.2-1.2,0.9-1.4,2.1c0,0.2-0.1,0.4-0.2,0.6c-0.1,0.2-0.2,0.3-0.3,0.4
		c-1.1,0.9-4.7-0.7-4.7-0.7l-13,4.4c-5.5,1.9-8.9,6.4-10.8,9.1c-0.2,0.2-0.3,0.5-0.3,0.8c0,0.3,0,0.6,0.1,0.8
		c0.1,0.3,0.3,0.5,0.5,0.6s0.4,0.2,0.7,0.2c2.2-0.1,4.3-0.4,6.4-0.7c3.5-0.5,7.1-0.7,10.7-0.6v-0.1c1.3-2.1,2.9-3.9,4.7-5.3
		c2.2-1.6,8.8-1.1,14.2-0.2C86.7,300,90.8,295,90.8,295z"/>
	<path class="st3" d="M99.5,289.3c-2.7,2.2-5.6,4-8.7,5.4h-0.1v0.2c0,0-4,5-9.4,4.1c-5.4-1-12-1.4-14.2,0.2
		c-1.8,1.4-3.4,3.2-4.7,5.3c7.2-0.1,26.8-0.3,29.1-0.5c2.7-0.2,6.5,0,8.7-0.1C100.4,302,99.6,290.2,99.5,289.3z"/>
	<path class="st8" d="M122.1,309.2c0,0,0-0.1,0-0.2c-0.5-1.8-1.3-3.4-2.3-4.9c-0.9-1.4-2-2.6-3.3-3.4c-0.4-0.3-0.8-0.6-1.3-0.7
		c-0.5-0.1-0.9-0.1-1.4-0.1l-8.1,3.7c-0.7,0.3-1.1,1-1.3,2.2c0,0.2-0.1,0.4-0.1,0.6c-0.1,0.2-0.2,0.3-0.3,0.5
		c-1.1,1-4.8-0.2-4.8-0.2l-12.6,5.7c-4.2,2.1-7.7,5.6-10.1,10.2c-0.1,0.2-0.2,0.5-0.2,0.8c0,0.3,0.1,0.6,0.2,0.8
		c0.1,0.2,0.3,0.4,0.5,0.6c0.2,0.1,0.5,0.2,0.7,0.1c2.1-0.3,4.2-0.8,6.3-1.4c3.5-0.9,7-1.4,10.6-1.7v-0.1c1.1-2.2,2.5-4.2,4.3-5.8
		c2.1-1.8,8.7-2,14.2-1.6S122.1,309.2,122.1,309.2z"/>
	<path class="st3" d="M130.4,302.7c-2.5,2.5-5.3,4.6-8.2,6.3h-0.1c0,0.1,0,0.2,0,0.2s-3.6,5.4-9.1,5c-5.5-0.4-12.1-0.2-14.2,1.6
		c-1.7,1.6-3.2,3.5-4.3,5.8c7.1-0.8,26.7-3.1,29-3.5c2.7-0.4,6.5-0.7,8.7-1C132.2,315.2,130.5,303.5,130.4,302.7z"/>
</g>
</svg>
