<?xml version="1.0" encoding="utf-8"?>
<!-- Generator: Adobe Illustrator 25.0.0, SVG Export Plug-In . SVG Version: 6.00 Build 0)  -->
<svg version="1.1" id="Layer_1" xmlns="http://www.w3.org/2000/svg" xmlns:xlink="http://www.w3.org/1999/xlink" x="0px" y="0px"
	 viewBox="0 0 375 404" style="enable-background:new 0 0 375 404;" xml:space="preserve">
<style type="text/css">
	.st0{fill:#F1C4D9;stroke:#FFFFFF;stroke-miterlimit:10;}
	.st1{fill:url(#SVGID_1_);}
	.st2{fill:#FFFFFF;}
	.st3{fill:#EF6744;}
	.st4{fill:#5D2E0C;}
	.st5{fill:#2755A3;}
	.st6{fill:#7E2A2F;}
	.st7{fill:url(#SVGID_2_);}
	.st8{fill:#151E27;}
</style>
<g>
	<path class="st0" d="M130.4,149.1c0,0-16.9,12.5-18.3,35.7c-1.3,23.1,3.6,35.6,17,54.5c9.2,13,17.8,24.9,23.7,33.3
		c-16.9-4.5-41.6,3-41.6,3l1.4,30.4l67.7,0.8c2.8-0.8,5.5-2.3,7.7-4.2c2.4-2,4.2-4.6,5.7-7.5c1.5-2.9,2.4-6.2,2.9-9.6
		c0.4-3.4,0.3-6.9-0.5-10.2l-21.2-97.8L130.4,149.1z"/>
	
		<linearGradient id="SVGID_1_" gradientUnits="userSpaceOnUse" x1="14317.6113" y1="887.0889" x2="22421.9023" y2="887.0889" gradientTransform="matrix(1 0 0 1 0 -645.8898)">
		<stop  offset="0.28" style="stop-color:#F1C4D9"/>
		<stop  offset="0.39" style="stop-color:#192A41"/>
		<stop  offset="0.58" style="stop-color:#1F3C6B"/>
		<stop  offset="0.75" style="stop-color:#234A8A"/>
		<stop  offset="0.9" style="stop-color:#26529C"/>
		<stop  offset="1" style="stop-color:#2755A3"/>
	</linearGradient>
	<path class="st1" d="M151,162.2c0,0-16,14.2-15.5,37.4s6.1,35.1,20.9,52.5c10.1,11.9,19.5,23.1,26,30.8
		c-17.2-2.8-41.2,7.2-41.2,7.2l3.6,30.2l67.6-6.1c2.7-1,5.3-2.8,7.4-5.1c2.2-2.3,4-5,5.2-8.1c1.2-3.1,2-6.4,2.2-9.8
		c0.2-3.4-0.3-6.9-1.2-10.1l-31.1-86.2L151,162.2z"/>
	<path class="st2" d="M144.2,321l-3.8-31.4l0.5-0.2c0.2-0.1,22.7-9.4,39.7-7.5c-3.9-4.5-8.5-10.1-13.6-16.2l-11-13.2
		c-13.9-16.5-20.7-28.6-21.1-53.1c-0.4-23.3,15.7-37.8,15.9-38l0.4-0.3l44.3,33.2l0.1,0.2l31.1,86.2c1,3.3,1.4,6.9,1.2,10.4
		c-0.2,3.5-0.9,7-2.3,10.2c-1.3,3.2-3.1,6-5.4,8.3c-2.3,2.4-4.8,4-7.6,5.2h-0.2L144.2,321z M141.8,290.5l3.5,28.9l66.9-6
		c2.6-1,5.1-2.7,7.2-4.9c2.1-2.2,3.8-4.9,5-7.8c1.2-3,2-6.2,2.1-9.5c0.2-3.3-0.3-6.6-1.1-9.8l-31-85.9L151,163.1
		c-2.3,2.2-15.3,15.8-15.1,36.4c0.4,24.1,6.7,35.5,20.7,51.9l11.1,13.1c5.7,6.8,10.9,12.9,15,17.7l1.3,1.6l-1.9-0.3
		C166.7,281,145.2,289.2,141.8,290.5z"/>
	<path class="st3" d="M244,191.8c-0.8-1.2-1.2-2.5-1.5-4c-0.3-1.4-0.3-2.9-0.1-4.3c0.2-2.9,1.1-5.6,2.6-8c4,0.4,8,1.3,11.9,2.9
		c6.3,2.6,9.3,6.5,9.8,7.6c1.3,3.2-0.3,3.7-0.3,3.7s0.6,2.4-0.7,3.7c-0.8,0.8-2.3-0.3-2.3-0.3s0,1.7-1.1,2.1c-1.1,0.4-4-3.7-6.1-4.5
		c-1.2-0.5-2.4-0.8-3.7-1c0,0,2.1,3,0.8,3.9c-1.2,0.8-3-1-5.3-1.4C246.9,191.8,245.5,191.7,244,191.8z"/>
	<path class="st4" d="M251.4,115.9c-1.2-4.7-6.2-10.8-13.5-11.8c-5.9-0.8-8.7,4.1-13,0.5c-3.5-3-5.8-12.4-14.2-17.9
		c-9.1-6-43.6-4.1-29.5,37.3c4.3,12.7,18.2,2.9,36.4,0.2c0.4-0.8,0.8-1.7,1.3-2.4l18.7-3.7c1-0.3,2.1-0.2,3,0.3s1.8,1.2,2.4,2.2
		l2.5,4.2c-0.7,0.8-1.4,1.7-2.2,2.4h0.1C249.2,129.5,252.7,120.5,251.4,115.9z"/>
	<path class="st3" d="M243,120.3c-0.6-1-1.4-1.8-2.4-2.2c-0.9-0.5-2-0.6-3-0.3l-18.7,3.7c-0.5,0.8-0.9,1.6-1.3,2.4
		c-0.7,1.2-0.9,2.7-0.8,4.2c0.6,2.7,1.2,8.5,2.6,6.7c5.6-7.1,9.9-7.8,9.9-7.8l0.3,1.2c0.1,0.4,0.3,0.8,0.5,1s0.6,0.6,0.8,0.7
		c2.3,0.9,4.8,1.1,7.2,0.4c1.9-0.8,3.7-2.1,5.2-3.7c0.8-0.8,1.5-1.6,2.2-2.4L243,120.3z"/>
	<path d="M237.4,128.8L237.4,128.8c-0.1,0-0.2,0-0.2-0.1l-0.1-0.1l-0.5-1.5c0-0.1,0-0.2,0-0.3c0-0.1,0.1-0.2,0.2-0.2
		c0.1,0,0.2,0,0.3,0s0.1,0.1,0.2,0.2l0.4,1l2.3-1.5c0.1-0.1,0.2-0.1,0.3,0c0.1,0,0.2,0.1,0.2,0.2c0,0.1,0.1,0.2,0,0.3
		c0,0.1-0.1,0.2-0.2,0.2l-2.5,1.7C237.5,128.8,237.4,128.8,237.4,128.8z"/>
	<path d="M234.5,128.8c-0.1,0-0.1,0-0.2-0.1l-0.1-0.1c-0.8-1.4-0.2-2.2-0.2-2.2c0.1-0.1,0.1-0.1,0.2-0.1s0.2,0,0.2,0.1
		c0.1,0.1,0.1,0.2,0.1,0.3c0,0.1,0,0.2-0.1,0.3c0,0-0.3,0.4,0.3,1.2c0,0,0,0.1,0.1,0.1c0,0.1,0,0.1,0,0.2s0,0.1-0.1,0.1L234.5,128.8
		C234.6,128.7,234.6,128.8,234.5,128.8z"/>
	<path d="M239.3,124.2c-0.1,0-0.1,0-0.2-0.1c-0.1,0-0.1-0.1-0.1-0.2l-0.5-1.6c0,0,0-0.1,0-0.2s0-0.1,0-0.2c0,0,0-0.1,0.1-0.1
		l0.1-0.1h0.1h0.1l0.1,0.1l0.1,0.1l0.5,1.6c0,0,0,0.1,0,0.2c0,0.1,0,0.1,0,0.2c0,0,0,0.1-0.1,0.1L239.3,124.2L239.3,124.2z"/>
	<path class="st5" d="M226.1,162.6c-7.8-11.1-6.6-27.7-6.6-27.7l-0.6-13.4c0,0-2.2-17-24.7-22.6c-15.3-3.9-39,8.7-48,28.7
		c-0.8,1.9-1.6,4-2.3,5.9c-12.7,8.5-25.2,23.9-30.7,44.2c-6.8,25.6-4.8,66-4.8,66s30.9,32.5,76.6,13.9c18.7-7.6,31.1-8.9,31.1-8.9
		s-6.1-17.1-12-30.8c10.4,0.2,16.6-3.2,16.6-3.2l-1.5-12.4c0,0-15.4-5.7-26.6-16.1c0.6-4.5,2.4-8.8,5.5-11.7l0.5-0.6
		c4,6.1,9.1,11.1,15,14.3c9.6,5,20.3,6.1,30.5,3.2l1-16.4C237.7,174,231,169.4,226.1,162.6z"/>
	<path class="st6" d="M310.4,296.3c0,0,9.4,7.7,7.2,17.9c-1.8,8.2-8.4,9.6-11.9,9.8c-0.2,0-0.3,0-0.4-0.1c-0.1-0.1-0.2-0.3-0.3-0.4
		c0-0.2,0-0.4,0-0.5c0.1-0.2,0.2-0.3,0.3-0.4c2.9-2.1,8-6.3,7.4-10.9c-1-9.1-6.8-9.9-6.8-9.9L310.4,296.3z"/>
	<path class="st2" d="M282.8,228.1C282.8,228.1,282.8,228,282.8,228.1c-0.9-0.6-1.7-1.2-2.3-2.1c-0.6-0.8-1-1.9-1.2-2.9
		c-1.1-5.7,0-15.3-0.5-18.3c-0.5-2.9-0.7-5.7-0.7-5.7l0.4-0.1c-1.9-1.5-4.1-2.3-6.4-2.4c-3.4-0.2-4.4,1.6-8.3,5.3
		c-2.6,2.2-5.7,3.3-8.9,2.9c0.6,0.3,1,0.7,1.5,1.2c0.2,0.4,0.3,0.7,0.3,1s0,0.8-0.1,1.1c-0.1,0.4-0.2,0.8-0.4,1
		c-0.2,0.3-0.5,0.6-0.8,0.8c-0.9,0.7-2,1-3.1,0.9c0,0-0.6,5.8,4.8,10.6c5.5,4.9,10.1,3,10.1,3s2.9,49.7,2.4,54.7
		c-0.6,5-1.4,11.1-2.4,12.2c-5.6,6.6-4.6,11-4.6,11l11.9-0.3c-0.7,0.6-1.1,1.4-1.3,2.4s-0.1,2,0.3,2.8c0,0,22.1-0.6,25.4-0.6
		c5.4,0,12.6-0.6,12.4-14.6C310.8,261.3,284.3,230.9,282.8,228.1z"/>
	<path class="st6" d="M287,203.3c-2.7-5.9-7.2-5-8.4-4.5l-0.4,0.1c0,0,0.2,2.8,0.7,5.7s-0.7,12.6,0.5,18.3c0.2,1,0.7,2.1,1.2,2.9
		c0.6,0.8,1.3,1.5,2.2,2c2,1,4.1,1.4,6.2,1.1c2.9-0.4,4.5-4.8,4.5-4.8S290.3,210.2,287,203.3z"/>
	<path class="st6" d="M256.4,205.9c-0.4-0.6-0.9-0.9-1.5-1.2c-1.3-0.7-2.9-0.9-3.8,0.5c-1.2,2.1,1.3,5.8,1.3,5.8
		c1.1,0,2.2-0.3,3.1-0.9c0.3-0.2,0.6-0.5,0.8-0.8c0.2-0.3,0.4-0.7,0.4-1c0.1-0.4,0.1-0.8,0-1.1C256.6,206.6,256.6,206.2,256.4,205.9
		z"/>
	<path d="M266.5,209.6c-0.5,0.1-0.8,0-1.2-0.2c-0.4-0.2-0.8-0.5-1-0.8c-0.1-0.2-0.2-0.5-0.3-0.8c0-0.3,0-0.6,0-0.8
		c0-0.1,0.1-0.2,0.2-0.2c0.1,0,0.2,0,0.2,0c0.1,0,0.1,0.1,0.2,0.2c0,0.1,0.1,0.2,0,0.3c0,0.2,0,0.3,0,0.5s0.1,0.3,0.2,0.4
		c0.2,0.4,0.8,0.8,2.2,0.7c0.1,0,0.2,0,0.2,0.1c0.1,0.1,0.1,0.2,0.1,0.3s0,0.1,0,0.2c0,0,0,0.1-0.1,0.1l-0.1,0.1h-0.1L266.5,209.6z"
		/>
	<path class="st6" d="M288.7,257.8c2.9,6.9,5.4,9.3,7.6,11.2c2,1.6,6.7,0.9,5.2-3.9c-1.5-4.8-4.1-7-6.1-13c-1.2-3.9-3.3-7.5-4.7-7.1
		C289.2,245.6,285.8,250.9,288.7,257.8z"/>
	<path class="st6" d="M306.5,268.6c0,0-3.3,1.1-0.8,9.6c2.4,8.5,5.5,10.1,5.5,10.1c-0.2-3.5-0.8-6.9-1.6-10.2
		C308.7,274.8,307.6,271.6,306.5,268.6z"/>
	<path class="st5" d="M214.1,173c-0.7-2.7-1.5-5.3-2.5-7.8c0-0.3,1.8-11.4,9.1-15.7l2.9-1.7c5.6-3.3,12.7-7.4,14.8-9.1
		c2.7-2.2,1.2-8.2,1.1-8.5l-1.2,0.5c0.4,1.4,0.9,5.5-0.7,6.8c-2,1.6-9.2,5.8-14.6,9l-2.9,1.6c-6.1,3.7-8.6,11.3-9.4,14.9l-0.1-0.1
		c-2.6-6.6-5-12.2-3.1-21.4c2.6-13.4,13.5-28.7,19.7-30.5c0.7-0.3,1.3-0.4,2-0.3c0.7,0.1,1.3,0.4,1.9,0.8c1.6,1.5,1.7,4.7,1.7,4.7
		h1.2c0-0.2-0.1-4-2.2-5.9c-0.8-0.6-1.5-0.9-2.4-1.1c-0.8-0.2-1.8-0.1-2.5,0.3c-6.7,1.9-17.9,17.6-20.7,31.6
		c-2,9.7,0.6,15.8,3.2,22.4c1.4,3.2,2.5,6.5,3.4,9.9c2.5,10.1,6.2,19.6,11,28.4c0.5,0,1,0,1.6,0.1
		C220.5,192.9,216.7,183.2,214.1,173z"/>
	<path class="st5" d="M238.9,207.9c0.6,1.6-2.7,2.4-2.7,2.4c1.1,0.8,2.3,1.3,3.4,1.9c2.1,0.8,6.4-0.2,7.2,0.9
		c0.1,0.2,0.2,0.5,0.3,0.8c0.5-0.4,0.8-0.8,1.1-1.3c0.3-0.6,0.5-1.1,0.6-1.8c0.3-3-2.4-5.9-6-6.4c-1-0.2-2.2-0.1-3.2,0.2
		c-1,0.4-2,0.9-2.8,1.8C237.7,206.7,238.6,207,238.9,207.9z"/>
	<path class="st3" d="M248.5,217c-0.2-1.3-1.9-1.5-1.9-1.5c0.3-0.5,0.5-1.1,0.5-1.8c0-0.3-0.1-0.5-0.3-0.8c-0.8-1.1-5.1-0.1-7.2-0.9
		c-1.2-0.5-2.4-1.1-3.4-1.9c0,0,3.3-0.8,2.7-2.4c-0.3-0.8-1.2-1.2-2.3-1.6c-0.9-0.3-1.8-0.7-2.6-1.1c-2.6-1.8-5.6-2.9-8.6-3.2
		c-0.6,0-1.1-0.1-1.6-0.1c-1.5,0-3,0.2-4.5,0.8L220,214c4.4,3.2,9,5.8,13.9,8c6.3,2.5,10.7,1.7,11.6,1.2c2.7-1.5,1.7-3,1.7-3
		S248.8,218.9,248.5,217z"/>
	
		<linearGradient id="SVGID_2_" gradientUnits="userSpaceOnUse" x1="10714.874" y1="953.2355" x2="12333.1396" y2="953.2355" gradientTransform="matrix(1 0 0 1 0 -645.8898)">
		<stop  offset="0.28" style="stop-color:#151E27"/>
		<stop  offset="0.39" style="stop-color:#192A41"/>
		<stop  offset="0.58" style="stop-color:#1F3C6B"/>
		<stop  offset="0.75" style="stop-color:#234A8A"/>
		<stop  offset="0.9" style="stop-color:#26529C"/>
		<stop  offset="1" style="stop-color:#2755A3"/>
	</linearGradient>
	<path class="st7" d="M281.1,315.2c0,0-7.2,5-19.7,5c-14.4,0-21.3-5-21.3-5l6.6-20.6l29,0.4L281.1,315.2z"/>
	<path class="st5" d="M261.3,298.9c7.8,0,14.2-1.8,14.2-4c0-2.2-6.4-4-14.2-4c-7.8,0-14.2,1.8-14.2,4S253.4,298.9,261.3,298.9z"/>
	<path class="st2" d="M261.3,299.6c-7.2,0-14.9-1.5-14.9-4.7s7.7-4.7,14.9-4.7c7.2,0,14.9,1.5,14.9,4.7
		C276.1,298.2,268.4,299.6,261.3,299.6z M261.3,291.7c-8.8,0-13.5,2.2-13.5,3.2c0,1.1,4.8,3.2,13.5,3.2c8.8,0,13.5-2.2,13.5-3.2
		C274.8,293.8,270,291.7,261.3,291.7z"/>
	<path class="st2" d="M266.5,306c0,0,2-2.6,3.8-0.4c1,1.3-0.7,2.7-0.7,2.7s1.7,2.7-0.1,3.6s-3.3-1.7-3.3-1.7h-10.4
		c0,0-0.6,3.2-2.4,2.4c-2-0.9-0.4-4.1-0.4-4.1s-2.2-2.1-0.8-3.7c1.7-2,3.6,1.3,3.6,1.3L266.5,306L266.5,306z"/>
	<path class="st2" d="M198.1,219.4c-6.2,0.1-12.4-1-18.3-3.5c-16.5-7.2-42.9-31.3-37.1-76.1c0-0.2,0.1-0.4,0.3-0.5
		c0.1-0.1,0.3-0.2,0.5-0.2c0.1,0,0.2,0.1,0.2,0.1c0.1,0.1,0.1,0.1,0.2,0.2c0.1,0.1,0.1,0.2,0.1,0.3s0,0.2,0,0.3
		c-5.6,43.8,20.1,67.4,36.3,74.4c16.2,7.1,35.9,1.1,39.2,0l-0.7-11.3c-3-1-20.4-7.5-31.1-20.2C178,171,175,158,179,144.3
		c0-0.1,0.1-0.2,0.1-0.3c0.1-0.1,0.1-0.2,0.2-0.2c0.1-0.1,0.2-0.1,0.3-0.1s0.2,0,0.3,0c0.1,0,0.2,0.1,0.2,0.2
		c0.1,0.1,0.1,0.2,0.2,0.3c0,0.1,0.1,0.2,0.1,0.3s0,0.2-0.1,0.3c-3.9,13.2-0.9,25.6,8.5,37.1c11.3,13.6,30.7,19.9,30.9,20
		c0.1,0,0.3,0.1,0.3,0.3c0.1,0.1,0.1,0.3,0.2,0.5l0.8,12.4c0,0.2,0,0.4-0.1,0.5s-0.2,0.3-0.4,0.3
		C213.1,218.1,205.7,219.4,198.1,219.4z"/>
	<path class="st2" d="M127.8,180.5c-1.5,0-2.9-0.4-4.3-1.1c-0.1,0-0.1-0.1-0.2-0.2c-0.1-0.1-0.1-0.2-0.1-0.3c0-0.1,0-0.2,0-0.3
		c0-0.1,0-0.2,0.1-0.3c0-0.1,0.1-0.2,0.2-0.2c0.1-0.1,0.1-0.1,0.2-0.2c0.1-0.1,0.2,0,0.3,0s0.2,0,0.3,0.1c1.5,0.8,3.1,1.1,4.8,0.8
		c1.6-0.2,3.2-0.9,4.5-2.1c4.6-4,4.5-7.8,4.5-8c0-0.1,0-0.2,0-0.3s0.1-0.2,0.1-0.3c0.1-0.1,0.1-0.1,0.2-0.2c0.1,0,0.2-0.1,0.3-0.1
		c0.2,0,0.3,0.1,0.5,0.2c0.1,0.1,0.2,0.3,0.2,0.5c0,0.2,0.2,4.8-5,9.3C132.4,179.7,130.1,180.5,127.8,180.5z"/>
	<path class="st2" d="M192.8,291.9c-0.2,0-0.3-0.1-0.4-0.2l-5.2-5.1c-0.1-0.1-0.1-0.1-0.2-0.2c0-0.1-0.1-0.2-0.1-0.3s0-0.2,0-0.3
		s0.1-0.2,0.1-0.3c0.1-0.1,0.1-0.1,0.2-0.2c0.1,0,0.2-0.1,0.3-0.1s0.2,0,0.3,0c0.1,0,0.2,0.1,0.2,0.1l5.2,5.2
		c0.1,0.1,0.2,0.2,0.2,0.4c0,0.2,0,0.3,0,0.5s-0.1,0.3-0.3,0.4C193,291.8,192.9,291.9,192.8,291.9z"/>
	<path class="st2" d="M194.8,285.1L194.8,285.1l-7.6-1.9c-0.2,0-0.3-0.2-0.4-0.3c-0.1-0.2-0.1-0.4-0.1-0.6s0.1-0.4,0.3-0.5
		c0.1-0.1,0.3-0.2,0.5-0.1l7.5,1.9c0.2,0,0.3,0.2,0.4,0.3c0.1,0.2,0.1,0.4,0.1,0.6c0,0.2-0.1,0.3-0.2,0.5
		C195.1,285,195,285.1,194.8,285.1z"/>
	<path class="st2" d="M156.6,316.3c-0.1,0-0.2,0-0.3-0.1c-0.1-0.1-0.2-0.2-0.2-0.3c-3-7.2-4.9-24.6-5-25.3c0-0.2,0-0.4,0.1-0.6
		s0.3-0.3,0.4-0.3c0.1,0,0.2,0,0.3,0c0.1,0,0.2,0.1,0.2,0.1c0.1,0.1,0.1,0.1,0.2,0.2c0,0.1,0.1,0.2,0.1,0.3c0,0.2,2,17.9,4.9,24.8
		c0,0.1,0.1,0.2,0.1,0.3c0,0.1,0,0.2,0,0.3c0,0.1-0.1,0.2-0.1,0.3c-0.1,0.1-0.1,0.1-0.2,0.2C156.8,316.3,156.7,316.3,156.6,316.3z"
		/>
	<path class="st2" d="M202.9,145c0.7,0,1.2-0.7,1.2-1.5c0-0.8-0.6-1.5-1.2-1.5c-0.7,0-1.2,0.7-1.2,1.5S202.3,145,202.9,145z"/>
	<path class="st2" d="M195.1,152.8c0.7,0,1.2-0.7,1.2-1.5c0-0.8-0.6-1.5-1.2-1.5c-0.7,0-1.2,0.7-1.2,1.5
		C193.9,152.1,194.5,152.8,195.1,152.8z"/>
	<path class="st2" d="M188,159.9c0.7,0,1.2-0.7,1.2-1.5s-0.6-1.5-1.2-1.5s-1.2,0.7-1.2,1.5C186.6,159.2,187.2,159.9,188,159.9z"/>
	<path class="st8" d="M104.2,292v-0.2c-0.4-1.7-1-3.3-1.8-4.8c-0.8-1.4-1.8-2.6-2.9-3.6c-0.4-0.4-0.8-0.6-1.1-0.8
		c-0.4-0.2-0.8-0.2-1.3-0.2l-7.9,2.6c-0.8,0.2-1.1,0.8-1.3,2c0,0.2-0.1,0.4-0.2,0.6c-0.1,0.2-0.2,0.3-0.3,0.4
		c-1,0.8-4.4-0.7-4.4-0.7l-12.2,4.1c-5.2,1.8-8.4,6-10.2,8.6c-0.2,0.2-0.3,0.5-0.3,0.8c0,0.3,0,0.6,0.1,0.8c0.1,0.3,0.3,0.5,0.5,0.6
		c0.2,0.1,0.4,0.2,0.7,0.2c2.1-0.1,4-0.4,6-0.7c3.3-0.5,6.7-0.7,10.1-0.6V301c1.2-2,2.7-3.7,4.4-5c2.1-1.5,8.3-1,13.4-0.2
		C100.4,296.7,104.2,292,104.2,292z"/>
	<path class="st3" d="M112.4,286.6c-2.5,2.1-5.3,3.8-8.2,5.1h-0.1v0.2c0,0-3.8,4.7-8.8,3.9c-5.1-0.9-11.3-1.3-13.4,0.2
		c-1.7,1.3-3.2,3-4.4,5c6.8-0.1,25.2-0.3,27.4-0.5c2.5-0.2,6.1,0,8.2-0.1C113.3,298.6,112.5,287.5,112.4,286.6z"/>
	<path class="st8" d="M133.7,305.4c0,0,0-0.1,0-0.2c-0.5-1.7-1.2-3.2-2.2-4.6c-0.8-1.3-1.9-2.4-3.1-3.2c-0.4-0.3-0.8-0.6-1.2-0.7
		c-0.5-0.1-0.8-0.1-1.3-0.1l-7.6,3.5c-0.7,0.3-1,0.9-1.2,2.1c0,0.2-0.1,0.4-0.1,0.6c-0.1,0.2-0.2,0.3-0.3,0.5
		c-1,0.9-4.5-0.2-4.5-0.2l-11.9,5.4c-4,2-7.2,5.3-9.5,9.6c-0.1,0.2-0.2,0.5-0.2,0.8s0.1,0.6,0.2,0.8c0.1,0.2,0.3,0.4,0.5,0.6
		c0.2,0.1,0.5,0.2,0.7,0.1c2-0.3,4-0.8,5.9-1.3c3.3-0.8,6.6-1.3,10-1.6v-0.1c1-2.1,2.4-4,4-5.5c2-1.7,8.2-1.9,13.4-1.5
		C130.4,310.5,133.7,305.4,133.7,305.4z"/>
	<path class="st3" d="M141.5,299.3c-2.4,2.4-5,4.3-7.7,5.9h-0.1c0,0.1,0,0.2,0,0.2s-3.4,5.1-8.6,4.7s-11.4-0.2-13.4,1.5
		c-1.6,1.5-3,3.3-4,5.5c6.7-0.8,25.1-2.9,27.3-3.3c2.5-0.4,6.1-0.7,8.2-0.9C143.2,311,141.6,300,141.5,299.3z"/>
</g>
</svg>
