<svg width="301" height="273" viewBox="0 0 301 273" fill="none" xmlns="http://www.w3.org/2000/svg">
<path d="M68.4176 135.781H68.2997C68.2383 135.767 68.1805 135.74 68.1296 135.703C68.0788 135.665 68.036 135.618 68.0037 135.564C67.9715 135.509 67.9505 135.449 67.9419 135.387C67.9333 135.324 67.9374 135.261 67.9538 135.2C67.9538 135.058 71.6563 120.264 69.8719 112.057L69.6282 111.027C68.1425 104.888 68.6377 102.718 70.3278 98.5129L70.7051 97.4281C71.7428 94.4488 72.348 89.6222 71.4912 86.1634C71.106 84.552 69.5653 79.7725 69.5496 79.7254C69.5124 79.6034 69.5245 79.4717 69.5832 79.3585C69.642 79.2454 69.7428 79.1598 69.864 79.1201C69.9233 79.0994 69.9862 79.091 70.0488 79.0954C70.1114 79.0997 70.1725 79.1167 70.2284 79.1454C70.2842 79.1741 70.3337 79.2138 70.3737 79.2621C70.4138 79.3105 70.4436 79.3664 70.4614 79.4267C70.5243 79.6232 72.0336 84.3004 72.4188 85.9355C73.3385 89.748 72.631 94.724 71.5855 97.7268L71.2004 98.8352C69.5496 102.939 69.1094 104.896 70.54 110.792L70.7837 111.829C72.6153 120.264 69.015 134.807 68.8578 135.412C68.8342 135.513 68.7785 135.603 68.6992 135.67C68.6198 135.737 68.521 135.776 68.4176 135.781Z" fill="#EF6744"/>
<path d="M90.2393 49.9719C89.4605 45.5553 87.4282 41.4558 84.3846 38.162C81.3411 34.8682 77.4146 32.519 73.0732 31.3943C68.7319 30.2696 64.1587 30.417 59.8987 31.8187C55.6387 33.2205 51.8716 35.8176 49.0464 39.3005C46.2211 42.7834 44.4569 47.0052 43.964 51.4627C43.471 55.9202 44.2702 60.4255 46.2662 64.4415C48.2622 68.4575 51.3708 71.815 55.2216 74.1137C59.0724 76.4124 63.5029 77.5553 67.9851 77.4064L67.2619 82.516L74.2738 81.2897L71.4282 77.0369C77.5016 75.9229 82.888 72.452 86.4121 67.3816C89.9362 62.3112 91.312 56.0528 90.2393 49.9719Z" fill="#FCDDEC"/>
<path d="M66.6965 83.0738L67.4354 77.8778H67.1838C61.2098 77.8782 55.4528 75.6381 51.0502 71.5999C46.6476 67.5618 43.9196 62.0193 43.4051 56.0675C42.8906 50.1156 44.627 44.1872 48.2713 39.4535C51.9156 34.7197 57.2028 31.5249 63.0883 30.5001C69.323 29.4088 75.7359 30.8388 80.9163 34.4757C86.0966 38.1125 89.62 43.6583 90.7115 49.893C91.76 55.9683 90.4223 62.2138 86.9776 67.3267C83.5328 72.4397 78.247 76.0252 72.2227 77.3354L75.0841 81.6038L66.6965 83.0738ZM68.5438 76.8873L67.8284 81.9104L73.4726 80.9199L70.6269 76.6672L71.3423 76.5414C77.2789 75.4367 82.5414 72.0379 85.9902 67.0811C89.4389 62.1243 90.7963 56.0084 89.7682 50.058C88.7195 44.0735 85.3365 38.7507 80.3632 35.2605C75.39 31.7703 69.234 30.3987 63.2495 31.4474C57.2649 32.496 51.9421 35.8791 48.4519 40.8523C44.9617 45.8256 43.5901 51.9816 44.6388 57.9661C45.6079 63.3971 48.498 68.2984 52.7814 71.775C57.0648 75.2517 62.4557 77.0718 67.9699 76.903L68.5438 76.8873Z" fill="white"/>
<path d="M89.5164 105.643H89.3985C89.2757 105.611 89.1703 105.532 89.1054 105.423C89.0406 105.314 89.0216 105.184 89.0526 105.061C89.0919 104.912 92.7551 90.1253 90.9707 81.9106L90.7349 80.8887C89.2413 74.7493 89.7365 72.5797 91.4266 68.3741L91.804 67.2894C92.8416 64.3101 93.4469 59.4835 92.59 56.0247C92.2049 54.4132 90.672 49.6259 90.6563 49.5787C90.6372 49.5194 90.6299 49.4568 90.635 49.3947C90.6401 49.3326 90.6574 49.272 90.6858 49.2165C90.7143 49.1611 90.7534 49.1117 90.8009 49.0714C90.8485 49.031 90.9035 49.0004 90.9628 48.9813C91.0222 48.9622 91.0847 48.955 91.1469 48.9601C91.209 48.9651 91.2696 48.9824 91.325 49.0109C91.3805 49.0393 91.4298 49.0785 91.4702 49.126C91.5106 49.1735 91.5412 49.2285 91.5603 49.2879C91.631 49.4844 93.1324 54.1538 93.5255 55.7967C94.4374 59.6014 93.7299 64.5852 92.6844 67.5881L92.307 68.6886C90.6562 72.7998 90.2082 74.7493 91.6389 80.6529L91.8826 81.6827C93.7142 90.1253 90.1139 104.66 89.9566 105.265C89.9333 105.367 89.878 105.459 89.7987 105.527C89.7195 105.595 89.6205 105.635 89.5164 105.643Z" fill="#EF6744"/>
<path d="M111.346 19.833C110.572 15.4148 108.543 11.3125 105.502 8.01525C102.461 4.718 98.5355 2.36488 94.1942 1.23647C89.8528 0.108057 85.2786 0.251956 81.0168 1.65101C76.755 3.05006 72.9855 5.64524 70.1576 9.12713C67.3298 12.609 65.5629 16.8307 65.0678 21.2888C64.5726 25.747 65.37 30.2535 67.3648 34.271C69.3597 38.2886 72.4678 41.6477 76.3187 43.9479C80.1697 46.248 84.6008 47.3922 89.0839 47.2439L88.3607 52.3457L95.3727 51.1194L92.527 46.8666C98.5955 45.7541 103.978 42.2886 107.503 37.2251C111.028 32.1615 112.409 25.9103 111.346 19.833Z" fill="#FCDDEC"/>
<path d="M87.7947 52.9353L88.5336 47.7314H88.2821C83.7389 47.7275 79.2912 46.427 75.4617 43.9826C71.6321 41.5382 68.5798 38.0515 66.6635 33.9323C64.7472 29.813 64.0464 25.2324 64.6436 20.7286C65.2408 16.2249 67.1111 11.9851 70.0347 8.50765C72.9584 5.03016 76.8138 2.45942 81.1481 1.09753C85.4823 -0.26437 90.1153 -0.360835 94.5025 0.819468C98.8896 1.99977 102.849 4.4078 105.915 7.76058C108.98 11.1134 111.026 15.2716 111.81 19.7466C112.859 25.8217 111.522 32.0673 108.079 37.1813C104.636 42.2954 99.3522 45.8832 93.3288 47.1968L96.1823 51.4653L87.7947 52.9353ZM89.642 46.7409L88.9267 51.764L94.5708 50.7735L91.7252 46.5286L92.4405 46.395C98.3839 45.2974 103.655 41.9023 107.113 36.9452C110.571 31.9881 111.936 25.8684 110.914 19.9116C110.159 15.5821 108.175 11.5608 105.199 8.32726C102.223 5.0937 98.3793 2.78426 94.1269 1.67425C89.8746 0.564234 85.3927 0.70048 81.2157 2.06675C77.0386 3.43301 73.3426 5.97166 70.5681 9.38004C67.7937 12.7884 66.0579 16.9228 65.5678 21.2902C65.0776 25.6576 65.8538 30.0738 67.8036 34.0124C69.7535 37.951 72.7949 41.2458 76.5651 43.504C80.3354 45.7622 84.6756 46.8885 89.0682 46.7488L89.642 46.7409Z" fill="white"/>
<path d="M261.964 227.717C251.226 224.667 249.678 234.925 233.665 235.342C234.082 232.913 234.506 230.342 234.828 228.102C235.709 221.978 236.094 217.883 236.094 217.883C236.094 217.883 236.479 211.814 233.61 211.288C231.134 210.832 228.713 213.308 231.621 218.488C232.407 219.903 228.665 230.908 227.211 235.043C224.719 234.697 225.065 232.245 222.966 229.541C220.867 226.837 217.786 225.799 217.369 226.129C216.953 226.459 217.369 229.572 217.369 229.572C216.839 229.798 216.334 230.077 215.86 230.405C215.373 230.798 214.673 231.396 214.673 231.396C214.673 231.396 212.071 229.902 211.615 230.264C211.309 230.508 211.513 231.152 211.702 232.331C211.983 233.775 212.445 235.178 213.077 236.505C219.515 248.029 233.099 249.68 233.099 249.68C233.099 249.68 246.698 248.816 255.77 247.857C257.57 247.714 259.317 247.173 260.883 246.273C262.449 245.373 263.796 244.137 264.826 242.653C265.034 244.378 264.87 246.129 264.346 247.786C262.884 252.856 258.804 254.326 255.33 255.434C251.714 256.59 245.299 257.305 245.857 259.522C246.282 261.228 261.5 261.88 267.616 251.307C272.922 242.094 271.979 230.586 261.964 227.717Z" fill="#EF6744"/>
<path d="M218.864 243.95C218.864 243.95 213.07 246.127 214.548 248.454C215.523 249.979 217.59 250.482 224.539 250.482C231.488 250.482 232.164 250.38 232.164 250.38C232.164 250.38 232.95 252.542 234.483 252.699C236.779 252.935 239.239 251.315 238.414 248.957C237.47 246.253 234.373 245.553 230.616 245.459C226.858 245.365 218.864 243.95 218.864 243.95Z" fill="#EF6744"/>
<path d="M234.883 253.21C234.718 253.21 234.553 253.21 234.396 253.21C232.965 253.061 232.124 251.591 231.818 250.915C231.142 250.915 229.326 250.986 224.499 250.986C217.424 250.986 215.223 250.506 214.107 248.737C213.947 248.497 213.844 248.223 213.807 247.937C213.77 247.65 213.8 247.359 213.895 247.087C214.547 245.129 218.234 243.691 218.611 243.541L218.737 243.494H218.863C218.942 243.494 226.865 244.893 230.552 244.988C233.799 245.074 237.674 245.585 238.79 248.808C238.971 249.283 239.025 249.796 238.947 250.298C238.868 250.8 238.66 251.273 238.342 251.669C237.911 252.16 237.378 252.552 236.781 252.818C236.184 253.084 235.537 253.218 234.883 253.21ZM232.439 249.877L232.572 250.231C232.761 250.75 233.476 252.125 234.49 252.235C235.069 252.306 235.657 252.238 236.204 252.036C236.751 251.833 237.241 251.503 237.635 251.072C237.851 250.801 237.991 250.479 238.042 250.136C238.093 249.794 238.053 249.444 237.926 249.123C237.202 247.039 234.931 246.057 230.568 245.978C226.645 245.686 222.741 245.187 218.871 244.485C217.77 244.917 215.215 246.151 214.799 247.401C214.751 247.539 214.736 247.686 214.755 247.831C214.774 247.975 214.827 248.114 214.909 248.234C215.695 249.461 217.322 250.042 224.499 250.042C231.165 250.042 232.03 249.948 232.069 249.948L232.439 249.877Z" fill="white"/>
<path d="M217.487 233.353C217.456 233.348 217.423 233.349 217.392 233.356C217.361 233.363 217.331 233.377 217.306 233.396C217.28 233.415 217.258 233.439 217.242 233.467C217.226 233.495 217.216 233.526 217.212 233.558C217.199 233.712 217.153 233.863 217.077 233.998C217.001 234.134 216.897 234.252 216.772 234.344C216.472 234.485 216.13 234.511 215.813 234.414C215.756 234.406 215.699 234.419 215.65 234.449C215.601 234.479 215.565 234.526 215.547 234.58C215.529 234.634 215.531 234.693 215.553 234.746C215.574 234.799 215.613 234.843 215.663 234.87C215.85 234.924 216.043 234.951 216.237 234.949C216.513 234.959 216.785 234.891 217.023 234.752C217.21 234.623 217.366 234.455 217.481 234.26C217.597 234.064 217.668 233.846 217.692 233.62C217.698 233.558 217.681 233.496 217.643 233.446C217.605 233.396 217.549 233.363 217.487 233.353Z" fill="black"/>
<path d="M221.008 232.158C221.192 232.023 221.344 231.85 221.453 231.651C221.563 231.451 221.629 231.23 221.645 231.003C221.643 230.944 221.621 230.888 221.581 230.844C221.541 230.801 221.487 230.773 221.429 230.767C221.371 230.76 221.312 230.775 221.263 230.808C221.215 230.841 221.18 230.891 221.165 230.948C221.156 231.101 221.114 231.251 221.043 231.386C220.971 231.522 220.87 231.64 220.749 231.734C220.456 231.886 220.116 231.923 219.797 231.836C219.768 231.826 219.737 231.823 219.706 231.826C219.675 231.828 219.645 231.837 219.618 231.852C219.591 231.867 219.567 231.887 219.548 231.911C219.529 231.935 219.515 231.963 219.507 231.993C219.497 232.023 219.493 232.055 219.496 232.086C219.499 232.117 219.508 232.148 219.522 232.176C219.537 232.204 219.557 232.228 219.581 232.248C219.606 232.268 219.634 232.283 219.664 232.292C219.832 232.341 220.007 232.365 220.183 232.363C220.472 232.378 220.759 232.307 221.008 232.158Z" fill="black"/>
<path d="M222.879 234.517C222.829 234.478 222.766 234.46 222.702 234.468C222.639 234.475 222.582 234.507 222.541 234.556C222.456 234.674 222.347 234.773 222.221 234.846C222.095 234.919 221.955 234.965 221.81 234.981C221.702 234.971 221.597 234.936 221.504 234.879C221.411 234.822 221.333 234.743 221.276 234.65C221.276 234.65 221.229 234.65 221.205 234.603V233.605C221.206 233.558 221.194 233.512 221.171 233.472C221.147 233.432 221.113 233.399 221.071 233.377C221.029 233.358 220.982 233.352 220.936 233.359C220.89 233.366 220.847 233.386 220.812 233.416L219.853 234.202C219.818 234.228 219.792 234.263 219.778 234.304C219.764 234.345 219.763 234.389 219.774 234.43C219.782 234.473 219.801 234.513 219.831 234.545C219.86 234.577 219.898 234.6 219.939 234.611L220.781 234.871C220.873 235.199 220.848 235.549 220.71 235.861C220.662 235.916 220.603 235.959 220.536 235.988C220.47 236.016 220.397 236.03 220.325 236.026C220.262 236.03 220.203 236.057 220.16 236.102C220.116 236.147 220.091 236.207 220.089 236.27C220.091 236.333 220.117 236.393 220.163 236.437C220.208 236.481 220.269 236.506 220.333 236.506C220.483 236.512 220.633 236.483 220.769 236.42C220.906 236.357 221.026 236.263 221.119 236.144C221.282 235.895 221.359 235.6 221.339 235.303C221.483 235.383 221.645 235.426 221.81 235.429C222.025 235.405 222.232 235.34 222.421 235.236C222.61 235.132 222.776 234.992 222.911 234.823C222.942 234.776 222.956 234.72 222.95 234.664C222.944 234.609 222.919 234.556 222.879 234.517Z" fill="black"/>
<path d="M255.935 231.011C254.229 231.558 252.79 232.724 251.901 234.279C251.012 235.835 250.738 237.666 251.132 239.414C251.623 242.159 252.823 244.728 254.614 246.866C254.614 246.866 245.841 247.228 244.395 248.666C243.988 249.037 243.71 249.529 243.602 250.069C243.495 250.61 243.563 251.17 243.798 251.669H261.092C261.092 251.669 268.056 243.258 266.256 237.134C265.986 236.051 265.503 235.033 264.837 234.138C264.17 233.243 263.333 232.489 262.373 231.919C261.413 231.35 260.35 230.976 259.245 230.82C258.14 230.664 257.015 230.729 255.935 231.011Z" fill="#EF6744"/>
<path d="M261.312 252.149H243.514L243.381 251.897C243.101 251.307 243.016 250.643 243.139 250.001C243.262 249.359 243.586 248.773 244.065 248.328C245.346 247.047 251.234 246.575 253.647 246.434C252.156 244.372 251.136 242.008 250.66 239.508C250.262 237.648 250.568 235.705 251.519 234.057C252.47 232.409 253.999 231.173 255.809 230.586C256.95 230.288 258.138 230.218 259.306 230.381C260.474 230.545 261.598 230.938 262.613 231.538C263.628 232.138 264.515 232.933 265.221 233.877C265.927 234.822 266.439 235.897 266.728 237.04C268.583 243.329 261.767 251.661 261.477 251.976L261.312 252.149ZM244.112 251.19H260.856C261.815 249.971 267.357 242.613 265.792 237.268C265.534 236.247 265.078 235.287 264.449 234.443C263.819 233.599 263.03 232.887 262.125 232.348C261.221 231.809 260.219 231.454 259.177 231.303C258.135 231.152 257.073 231.207 256.053 231.467C254.467 231.992 253.132 233.086 252.306 234.538C251.48 235.989 251.221 237.696 251.58 239.328C252.065 241.979 253.223 244.461 254.944 246.536L255.667 247.322L254.614 247.369C251.297 247.503 245.676 248.077 244.725 249.028C244.434 249.296 244.223 249.641 244.117 250.023C244.012 250.405 244.015 250.809 244.128 251.19H244.112Z" fill="white"/>
<path d="M33.356 211.655V211.537C33.0632 210.451 32.5931 209.42 31.9646 208.487C31.3827 207.603 30.6385 206.838 29.7714 206.231C29.5199 206.011 29.2269 205.843 28.9097 205.738C28.5924 205.633 28.2573 205.592 27.9241 205.618L21.9105 207.316C21.3602 207.457 21.0773 207.819 20.8886 208.542C20.8692 208.66 20.8257 208.772 20.7608 208.873C20.6959 208.973 20.6109 209.058 20.5113 209.124C19.7252 209.666 17.1389 208.684 17.1389 208.684L7.91811 211.317C3.98766 212.433 1.54292 215.161 0.20657 216.749C0.0968178 216.88 0.0273341 217.039 0.00655863 217.208C-0.0142168 217.378 0.0146107 217.549 0.08954 217.702C0.164469 217.856 0.282274 217.984 0.428643 218.071C0.575011 218.159 0.743644 218.202 0.914052 218.195C2.44873 218.125 3.97856 217.973 5.49695 217.74C8.01845 217.433 10.5593 217.314 13.0984 217.386V217.346C13.9933 216.088 15.1288 215.019 16.4393 214.202C18.0115 213.259 22.728 213.534 26.5877 214.116C30.4474 214.697 33.356 211.655 33.356 211.655Z" fill="#151E27"/>
<path d="M39.5896 208.283C37.6635 209.604 35.5899 210.696 33.411 211.537H33.3323V211.655C33.3323 211.655 30.5024 214.666 26.627 214.092C22.7516 213.518 18.0665 213.235 16.4786 214.178C15.168 214.995 14.0325 216.064 13.1377 217.323C18.2473 217.268 32.2475 217.118 33.8905 217.032C35.8085 216.93 38.5127 217.032 40.1084 216.985C40.1949 215.884 39.6446 208.786 39.5896 208.283Z" fill="#EF6744"/>
<path d="M82.2902 251.966L82.2116 251.871C81.4476 251.049 80.5524 250.358 79.5625 249.828C78.6338 249.312 77.6141 248.981 76.5596 248.853C76.2347 248.775 75.8973 248.763 75.5678 248.819C75.2382 248.874 74.9232 248.995 74.6416 249.175L70.1609 253.452C69.9539 253.65 69.8116 253.906 69.7527 254.187C69.6938 254.467 69.721 254.759 69.8307 255.024C69.8677 255.137 69.8812 255.257 69.8704 255.376C69.8596 255.495 69.8247 255.61 69.7678 255.715C69.2962 256.572 66.5763 256.895 66.5763 256.895L59.643 263.529C56.703 266.336 55.799 269.904 55.3588 271.925C55.3189 272.092 55.3292 272.267 55.3884 272.428C55.4476 272.589 55.553 272.729 55.6915 272.831C55.83 272.932 55.9954 272.991 56.1669 272.999C56.3384 273.007 56.5085 272.964 56.6559 272.876C57.982 272.099 59.2652 271.252 60.4998 270.337C62.5858 268.888 64.7773 267.598 67.0558 266.477V266.43C67.2514 264.885 67.751 263.394 68.5258 262.043C69.4927 260.471 73.7612 258.522 77.4636 257.233C81.1661 255.943 82.2902 251.966 82.2902 251.966Z" fill="#151E27"/>
<path d="M86.2363 246.078C85.1541 248.145 83.8351 250.078 82.3059 251.84H82.2351L82.3137 251.935C82.3137 251.935 81.1896 255.928 77.4871 257.225C73.7846 258.522 69.4926 260.471 68.5257 262.044C67.7511 263.387 67.2489 264.869 67.0479 266.406C71.5443 263.977 83.8623 257.319 85.2773 256.47C86.9202 255.495 89.3649 254.332 90.7799 253.538C90.3004 252.516 86.5193 246.503 86.2363 246.078Z" fill="#EF6744"/>
<path d="M177.713 103.686C177.91 102.436 178.625 102.169 179.285 100.974C180.027 99.3445 180.22 97.5184 179.836 95.77C179.325 92.6256 176.251 94.7873 175.418 95.4241L175.213 95.5892C174.427 96.1551 173.099 95.4398 173.099 95.4398L172.258 97.3421C172.258 97.3421 169.782 99.1423 170.12 100.439C170.403 101.563 172.399 103.584 173.704 104.503L173.146 107.577C173.146 107.577 173.405 109.841 174.97 110.721C175.493 110.987 176.077 111.107 176.663 111.068C177.248 111.029 177.812 110.833 178.295 110.501L178.594 106.272C178.633 106.167 178.647 106.054 178.633 105.942C178.342 105.502 177.556 104.574 177.713 103.686Z" fill="#EF6744"/>
<path d="M187.202 101.893C187.202 101.893 190.268 98.6311 189.081 95.9819C188.69 95.1998 188.098 94.5357 187.366 94.0577C186.634 93.5798 185.788 93.3051 184.914 93.2621C184.914 93.2621 184.851 90.44 182.957 89.9055C181.062 89.3709 179.262 91.9493 179.262 91.9493C179.262 91.9493 178.759 90.3378 176.833 91.289C174.907 92.2402 175.19 95.5889 175.19 95.5889L175.395 95.4238C176.228 94.7871 179.325 92.6568 179.813 95.7697C180.197 97.5182 180.004 99.3443 179.262 100.974C178.626 102.168 177.91 102.436 177.69 103.686C177.557 104.574 178.288 105.501 178.586 105.934L178.649 106.028C179.608 107.498 184.938 109.33 187.296 105.729C188.892 103.324 187.202 101.893 187.202 101.893Z" fill="#5E2E0C"/>
<path d="M261.283 192.868L269.639 198.001L299.66 173.153L294.944 165.669C288.212 166.909 281.611 168.778 275.228 171.25C272.064 172.434 269.049 173.982 266.243 175.865L261.283 192.868Z" fill="#1E0A38"/>
<path d="M267.855 185.792C267.79 185.793 267.726 185.78 267.666 185.755C267.606 185.729 267.553 185.691 267.509 185.643C267.465 185.599 267.43 185.547 267.406 185.49C267.382 185.433 267.37 185.371 267.37 185.309C267.37 185.247 267.382 185.186 267.406 185.128C267.43 185.071 267.465 185.019 267.509 184.975C267.509 184.975 268.829 183.639 269.16 180.455C269.458 177.539 268.853 176.297 268.845 176.281C268.789 176.168 268.779 176.037 268.817 175.917C268.856 175.797 268.939 175.696 269.05 175.636C269.162 175.578 269.293 175.567 269.414 175.605C269.535 175.644 269.636 175.728 269.694 175.841C269.694 175.896 270.48 177.311 270.111 180.557C269.741 184.126 268.24 185.604 268.169 185.667C268.085 185.748 267.972 185.793 267.855 185.792Z" fill="white"/>
<path d="M271.478 184.779C271.414 184.779 271.351 184.767 271.291 184.743C271.232 184.718 271.178 184.683 271.133 184.637C271.043 184.547 270.993 184.426 270.993 184.299C270.993 184.173 271.043 184.051 271.133 183.961C271.133 183.961 272.453 182.625 272.783 179.441C273.09 176.533 272.477 175.283 272.469 175.267C272.414 175.153 272.405 175.022 272.444 174.902C272.484 174.782 272.569 174.681 272.681 174.623C272.736 174.594 272.797 174.577 272.859 174.571C272.92 174.566 272.983 174.573 273.042 174.592C273.101 174.611 273.156 174.642 273.203 174.682C273.251 174.722 273.29 174.772 273.318 174.827C273.318 174.882 274.104 176.297 273.735 179.543C273.365 183.104 271.864 184.59 271.801 184.645C271.715 184.731 271.599 184.779 271.478 184.779Z" fill="white"/>
<path d="M275.071 183.741C275.007 183.742 274.944 183.729 274.885 183.703C274.827 183.677 274.775 183.639 274.733 183.592C274.687 183.548 274.651 183.495 274.627 183.437C274.602 183.379 274.59 183.317 274.59 183.254C274.59 183.191 274.602 183.128 274.627 183.07C274.651 183.012 274.687 182.96 274.733 182.916C274.733 182.916 276.053 181.587 276.383 178.396C276.682 175.487 276.077 174.237 276.069 174.229C276.01 174.117 275.997 173.985 276.035 173.864C276.072 173.742 276.157 173.64 276.269 173.581C276.382 173.521 276.514 173.509 276.635 173.547C276.757 173.584 276.858 173.669 276.918 173.781C276.918 173.844 277.704 175.251 277.335 178.498C276.965 182.067 275.464 183.545 275.401 183.607C275.311 183.691 275.193 183.739 275.071 183.741Z" fill="white"/>
<path d="M278.584 182.554C278.519 182.554 278.455 182.541 278.395 182.516C278.336 182.49 278.282 182.452 278.238 182.404C278.194 182.361 278.159 182.308 278.136 182.251C278.112 182.194 278.1 182.132 278.1 182.07C278.1 182.008 278.112 181.947 278.136 181.889C278.159 181.832 278.194 181.78 278.238 181.736C278.238 181.736 279.559 180.4 279.889 177.216C280.188 174.3 279.583 173.058 279.575 173.042C279.519 172.929 279.509 172.799 279.547 172.679C279.585 172.558 279.668 172.458 279.779 172.397C279.892 172.339 280.023 172.328 280.144 172.367C280.264 172.405 280.365 172.49 280.424 172.602C280.424 172.657 281.21 174.072 280.84 177.318C280.471 180.887 278.962 182.365 278.899 182.428C278.812 182.506 278.701 182.55 278.584 182.554Z" fill="white"/>
<path d="M267.957 196.987L294.684 174.662C295.07 174.338 295.339 173.897 295.451 173.406C295.563 172.915 295.512 172.401 295.305 171.942L292.687 166.093L295.124 165.606C295.501 165.531 295.892 165.577 296.241 165.738C296.59 165.899 296.879 166.167 297.066 166.502L300.1 172.005C300.299 172.364 300.37 172.78 300.3 173.185C300.23 173.59 300.023 173.958 299.715 174.229L272.595 198.331C272.305 198.588 271.94 198.746 271.553 198.78C271.167 198.814 270.78 198.723 270.449 198.52L267.957 196.987Z" fill="#EF6744"/>
<path d="M192.232 180.644C192.232 180.644 199.056 181.862 214.62 180.99C220.975 180.577 227.285 179.641 233.486 178.191L261.283 192.867L266.251 175.864L238.533 158.452C234.343 155.823 229.461 154.509 224.517 154.679L190.613 154.215L176.047 159.899L192.232 180.644Z" fill="url(#paint0_linear)"/>
<path d="M255.379 187.2H255.237C255.176 187.182 255.119 187.152 255.069 187.111C255.02 187.071 254.979 187.021 254.949 186.965C254.919 186.908 254.9 186.847 254.895 186.783C254.889 186.719 254.896 186.655 254.915 186.594L258.956 173.553C258.994 173.431 259.08 173.33 259.193 173.271C259.307 173.212 259.439 173.2 259.561 173.239C259.683 173.277 259.784 173.363 259.843 173.476C259.902 173.59 259.914 173.722 259.875 173.844L255.835 186.877C255.802 186.972 255.74 187.054 255.659 187.112C255.577 187.17 255.479 187.2 255.379 187.2Z" fill="white"/>
<path d="M233.675 176.359H233.597C233.535 176.35 233.475 176.328 233.421 176.295C233.367 176.262 233.321 176.218 233.284 176.167C233.248 176.116 233.222 176.058 233.208 175.996C233.194 175.935 233.193 175.871 233.204 175.809L233.935 171.399C233.964 171.282 234.036 171.179 234.137 171.113C234.238 171.046 234.36 171.02 234.479 171.04C234.599 171.06 234.706 171.124 234.78 171.22C234.854 171.316 234.889 171.436 234.878 171.556L234.155 175.966C234.135 176.078 234.075 176.179 233.987 176.251C233.899 176.323 233.789 176.361 233.675 176.359Z" fill="white"/>
<path d="M235.389 177.318C235.298 177.317 235.208 177.293 235.129 177.248C235.024 177.179 234.949 177.07 234.923 176.947C234.896 176.823 234.92 176.694 234.988 176.587L237.236 173.058C237.314 172.978 237.417 172.928 237.528 172.916C237.639 172.904 237.751 172.931 237.844 172.992C237.937 173.054 238.005 173.146 238.038 173.252C238.071 173.359 238.065 173.474 238.022 173.577L235.766 177.098C235.726 177.163 235.67 177.216 235.605 177.255C235.539 177.293 235.465 177.315 235.389 177.318Z" fill="white"/>
<path d="M171.755 219.783L163.053 224.311L168.807 262.829L177.65 262.664C180.072 256.26 181.883 249.64 183.059 242.894C183.683 239.574 183.918 236.192 183.758 232.817L171.755 219.783Z" fill="#1E0A38"/>
<path d="M182.013 235.796C181.95 235.796 180.37 235.678 177.761 233.713C174.899 231.551 174.412 229.499 174.388 229.413C174.362 229.29 174.386 229.162 174.453 229.056C174.521 228.95 174.627 228.875 174.75 228.847C174.811 228.832 174.874 228.829 174.936 228.839C174.998 228.848 175.058 228.87 175.111 228.903C175.165 228.936 175.211 228.979 175.247 229.03C175.284 229.082 175.31 229.139 175.324 229.201C175.324 229.201 175.795 231.032 178.342 232.95C180.701 234.711 182.06 234.837 182.076 234.837C182.201 234.849 182.317 234.909 182.399 235.004C182.481 235.099 182.523 235.222 182.516 235.348C182.513 235.411 182.498 235.472 182.471 235.529C182.444 235.585 182.406 235.636 182.359 235.678C182.312 235.719 182.257 235.751 182.198 235.772C182.139 235.792 182.076 235.8 182.013 235.796Z" fill="white"/>
<path d="M180.999 239.412C180.929 239.412 179.348 239.294 176.747 237.337C173.885 235.175 173.39 233.123 173.374 233.037C173.346 232.913 173.368 232.783 173.436 232.675C173.504 232.567 173.612 232.491 173.736 232.463C173.86 232.435 173.99 232.457 174.098 232.525C174.205 232.593 174.281 232.701 174.31 232.825C174.31 232.825 174.766 234.641 177.32 236.566C179.679 238.335 181.039 238.453 181.054 238.453C181.181 238.453 181.303 238.504 181.393 238.594C181.483 238.683 181.534 238.805 181.534 238.933C181.534 239.06 181.483 239.182 181.393 239.272C181.303 239.362 181.181 239.412 181.054 239.412H180.999Z" fill="white"/>
<path d="M180.032 243.036C179.962 243.036 178.382 242.926 175.78 240.96C172.918 238.799 172.423 236.747 172.407 236.66C172.393 236.599 172.392 236.535 172.402 236.473C172.413 236.411 172.436 236.352 172.469 236.299C172.503 236.245 172.547 236.199 172.598 236.163C172.65 236.126 172.708 236.101 172.769 236.087C172.83 236.073 172.894 236.071 172.956 236.082C173.018 236.092 173.078 236.115 173.131 236.149C173.184 236.182 173.23 236.226 173.267 236.277C173.303 236.329 173.329 236.387 173.343 236.448C173.343 236.488 173.815 238.28 176.354 240.198C178.712 241.959 180.08 242.084 180.088 242.084C180.215 242.084 180.337 242.135 180.427 242.225C180.517 242.315 180.567 242.437 180.567 242.564C180.567 242.691 180.517 242.813 180.427 242.903C180.337 242.993 180.215 243.043 180.088 243.043L180.032 243.036Z" fill="white"/>
<path d="M179.231 246.652C179.168 246.652 177.58 246.534 174.978 244.569C172.117 242.407 171.629 240.355 171.606 240.269C171.592 240.207 171.59 240.144 171.601 240.082C171.611 240.02 171.634 239.96 171.668 239.907C171.701 239.854 171.745 239.808 171.796 239.771C171.848 239.735 171.906 239.709 171.967 239.695C172.029 239.681 172.092 239.679 172.154 239.69C172.216 239.701 172.276 239.723 172.329 239.757C172.382 239.791 172.428 239.834 172.465 239.886C172.501 239.937 172.527 239.995 172.541 240.057C172.541 240.057 172.997 241.88 175.552 243.806C177.91 245.567 179.278 245.693 179.286 245.693C179.412 245.703 179.53 245.762 179.614 245.857C179.697 245.953 179.74 246.077 179.734 246.204C179.726 246.33 179.668 246.447 179.574 246.531C179.48 246.615 179.357 246.658 179.231 246.652Z" fill="white"/>
<path d="M164.758 223.392L170.072 257.799C170.149 258.297 170.387 258.756 170.749 259.106C171.11 259.457 171.577 259.679 172.077 259.74L178.436 260.527L177.595 262.885C177.463 263.246 177.22 263.556 176.901 263.77C176.582 263.985 176.203 264.093 175.819 264.08L169.53 263.836C169.119 263.821 168.725 263.667 168.413 263.398C168.102 263.13 167.891 262.763 167.816 262.358L161.221 226.67C161.151 226.288 161.206 225.894 161.377 225.546C161.548 225.197 161.827 224.913 162.172 224.736L164.758 223.392Z" fill="#EF6744"/>
<path d="M156.89 159.349C156.89 159.349 147.968 175.196 160.105 187.263C170.482 197.584 194.85 199.777 194.85 199.777L171.645 219.807L183.759 232.817L216.939 205.901C217.993 205.048 218.86 203.99 219.489 202.79C220.118 201.59 220.495 200.274 220.596 198.923C220.698 197.572 220.522 196.214 220.08 194.934C219.638 193.653 218.938 192.476 218.024 191.476C212.608 185.541 204.857 177.68 197.916 172.94C185.653 164.584 178.13 160.127 178.13 160.127L156.89 159.349Z" fill="url(#paint1_linear)"/>
<path d="M188.263 226.544C188.136 226.543 188.014 226.492 187.925 226.402L177.627 215.947C177.577 215.904 177.536 215.851 177.507 215.792C177.478 215.732 177.462 215.667 177.459 215.601C177.457 215.535 177.468 215.469 177.492 215.408C177.516 215.346 177.553 215.29 177.599 215.243C177.646 215.197 177.702 215.16 177.764 215.136C177.825 215.112 177.891 215.101 177.957 215.103C178.023 215.106 178.088 215.122 178.148 215.151C178.207 215.18 178.26 215.221 178.303 215.271L188.609 225.734C188.698 225.824 188.748 225.945 188.748 226.072C188.748 226.199 188.698 226.32 188.609 226.41C188.563 226.455 188.509 226.49 188.45 226.513C188.39 226.536 188.327 226.546 188.263 226.544Z" fill="white"/>
<path d="M197.004 199.392C196.911 199.391 196.819 199.363 196.741 199.311C196.663 199.26 196.602 199.187 196.564 199.101C196.514 198.985 196.513 198.853 196.56 198.735C196.607 198.617 196.699 198.523 196.815 198.472L201.186 196.594C201.303 196.544 201.435 196.542 201.553 196.589C201.67 196.637 201.765 196.729 201.815 196.845C201.841 196.903 201.855 196.965 201.856 197.028C201.857 197.092 201.846 197.154 201.822 197.213C201.799 197.272 201.764 197.325 201.719 197.37C201.675 197.415 201.622 197.45 201.563 197.474L197.209 199.353C197.144 199.381 197.074 199.394 197.004 199.392Z" fill="white"/>
<path d="M200.29 201.42H200.242L196.65 201.114C196.524 201.102 196.408 201.04 196.327 200.943C196.246 200.846 196.207 200.721 196.218 200.595C196.23 200.468 196.291 200.351 196.388 200.269C196.484 200.187 196.61 200.146 196.736 200.154L200.329 200.469C200.456 200.474 200.576 200.53 200.662 200.623C200.748 200.717 200.794 200.841 200.789 200.968C200.784 201.095 200.728 201.215 200.634 201.301C200.541 201.388 200.417 201.433 200.29 201.428V201.42Z" fill="white"/>
<path d="M218.001 94.6063C215.289 80.8104 206.555 70.1196 206.555 70.1196L199.481 73.4369C199.481 73.4369 205.565 88.7421 203.411 97.0196C201.257 105.297 195.55 107.679 192.626 107.357C189.702 107.034 185.166 105.957 181.621 106.759C179.844 107.16 179.451 107.451 178.523 108.528C178.116 108.907 177.614 109.169 177.071 109.287C176.527 109.404 175.962 109.373 175.434 109.196C174.907 109.019 174.437 108.702 174.075 108.281C173.712 107.859 173.47 107.347 173.374 106.799C172.966 106.107 172.636 105.517 170.584 104.574C167.251 103.057 162.629 102.884 159.72 102.593C156.812 102.302 151.741 98.7726 151.301 90.2592C150.861 81.7459 159.948 68.0207 159.948 68.0207L153.659 63.3042C153.659 63.3042 142.929 71.9512 137.419 84.8902C132.238 97.0275 137.505 113.339 150.421 116.75L157.095 159.71C157.095 159.71 165.168 163.829 177.855 159.875C190.543 155.921 191.368 154.271 191.368 154.271L195.063 122.906L196.077 123.008C210.91 124.344 220.736 108.371 218.001 94.6063Z" fill="#C4C2EA"/>
<path d="M159.87 67.9816C159.169 68.0236 158.466 67.9241 157.805 67.6891C157.143 67.4541 156.535 67.0884 156.018 66.6138C154.912 65.7528 154.074 64.5937 153.604 63.2729C154.977 61.4144 156.595 59.751 158.415 58.3284C161.426 55.9701 163.918 55.5378 164.476 55.5928C166.158 55.75 165.867 56.6383 165.867 56.6383C165.867 56.6383 167.015 57.0078 167.141 57.8803C167.227 58.5171 166.355 58.9101 166.355 58.9101C166.539 59.0175 166.685 59.1798 166.773 59.3743C166.86 59.5688 166.884 59.7858 166.842 59.9949C166.638 60.6474 164.099 60.9932 163.132 61.7715C162.564 62.2154 162.038 62.7101 161.56 63.2493C161.56 63.2493 163.438 63.0135 163.391 63.8232C163.344 64.6328 162.039 65.0023 161.214 65.9771C160.704 66.6016 160.254 67.2727 159.87 67.9816Z" fill="#EF6744"/>
<path d="M199.449 73.4368C200.127 73.6225 200.835 73.6701 201.532 73.577C202.228 73.4838 202.899 73.2517 203.505 72.8944C204.765 72.2794 205.824 71.3165 206.555 70.1195C205.596 68.017 204.356 66.0547 202.868 64.2867C200.408 61.3624 198.073 60.4348 197.499 60.3562C195.817 60.1597 195.927 61.0952 195.927 61.0952C195.927 61.0952 194.716 61.2209 194.418 62.0463C194.205 62.6516 194.991 63.2176 194.991 63.2176C194.991 63.2176 194.205 63.4927 194.292 64.1766C194.378 64.8605 196.768 65.7488 197.554 66.6764C198.016 67.2301 198.426 67.8247 198.78 68.453C198.78 68.453 196.98 67.8319 196.862 68.6338C196.744 69.4356 197.947 70.0644 198.552 71.1964C198.922 71.9129 199.222 72.6631 199.449 73.4368Z" fill="#EF6744"/>
<path d="M173.382 99.6059C173.126 99.5892 172.881 99.4965 172.678 99.3397C172.475 99.1828 172.323 98.969 172.243 98.7255C172.218 98.6668 172.216 98.6009 172.238 98.5411C172.26 98.4813 172.304 98.432 172.36 98.4032C172.389 98.39 172.419 98.3827 172.451 98.3815C172.482 98.3803 172.513 98.3854 172.542 98.3964C172.572 98.4073 172.598 98.424 172.621 98.4454C172.644 98.4668 172.662 98.4926 172.675 98.5211C172.997 99.1971 173.414 99.1264 173.461 99.1185C173.523 99.1069 173.588 99.1201 173.641 99.1553C173.694 99.1905 173.731 99.245 173.744 99.3072C173.751 99.3376 173.752 99.3692 173.746 99.4C173.741 99.4307 173.73 99.4601 173.713 99.4865C173.696 99.5128 173.674 99.5355 173.648 99.5533C173.623 99.5711 173.594 99.5836 173.563 99.5902C173.504 99.6024 173.443 99.6076 173.382 99.6059Z" fill="#1E0A38"/>
<path d="M177.784 99.0401C177.745 99.0471 177.705 99.0471 177.666 99.0401C177.612 99.0087 177.572 98.9578 177.555 98.8978C177.537 98.8378 177.543 98.7733 177.572 98.7178C177.802 98.2571 177.972 97.7681 178.075 97.2635C178.279 96.1787 177.902 95.9665 177.894 95.9586C177.865 95.9485 177.837 95.9321 177.815 95.9106C177.792 95.8891 177.774 95.8629 177.762 95.8339C177.75 95.8048 177.744 95.7736 177.745 95.7422C177.747 95.7109 177.754 95.6801 177.768 95.652C177.793 95.593 177.84 95.5459 177.898 95.5209C177.957 95.4959 178.023 95.495 178.083 95.5184C178.162 95.5184 178.822 95.8643 178.547 97.35C178.434 97.8963 178.249 98.425 177.996 98.9222C177.974 98.9581 177.943 98.9878 177.905 99.0084C177.868 99.029 177.827 99.0399 177.784 99.0401Z" fill="#1E0A38"/>
<path d="M176.503 98.1358C176.469 98.1438 176.434 98.1438 176.401 98.1358C176.372 98.1231 176.346 98.1048 176.325 98.0821C176.303 98.0593 176.287 98.0325 176.276 98.0033C176.265 97.974 176.26 97.9429 176.261 97.9116C176.262 97.8804 176.269 97.8497 176.283 97.8214C176.283 97.7742 176.479 97.334 176.141 97.1689C176.083 97.1416 176.038 97.0924 176.016 97.0321C175.994 96.9717 175.996 96.9051 176.023 96.8466C176.052 96.7898 176.102 96.7465 176.162 96.726C176.222 96.7054 176.288 96.7092 176.346 96.7366C176.454 96.7957 176.549 96.8756 176.626 96.9717C176.703 97.0678 176.761 97.1782 176.795 97.2966C176.829 97.4149 176.84 97.5388 176.826 97.6613C176.812 97.7837 176.775 97.9022 176.715 98.0101C176.695 98.0486 176.664 98.0807 176.627 98.1029C176.589 98.1251 176.546 98.1365 176.503 98.1358Z" fill="#1E0A38"/>
<path d="M106.022 99.6768C106.022 99.6768 110.046 100.99 112.019 103.324C113.2 104.829 113.913 106.646 114.071 108.552C114.093 108.821 114.047 109.092 113.937 109.339C113.827 109.586 113.657 109.802 113.442 109.967L112.758 110.493C113.343 111.308 113.986 112.077 114.684 112.797C114.586 113.186 114.401 113.549 114.144 113.857C113.887 114.166 113.564 114.414 113.199 114.581C112.365 115.021 110.557 114.683 110.557 114.683L104.567 107.074C104.086 106.439 103.805 105.676 103.759 104.881C103.713 104.086 103.904 103.295 104.308 102.609L106.022 99.6768Z" fill="#EF6744"/>
<path d="M109.544 103.481L111.305 104.723L110.589 105.462" stroke="#1E0A38" stroke-width="0.5" stroke-linecap="round" stroke-linejoin="round"/>
<path d="M108.31 104.511C108.178 104.472 108.039 104.464 107.903 104.488C107.768 104.513 107.64 104.568 107.53 104.651C107.42 104.733 107.331 104.84 107.27 104.964C107.208 105.087 107.177 105.223 107.178 105.36" stroke="#1E0A38" stroke-width="0.5" stroke-linecap="round" stroke-linejoin="round"/>
<path d="M111.588 102.86C111.588 102.86 106.022 98.9298 104.513 102.64C103.035 106.233 110.125 110.171 110.574 113.307C111.462 119.596 102.878 125.327 100.669 130.806C92.4542 151.165 67.4329 145.034 61.4115 126.042C58.3615 116.412 61.8517 106.901 70.2629 101.823C77.1411 97.672 81.6533 100.36 85.3479 102.255C89.4828 104.385 91.6366 104.936 94.9775 100.447C97.6502 96.8152 100.74 95.2273 105.291 96.3671C106.847 96.7434 108.265 97.5531 109.379 98.7024C110.494 99.8516 111.259 101.293 111.588 102.86Z" fill="#7E2A2F"/>
<path d="M133.536 144.916C133.536 144.916 128.67 148.163 120.243 150.049C115.589 150.99 110.827 151.281 106.093 150.914C106.093 150.914 98.5862 155.237 91.252 167.768C86.8184 175.346 82.8251 183.576 80.3646 188.898C79.5799 190.735 78.4148 192.386 76.9461 193.741C75.4773 195.096 73.7383 196.124 71.8434 196.759L39.0635 206.938L39.7788 220.027L83.1946 216.096C90.0127 215.482 96.3153 212.209 100.74 206.986C103.287 203.991 106.243 200.445 109.175 196.869C109.544 201.145 109.961 205.044 110.354 208.055C110.657 210.029 110.538 212.045 110.005 213.971C109.473 215.896 108.539 217.687 107.265 219.225L84.806 245.166L92.3289 255.904L127.121 229.649C132.624 225.522 139.4 213.612 141.216 177.334C142.458 152.612 133.536 144.916 133.536 144.916Z" fill="url(#paint2_linear)"/>
<path d="M92.2261 256.541L84.208 245.087L106.91 218.848C108.138 217.36 109.039 215.629 109.552 213.769C110.065 211.909 110.18 209.962 109.89 208.055C109.591 205.696 109.182 202.12 108.813 198.016C106.266 201.114 103.562 204.352 101.117 207.237C96.618 212.582 90.1845 215.926 83.2254 216.537L39.3144 220.506L38.5283 206.545L71.662 196.263C73.4909 195.646 75.169 194.649 76.5871 193.34C78.0052 192.03 79.1314 190.436 79.8924 188.662C82.4393 183.159 86.3933 175.015 90.8033 167.492C98.1139 154.994 105.503 150.647 105.81 150.466L105.943 150.387H106.093C110.802 150.758 115.54 150.475 120.172 149.546C128.402 147.707 133.252 144.523 133.299 144.492L133.606 144.287L133.881 144.523C134.25 144.845 142.952 152.69 141.742 177.342C140.303 206.231 135.5 223.949 127.467 230.01L92.2261 256.541ZM85.4186 245.15L92.4384 255.173L126.838 229.232C134.636 223.344 139.313 205.869 140.744 177.279C141.836 155.426 134.895 146.968 133.472 145.482C129.39 147.826 124.962 149.509 120.352 150.466C115.699 151.408 110.938 151.707 106.203 151.354C105.204 151.983 98.3419 156.574 91.668 167.956C87.2816 175.448 83.3354 183.56 80.8042 189.047C79.9926 190.941 78.7902 192.641 77.2757 194.038C75.7612 195.435 73.9687 196.496 72.0157 197.152L39.566 207.245L40.242 219.461L83.1625 215.585C89.8592 215 96.0517 211.786 100.386 206.648C103.066 203.503 106.061 199.895 108.813 196.538L109.559 195.627L109.662 196.798C110.055 201.365 110.518 205.398 110.841 207.968C111.155 210.001 111.038 212.077 110.496 214.061C109.954 216.046 109 217.894 107.696 219.484L85.4186 245.15Z" fill="white"/>
<path d="M139.211 96.54L135.461 103.206C135.461 103.206 139.746 109.754 131.122 112.356C126.453 113.763 121.139 108.607 113.467 113.559C112.511 114.019 111.513 114.388 110.487 114.659C109.701 114.447 101.408 112.301 98.468 118.37C96.8958 121.663 96.5971 126.294 96.2434 129.194C95.8896 132.095 92.2422 137.055 83.7288 137.33C75.2155 137.605 62.5044 128.911 62.5044 128.911L56.876 134.335C56.876 134.335 65.3029 145.254 78.1004 151.055C87.5335 155.324 99.6235 153.241 106.211 145.969L106.148 150.882C110.88 151.392 115.663 151.1 120.298 150.018C124.986 148.831 129.512 147.073 133.771 144.782L131.908 132.865C136.279 131.152 139.769 127.528 142.646 122.497C150.656 108.19 139.211 96.54 139.211 96.54Z" fill="white"/>
<path d="M111.971 107.847C112.204 107.817 112.364 107.57 112.329 107.294C112.293 107.018 112.076 106.819 111.844 106.849C111.611 106.878 111.451 107.126 111.487 107.401C111.522 107.677 111.739 107.876 111.971 107.847Z" stroke="#1E0A38" stroke-width="0.5" stroke-linecap="round" stroke-linejoin="round"/>
<path d="M114.547 101.516L121.665 106.846L122.319 100.676L142.462 79.0353L125.251 66.418L119.049 97.7788L114.547 101.516Z" fill="url(#paint3_linear)" stroke="white" stroke-linecap="round" stroke-linejoin="round"/>
<path d="M124.173 98.7051L128.223 102.033L142.462 86.3819L139.857 82.7817" stroke="white" stroke-linecap="round" stroke-linejoin="round"/>
<path d="M130.911 59.68L131.874 52.9419" stroke="#EF6744" stroke-linecap="round" stroke-linejoin="round"/>
<path d="M137.649 64.4929L143.425 52.9419" stroke="#EF6744" stroke-linecap="round" stroke-linejoin="round"/>
<path d="M143.425 68.3432L148.238 63.5303" stroke="#EF6744" stroke-linecap="round" stroke-linejoin="round"/>
<path d="M143.445 78.0249C144.303 76.7158 140.981 73.0216 136.025 69.7735C131.069 66.5254 126.356 64.9536 125.498 66.2626C124.64 67.5716 127.962 71.2659 132.918 74.5139C137.874 77.762 142.587 79.3339 143.445 78.0249Z" fill="url(#paint4_linear)" stroke="white" stroke-miterlimit="10"/>
<path d="M135.469 103.403C136.125 103.153 136.724 102.773 137.231 102.287C137.737 101.801 138.141 101.218 138.417 100.573C139.055 99.3273 139.328 97.9264 139.203 96.5324C137.195 95.3875 135.032 94.5376 132.781 94.009C132.01 93.7686 131.195 93.7067 130.397 93.8279C129.599 93.9491 128.839 94.2503 128.174 94.7086C127.233 95.3983 126.475 96.3078 125.966 97.3578C125.763 97.615 125.659 97.936 125.672 98.263C125.685 98.5901 125.814 98.9018 126.036 99.1422C126.539 99.6138 128.709 98.7649 129.912 99.0793C130.604 99.2561 131.28 99.4928 131.932 99.7868C131.932 99.7868 130.124 100.345 130.501 101.068C130.879 101.791 132.215 101.587 133.37 102.137C134.109 102.491 134.812 102.914 135.469 103.403Z" fill="#EF6744"/>
<path d="M169.947 120.932H169.861L167.007 120.429C166.946 120.419 166.887 120.396 166.834 120.363C166.781 120.329 166.735 120.286 166.7 120.235C166.664 120.183 166.638 120.126 166.625 120.064C166.612 120.003 166.611 119.94 166.622 119.879C166.643 119.754 166.713 119.642 166.816 119.569C166.919 119.495 167.047 119.465 167.172 119.486L170.026 119.989C170.143 120.01 170.248 120.074 170.32 120.169C170.393 120.263 170.427 120.381 170.418 120.5C170.408 120.619 170.354 120.729 170.267 120.811C170.18 120.892 170.066 120.938 169.947 120.94V120.932Z" fill="url(#paint5_linear)"/>
<path d="M159.532 131.702H159.477L156.623 131.207C156.498 131.184 156.386 131.112 156.313 131.008C156.239 130.903 156.209 130.774 156.23 130.648C156.241 130.586 156.265 130.527 156.299 130.475C156.333 130.422 156.378 130.376 156.429 130.34C156.481 130.304 156.54 130.279 156.601 130.266C156.663 130.253 156.726 130.252 156.788 130.263L159.642 130.758C159.759 130.78 159.865 130.845 159.937 130.94C160.009 131.035 160.044 131.154 160.033 131.274C160.022 131.393 159.967 131.504 159.879 131.584C159.79 131.665 159.675 131.71 159.555 131.71L159.532 131.702Z" fill="url(#paint6_linear)"/>
<path d="M161.898 110.1C161.8 110.101 161.704 110.071 161.624 110.015C161.543 109.958 161.482 109.878 161.45 109.786C161.407 109.667 161.412 109.536 161.465 109.421C161.518 109.306 161.614 109.217 161.733 109.173L164.453 108.182C164.511 108.16 164.574 108.149 164.637 108.151C164.7 108.153 164.762 108.168 164.819 108.194C164.876 108.221 164.927 108.258 164.97 108.305C165.012 108.351 165.045 108.406 165.066 108.465C165.088 108.524 165.099 108.586 165.097 108.649C165.095 108.712 165.08 108.774 165.054 108.831C165.027 108.888 164.99 108.94 164.943 108.982C164.897 109.024 164.842 109.057 164.783 109.078L162.063 110.069C162.011 110.09 161.954 110.101 161.898 110.1Z" fill="url(#paint7_linear)"/>
<path d="M163.8 127.135C163.702 127.134 163.606 127.103 163.524 127.047C163.443 126.991 163.38 126.912 163.344 126.82C163.323 126.761 163.314 126.698 163.317 126.635C163.32 126.572 163.336 126.51 163.363 126.453C163.39 126.397 163.428 126.345 163.474 126.303C163.521 126.261 163.576 126.228 163.635 126.207L166.363 125.225C166.483 125.186 166.613 125.194 166.727 125.248C166.841 125.303 166.93 125.398 166.976 125.515C167.017 125.635 167.009 125.766 166.955 125.881C166.901 125.995 166.804 126.084 166.685 126.129L163.958 127.103C163.908 127.124 163.854 127.135 163.8 127.135Z" fill="url(#paint8_linear)"/>
<path d="M169.09 114.125C168.978 114.123 168.871 114.083 168.786 114.011C168.7 113.939 168.643 113.839 168.624 113.729C168.604 113.619 168.623 113.506 168.678 113.409C168.734 113.312 168.821 113.237 168.925 113.197L171.653 112.222C171.712 112.201 171.775 112.192 171.838 112.195C171.901 112.198 171.963 112.214 172.02 112.241C172.077 112.268 172.128 112.306 172.17 112.352C172.212 112.399 172.245 112.454 172.266 112.513C172.307 112.633 172.299 112.764 172.245 112.879C172.19 112.993 172.094 113.082 171.975 113.126L169.247 114.101C169.196 114.117 169.143 114.125 169.09 114.125Z" fill="url(#paint9_linear)"/>
<path d="M188.145 139.752H188.059L185.205 139.248C185.144 139.238 185.085 139.215 185.032 139.182C184.979 139.149 184.934 139.105 184.898 139.054C184.862 139.003 184.837 138.945 184.823 138.884C184.81 138.823 184.809 138.76 184.82 138.698C184.841 138.573 184.911 138.462 185.014 138.388C185.117 138.315 185.245 138.285 185.371 138.305L188.224 138.808C188.341 138.83 188.446 138.894 188.519 138.988C188.591 139.083 188.626 139.201 188.616 139.319C188.606 139.438 188.552 139.549 188.465 139.63C188.379 139.711 188.264 139.758 188.145 139.759V139.752Z" fill="url(#paint10_linear)"/>
<path d="M185.708 148.846C185.598 148.841 185.493 148.798 185.411 148.725C185.328 148.652 185.273 148.553 185.254 148.444C185.234 148.336 185.253 148.224 185.305 148.127C185.358 148.03 185.442 147.954 185.543 147.911L188.271 146.936C188.33 146.915 188.393 146.906 188.456 146.909C188.519 146.912 188.581 146.927 188.638 146.954C188.695 146.981 188.746 147.019 188.788 147.066C188.83 147.113 188.863 147.168 188.884 147.227C188.925 147.347 188.917 147.478 188.863 147.593C188.809 147.707 188.712 147.796 188.593 147.84L185.866 148.815C185.815 148.834 185.762 148.844 185.708 148.846Z" fill="url(#paint11_linear)"/>
<path d="M161.127 116.963C161.064 116.961 161.002 116.946 160.945 116.92C160.887 116.894 160.836 116.857 160.793 116.811C160.75 116.765 160.716 116.711 160.694 116.652C160.672 116.593 160.661 116.531 160.663 116.468L160.718 114.369C160.718 114.242 160.769 114.12 160.859 114.03C160.949 113.94 161.071 113.889 161.198 113.889C161.325 113.889 161.447 113.94 161.537 114.03C161.627 114.12 161.677 114.242 161.677 114.369L161.622 116.475C161.623 116.54 161.611 116.605 161.587 116.665C161.562 116.725 161.526 116.78 161.479 116.825C161.433 116.871 161.378 116.907 161.317 116.93C161.257 116.954 161.192 116.965 161.127 116.963Z" fill="url(#paint12_linear)"/>
<path d="M176.086 119.455C176.024 119.454 175.962 119.44 175.904 119.415C175.847 119.39 175.795 119.354 175.752 119.308C175.709 119.263 175.675 119.21 175.653 119.151C175.631 119.092 175.62 119.03 175.622 118.967L175.677 116.861C175.683 116.736 175.737 116.618 175.828 116.531C175.919 116.445 176.039 116.397 176.165 116.397C176.228 116.399 176.29 116.413 176.347 116.439C176.404 116.465 176.456 116.502 176.499 116.548C176.542 116.594 176.576 116.648 176.598 116.707C176.62 116.766 176.631 116.829 176.629 116.892L176.574 118.991C176.569 119.117 176.516 119.236 176.425 119.323C176.334 119.41 176.212 119.457 176.086 119.455Z" fill="url(#paint13_linear)"/>
<path d="M155.059 121.632C154.966 121.633 154.876 121.605 154.799 121.554C154.693 121.484 154.619 121.376 154.593 121.252C154.566 121.129 154.59 121 154.658 120.893L155.9 118.991C155.935 118.938 155.98 118.893 156.032 118.857C156.085 118.822 156.144 118.797 156.206 118.785C156.268 118.772 156.332 118.772 156.394 118.785C156.456 118.797 156.516 118.822 156.568 118.857C156.621 118.891 156.666 118.936 156.701 118.988C156.737 119.039 156.761 119.098 156.774 119.159C156.786 119.221 156.786 119.284 156.774 119.346C156.761 119.407 156.737 119.466 156.702 119.518L155.46 121.42C155.417 121.487 155.357 121.541 155.287 121.578C155.217 121.616 155.138 121.634 155.059 121.632Z" fill="url(#paint14_linear)"/>
<path d="M148.086 111.334C147.994 111.335 147.905 111.311 147.826 111.264C147.72 111.193 147.645 111.083 147.619 110.958C147.593 110.833 147.616 110.703 147.685 110.595L148.927 108.701C148.96 108.648 149.004 108.602 149.056 108.566C149.107 108.529 149.166 108.504 149.227 108.491C149.289 108.478 149.352 108.477 149.414 108.489C149.476 108.501 149.535 108.525 149.587 108.559C149.693 108.629 149.767 108.737 149.794 108.86C149.82 108.984 149.797 109.113 149.729 109.22L148.471 111.114C148.43 111.18 148.373 111.234 148.306 111.272C148.239 111.311 148.163 111.332 148.086 111.334Z" fill="url(#paint15_linear)"/>
<path d="M154.327 109.542C154.233 109.539 154.141 109.512 154.06 109.463C154.007 109.428 153.962 109.383 153.926 109.331C153.891 109.278 153.866 109.219 153.854 109.157C153.842 109.095 153.842 109.031 153.854 108.969C153.867 108.907 153.891 108.847 153.927 108.795L155.169 106.9C155.196 106.835 155.237 106.777 155.289 106.729C155.341 106.682 155.404 106.647 155.471 106.626C155.539 106.605 155.61 106.6 155.68 106.61C155.75 106.62 155.817 106.645 155.876 106.684C155.934 106.723 155.984 106.775 156.021 106.835C156.058 106.895 156.081 106.963 156.088 107.033C156.096 107.103 156.088 107.174 156.065 107.241C156.042 107.308 156.004 107.369 155.955 107.419L154.76 109.29C154.717 109.367 154.654 109.431 154.578 109.476C154.502 109.52 154.416 109.543 154.327 109.542Z" fill="url(#paint16_linear)"/>
<path d="M174.034 133.911H173.947C173.886 133.9 173.827 133.876 173.774 133.842C173.722 133.808 173.677 133.763 173.641 133.711C173.606 133.659 173.582 133.601 173.57 133.539C173.557 133.478 173.558 133.414 173.57 133.353L174.057 130.719C174.082 130.595 174.154 130.486 174.259 130.414C174.363 130.342 174.491 130.313 174.616 130.334C174.741 130.357 174.851 130.429 174.924 130.534C174.996 130.638 175.024 130.767 175.001 130.892L174.505 133.526C174.485 133.635 174.426 133.734 174.34 133.805C174.254 133.875 174.145 133.913 174.034 133.911Z" fill="url(#paint17_linear)"/>
<path d="M168.123 136.78L165.27 136.741C165.144 136.737 165.025 136.683 164.938 136.592C164.851 136.501 164.804 136.379 164.806 136.253C164.806 136.128 164.855 136.008 164.944 135.92C165.032 135.831 165.152 135.782 165.277 135.782L168.131 135.821C168.258 135.821 168.38 135.872 168.47 135.961C168.56 136.051 168.61 136.173 168.61 136.301C168.61 136.428 168.56 136.55 168.47 136.64C168.38 136.73 168.258 136.78 168.131 136.78H168.123Z" fill="url(#paint18_linear)"/>
<path d="M160.042 156.747H159.956C159.894 156.735 159.835 156.712 159.782 156.678C159.729 156.643 159.683 156.599 159.647 156.547C159.612 156.496 159.586 156.437 159.573 156.376C159.56 156.314 159.559 156.25 159.57 156.189L160.066 153.555C160.077 153.493 160.1 153.434 160.135 153.381C160.169 153.328 160.213 153.283 160.265 153.247C160.317 153.211 160.375 153.186 160.437 153.173C160.498 153.16 160.562 153.159 160.624 153.17C160.685 153.181 160.744 153.205 160.797 153.239C160.849 153.273 160.894 153.318 160.93 153.37C160.965 153.422 160.989 153.48 161.001 153.542C161.014 153.603 161.014 153.667 161.001 153.728L160.514 156.361C160.492 156.47 160.433 156.568 160.347 156.639C160.261 156.709 160.153 156.747 160.042 156.747Z" fill="url(#paint19_linear)"/>
<path d="M187.689 153.752L184.836 153.705C184.709 153.705 184.587 153.654 184.497 153.564C184.407 153.474 184.356 153.352 184.356 153.225C184.356 153.098 184.407 152.976 184.497 152.886C184.587 152.796 184.709 152.746 184.836 152.746L187.682 152.793C187.809 152.793 187.931 152.843 188.021 152.933C188.111 153.023 188.161 153.145 188.161 153.272C188.161 153.399 188.111 153.521 188.021 153.611C187.931 153.701 187.809 153.752 187.682 153.752H187.689Z" fill="url(#paint20_linear)"/>
<path d="M178.036 150.458H177.942C177.88 150.447 177.821 150.423 177.768 150.389C177.716 150.355 177.671 150.31 177.636 150.258C177.6 150.206 177.576 150.148 177.564 150.086C177.552 150.025 177.552 149.961 177.564 149.9L178.052 147.267C178.063 147.205 178.086 147.146 178.121 147.093C178.155 147.04 178.199 146.994 178.251 146.958C178.303 146.923 178.361 146.897 178.423 146.884C178.484 146.871 178.548 146.87 178.61 146.881C178.672 146.893 178.731 146.916 178.784 146.95C178.836 146.985 178.882 147.029 178.918 147.081C178.954 147.133 178.979 147.191 178.992 147.252C179.005 147.314 179.006 147.378 178.995 147.44L178.5 150.073C178.478 150.18 178.42 150.277 178.336 150.348C178.251 150.418 178.146 150.457 178.036 150.458Z" fill="url(#paint21_linear)"/>
<path d="M168.822 153.485L165.977 153.445C165.849 153.445 165.727 153.395 165.638 153.305C165.548 153.215 165.497 153.093 165.497 152.966C165.497 152.839 165.548 152.717 165.638 152.627C165.727 152.537 165.849 152.486 165.977 152.486L168.822 152.526C168.885 152.527 168.947 152.54 169.005 152.565C169.063 152.59 169.115 152.626 169.159 152.672C169.203 152.717 169.237 152.77 169.26 152.829C169.284 152.887 169.295 152.95 169.294 153.013C169.294 153.138 169.244 153.258 169.156 153.347C169.067 153.435 168.947 153.485 168.822 153.485Z" fill="url(#paint22_linear)"/>
<path d="M179.042 140.687H178.955L176.471 140.215C176.348 140.191 176.239 140.118 176.168 140.014C176.098 139.909 176.071 139.781 176.094 139.657C176.105 139.596 176.129 139.537 176.163 139.484C176.197 139.432 176.242 139.387 176.294 139.351C176.346 139.316 176.404 139.292 176.466 139.28C176.527 139.267 176.591 139.267 176.652 139.28L179.128 139.752C179.253 139.763 179.369 139.824 179.449 139.92C179.53 140.017 179.568 140.141 179.557 140.267C179.545 140.392 179.485 140.507 179.388 140.587C179.292 140.668 179.167 140.706 179.042 140.695V140.687Z" fill="url(#paint23_linear)"/>
<path d="M177.729 157.784H177.634L175.158 157.313C175.097 157.301 175.038 157.278 174.985 157.244C174.933 157.209 174.888 157.165 174.852 157.113C174.817 157.061 174.793 157.002 174.781 156.941C174.768 156.879 174.768 156.816 174.781 156.755C174.806 156.631 174.878 156.522 174.983 156.451C175.087 156.381 175.215 156.354 175.339 156.377L177.815 156.849C177.877 156.86 177.936 156.884 177.988 156.918C178.041 156.952 178.086 156.997 178.121 157.049C178.156 157.101 178.181 157.159 178.193 157.221C178.205 157.282 178.205 157.346 178.193 157.407C178.169 157.513 178.111 157.608 178.027 157.677C177.942 157.745 177.837 157.783 177.729 157.784Z" fill="url(#paint24_linear)"/>
<path d="M172.494 147.313C172.399 147.314 172.306 147.285 172.228 147.232C172.149 147.179 172.089 147.103 172.054 147.015L171.079 144.656C171.055 144.599 171.042 144.537 171.042 144.474C171.042 144.411 171.054 144.349 171.078 144.291C171.103 144.234 171.138 144.181 171.183 144.137C171.227 144.093 171.28 144.059 171.338 144.035C171.397 144.011 171.459 143.998 171.522 143.998C171.586 143.998 171.648 144.01 171.707 144.034C171.765 144.058 171.818 144.094 171.863 144.139C171.908 144.183 171.943 144.236 171.967 144.295L172.934 146.653C172.959 146.71 172.972 146.772 172.972 146.834C172.973 146.896 172.961 146.958 172.938 147.016C172.914 147.074 172.88 147.126 172.836 147.171C172.792 147.215 172.74 147.25 172.683 147.274C172.624 147.302 172.559 147.316 172.494 147.313Z" fill="url(#paint25_linear)"/>
<path d="M190.298 132.457H190.212L187.736 131.985C187.611 131.962 187.5 131.89 187.428 131.786C187.355 131.681 187.328 131.552 187.351 131.427C187.374 131.302 187.445 131.191 187.55 131.119C187.655 131.046 187.784 131.019 187.909 131.042L190.393 131.513C190.516 131.542 190.624 131.616 190.694 131.721C190.764 131.826 190.791 131.955 190.77 132.079C190.747 132.187 190.687 132.283 190.601 132.351C190.515 132.42 190.408 132.457 190.298 132.457Z" fill="url(#paint26_linear)"/>
<path d="M182.54 129.517C182.446 129.516 182.354 129.489 182.276 129.437C182.198 129.385 182.136 129.312 182.1 129.226L181.125 126.867C181.078 126.749 181.078 126.618 181.127 126.5C181.175 126.383 181.268 126.289 181.384 126.239C181.443 126.214 181.505 126.201 181.568 126.201C181.632 126.201 181.694 126.213 181.753 126.237C181.811 126.262 181.864 126.297 181.909 126.342C181.954 126.386 181.989 126.439 182.013 126.498L182.988 128.856C183.035 128.974 183.034 129.106 182.986 129.223C182.938 129.341 182.845 129.435 182.728 129.485C182.668 129.507 182.604 129.518 182.54 129.517Z" fill="url(#paint27_linear)"/>
<path d="M212.27 107.695C212.209 107.696 212.148 107.685 212.092 107.662C212.035 107.639 211.983 107.604 211.94 107.561C211.894 107.518 211.857 107.465 211.832 107.407C211.807 107.349 211.794 107.286 211.794 107.223C211.794 107.16 211.807 107.097 211.832 107.039C211.857 106.981 211.894 106.928 211.94 106.885L213.937 104.786C213.979 104.735 214.031 104.693 214.089 104.663C214.148 104.633 214.213 104.616 214.278 104.612C214.344 104.608 214.41 104.617 214.472 104.64C214.534 104.663 214.591 104.698 214.639 104.743C214.686 104.789 214.724 104.844 214.75 104.905C214.775 104.966 214.788 105.031 214.787 105.097C214.786 105.163 214.772 105.228 214.744 105.288C214.717 105.349 214.678 105.402 214.629 105.447L212.632 107.545C212.586 107.595 212.53 107.634 212.468 107.66C212.405 107.686 212.338 107.698 212.27 107.695Z" fill="url(#paint28_linear)"/>
<path d="M204.669 113.928C204.543 113.928 204.422 113.881 204.331 113.795L202.413 111.9C202.333 111.81 202.291 111.692 202.294 111.571C202.297 111.451 202.346 111.336 202.43 111.249C202.515 111.163 202.629 111.112 202.749 111.106C202.87 111.099 202.988 111.139 203.081 111.216L204.999 113.08C205.044 113.123 205.08 113.176 205.105 113.234C205.129 113.292 205.142 113.355 205.142 113.418C205.142 113.481 205.129 113.543 205.105 113.601C205.08 113.659 205.044 113.712 204.999 113.756C204.959 113.806 204.909 113.847 204.852 113.877C204.795 113.906 204.733 113.924 204.669 113.928Z" fill="url(#paint29_linear)"/>
<path d="M209.322 114.872C209.2 114.87 209.082 114.822 208.992 114.738C208.947 114.694 208.911 114.642 208.887 114.584C208.862 114.526 208.85 114.463 208.85 114.4C208.85 114.337 208.862 114.275 208.887 114.217C208.911 114.159 208.947 114.106 208.992 114.062L210.761 112.262C210.804 112.216 210.857 112.179 210.915 112.154C210.973 112.129 211.036 112.116 211.099 112.116C211.162 112.116 211.225 112.129 211.283 112.154C211.341 112.179 211.394 112.216 211.437 112.262C211.526 112.352 211.576 112.473 211.576 112.6C211.576 112.727 211.526 112.848 211.437 112.938L209.668 114.738C209.575 114.827 209.451 114.875 209.322 114.872Z" fill="url(#paint30_linear)"/>
<path d="M210.729 101.406C210.606 101.404 210.489 101.357 210.399 101.273C210.309 101.182 210.259 101.059 210.259 100.931C210.259 100.803 210.309 100.68 210.399 100.589L212.168 98.7887C212.258 98.7091 212.376 98.6668 212.497 98.6701C212.617 98.6734 212.732 98.7221 212.819 98.8064C212.905 98.8908 212.956 99.0046 212.962 99.1252C212.968 99.2458 212.929 99.3642 212.851 99.4569L211.083 101.265C211.036 101.311 210.981 101.347 210.92 101.372C210.86 101.396 210.794 101.408 210.729 101.406Z" fill="url(#paint31_linear)"/>
<path d="M205.753 104.432H205.659L203.175 103.945C203.113 103.933 203.054 103.908 203.001 103.873C202.949 103.838 202.904 103.793 202.869 103.74C202.834 103.688 202.809 103.629 202.797 103.567C202.785 103.505 202.785 103.441 202.798 103.379C202.809 103.317 202.832 103.258 202.867 103.206C202.901 103.153 202.946 103.108 202.997 103.073C203.049 103.038 203.108 103.014 203.169 103.001C203.231 102.989 203.294 102.989 203.356 103.002L205.848 103.497C205.959 103.525 206.056 103.593 206.122 103.687C206.187 103.781 206.217 103.895 206.206 104.009C206.194 104.123 206.142 104.229 206.059 104.308C205.976 104.387 205.868 104.434 205.753 104.44V104.432Z" fill="url(#paint32_linear)"/>
<path d="M195.204 120.72C195.085 120.719 194.971 120.674 194.882 120.595C194.794 120.515 194.738 120.406 194.724 120.288C194.714 120.162 194.753 120.036 194.834 119.939C194.915 119.842 195.031 119.781 195.157 119.769L198.042 119.501C198.161 119.501 198.277 119.546 198.365 119.627C198.453 119.708 198.508 119.818 198.519 119.938C198.53 120.057 198.496 120.176 198.424 120.271C198.351 120.366 198.246 120.431 198.128 120.453L195.251 120.72H195.204Z" fill="url(#paint33_linear)"/>
<path d="M182.933 118.488C182.813 118.487 182.697 118.441 182.609 118.36C182.52 118.278 182.465 118.167 182.453 118.048L182.241 115.375C182.236 115.312 182.243 115.249 182.262 115.188C182.281 115.128 182.312 115.072 182.353 115.024C182.394 114.976 182.444 114.936 182.5 114.907C182.557 114.878 182.618 114.861 182.681 114.856C182.807 114.849 182.93 114.892 183.025 114.974C183.12 115.056 183.18 115.171 183.192 115.296L183.412 117.969C183.421 118.095 183.38 118.219 183.297 118.315C183.215 118.411 183.098 118.47 182.972 118.48L182.933 118.488Z" fill="url(#paint34_linear)"/>
<path d="M187.037 123.943C186.91 123.948 186.785 123.903 186.692 123.817C186.598 123.73 186.543 123.61 186.538 123.483C186.532 123.356 186.578 123.232 186.664 123.138C186.75 123.045 186.87 122.989 186.997 122.984L189.513 122.795C189.579 122.783 189.646 122.785 189.711 122.801C189.776 122.817 189.838 122.846 189.891 122.887C189.944 122.927 189.988 122.979 190.02 123.037C190.052 123.096 190.071 123.161 190.077 123.228C190.082 123.294 190.074 123.361 190.052 123.425C190.03 123.488 189.995 123.546 189.949 123.595C189.903 123.644 189.848 123.682 189.786 123.708C189.725 123.735 189.658 123.748 189.591 123.747L187.076 123.943H187.037Z" fill="url(#paint35_linear)"/>
<path d="M195.738 113.048C195.611 113.048 195.489 112.998 195.399 112.908C195.309 112.818 195.259 112.696 195.259 112.569C195.259 112.441 195.309 112.319 195.399 112.23C195.489 112.14 195.611 112.089 195.738 112.089L198.246 111.893C198.309 111.886 198.373 111.892 198.434 111.911C198.494 111.93 198.551 111.961 198.599 112.002C198.648 112.043 198.687 112.094 198.716 112.151C198.744 112.207 198.761 112.269 198.765 112.333C198.774 112.46 198.732 112.585 198.65 112.682C198.568 112.779 198.451 112.84 198.325 112.852L195.809 113.048H195.738Z" fill="url(#paint36_linear)"/>
<path d="M190 112.05C189.928 112.05 189.857 112.033 189.791 112.002C189.726 111.971 189.669 111.925 189.623 111.869L188.051 109.857C187.975 109.756 187.941 109.63 187.957 109.505C187.973 109.38 188.038 109.266 188.137 109.188C188.187 109.15 188.243 109.121 188.304 109.104C188.364 109.088 188.427 109.083 188.49 109.091C188.552 109.099 188.612 109.12 188.666 109.151C188.72 109.183 188.768 109.225 188.806 109.275L190.378 111.279C190.417 111.329 190.445 111.385 190.462 111.446C190.479 111.506 190.483 111.569 190.475 111.632C190.467 111.694 190.447 111.754 190.415 111.808C190.383 111.862 190.341 111.91 190.291 111.948C190.209 112.014 190.106 112.051 190 112.05Z" fill="url(#paint37_linear)"/>
<path d="M211.106 84.238H211.051L208.999 84.0101C208.88 83.9886 208.773 83.9227 208.7 83.8257C208.628 83.7286 208.594 83.6075 208.607 83.4869C208.62 83.3663 208.678 83.255 208.77 83.1756C208.862 83.0962 208.98 83.0545 209.101 83.0589L211.192 83.2869C211.308 83.3065 211.413 83.3679 211.486 83.4594C211.56 83.5509 211.597 83.6662 211.591 83.7834C211.586 83.9007 211.537 84.0117 211.455 84.0955C211.373 84.1793 211.262 84.23 211.145 84.238H211.106Z" fill="url(#paint38_linear)"/>
<path d="M208.819 88.4751H206.146C206.019 88.4751 205.897 88.4246 205.807 88.3347C205.718 88.2448 205.667 88.1228 205.667 87.9956C205.667 87.8684 205.718 87.7465 205.807 87.6566C205.897 87.5666 206.019 87.5161 206.146 87.5161H208.827C208.954 87.5161 209.076 87.5666 209.166 87.6566C209.256 87.7465 209.307 87.8684 209.307 87.9956C209.307 88.1228 209.256 88.2448 209.166 88.3347C209.076 88.4246 208.954 88.4751 208.827 88.4751H208.819Z" fill="url(#paint39_linear)"/>
<path d="M215.289 95.3925C215.163 95.3905 215.043 95.339 214.955 95.2493C214.867 95.1596 214.817 95.0388 214.817 94.913V92.3897C214.817 92.2625 214.868 92.1405 214.958 92.0506C215.048 91.9607 215.17 91.9102 215.297 91.9102C215.424 91.9102 215.546 91.9607 215.636 92.0506C215.726 92.1405 215.776 92.2625 215.776 92.3897V94.913C215.778 94.977 215.766 95.0405 215.741 95.0997C215.717 95.1589 215.681 95.2125 215.636 95.2574C215.59 95.3022 215.536 95.3373 215.476 95.3606C215.417 95.3838 215.353 95.3947 215.289 95.3925Z" fill="url(#paint40_linear)"/>
<path d="M205.556 78.6803C205.429 78.6803 205.307 78.6297 205.217 78.5398C205.127 78.4499 205.077 78.3279 205.077 78.2007V75.6774C205.073 75.6139 205.083 75.5503 205.106 75.491C205.129 75.4316 205.165 75.3778 205.21 75.3332C205.255 75.2886 205.31 75.2541 205.369 75.2322C205.429 75.2102 205.493 75.2012 205.556 75.2057C205.619 75.2057 205.682 75.2181 205.74 75.2422C205.798 75.2663 205.851 75.3017 205.895 75.3462C205.94 75.3907 205.975 75.4436 205.999 75.5018C206.023 75.5599 206.036 75.6223 206.036 75.6853V78.2086C206.036 78.2712 206.023 78.3332 205.999 78.3909C205.975 78.4487 205.94 78.501 205.895 78.5449C205.85 78.5888 205.797 78.6234 205.739 78.6466C205.681 78.6699 205.619 78.6813 205.556 78.6803Z" fill="url(#paint41_linear)"/>
<path d="M205.714 98.2773C205.611 98.2797 205.509 98.2481 205.426 98.1871C205.342 98.1262 205.281 98.0394 205.251 97.9402C205.221 97.8409 205.225 97.7347 205.262 97.6379C205.299 97.5412 205.367 97.4592 205.455 97.4047L207.585 96.0212C207.637 95.986 207.696 95.9615 207.757 95.9492C207.819 95.9368 207.882 95.9369 207.943 95.9493C208.005 95.9618 208.063 95.9863 208.115 96.0216C208.167 96.0569 208.211 96.1022 208.245 96.1548C208.314 96.2625 208.338 96.3929 208.311 96.5179C208.285 96.6428 208.21 96.7524 208.104 96.823L205.982 98.2065C205.9 98.2528 205.808 98.2772 205.714 98.2773Z" fill="url(#paint42_linear)"/>
<path d="M138.943 94.7398C138.816 94.7398 138.694 94.6893 138.604 94.5994C138.514 94.5094 138.464 94.3875 138.464 94.2603C138.464 94.1331 138.514 94.0111 138.604 93.9212C138.694 93.8313 138.816 93.7808 138.943 93.7808L141.836 93.6157C141.899 93.6079 141.964 93.6136 142.025 93.6326C142.085 93.6516 142.142 93.6834 142.189 93.7258C142.237 93.7682 142.275 93.8203 142.301 93.8786C142.327 93.9369 142.34 94 142.339 94.0638C142.344 94.1264 142.335 94.1892 142.315 94.2485C142.295 94.3079 142.263 94.3626 142.221 94.4094C142.179 94.4563 142.129 94.4943 142.072 94.5214C142.015 94.5484 141.954 94.5639 141.891 94.5669L138.998 94.7398H138.943Z" fill="url(#paint43_linear)"/>
<path d="M146.404 103.418C146.281 103.418 146.162 103.371 146.073 103.286C145.983 103.201 145.93 103.085 145.924 102.962L145.806 100.289C145.8 100.164 145.843 100.04 145.927 99.9459C146.011 99.8518 146.129 99.7944 146.254 99.7863C146.318 99.7809 146.382 99.7887 146.442 99.809C146.502 99.8294 146.558 99.862 146.605 99.9048C146.652 99.9476 146.69 99.9996 146.716 100.058C146.743 100.116 146.757 100.179 146.757 100.242L146.883 102.915C146.886 102.978 146.877 103.041 146.856 103.1C146.835 103.16 146.802 103.214 146.76 103.261C146.717 103.308 146.666 103.346 146.609 103.373C146.552 103.4 146.49 103.415 146.427 103.418H146.404Z" fill="url(#paint44_linear)"/>
<path d="M139.981 88.7813C139.865 88.7827 139.753 88.7406 139.667 88.6634C139.571 88.58 139.512 88.4619 139.503 88.3351C139.494 88.2084 139.536 88.0833 139.619 87.9874L141.286 86.0929C141.324 86.0372 141.374 85.9902 141.432 85.9551C141.49 85.9201 141.555 85.8976 141.622 85.8894C141.689 85.8811 141.757 85.8871 141.822 85.907C141.887 85.927 141.946 85.9604 141.997 86.0051C142.048 86.0498 142.089 86.1048 142.117 86.1664C142.145 86.228 142.16 86.2948 142.16 86.3625C142.16 86.4302 142.147 86.4972 142.119 86.5591C142.092 86.6211 142.052 86.6765 142.001 86.7218L140.335 88.6162C140.292 88.6682 140.238 88.71 140.176 88.7385C140.115 88.7671 140.049 88.7817 139.981 88.7813Z" fill="url(#paint45_linear)"/>
<path d="M148.676 95.7069C148.6 95.7077 148.525 95.6894 148.457 95.6537C148.39 95.618 148.333 95.566 148.291 95.5025L146.805 93.4429C146.768 93.3928 146.741 93.3356 146.726 93.2749C146.711 93.2141 146.709 93.151 146.719 93.0893C146.729 93.0276 146.752 92.9686 146.786 92.9159C146.819 92.8632 146.863 92.8179 146.915 92.7826C147.017 92.7079 147.145 92.6768 147.27 92.6959C147.395 92.7151 147.508 92.783 147.583 92.8848L149.061 94.9443C149.099 94.9951 149.126 95.0529 149.14 95.1143C149.155 95.1757 149.158 95.2394 149.147 95.3017C149.137 95.364 149.114 95.4237 149.081 95.4771C149.047 95.5304 149.003 95.5765 148.951 95.6125C148.872 95.6737 148.776 95.7069 148.676 95.7069Z" fill="url(#paint46_linear)"/>
<path d="M152.323 76.6835C152.253 76.6845 152.184 76.6703 152.12 76.6418C152.056 76.6133 151.999 76.5712 151.954 76.5184L150.586 74.9462C150.508 74.8496 150.47 74.7266 150.481 74.6029C150.492 74.4793 150.551 74.3647 150.644 74.2832C150.738 74.2017 150.86 74.1598 150.984 74.1662C151.108 74.1725 151.224 74.2267 151.309 74.3173L152.685 75.8895C152.726 75.9375 152.756 75.9931 152.776 76.053C152.795 76.113 152.802 76.1762 152.797 76.2389C152.792 76.3017 152.775 76.3629 152.746 76.4189C152.717 76.475 152.678 76.5248 152.63 76.5656C152.546 76.6416 152.436 76.6836 152.323 76.6835Z" fill="url(#paint47_linear)"/>
<path d="M147.756 78.2162C147.634 78.2142 147.516 78.1665 147.426 78.0826L145.477 76.251C145.432 76.207 145.396 76.1545 145.371 76.0964C145.347 76.0384 145.334 75.976 145.334 75.913C145.334 75.8499 145.347 75.7876 145.371 75.7295C145.396 75.6715 145.432 75.6189 145.477 75.575C145.567 75.4857 145.688 75.4355 145.815 75.4355C145.941 75.4355 146.063 75.4857 146.153 75.575L148.11 77.4144C148.199 77.5042 148.249 77.6258 148.249 77.7524C148.249 77.8791 148.199 78.0006 148.11 78.0904C148.013 78.1772 147.886 78.2223 147.756 78.2162Z" fill="url(#paint48_linear)"/>
<path d="M147.685 87.6886C147.563 87.6865 147.445 87.6389 147.355 87.555C147.266 87.4651 147.216 87.3436 147.216 87.2169C147.216 87.0903 147.266 86.9688 147.355 86.8789L149.085 85.0473C149.172 84.9546 149.293 84.9004 149.421 84.8967C149.548 84.893 149.672 84.9401 149.765 85.0277C149.857 85.1152 149.912 85.2361 149.915 85.3636C149.919 85.4911 149.872 85.6149 149.784 85.7077L148.055 87.5314C148.008 87.5819 147.95 87.622 147.887 87.6491C147.823 87.6762 147.755 87.6896 147.685 87.6886Z" fill="url(#paint49_linear)"/>
<path d="M152.063 68.8382C151.94 68.8361 151.823 68.7885 151.733 68.7045C151.644 68.6147 151.594 68.4932 151.594 68.3665C151.594 68.2399 151.644 68.1183 151.733 68.0285L153.47 66.1969C153.514 66.1517 153.567 66.1159 153.625 66.0913C153.683 66.0668 153.745 66.0542 153.808 66.0542C153.871 66.0542 153.934 66.0668 153.992 66.0913C154.05 66.1159 154.102 66.1517 154.146 66.1969C154.236 66.2868 154.286 66.4083 154.286 66.5349C154.286 66.6616 154.236 66.7831 154.146 66.873L152.401 68.6652C152.315 68.7642 152.194 68.8261 152.063 68.8382Z" fill="url(#paint50_linear)"/>
<path d="M144.769 82.7206H144.683L142.183 82.2647C142.121 82.2542 142.062 82.2317 142.01 82.1983C141.957 82.1649 141.911 82.1213 141.875 82.0701C141.839 82.0189 141.814 81.9611 141.801 81.9C141.788 81.839 141.787 81.7759 141.798 81.7144C141.821 81.5888 141.892 81.4773 141.997 81.4038C142.101 81.3303 142.23 81.3007 142.356 81.3213L144.848 81.7694C144.91 81.7789 144.97 81.8008 145.024 81.8338C145.077 81.8668 145.124 81.9102 145.161 81.9615C145.197 82.0128 145.223 82.071 145.237 82.1325C145.251 82.194 145.252 82.2577 145.241 82.3197C145.221 82.4308 145.163 82.5315 145.077 82.6046C144.991 82.6777 144.882 82.7187 144.769 82.7206Z" fill="url(#paint51_linear)"/>
<path d="M162.329 144.405C162.234 144.406 162.141 144.378 162.062 144.327C161.982 144.275 161.919 144.201 161.881 144.115L160.914 141.756C160.89 141.698 160.877 141.635 160.877 141.572C160.877 141.509 160.889 141.446 160.913 141.388C160.937 141.329 160.973 141.276 161.017 141.232C161.062 141.187 161.115 141.151 161.174 141.127C161.291 141.08 161.421 141.081 161.537 141.13C161.654 141.178 161.746 141.271 161.795 141.387L162.769 143.745C162.794 143.803 162.807 143.866 162.807 143.929C162.807 143.992 162.795 144.055 162.771 144.113C162.746 144.172 162.711 144.225 162.666 144.27C162.622 144.314 162.569 144.35 162.51 144.374C162.452 144.395 162.391 144.406 162.329 144.405Z" fill="url(#paint52_linear)"/>
<path d="M95.3943 168.452C95.3267 168.46 95.2581 168.455 95.1929 168.435C95.1277 168.415 95.0675 168.381 95.0164 168.336C94.9652 168.291 94.9242 168.236 94.8961 168.174C94.868 168.112 94.8535 168.044 94.8535 167.976C94.8535 167.908 94.868 167.841 94.8961 167.778C94.9242 167.716 94.9652 167.661 95.0164 167.616C95.0675 167.571 95.1277 167.537 95.1929 167.517C95.2581 167.498 95.3267 167.492 95.3943 167.5C95.4415 167.5 100.394 167.5 103.515 165.04C106.635 162.58 108.278 158.343 108.294 158.295C108.343 158.183 108.434 158.093 108.547 158.045C108.66 157.998 108.788 157.995 108.903 158.039C109.018 158.082 109.112 158.168 109.165 158.279C109.219 158.389 109.228 158.516 109.19 158.633C109.119 158.822 107.461 163.177 104.096 165.795C100.732 168.412 95.6065 168.452 95.3943 168.452Z" fill="white"/>
<path d="M62.4963 128.919C62.4316 129.619 62.2271 130.299 61.8949 130.919C61.5628 131.539 61.1097 132.086 60.5625 132.527C59.5438 133.489 58.2739 134.143 56.8994 134.414C55.2685 132.776 53.867 130.925 52.7331 128.911C50.8465 125.578 50.7993 123.07 50.9329 122.504C51.3417 120.862 52.175 121.286 52.175 121.286C52.175 121.286 52.7174 120.201 53.5978 120.217C54.2345 120.217 54.4939 121.16 54.4939 121.16C54.6269 120.995 54.8081 120.875 55.0124 120.817C55.2167 120.759 55.4338 120.767 55.6338 120.838C56.2548 121.145 56.2076 123.699 56.8365 124.768C57.1971 125.392 57.61 125.984 58.0706 126.537C58.0706 126.537 58.1257 124.635 58.9196 124.808C59.7136 124.981 59.8786 126.317 60.7276 127.284C61.2613 127.886 61.8538 128.434 62.4963 128.919Z" fill="#EF6744"/>
<defs>
<linearGradient id="paint0_linear" x1="176.047" y1="173.537" x2="266.251" y2="173.537" gradientUnits="userSpaceOnUse">
<stop offset="0.28" stop-color="#151E27"/>
<stop offset="0.39" stop-color="#192A41"/>
<stop offset="0.58" stop-color="#1F3C6B"/>
<stop offset="0.75" stop-color="#234A8A"/>
<stop offset="0.9" stop-color="#26529C"/>
<stop offset="1" stop-color="#2755A3"/>
</linearGradient>
<linearGradient id="paint1_linear" x1="14515.4" y1="17357.5" x2="20207.5" y2="17357.5" gradientUnits="userSpaceOnUse">
<stop offset="0.28" stop-color="#151E27"/>
<stop offset="0.39" stop-color="#192A41"/>
<stop offset="0.58" stop-color="#1F3C6B"/>
<stop offset="0.75" stop-color="#234A8A"/>
<stop offset="0.9" stop-color="#26529C"/>
<stop offset="1" stop-color="#2755A3"/>
</linearGradient>
<linearGradient id="paint2_linear" x1="8169.61" y1="31375.8" x2="22132.7" y2="23947.6" gradientUnits="userSpaceOnUse">
<stop offset="0.28" stop-color="#151E27"/>
<stop offset="0.39" stop-color="#192A41"/>
<stop offset="0.58" stop-color="#1F3C6B"/>
<stop offset="0.75" stop-color="#234A8A"/>
<stop offset="0.9" stop-color="#26529C"/>
<stop offset="1" stop-color="#2755A3"/>
</linearGradient>
<linearGradient id="paint3_linear" x1="120.322" y1="99.6271" x2="157.005" y2="79.5487" gradientUnits="userSpaceOnUse">
<stop offset="0.07" stop-color="#F1C4D9"/>
<stop offset="0.7" stop-color="#2755A3"/>
</linearGradient>
<linearGradient id="paint4_linear" x1="-30101.4" y1="-13682.5" x2="-30085.4" y2="-13706.8" gradientUnits="userSpaceOnUse">
<stop offset="0.28" stop-color="#151E27"/>
<stop offset="0.39" stop-color="#192A41"/>
<stop offset="0.58" stop-color="#1F3C6B"/>
<stop offset="0.75" stop-color="#234A8A"/>
<stop offset="0.9" stop-color="#26529C"/>
<stop offset="1" stop-color="#2755A3"/>
</linearGradient>
<linearGradient id="paint5_linear" x1="168.517" y1="119.479" x2="168.517" y2="120.94" gradientUnits="userSpaceOnUse">
<stop stop-color="#2755A3"/>
<stop offset="1" stop-color="#2755A3" stop-opacity="0"/>
</linearGradient>
<linearGradient id="paint6_linear" x1="158.129" y1="130.255" x2="158.129" y2="131.71" gradientUnits="userSpaceOnUse">
<stop stop-color="#2755A3"/>
<stop offset="1" stop-color="#2755A3" stop-opacity="0"/>
</linearGradient>
<linearGradient id="paint7_linear" x1="163.259" y1="108.151" x2="163.259" y2="110.1" gradientUnits="userSpaceOnUse">
<stop stop-color="#2755A3"/>
<stop offset="1" stop-color="#2755A3" stop-opacity="0"/>
</linearGradient>
<linearGradient id="paint8_linear" x1="165.159" y1="125.201" x2="165.159" y2="127.135" gradientUnits="userSpaceOnUse">
<stop stop-color="#2755A3"/>
<stop offset="1" stop-color="#2755A3" stop-opacity="0"/>
</linearGradient>
<linearGradient id="paint9_linear" x1="170.454" y1="112.194" x2="170.454" y2="114.125" gradientUnits="userSpaceOnUse">
<stop stop-color="#2755A3"/>
<stop offset="1" stop-color="#2755A3" stop-opacity="0"/>
</linearGradient>
<linearGradient id="paint10_linear" x1="186.715" y1="138.299" x2="186.715" y2="139.759" gradientUnits="userSpaceOnUse">
<stop stop-color="#2755A3"/>
<stop offset="1" stop-color="#2755A3" stop-opacity="0"/>
</linearGradient>
<linearGradient id="paint11_linear" x1="187.078" y1="146.908" x2="187.078" y2="148.846" gradientUnits="userSpaceOnUse">
<stop stop-color="#2755A3"/>
<stop offset="1" stop-color="#2755A3" stop-opacity="0"/>
</linearGradient>
<linearGradient id="paint12_linear" x1="161.17" y1="113.889" x2="161.17" y2="116.963" gradientUnits="userSpaceOnUse">
<stop stop-color="#2755A3"/>
<stop offset="1" stop-color="#2755A3" stop-opacity="0"/>
</linearGradient>
<linearGradient id="paint13_linear" x1="176.125" y1="116.397" x2="176.125" y2="119.455" gradientUnits="userSpaceOnUse">
<stop stop-color="#2755A3"/>
<stop offset="1" stop-color="#2755A3" stop-opacity="0"/>
</linearGradient>
<linearGradient id="paint14_linear" x1="155.683" y1="118.775" x2="155.683" y2="121.632" gradientUnits="userSpaceOnUse">
<stop stop-color="#2755A3"/>
<stop offset="1" stop-color="#2755A3" stop-opacity="0"/>
</linearGradient>
<linearGradient id="paint15_linear" x1="148.706" y1="108.48" x2="148.706" y2="111.334" gradientUnits="userSpaceOnUse">
<stop stop-color="#2755A3"/>
<stop offset="1" stop-color="#2755A3" stop-opacity="0"/>
</linearGradient>
<linearGradient id="paint16_linear" x1="154.968" y1="106.605" x2="154.968" y2="109.542" gradientUnits="userSpaceOnUse">
<stop stop-color="#2755A3"/>
<stop offset="1" stop-color="#2755A3" stop-opacity="0"/>
</linearGradient>
<linearGradient id="paint17_linear" x1="174.285" y1="130.328" x2="174.285" y2="133.911" gradientUnits="userSpaceOnUse">
<stop stop-color="#2755A3"/>
<stop offset="1" stop-color="#2755A3" stop-opacity="0"/>
</linearGradient>
<linearGradient id="paint18_linear" x1="166.708" y1="135.782" x2="166.708" y2="136.78" gradientUnits="userSpaceOnUse">
<stop stop-color="#2755A3"/>
<stop offset="1" stop-color="#2755A3" stop-opacity="0"/>
</linearGradient>
<linearGradient id="paint19_linear" x1="160.287" y1="153.162" x2="160.287" y2="156.747" gradientUnits="userSpaceOnUse">
<stop stop-color="#2755A3"/>
<stop offset="1" stop-color="#2755A3" stop-opacity="0"/>
</linearGradient>
<linearGradient id="paint20_linear" x1="186.259" y1="152.746" x2="186.259" y2="153.752" gradientUnits="userSpaceOnUse">
<stop stop-color="#2755A3"/>
<stop offset="1" stop-color="#2755A3" stop-opacity="0"/>
</linearGradient>
<linearGradient id="paint21_linear" x1="178.279" y1="146.874" x2="178.279" y2="150.458" gradientUnits="userSpaceOnUse">
<stop stop-color="#2755A3"/>
<stop offset="1" stop-color="#2755A3" stop-opacity="0"/>
</linearGradient>
<linearGradient id="paint22_linear" x1="167.396" y1="152.486" x2="167.396" y2="153.485" gradientUnits="userSpaceOnUse">
<stop stop-color="#2755A3"/>
<stop offset="1" stop-color="#2755A3" stop-opacity="0"/>
</linearGradient>
<linearGradient id="paint23_linear" x1="177.822" y1="139.271" x2="177.822" y2="140.697" gradientUnits="userSpaceOnUse">
<stop stop-color="#2755A3"/>
<stop offset="1" stop-color="#2755A3" stop-opacity="0"/>
</linearGradient>
<linearGradient id="paint24_linear" x1="176.487" y1="156.369" x2="176.487" y2="157.784" gradientUnits="userSpaceOnUse">
<stop stop-color="#2755A3"/>
<stop offset="1" stop-color="#2755A3" stop-opacity="0"/>
</linearGradient>
<linearGradient id="paint25_linear" x1="172.007" y1="143.998" x2="172.007" y2="147.314" gradientUnits="userSpaceOnUse">
<stop stop-color="#2755A3"/>
<stop offset="1" stop-color="#2755A3" stop-opacity="0"/>
</linearGradient>
<linearGradient id="paint26_linear" x1="189.06" y1="131.034" x2="189.06" y2="132.457" gradientUnits="userSpaceOnUse">
<stop stop-color="#2755A3"/>
<stop offset="1" stop-color="#2755A3" stop-opacity="0"/>
</linearGradient>
<linearGradient id="paint27_linear" x1="182.056" y1="126.201" x2="182.056" y2="129.517" gradientUnits="userSpaceOnUse">
<stop stop-color="#2755A3"/>
<stop offset="1" stop-color="#2755A3" stop-opacity="0"/>
</linearGradient>
<linearGradient id="paint28_linear" x1="213.291" y1="104.611" x2="213.291" y2="107.695" gradientUnits="userSpaceOnUse">
<stop stop-color="#2755A3"/>
<stop offset="1" stop-color="#2755A3" stop-opacity="0"/>
</linearGradient>
<linearGradient id="paint29_linear" x1="203.718" y1="111.105" x2="203.718" y2="113.928" gradientUnits="userSpaceOnUse">
<stop stop-color="#2755A3"/>
<stop offset="1" stop-color="#2755A3" stop-opacity="0"/>
</linearGradient>
<linearGradient id="paint30_linear" x1="210.213" y1="112.116" x2="210.213" y2="114.872" gradientUnits="userSpaceOnUse">
<stop stop-color="#2755A3"/>
<stop offset="1" stop-color="#2755A3" stop-opacity="0"/>
</linearGradient>
<linearGradient id="paint31_linear" x1="211.611" y1="98.6699" x2="211.611" y2="101.406" gradientUnits="userSpaceOnUse">
<stop stop-color="#2755A3"/>
<stop offset="1" stop-color="#2755A3" stop-opacity="0"/>
</linearGradient>
<linearGradient id="paint32_linear" x1="204.498" y1="102.992" x2="204.498" y2="104.44" gradientUnits="userSpaceOnUse">
<stop stop-color="#2755A3"/>
<stop offset="1" stop-color="#2755A3" stop-opacity="0"/>
</linearGradient>
<linearGradient id="paint33_linear" x1="196.622" y1="119.501" x2="196.622" y2="120.72" gradientUnits="userSpaceOnUse">
<stop stop-color="#2755A3"/>
<stop offset="1" stop-color="#2755A3" stop-opacity="0"/>
</linearGradient>
<linearGradient id="paint34_linear" x1="182.826" y1="114.855" x2="182.826" y2="118.488" gradientUnits="userSpaceOnUse">
<stop stop-color="#2755A3"/>
<stop offset="1" stop-color="#2755A3" stop-opacity="0"/>
</linearGradient>
<linearGradient id="paint35_linear" x1="188.308" y1="122.788" x2="188.308" y2="123.944" gradientUnits="userSpaceOnUse">
<stop stop-color="#2755A3"/>
<stop offset="1" stop-color="#2755A3" stop-opacity="0"/>
</linearGradient>
<linearGradient id="paint36_linear" x1="197.012" y1="111.89" x2="197.012" y2="113.048" gradientUnits="userSpaceOnUse">
<stop stop-color="#2755A3"/>
<stop offset="1" stop-color="#2755A3" stop-opacity="0"/>
</linearGradient>
<linearGradient id="paint37_linear" x1="189.216" y1="109.087" x2="189.216" y2="112.05" gradientUnits="userSpaceOnUse">
<stop stop-color="#2755A3"/>
<stop offset="1" stop-color="#2755A3" stop-opacity="0"/>
</linearGradient>
<linearGradient id="paint38_linear" x1="210.098" y1="83.0586" x2="210.098" y2="84.238" gradientUnits="userSpaceOnUse">
<stop stop-color="#2755A3"/>
<stop offset="1" stop-color="#2755A3" stop-opacity="0"/>
</linearGradient>
<linearGradient id="paint39_linear" x1="207.487" y1="87.5161" x2="207.487" y2="88.4751" gradientUnits="userSpaceOnUse">
<stop stop-color="#2755A3"/>
<stop offset="1" stop-color="#2755A3" stop-opacity="0"/>
</linearGradient>
<linearGradient id="paint40_linear" x1="215.297" y1="91.9102" x2="215.297" y2="95.3928" gradientUnits="userSpaceOnUse">
<stop stop-color="#2755A3"/>
<stop offset="1" stop-color="#2755A3" stop-opacity="0"/>
</linearGradient>
<linearGradient id="paint41_linear" x1="205.556" y1="75.2046" x2="205.556" y2="78.6803" gradientUnits="userSpaceOnUse">
<stop stop-color="#2755A3"/>
<stop offset="1" stop-color="#2755A3" stop-opacity="0"/>
</linearGradient>
<linearGradient id="paint42_linear" x1="206.777" y1="95.9399" x2="206.777" y2="98.2774" gradientUnits="userSpaceOnUse">
<stop stop-color="#2755A3"/>
<stop offset="1" stop-color="#2755A3" stop-opacity="0"/>
</linearGradient>
<linearGradient id="paint43_linear" x1="140.402" y1="93.6123" x2="140.402" y2="94.7398" gradientUnits="userSpaceOnUse">
<stop stop-color="#2755A3"/>
<stop offset="1" stop-color="#2755A3" stop-opacity="0"/>
</linearGradient>
<linearGradient id="paint44_linear" x1="146.345" y1="99.7847" x2="146.345" y2="103.418" gradientUnits="userSpaceOnUse">
<stop stop-color="#2755A3"/>
<stop offset="1" stop-color="#2755A3" stop-opacity="0"/>
</linearGradient>
<linearGradient id="paint45_linear" x1="140.831" y1="85.8857" x2="140.831" y2="88.7813" gradientUnits="userSpaceOnUse">
<stop stop-color="#2755A3"/>
<stop offset="1" stop-color="#2755A3" stop-opacity="0"/>
</linearGradient>
<linearGradient id="paint46_linear" x1="147.933" y1="92.6904" x2="147.933" y2="95.7069" gradientUnits="userSpaceOnUse">
<stop stop-color="#2755A3"/>
<stop offset="1" stop-color="#2755A3" stop-opacity="0"/>
</linearGradient>
<linearGradient id="paint47_linear" x1="151.639" y1="74.1655" x2="151.639" y2="76.6835" gradientUnits="userSpaceOnUse">
<stop stop-color="#2755A3"/>
<stop offset="1" stop-color="#2755A3" stop-opacity="0"/>
</linearGradient>
<linearGradient id="paint48_linear" x1="146.792" y1="75.4355" x2="146.792" y2="78.2168" gradientUnits="userSpaceOnUse">
<stop stop-color="#2755A3"/>
<stop offset="1" stop-color="#2755A3" stop-opacity="0"/>
</linearGradient>
<linearGradient id="paint49_linear" x1="148.566" y1="84.8965" x2="148.566" y2="87.6887" gradientUnits="userSpaceOnUse">
<stop stop-color="#2755A3"/>
<stop offset="1" stop-color="#2755A3" stop-opacity="0"/>
</linearGradient>
<linearGradient id="paint50_linear" x1="152.94" y1="66.0542" x2="152.94" y2="68.8382" gradientUnits="userSpaceOnUse">
<stop stop-color="#2755A3"/>
<stop offset="1" stop-color="#2755A3" stop-opacity="0"/>
</linearGradient>
<linearGradient id="paint51_linear" x1="143.519" y1="81.3149" x2="143.519" y2="82.7206" gradientUnits="userSpaceOnUse">
<stop stop-color="#2755A3"/>
<stop offset="1" stop-color="#2755A3" stop-opacity="0"/>
</linearGradient>
<linearGradient id="paint52_linear" x1="161.842" y1="141.093" x2="161.842" y2="144.405" gradientUnits="userSpaceOnUse">
<stop stop-color="#2755A3"/>
<stop offset="1" stop-color="#2755A3" stop-opacity="0"/>
</linearGradient>
</defs>
</svg>
