<?xml version="1.0" encoding="utf-8"?>
<!-- Generator: Adobe Illustrator 25.2.3, SVG Export Plug-In . SVG Version: 6.00 Build 0)  -->
<svg version="1.1" id="Layer_1" xmlns="http://www.w3.org/2000/svg" xmlns:xlink="http://www.w3.org/1999/xlink" x="0px" y="0px"
	 viewBox="0 0 375 404" style="enable-background:new 0 0 375 404;" xml:space="preserve">
<style type="text/css">
	.st0{fill:#EF6744;}
	.st1{fill:#FCDDEC;}
	.st2{fill:#FFFFFF;}
	.st3{fill:#151E27;}
	.st4{fill:#5E2E0C;}
	.st5{fill:#1E0A38;}
	.st6{fill:url(#SVGID_1_);}
	.st7{fill:url(#SVGID_2_);}
	.st8{fill:#C4C2EA;}
	.st9{fill:none;stroke:#1E0A38;stroke-width:0.5;stroke-linecap:round;stroke-linejoin:round;}
	.st10{fill:#7E2A2F;}
	.st11{fill:url(#SVGID_3_);}
	.st12{fill:url(#SVGID_4_);stroke:#FFFFFF;stroke-linecap:round;stroke-linejoin:round;}
	.st13{fill:none;stroke:#FFFFFF;stroke-linecap:round;stroke-linejoin:round;}
	.st14{fill:none;stroke:#EF6744;stroke-linecap:round;stroke-linejoin:round;}
	.st15{fill:url(#SVGID_5_);stroke:#FFFFFF;stroke-miterlimit:10;}
	.st16{fill:url(#SVGID_6_);}
	.st17{fill:url(#SVGID_7_);}
	.st18{fill:url(#SVGID_8_);}
	.st19{fill:url(#SVGID_9_);}
	.st20{fill:url(#SVGID_10_);}
	.st21{fill:url(#SVGID_11_);}
	.st22{fill:url(#SVGID_12_);}
	.st23{fill:url(#SVGID_13_);}
	.st24{fill:url(#SVGID_14_);}
	.st25{fill:url(#SVGID_15_);}
	.st26{fill:url(#SVGID_16_);}
	.st27{fill:url(#SVGID_17_);}
	.st28{fill:url(#SVGID_18_);}
	.st29{fill:url(#SVGID_19_);}
	.st30{fill:url(#SVGID_20_);}
	.st31{fill:url(#SVGID_21_);}
	.st32{fill:url(#SVGID_22_);}
	.st33{fill:url(#SVGID_23_);}
	.st34{fill:url(#SVGID_24_);}
	.st35{fill:url(#SVGID_25_);}
	.st36{fill:url(#SVGID_26_);}
	.st37{fill:url(#SVGID_27_);}
	.st38{fill:url(#SVGID_28_);}
	.st39{fill:url(#SVGID_29_);}
	.st40{fill:url(#SVGID_30_);}
	.st41{fill:url(#SVGID_31_);}
	.st42{fill:url(#SVGID_32_);}
	.st43{fill:url(#SVGID_33_);}
	.st44{fill:url(#SVGID_34_);}
	.st45{fill:url(#SVGID_35_);}
	.st46{fill:url(#SVGID_36_);}
	.st47{fill:url(#SVGID_37_);}
	.st48{fill:url(#SVGID_38_);}
	.st49{fill:url(#SVGID_39_);}
	.st50{fill:url(#SVGID_40_);}
	.st51{fill:url(#SVGID_41_);}
	.st52{fill:url(#SVGID_42_);}
	.st53{fill:url(#SVGID_43_);}
	.st54{fill:url(#SVGID_44_);}
	.st55{fill:url(#SVGID_45_);}
	.st56{fill:url(#SVGID_46_);}
	.st57{fill:url(#SVGID_47_);}
	.st58{fill:url(#SVGID_48_);}
	.st59{fill:url(#SVGID_49_);}
	.st60{fill:url(#SVGID_50_);}
	.st61{fill:url(#SVGID_51_);}
	.st62{fill:url(#SVGID_52_);}
	.st63{fill:url(#SVGID_53_);}
</style>
<g>
	<path class="st0" d="M107.5,194.5h-0.1c-0.1,0-0.1,0-0.2-0.1c0,0-0.1-0.1-0.1-0.1c0-0.1,0-0.1-0.1-0.2c0-0.1,0-0.1,0-0.2
		c0-0.1,3.5-14,1.8-21.7l-0.2-1c-1.4-5.8-0.9-7.8,0.7-11.7l0.4-1c1-2.8,1.5-7.3,0.7-10.6c-0.4-1.5-1.8-6-1.8-6c0-0.1,0-0.2,0-0.3
		c0.1-0.1,0.1-0.2,0.3-0.2c0.1,0,0.1,0,0.2,0c0.1,0,0.1,0,0.2,0c0.1,0,0.1,0.1,0.1,0.1c0,0,0.1,0.1,0.1,0.2c0.1,0.2,1.5,4.6,1.8,6.1
		c0.9,3.6,0.2,8.2-0.8,11.1l-0.4,1c-1.5,3.8-2,5.7-0.6,11.2l0.2,1c1.7,7.9-1.7,21.6-1.8,22.1c0,0.1-0.1,0.2-0.1,0.2
		C107.7,194.5,107.6,194.5,107.5,194.5z"/>
	<path class="st1" d="M128,114c-0.7-4.1-2.6-8-5.5-11.1c-2.9-3.1-6.5-5.3-10.6-6.3c-4.1-1.1-8.4-0.9-12.4,0.4c-4,1.3-7.5,3.8-10.2,7
		c-2.7,3.3-4.3,7.2-4.8,11.4c-0.5,4.2,0.3,8.4,2.2,12.2c1.9,3.8,4.8,6.9,8.4,9.1s7.8,3.2,12,3.1l-0.7,4.8l6.6-1.2l-2.7-4
		c5.7-1,10.8-4.3,14.1-9.1C127.7,125.6,129,119.7,128,114z"/>
	<path class="st2" d="M105.9,145.1l0.7-4.9h-0.2c-5.6,0-11-2.1-15.1-5.9c-4.1-3.8-6.7-9-7.2-14.6c-0.5-5.6,1.1-11.1,4.6-15.6
		c3.4-4.4,8.4-7.4,13.9-8.4c5.8-1,11.9,0.3,16.7,3.7c4.9,3.4,8.2,8.6,9.2,14.5c1,5.7-0.3,11.6-3.5,16.4c-3.2,4.8-8.2,8.2-13.8,9.4
		l2.7,4L105.9,145.1z M107.6,139.3l-0.7,4.7l5.3-0.9l-2.7-4l0.7-0.1c5.6-1,10.5-4.2,13.7-8.9c3.2-4.6,4.5-10.4,3.5-16
		c-1-5.6-4.2-10.6-8.8-13.9c-4.7-3.3-10.4-4.6-16.1-3.6c-5.6,1-10.6,4.2-13.9,8.8c-3.3,4.7-4.6,10.4-3.6,16.1
		c0.9,5.1,3.6,9.7,7.6,13c4,3.3,9.1,5,14.2,4.8L107.6,139.3z"/>
	<path class="st0" d="M127.3,166.3h-0.1c-0.1,0-0.2-0.1-0.3-0.2c-0.1-0.1-0.1-0.2,0-0.3c0-0.1,3.5-14,1.8-21.7l-0.2-1
		c-1.4-5.8-0.9-7.8,0.6-11.7l0.4-1c1-2.8,1.5-7.3,0.7-10.6c-0.4-1.5-1.8-6-1.8-6c0-0.1,0-0.1,0-0.2c0-0.1,0-0.1,0-0.2
		c0-0.1,0.1-0.1,0.1-0.1c0,0,0.1-0.1,0.2-0.1c0.1,0,0.1,0,0.2,0c0.1,0,0.1,0,0.2,0c0.1,0,0.1,0.1,0.1,0.1c0,0,0.1,0.1,0.1,0.2
		c0.1,0.2,1.5,4.6,1.8,6.1c0.9,3.6,0.2,8.2-0.8,11.1l-0.4,1c-1.5,3.9-2,5.7-0.6,11.2l0.2,1c1.7,7.9-1.7,21.6-1.8,22.1
		c0,0.1-0.1,0.2-0.1,0.2C127.5,166.2,127.4,166.2,127.3,166.3z"/>
	<path class="st1" d="M147.8,85.8c-0.7-4.1-2.6-8-5.5-11.1s-6.5-5.3-10.6-6.4c-4.1-1.1-8.4-0.9-12.4,0.4s-7.5,3.7-10.2,7
		c-2.7,3.3-4.3,7.2-4.8,11.4c-0.5,4.2,0.3,8.4,2.2,12.2c1.9,3.8,4.8,6.9,8.4,9.1c3.6,2.2,7.8,3.2,12,3.1l-0.7,4.8l6.6-1.2l-2.7-4
		c5.7-1,10.7-4.3,14-9C147.5,97.3,148.8,91.5,147.8,85.8z"/>
	<path class="st2" d="M125.7,116.8l0.7-4.9h-0.2c-4.3,0-8.4-1.2-12-3.5c-3.6-2.3-6.5-5.6-8.3-9.4c-1.8-3.9-2.5-8.2-1.9-12.4
		c0.6-4.2,2.3-8.2,5.1-11.5c2.7-3.3,6.4-5.7,10.4-7c4.1-1.3,8.4-1.4,12.5-0.3c4.1,1.1,7.8,3.4,10.7,6.5c2.9,3.1,4.8,7,5.5,11.2
		c1,5.7-0.3,11.6-3.5,16.4c-3.2,4.8-8.2,8.2-13.8,9.4l2.7,4L125.7,116.8z M127.4,111l-0.7,4.7l5.3-0.9l-2.7-4l0.7-0.1
		c5.6-1,10.5-4.2,13.8-8.9s4.5-10.4,3.6-16c-0.7-4.1-2.6-7.8-5.4-10.9c-2.8-3-6.4-5.2-10.4-6.2c-4-1-8.2-0.9-12.1,0.4
		c-3.9,1.3-7.4,3.7-10,6.9c-2.6,3.2-4.2,7.1-4.7,11.2c-0.5,4.1,0.3,8.2,2.1,11.9c1.8,3.7,4.7,6.8,8.2,8.9c3.5,2.1,7.6,3.2,11.7,3
		L127.4,111z"/>
	<path class="st0" d="M289.1,280.8c-10.1-2.9-11.5,6.8-26.5,7.2c0.4-2.3,0.8-4.7,1.1-6.8c0.8-5.7,1.2-9.6,1.2-9.6s0.4-5.7-2.3-6.2
		c-2.3-0.4-4.6,1.9-1.9,6.8c0.7,1.3-2.8,11.7-4.1,15.5c-2.3-0.3-2-2.6-4-5.2c-2-2.5-4.9-3.5-5.3-3.2c-0.4,0.3,0,3.2,0,3.2
		c-0.5,0.2-1,0.5-1.4,0.8c-0.5,0.4-1.1,0.9-1.1,0.9s-2.4-1.4-2.9-1.1c-0.3,0.2-0.1,0.8,0.1,1.9c0.3,1.4,0.7,2.7,1.3,3.9
		c6,10.8,18.8,12.4,18.8,12.4s12.8-0.8,21.3-1.7c1.7-0.1,3.3-0.6,4.8-1.5c1.5-0.8,2.7-2,3.7-3.4c0.2,1.6,0,3.3-0.5,4.8
		c-1.4,4.8-5.2,6.1-8.5,7.2c-3.4,1.1-9.4,1.8-8.9,3.8c0.4,1.6,14.7,2.2,20.4-7.7C299.3,294.3,298.4,283.5,289.1,280.8z"/>
	<path class="st0" d="M248.6,296c0,0-5.4,2-4,4.2c0.9,1.4,2.9,1.9,9.4,1.9c6.5,0,7.2-0.1,7.2-0.1s0.7,2,2.2,2.2
		c2.2,0.2,4.5-1.3,3.7-3.5c-0.9-2.5-3.8-3.2-7.3-3.3C256.1,297.3,248.6,296,248.6,296z"/>
	<path class="st2" d="M263.6,304.7c-0.2,0-0.3,0-0.5,0c-1.3-0.1-2.1-1.5-2.4-2.2c-0.6,0-2.3,0.1-6.9,0.1c-6.6,0-8.7-0.5-9.7-2.1
		c-0.2-0.2-0.2-0.5-0.3-0.8c0-0.3,0-0.5,0.1-0.8c0.6-1.8,4.1-3.2,4.4-3.3l0.1,0h0.1c0.1,0,7.5,1.3,11,1.4c3,0.1,6.7,0.6,7.7,3.6
		c0.2,0.4,0.2,0.9,0.1,1.4c-0.1,0.5-0.3,0.9-0.6,1.3c-0.4,0.5-0.9,0.8-1.5,1.1C264.9,304.6,264.3,304.7,263.6,304.7z M261.4,301.6
		l0.1,0.3c0.2,0.5,0.8,1.8,1.8,1.9c0.5,0.1,1.1,0,1.6-0.2c0.5-0.2,1-0.5,1.3-0.9c0.2-0.3,0.3-0.6,0.4-0.9c0-0.3,0-0.6-0.1-1
		c-0.7-2-2.8-2.9-6.9-3c-3.7-0.3-7.3-0.7-11-1.4c-1,0.4-3.4,1.6-3.8,2.7c0,0.1-0.1,0.3,0,0.4c0,0.1,0.1,0.3,0.1,0.4
		c0.7,1.2,2.3,1.7,9,1.7c6.3,0,7.1-0.1,7.1-0.1L261.4,301.6z"/>
	<path d="M247.3,286.1C247.3,286.1,247.3,286.1,247.3,286.1c-0.1,0-0.1,0-0.2,0c0,0,0,0-0.1,0.1c0,0,0,0.1,0,0.1
		c0,0.1-0.1,0.3-0.1,0.4c-0.1,0.1-0.2,0.2-0.3,0.3c-0.3,0.1-0.6,0.2-0.9,0.1c-0.1,0-0.1,0-0.2,0c0,0-0.1,0.1-0.1,0.1
		c0,0.1,0,0.1,0,0.2c0,0,0.1,0.1,0.1,0.1c0.2,0.1,0.4,0.1,0.5,0.1c0.3,0,0.5-0.1,0.7-0.2c0.2-0.1,0.3-0.3,0.4-0.5
		c0.1-0.2,0.2-0.4,0.2-0.6c0-0.1,0-0.1,0-0.2C247.4,286.1,247.4,286.1,247.3,286.1z"/>
	<path d="M250.6,284.9c0.2-0.1,0.3-0.3,0.4-0.5c0.1-0.2,0.2-0.4,0.2-0.6c0-0.1,0-0.1-0.1-0.1c0,0-0.1-0.1-0.1-0.1
		c-0.1,0-0.1,0-0.2,0c0,0-0.1,0.1-0.1,0.1c0,0.1,0,0.3-0.1,0.4c-0.1,0.1-0.2,0.2-0.3,0.3c-0.3,0.1-0.6,0.2-0.9,0.1c0,0-0.1,0-0.1,0
		c0,0-0.1,0-0.1,0s0,0-0.1,0.1c0,0,0,0,0,0.1c0,0,0,0.1,0,0.1c0,0,0,0.1,0,0.1c0,0,0,0,0.1,0.1c0,0,0,0,0.1,0c0.2,0,0.3,0.1,0.5,0.1
		C250.1,285.1,250.4,285.1,250.6,284.9z"/>
	<path d="M252.4,287.2c0,0-0.1-0.1-0.2,0c-0.1,0-0.1,0-0.2,0.1c-0.1,0.1-0.2,0.2-0.3,0.3c-0.1,0.1-0.2,0.1-0.4,0.1
		c-0.1,0-0.2,0-0.3-0.1c-0.1-0.1-0.2-0.1-0.2-0.2c0,0,0,0-0.1,0v-0.9c0,0,0-0.1,0-0.1c0,0-0.1-0.1-0.1-0.1c0,0-0.1,0-0.1,0
		s-0.1,0-0.1,0.1l-0.9,0.7c0,0-0.1,0.1-0.1,0.1s0,0.1,0,0.1c0,0,0,0.1,0.1,0.1c0,0,0.1,0.1,0.1,0.1l0.8,0.2c0.1,0.3,0.1,0.6-0.1,0.9
		c0,0.1-0.1,0.1-0.2,0.1c-0.1,0-0.1,0-0.2,0c-0.1,0-0.1,0-0.2,0.1c0,0-0.1,0.1-0.1,0.2c0,0.1,0,0.1,0.1,0.2c0,0,0.1,0.1,0.2,0.1
		c0.1,0,0.3,0,0.4-0.1c0.1-0.1,0.2-0.1,0.3-0.3c0.2-0.2,0.2-0.5,0.2-0.8c0.1,0.1,0.3,0.1,0.4,0.1c0.2,0,0.4-0.1,0.6-0.2
		c0.2-0.1,0.3-0.2,0.5-0.4c0,0,0-0.1,0-0.1C252.4,287.2,252.4,287.2,252.4,287.2z"/>
	<path class="st0" d="M283.4,283.9c-1.6,0.5-3,1.6-3.8,3.1c-0.8,1.5-1.1,3.2-0.7,4.8c0.5,2.6,1.6,5,3.3,7c0,0-8.2,0.3-9.6,1.7
		c-0.4,0.3-0.6,0.8-0.7,1.3c-0.1,0.5,0,1,0.2,1.5h16.2c0,0,6.5-7.9,4.8-13.6c-0.3-1-0.7-2-1.3-2.8c-0.6-0.8-1.4-1.5-2.3-2.1
		c-0.9-0.5-1.9-0.9-2.9-1C285.5,283.5,284.4,283.6,283.4,283.9z"/>
	<path class="st2" d="M288.4,303.7h-16.7l-0.1-0.2c-0.3-0.6-0.3-1.2-0.2-1.8c0.1-0.6,0.4-1.2,0.9-1.6c1.2-1.2,6.7-1.6,9-1.8
		c-1.4-1.9-2.4-4.2-2.8-6.5c-0.4-1.7-0.1-3.6,0.8-5.1c0.9-1.5,2.3-2.7,4-3.3c1.1-0.3,2.2-0.3,3.3-0.2c1.1,0.2,2.2,0.5,3.1,1.1
		c1,0.6,1.8,1.3,2.4,2.2c0.7,0.9,1.1,1.9,1.4,3c1.7,5.9-4.7,13.7-4.9,14L288.4,303.7z M272.3,302.8H288c0.9-1.1,6.1-8,4.6-13.1
		c-0.2-1-0.7-1.9-1.3-2.7c-0.6-0.8-1.3-1.5-2.2-2c-0.8-0.5-1.8-0.8-2.8-1s-2-0.1-2.9,0.2c-1.5,0.5-2.7,1.5-3.5,2.9
		c-0.8,1.4-1,3-0.7,4.5c0.5,2.5,1.5,4.8,3.2,6.8l0.7,0.7l-1,0c-3.1,0.1-8.4,0.7-9.3,1.6c-0.3,0.3-0.5,0.6-0.6,0.9
		C272.2,302.1,272.2,302.4,272.3,302.8L272.3,302.8z"/>
	<path class="st3" d="M74.6,265.7v-0.1c-0.3-1-0.7-2-1.3-2.9c-0.5-0.8-1.2-1.5-2.1-2.1c-0.2-0.2-0.5-0.4-0.8-0.5
		c-0.3-0.1-0.6-0.1-0.9-0.1l-5.6,1.6c-0.5,0.1-0.8,0.5-1,1.2c0,0.1-0.1,0.2-0.1,0.3c-0.1,0.1-0.1,0.2-0.2,0.2
		c-0.7,0.5-3.2-0.4-3.2-0.4l-8.6,2.5c-3.7,1-6,3.6-7.2,5.1c-0.1,0.1-0.2,0.3-0.2,0.4c0,0.2,0,0.3,0.1,0.5c0.1,0.1,0.2,0.3,0.3,0.3
		c0.1,0.1,0.3,0.1,0.5,0.1c1.4-0.1,2.9-0.2,4.3-0.4c2.4-0.3,4.7-0.4,7.1-0.3v0c0.8-1.2,1.9-2.2,3.1-2.9c1.5-0.9,5.9-0.6,9.5-0.1
		C71.9,268.6,74.6,265.7,74.6,265.7z"/>
	<path class="st0" d="M80.4,262.5c-1.8,1.2-3.8,2.3-5.8,3.1h-0.1v0.1c0,0-2.7,2.8-6.3,2.3c-3.6-0.5-8-0.8-9.5,0.1
		c-1.2,0.8-2.3,1.8-3.1,3c4.8-0.1,17.9-0.2,19.5-0.3c1.8-0.1,4.3,0,5.8,0C81,269.7,80.5,263,80.4,262.5z"/>
	<path class="st3" d="M120.5,303.5L120.5,303.5c-0.8-0.9-1.6-1.5-2.6-2c-0.9-0.5-1.8-0.8-2.8-0.9c-0.3-0.1-0.6-0.1-0.9,0
		c-0.3,0.1-0.6,0.2-0.9,0.3l-4.2,4c-0.2,0.2-0.3,0.4-0.4,0.7c-0.1,0.3,0,0.5,0.1,0.8c0,0.1,0,0.2,0,0.3c0,0.1,0,0.2-0.1,0.3
		c-0.4,0.8-3,1.1-3,1.1l-6.5,6.2c-2.8,2.6-3.6,6-4,7.9c0,0.2,0,0.3,0,0.5s0.2,0.3,0.3,0.4c0.1,0.1,0.3,0.2,0.4,0.2
		c0.2,0,0.3,0,0.5-0.1c1.2-0.7,2.4-1.5,3.6-2.4c2-1.4,4-2.6,6.2-3.6v0c0.2-1.4,0.7-2.8,1.4-4.1c0.9-1.5,4.9-3.3,8.4-4.5
		C119.4,307.3,120.5,303.5,120.5,303.5z"/>
	<path class="st0" d="M124.2,298c-1,1.9-2.3,3.8-3.7,5.4h-0.1l0.1,0.1c0,0-1.1,3.7-4.5,5c-3.5,1.2-7.5,3-8.4,4.5
		c-0.7,1.3-1.2,2.7-1.4,4.1c4.2-2.3,15.8-8.5,17.1-9.3c1.5-0.9,3.8-2,5.2-2.8C128,304,124.5,298.4,124.2,298z"/>
	<path class="st0" d="M210,164.4c0.2-1.2,0.9-1.4,1.5-2.5c0.7-1.5,0.9-3.2,0.5-4.9c-0.5-2.9-3.4-0.9-4.1-0.3l-0.2,0.2
		c-0.7,0.5-2-0.1-2-0.1l-0.8,1.8c0,0-2.3,1.7-2,2.9c0.3,1.1,2.1,3,3.4,3.8l-0.5,2.9c0,0,0.2,2.1,1.7,2.9c0.5,0.2,1,0.4,1.6,0.3
		c0.5,0,1.1-0.2,1.5-0.5l0.3-4c0-0.1,0-0.2,0-0.3C210.6,166.1,209.9,165.3,210,164.4z"/>
	<path class="st4" d="M218.9,162.7c0,0,2.9-3.1,1.8-5.5c-0.4-0.7-0.9-1.4-1.6-1.8c-0.7-0.4-1.5-0.7-2.3-0.7c0,0-0.1-2.6-1.8-3.1
		c-1.8-0.5-3.5,1.9-3.5,1.9s-0.5-1.5-2.3-0.6c-1.8,0.9-1.5,4-1.5,4l0.2-0.2c0.8-0.6,3.7-2.6,4.1,0.3c0.4,1.6,0.2,3.4-0.5,4.9
		c-0.6,1.1-1.3,1.4-1.5,2.5c-0.1,0.8,0.6,1.7,0.8,2.1l0.1,0.1c0.9,1.4,5.9,3.1,8.1-0.3C220.5,164.1,218.9,162.7,218.9,162.7z"/>
	<path class="st5" d="M288.4,248.1l7.8,4.8l28.2-23.3l-4.4-7c-6.3,1.2-12.5,2.9-18.5,5.2c-3,1.1-5.8,2.6-8.4,4.3L288.4,248.1z"/>
	<path class="st2" d="M294.6,241.4c-0.1,0-0.1,0-0.2,0c-0.1,0-0.1-0.1-0.1-0.1c0,0-0.1-0.1-0.1-0.1c0-0.1,0-0.1,0-0.2s0-0.1,0-0.2
		c0-0.1,0.1-0.1,0.1-0.1c0,0,1.2-1.3,1.5-4.2c0.3-2.7-0.3-3.9-0.3-3.9c-0.1-0.1-0.1-0.2,0-0.3c0-0.1,0.1-0.2,0.2-0.3
		c0.1-0.1,0.2-0.1,0.3,0c0.1,0,0.2,0.1,0.3,0.2c0,0.1,0.7,1.4,0.4,4.4c-0.3,3.3-1.8,4.7-1.8,4.8
		C294.8,241.4,294.7,241.4,294.6,241.4z"/>
	<path class="st2" d="M298,240.5c-0.1,0-0.1,0-0.2,0c-0.1,0-0.1-0.1-0.1-0.1c-0.1-0.1-0.1-0.2-0.1-0.3c0-0.1,0-0.2,0.1-0.3
		c0,0,1.2-1.3,1.5-4.2c0.3-2.7-0.3-3.9-0.3-3.9c-0.1-0.1-0.1-0.2,0-0.3c0-0.1,0.1-0.2,0.2-0.3c0.1,0,0.1,0,0.2,0c0.1,0,0.1,0,0.2,0
		s0.1,0,0.2,0.1c0,0,0.1,0.1,0.1,0.1c0,0.1,0.7,1.4,0.4,4.4c-0.3,3.3-1.8,4.7-1.8,4.8C298.2,240.4,298.1,240.5,298,240.5z"/>
	<path class="st2" d="M301.3,239.5c-0.1,0-0.1,0-0.2,0c-0.1,0-0.1-0.1-0.1-0.1c0,0-0.1-0.1-0.1-0.1c0-0.1,0-0.1,0-0.2
		c0-0.1,0-0.1,0-0.2c0-0.1,0.1-0.1,0.1-0.1c0,0,1.2-1.2,1.5-4.2c0.3-2.7-0.3-3.9-0.3-3.9c-0.1-0.1-0.1-0.2,0-0.3
		c0-0.1,0.1-0.2,0.2-0.3c0.1-0.1,0.2-0.1,0.3,0c0.1,0,0.2,0.1,0.3,0.2c0,0.1,0.7,1.4,0.4,4.4c-0.3,3.3-1.8,4.7-1.8,4.8
		C301.6,239.5,301.5,239.5,301.3,239.5z"/>
	<path class="st2" d="M304.6,238.4c-0.1,0-0.1,0-0.2,0c-0.1,0-0.1-0.1-0.1-0.1c0,0-0.1-0.1-0.1-0.1c0-0.1,0-0.1,0-0.2s0-0.1,0-0.2
		c0-0.1,0.1-0.1,0.1-0.1c0,0,1.2-1.3,1.5-4.2c0.3-2.7-0.3-3.9-0.3-3.9c-0.1-0.1-0.1-0.2,0-0.3c0-0.1,0.1-0.2,0.2-0.3
		c0.1-0.1,0.2-0.1,0.3,0c0.1,0,0.2,0.1,0.3,0.2c0,0.1,0.7,1.4,0.4,4.4c-0.3,3.3-1.8,4.7-1.8,4.8
		C304.9,238.4,304.8,238.4,304.6,238.4z"/>
	<path class="st0" d="M294.7,251.9l25.1-20.9c0.4-0.3,0.6-0.7,0.7-1.2c0.1-0.5,0.1-0.9-0.1-1.4l-2.5-5.5l2.3-0.5
		c0.4-0.1,0.7,0,1,0.1c0.3,0.2,0.6,0.4,0.8,0.7l2.8,5.2c0.2,0.3,0.3,0.7,0.2,1.1c-0.1,0.4-0.3,0.7-0.5,1L299,253.2
		c-0.3,0.2-0.6,0.4-1,0.4c-0.4,0-0.7-0.1-1-0.2L294.7,251.9z"/>
	
		<linearGradient id="SVGID_1_" gradientUnits="userSpaceOnUse" x1="208.456" y1="44.0487" x2="293.0754" y2="44.0487" gradientTransform="matrix(1 0 0 -1 0 274)">
		<stop  offset="0.28" style="stop-color:#151E27"/>
		<stop  offset="0.39" style="stop-color:#192A41"/>
		<stop  offset="0.58" style="stop-color:#1F3C6B"/>
		<stop  offset="0.75" style="stop-color:#234A8A"/>
		<stop  offset="0.9" style="stop-color:#26529C"/>
		<stop  offset="1" style="stop-color:#2755A3"/>
	</linearGradient>
	<path class="st6" d="M223.6,236.6c0,0,6.4,1.1,21,0.3c6-0.4,11.9-1.3,17.7-2.6l26.1,13.8l4.7-16l-26-16.3
		c-3.9-2.5-8.5-3.7-13.1-3.5l-31.8-0.4l-13.7,5.3L223.6,236.6z"/>
	<path class="st2" d="M282.9,242.8h-0.1c-0.1,0-0.1,0-0.2-0.1c0,0-0.1-0.1-0.1-0.1c0-0.1,0-0.1-0.1-0.2c0-0.1,0-0.1,0-0.2l3.8-12.2
		c0-0.1,0.1-0.2,0.2-0.3c0.1-0.1,0.2-0.1,0.3,0c0.1,0,0.2,0.1,0.3,0.2c0.1,0.1,0.1,0.2,0,0.3l-3.8,12.2c0,0.1-0.1,0.2-0.2,0.2
		C283.1,242.7,283,242.8,282.9,242.8z"/>
	<path class="st2" d="M262.5,232.6L262.5,232.6c-0.1,0-0.2,0-0.2-0.1s-0.1-0.1-0.1-0.1c0,0-0.1-0.1-0.1-0.2c0-0.1,0-0.1,0-0.2
		l0.7-4.1c0-0.1,0.1-0.2,0.2-0.3c0.1-0.1,0.2-0.1,0.3-0.1c0.1,0,0.2,0.1,0.3,0.2s0.1,0.2,0.1,0.3l-0.7,4.1c0,0.1-0.1,0.2-0.2,0.3
		C262.7,232.6,262.6,232.6,262.5,232.6z"/>
	<path class="st2" d="M264.1,233.5c-0.1,0-0.2,0-0.2-0.1c-0.1-0.1-0.2-0.2-0.2-0.3c0-0.1,0-0.2,0.1-0.3l2.1-3.3
		c0.1-0.1,0.2-0.1,0.3-0.1c0.1,0,0.2,0,0.3,0.1c0.1,0.1,0.2,0.1,0.2,0.2c0,0.1,0,0.2,0,0.3l-2.1,3.3c0,0.1-0.1,0.1-0.2,0.1
		C264.3,233.5,264.2,233.5,264.1,233.5z"/>
	<path class="st5" d="M204.4,273.3l-8.2,4.2l5.4,36.1l8.3-0.2c2.3-6,4-12.2,5.1-18.5c0.6-3.1,0.8-6.3,0.7-9.5L204.4,273.3z"/>
	<path class="st2" d="M214.1,288.4c-0.1,0-1.5-0.1-4-2c-2.7-2-3.1-4-3.2-4c0-0.1,0-0.2,0.1-0.3c0.1-0.1,0.2-0.2,0.3-0.2
		c0.1,0,0.1,0,0.2,0c0.1,0,0.1,0,0.2,0.1c0.1,0,0.1,0.1,0.1,0.1c0,0,0.1,0.1,0.1,0.2c0,0,0.4,1.7,2.8,3.5c2.2,1.7,3.5,1.8,3.5,1.8
		c0.1,0,0.2,0.1,0.3,0.2c0.1,0.1,0.1,0.2,0.1,0.3c0,0.1,0,0.1,0,0.2c0,0.1-0.1,0.1-0.1,0.1c0,0-0.1,0.1-0.2,0.1
		C214.2,288.3,214.1,288.4,214.1,288.4z"/>
	<path class="st2" d="M213.1,291.7c-0.1,0-1.5-0.1-4-1.9c-2.7-2-3.1-4-3.2-4c0-0.1,0-0.2,0.1-0.3c0.1-0.1,0.2-0.2,0.3-0.2
		c0.1,0,0.2,0,0.3,0.1c0.1,0.1,0.2,0.2,0.2,0.3c0,0,0.4,1.7,2.8,3.5c2.2,1.7,3.5,1.8,3.5,1.8c0.1,0,0.2,0,0.3,0.1
		c0.1,0.1,0.1,0.2,0.1,0.3c0,0.1,0,0.2-0.1,0.3C213.4,291.7,213.3,291.7,213.1,291.7L213.1,291.7z"/>
	<path class="st2" d="M212.2,295.1c-0.1,0-1.5-0.1-4-1.9c-2.7-2-3.1-4-3.2-4c0-0.1,0-0.1,0-0.2c0-0.1,0-0.1,0.1-0.2
		c0-0.1,0.1-0.1,0.1-0.1c0,0,0.1-0.1,0.2-0.1c0.1,0,0.1,0,0.2,0c0.1,0,0.1,0,0.2,0.1c0,0,0.1,0.1,0.1,0.1c0,0,0.1,0.1,0.1,0.2
		c0,0,0.4,1.7,2.8,3.5c2.2,1.7,3.5,1.8,3.5,1.8c0.1,0,0.2,0,0.3,0.1s0.1,0.2,0.1,0.3c0,0.1,0,0.2-0.1,0.3
		C212.5,295.1,212.4,295.2,212.2,295.1L212.2,295.1z"/>
	<path class="st2" d="M211.4,298.5c-0.1,0-1.5-0.1-4-2c-2.7-2-3.1-4-3.2-4c0-0.1,0-0.1,0-0.2c0-0.1,0-0.1,0.1-0.2
		c0,0,0.1-0.1,0.1-0.1c0,0,0.1-0.1,0.2-0.1c0.1,0,0.1,0,0.2,0c0.1,0,0.1,0,0.2,0.1c0,0,0.1,0.1,0.1,0.1c0,0,0.1,0.1,0.1,0.2
		c0,0,0.4,1.7,2.8,3.5c2.2,1.7,3.5,1.8,3.5,1.8c0.1,0,0.2,0.1,0.3,0.2c0.1,0.1,0.1,0.2,0.1,0.3c0,0.1-0.1,0.2-0.2,0.3
		S211.6,298.5,211.4,298.5z"/>
	<path class="st0" d="M197.9,276.7l5,32.3c0.1,0.5,0.3,0.9,0.6,1.2c0.3,0.3,0.8,0.5,1.2,0.6l6,0.7l-0.8,2.2
		c-0.1,0.3-0.4,0.6-0.7,0.8c-0.3,0.2-0.7,0.3-1,0.3l-5.9-0.2c-0.4,0-0.8-0.2-1-0.4c-0.3-0.3-0.5-0.6-0.6-1l-6.2-33.5
		c-0.1-0.4,0-0.7,0.1-1.1c0.2-0.3,0.4-0.6,0.7-0.8L197.9,276.7z"/>
	
		<linearGradient id="SVGID_2_" gradientUnits="userSpaceOnUse" x1="13660.0566" y1="22.9023" x2="18999.7578" y2="22.9023" gradientTransform="matrix(1 0 0 -1 0 274)">
		<stop  offset="0.28" style="stop-color:#151E27"/>
		<stop  offset="0.39" style="stop-color:#192A41"/>
		<stop  offset="0.58" style="stop-color:#1F3C6B"/>
		<stop  offset="0.75" style="stop-color:#234A8A"/>
		<stop  offset="0.9" style="stop-color:#26529C"/>
		<stop  offset="1" style="stop-color:#2755A3"/>
	</linearGradient>
	<path class="st7" d="M190.5,216.6c0,0-8.4,14.9,3,26.2c9.7,9.7,32.6,11.7,32.6,11.7l-21.8,18.8l11.4,12.2l31.1-25.2
		c1-0.8,1.8-1.8,2.4-2.9c0.6-1.1,0.9-2.4,1-3.6c0.1-1.3-0.1-2.5-0.5-3.7c-0.4-1.2-1.1-2.3-1.9-3.2c-5.1-5.6-12.4-12.9-18.9-17.4
		c-11.5-7.8-18.6-12-18.6-12L190.5,216.6z"/>
	<path class="st2" d="M219.9,279.7c-0.1,0-0.2,0-0.3-0.1l-9.7-9.8c0,0-0.1-0.1-0.1-0.1c0-0.1,0-0.1,0-0.2c0-0.1,0-0.1,0-0.2
		c0-0.1,0.1-0.1,0.1-0.2c0,0,0.1-0.1,0.2-0.1c0.1,0,0.1,0,0.2,0c0.1,0,0.1,0,0.2,0c0.1,0,0.1,0.1,0.1,0.1l9.7,9.8
		c0.1,0.1,0.1,0.2,0.1,0.3s0,0.2-0.1,0.3c0,0-0.1,0.1-0.1,0.1C220,279.7,220,279.7,219.9,279.7z"/>
	<path class="st2" d="M228.1,254.2c-0.1,0-0.2,0-0.2-0.1c-0.1,0-0.1-0.1-0.2-0.2c0-0.1,0-0.2,0-0.3c0-0.1,0.1-0.2,0.2-0.2l4.1-1.8
		c0.1,0,0.2,0,0.3,0c0.1,0,0.2,0.1,0.2,0.2c0,0.1,0,0.1,0,0.2c0,0.1,0,0.1,0,0.2c0,0.1-0.1,0.1-0.1,0.1c0,0-0.1,0.1-0.1,0.1
		l-4.1,1.8C228.2,254.2,228.2,254.2,228.1,254.2z"/>
	<path class="st2" d="M231.2,256.1L231.2,256.1l-3.4-0.3c-0.1,0-0.2-0.1-0.3-0.2c-0.1-0.1-0.1-0.2-0.1-0.3c0-0.1,0.1-0.2,0.2-0.3
		c0.1-0.1,0.2-0.1,0.3-0.1l3.4,0.3c0.1,0,0.2,0.1,0.3,0.1c0.1,0.1,0.1,0.2,0.1,0.3c0,0.1-0.1,0.2-0.1,0.3
		C231.4,256.1,231.3,256.1,231.2,256.1L231.2,256.1z"/>
	<path class="st8" d="M247.8,155.9c-2.5-12.9-10.7-23-10.7-23l-6.6,3.1c0,0,5.7,14.4,3.7,22.1c-2,7.8-7.4,10-10.1,9.7
		c-2.7-0.3-7-1.3-10.3-0.6c-1.7,0.4-2,0.6-2.9,1.7c-0.4,0.4-0.9,0.6-1.4,0.7c-0.5,0.1-1,0.1-1.5-0.1c-0.5-0.2-0.9-0.5-1.3-0.9
		c-0.3-0.4-0.6-0.9-0.7-1.4c-0.4-0.6-0.7-1.2-2.6-2.1c-3.1-1.4-7.5-1.6-10.2-1.9c-2.7-0.3-7.5-3.6-7.9-11.6
		c-0.4-8,8.1-20.9,8.1-20.9l-5.9-4.4c0,0-10.1,8.1-15.2,20.2c-4.9,11.4,0.1,26.7,12.2,29.9l6.3,40.3c0,0,7.6,3.9,19.5,0.2
		c11.9-3.7,12.7-5.3,12.7-5.3l3.5-29.4l1,0.1C241.2,183.8,250.4,168.8,247.8,155.9z"/>
	<path class="st0" d="M193.3,130.9c-0.7,0-1.3-0.1-1.9-0.3c-0.6-0.2-1.2-0.6-1.7-1c-1-0.8-1.8-1.9-2.3-3.1c1.3-1.7,2.8-3.3,4.5-4.6
		c2.8-2.2,5.2-2.6,5.7-2.6c1.6,0.1,1.3,1,1.3,1s1.1,0.3,1.2,1.2c0.1,0.6-0.7,1-0.7,1c0.2,0.1,0.3,0.3,0.4,0.4
		c0.1,0.2,0.1,0.4,0.1,0.6c-0.2,0.6-2.6,0.9-3.5,1.7c-0.5,0.4-1,0.9-1.5,1.4c0,0,1.8-0.2,1.7,0.5c0,0.8-1.3,1.1-2,2
		C194.1,129.6,193.6,130.3,193.3,130.9z"/>
	<path class="st0" d="M230.4,136c0.6,0.2,1.3,0.2,2,0.1c0.7-0.1,1.3-0.3,1.9-0.6c1.2-0.6,2.2-1.5,2.9-2.6c-0.9-2-2.1-3.8-3.5-5.5
		c-2.3-2.7-4.5-3.6-5-3.7c-1.6-0.2-1.5,0.7-1.5,0.7s-1.1,0.1-1.4,0.9c-0.2,0.6,0.5,1.1,0.5,1.1s-0.7,0.3-0.7,0.9
		c0.1,0.6,2.3,1.5,3.1,2.3c0.4,0.5,0.8,1.1,1.2,1.7c0,0-1.7-0.6-1.8,0.2c-0.1,0.8,1,1.3,1.6,2.4C229.9,134.6,230.2,135.3,230.4,136z
		"/>
	<path class="st5" d="M206,160.6c-0.2,0-0.5-0.1-0.7-0.2c-0.2-0.1-0.3-0.3-0.4-0.6c0-0.1,0-0.1,0-0.2c0-0.1,0.1-0.1,0.1-0.1
		c0,0,0.1,0,0.1,0c0,0,0.1,0,0.1,0c0,0,0.1,0,0.1,0c0,0,0,0,0.1,0.1c0.3,0.6,0.7,0.6,0.7,0.6c0.1,0,0.1,0,0.2,0c0,0,0.1,0.1,0.1,0.1
		c0,0,0,0.1,0,0.1c0,0,0,0.1,0,0.1c0,0,0,0-0.1,0.1c0,0-0.1,0-0.1,0C206.1,160.6,206,160.6,206,160.6z"/>
	<path class="st5" d="M210.1,160.1c0,0-0.1,0-0.1,0c-0.1,0-0.1-0.1-0.1-0.1c0-0.1,0-0.1,0-0.2c0.2-0.4,0.4-0.9,0.5-1.4
		c0.2-1-0.2-1.2-0.2-1.2c0,0-0.1,0-0.1,0c0,0,0,0,0-0.1c0,0,0-0.1,0-0.1c0,0,0-0.1,0-0.1c0-0.1,0.1-0.1,0.1-0.1c0.1,0,0.1,0,0.2,0
		c0.1,0,0.7,0.3,0.4,1.7c-0.1,0.5-0.3,1-0.5,1.5c0,0,0,0.1-0.1,0.1C210.2,160.1,210.1,160.1,210.1,160.1z"/>
	<path class="st5" d="M208.9,159.2C208.9,159.2,208.8,159.2,208.9,159.2c-0.1,0-0.1,0-0.2-0.1c0,0,0,0,0-0.1c0,0,0-0.1,0-0.1
		c0,0,0-0.1,0-0.1c0,0,0.2-0.5-0.1-0.6c-0.1,0-0.1-0.1-0.1-0.1c0-0.1,0-0.1,0-0.2c0-0.1,0.1-0.1,0.1-0.1c0.1,0,0.1,0,0.2,0
		c0.1,0.1,0.2,0.1,0.3,0.2s0.1,0.2,0.2,0.3c0,0.1,0,0.2,0,0.3c0,0.1,0,0.2-0.1,0.3c0,0,0,0.1-0.1,0.1
		C209,159.2,208.9,159.2,208.9,159.2z"/>
	<path class="st0" d="M142.8,160.7c0,0,3.8,1.2,5.6,3.4c1.1,1.4,1.8,3.1,1.9,4.9c0,0.3,0,0.5-0.1,0.7c-0.1,0.2-0.3,0.4-0.5,0.6
		l-0.6,0.5c0.5,0.8,1.2,1.5,1.8,2.2c-0.1,0.4-0.3,0.7-0.5,1c-0.2,0.3-0.5,0.5-0.9,0.7c-0.8,0.4-2.5,0.1-2.5,0.1l-5.6-7.1
		c-0.5-0.6-0.7-1.3-0.8-2.1s0.1-1.5,0.5-2.1L142.8,160.7z"/>
	<path class="st9" d="M146.1,164.2l1.7,1.2l-0.7,0.7"/>
	<path class="st9" d="M144.9,165.2c-0.1,0-0.3,0-0.4,0c-0.1,0-0.2,0.1-0.3,0.2c-0.1,0.1-0.2,0.2-0.2,0.3c-0.1,0.1-0.1,0.2-0.1,0.4"
		/>
	<path class="st10" d="M148,163.6c0,0-5.2-3.7-6.6-0.2c-1.4,3.4,5.3,7.1,5.7,10c0.8,5.9-7.2,11.3-9.3,16.4
		c-7.7,19.1-31.2,13.3-36.8-4.5c-2.9-9,0.4-18,8.3-22.7c6.5-3.9,10.7-1.4,14.2,0.4c3.9,2,5.9,2.5,9-1.7c2.5-3.4,5.4-4.9,9.7-3.8
		c1.5,0.4,2.8,1.1,3.8,2.2C147,160.8,147.7,162.2,148,163.6z"/>
	
		<linearGradient id="SVGID_3_" gradientUnits="userSpaceOnUse" x1="-6087.9722" y1="-3295.2512" x2="7010.6602" y2="3673.0684" gradientTransform="matrix(1 0 0 -1 0 274)">
		<stop  offset="0.28" style="stop-color:#151E27"/>
		<stop  offset="0.39" style="stop-color:#192A41"/>
		<stop  offset="0.58" style="stop-color:#1F3C6B"/>
		<stop  offset="0.75" style="stop-color:#234A8A"/>
		<stop  offset="0.9" style="stop-color:#26529C"/>
		<stop  offset="1" style="stop-color:#2755A3"/>
	</linearGradient>
	<path class="st11" d="M168.6,203.1c0,0-4.6,3-12.5,4.8c-4.4,0.9-8.8,1.2-13.3,0.8c0,0-7,4.1-13.9,15.8c-4.2,7.1-7.9,14.8-10.2,19.8
		c-0.7,1.7-1.8,3.3-3.2,4.5c-1.4,1.3-3,2.2-4.8,2.8L80,261.3l0.7,12.3l40.7-3.7c6.4-0.6,12.3-3.6,16.5-8.5c2.4-2.8,5.2-6.1,7.9-9.5
		c0.3,4,0.7,7.7,1.1,10.5c0.3,1.9,0.2,3.7-0.3,5.5c-0.5,1.8-1.4,3.5-2.6,4.9l-21.1,24.3l7.1,10.1l32.6-24.6
		c5.2-3.9,11.5-15,13.2-49.1C176.9,210.3,168.6,203.1,168.6,203.1z"/>
	<path class="st2" d="M129.8,307.8l-7.5-10.7l21.3-24.6c1.2-1.4,2-3,2.5-4.8c0.5-1.7,0.6-3.6,0.3-5.4c-0.3-2.2-0.7-5.6-1-9.4
		c-2.4,2.9-4.9,5.9-7.2,8.7c-4.2,5-10.3,8.2-16.8,8.7L80.2,274l-0.7-13.1l31.1-9.6c1.7-0.6,3.3-1.5,4.6-2.7c1.3-1.2,2.4-2.7,3.1-4.4
		c2.4-5.2,6.1-12.8,10.2-19.9c6.9-11.7,13.8-15.8,14.1-16l0.1-0.1h0.1c4.4,0.3,8.9,0.1,13.2-0.8c7.7-1.7,12.3-4.7,12.3-4.7l0.3-0.2
		l0.3,0.2c0.3,0.3,8.5,7.7,7.4,30.8c-1.3,27.1-5.9,43.7-13.4,49.4L129.8,307.8z M123.4,297.1l6.6,9.4l32.3-24.3
		c7.3-5.5,11.7-21.9,13-48.7c1-20.5-5.5-28.4-6.8-29.8c-3.8,2.2-8,3.8-12.3,4.7c-4.4,0.9-8.8,1.2-13.3,0.8
		c-0.9,0.6-7.4,4.9-13.6,15.6c-4.1,7-7.8,14.6-10.2,19.8c-0.8,1.8-1.9,3.4-3.3,4.7c-1.4,1.3-3.1,2.3-4.9,2.9l-30.4,9.5l0.6,11.5
		l40.3-3.6c6.3-0.5,12.1-3.6,16.2-8.4c2.5-3,5.3-6.3,7.9-9.5l0.7-0.9l0.1,1.1c0.4,4.3,0.8,8.1,1.1,10.5c0.3,1.9,0.2,3.9-0.3,5.7
		c-0.5,1.9-1.4,3.6-2.6,5.1L123.4,297.1z"/>
	<path class="st2" d="M173.9,157.7l-3.5,6.3c0,0,4,6.1-4.1,8.6c-4.4,1.3-9.4-3.5-16.6,1.1c-0.9,0.4-1.8,0.8-2.8,1
		c-0.7-0.2-8.5-2.2-11.3,3.5c-1.5,3.1-1.8,7.4-2.1,10.2c-0.3,2.7-3.8,7.4-11.7,7.6c-8,0.3-19.9-7.9-19.9-7.9l-5.3,5.1
		c0,0,7.9,10.2,19.9,15.7c8.8,4,20.2,2.1,26.4-4.8l-0.1,4.6c4.4,0.5,8.9,0.2,13.3-0.8c4.4-1.1,8.6-2.8,12.6-4.9l-1.7-11.2
		c4.1-1.6,7.4-5,10.1-9.7C184.6,168.6,173.9,157.7,173.9,157.7z"/>
	<path class="st9" d="M148.3,168.3c0.2,0,0.4-0.3,0.3-0.5c0-0.3-0.2-0.4-0.5-0.4c-0.2,0-0.4,0.3-0.3,0.5
		C147.9,168.2,148.1,168.4,148.3,168.3z"/>
	
		<linearGradient id="SVGID_4_" gradientUnits="userSpaceOnUse" x1="151.7248" y1="121.5278" x2="186.1367" y2="140.3632" gradientTransform="matrix(1 0 0 -1 0 274)">
		<stop  offset="7.000000e-02" style="stop-color:#F1C4D9"/>
		<stop  offset="0.7" style="stop-color:#2755A3"/>
	</linearGradient>
	<path class="st12" d="M150.8,162.4l6.7,5l0.6-5.8l18.9-20.3l-16.1-11.8l-5.8,29.4L150.8,162.4z"/>
	<path class="st13" d="M159.8,159.7l3.8,3.1l13.4-14.7l-2.4-3.4"/>
	<path class="st14" d="M166.1,123.1l0.9-6.3"/>
	<path class="st14" d="M172.4,127.7l5.4-10.8"/>
	<path class="st14" d="M177.9,131.3l4.5-4.5"/>
	
		<linearGradient id="SVGID_5_" gradientUnits="userSpaceOnUse" x1="-2482.1052" y1="-3887.8552" x2="-2467.0959" y2="-3865.0598" gradientTransform="matrix(1 0 0 -1 0 274)">
		<stop  offset="0.28" style="stop-color:#151E27"/>
		<stop  offset="0.39" style="stop-color:#192A41"/>
		<stop  offset="0.58" style="stop-color:#1F3C6B"/>
		<stop  offset="0.75" style="stop-color:#234A8A"/>
		<stop  offset="0.9" style="stop-color:#26529C"/>
		<stop  offset="1" style="stop-color:#2755A3"/>
	</linearGradient>
	<path class="st15" d="M177.9,140.3c0.8-1.2-2.3-4.7-7-7.7s-9.1-4.5-9.9-3.3c-0.8,1.2,2.3,4.7,7,7.7
		C172.6,140.1,177.1,141.6,177.9,140.3z"/>
	<path class="st0" d="M170.4,164.2c0.6-0.2,1.2-0.6,1.7-1c0.5-0.5,0.9-1,1.1-1.6c0.6-1.2,0.9-2.5,0.7-3.8c-1.9-1.1-3.9-1.9-6-2.4
		c-0.7-0.2-1.5-0.3-2.2-0.2c-0.7,0.1-1.5,0.4-2.1,0.8c-0.9,0.6-1.6,1.5-2.1,2.5c-0.2,0.2-0.3,0.5-0.3,0.8c0,0.3,0.1,0.6,0.3,0.8
		c0.5,0.4,2.5-0.4,3.6-0.1c0.6,0.2,1.3,0.4,1.9,0.7c0,0-1.7,0.5-1.3,1.2c0.4,0.7,1.6,0.5,2.7,1C169.1,163.3,169.8,163.7,170.4,164.2
		z"/>
	
		<linearGradient id="SVGID_6_" gradientUnits="userSpaceOnUse" x1="201.3921" y1="94.7633" x2="201.3921" y2="93.3931" gradientTransform="matrix(1 0 0 -1 0 274)">
		<stop  offset="0" style="stop-color:#2755A3"/>
		<stop  offset="1" style="stop-color:#2755A3;stop-opacity:0"/>
	</linearGradient>
	<path class="st16" d="M202.7,180.6L202.7,180.6l-2.8-0.5c-0.1,0-0.1,0-0.2-0.1c0,0-0.1-0.1-0.1-0.1c0,0-0.1-0.1-0.1-0.2
		c0-0.1,0-0.1,0-0.2c0-0.1,0.1-0.2,0.2-0.3c0.1-0.1,0.2-0.1,0.3-0.1l2.7,0.5c0.1,0,0.2,0.1,0.3,0.2c0.1,0.1,0.1,0.2,0.1,0.3
		c0,0.1-0.1,0.2-0.1,0.3C203,180.6,202.8,180.6,202.7,180.6L202.7,180.6z"/>
	
		<linearGradient id="SVGID_7_" gradientUnits="userSpaceOnUse" x1="191.6475" y1="84.6544" x2="191.6475" y2="83.2899" gradientTransform="matrix(1 0 0 -1 0 274)">
		<stop  offset="0" style="stop-color:#2755A3"/>
		<stop  offset="1" style="stop-color:#2755A3;stop-opacity:0"/>
	</linearGradient>
	<path class="st17" d="M193,190.7L193,190.7l-2.7-0.5c-0.1,0-0.2-0.1-0.3-0.2c-0.1-0.1-0.1-0.2-0.1-0.3c0-0.1,0-0.1,0.1-0.2
		c0,0,0.1-0.1,0.1-0.1c0,0,0.1-0.1,0.2-0.1c0.1,0,0.1,0,0.2,0l2.7,0.5c0.1,0,0.2,0.1,0.3,0.2c0.1,0.1,0.1,0.2,0.1,0.3
		c0,0.1-0.1,0.2-0.1,0.3C193.2,190.7,193.1,190.7,193,190.7L193,190.7z"/>
	
		<linearGradient id="SVGID_8_" gradientUnits="userSpaceOnUse" x1="196.4598" y1="105.3906" x2="196.4598" y2="103.562" gradientTransform="matrix(1 0 0 -1 0 274)">
		<stop  offset="0" style="stop-color:#2755A3"/>
		<stop  offset="1" style="stop-color:#2755A3;stop-opacity:0"/>
	</linearGradient>
	<path class="st18" d="M195.2,170.4c-0.1,0-0.2,0-0.3-0.1c-0.1-0.1-0.1-0.1-0.2-0.2c0-0.1,0-0.2,0-0.3c0-0.1,0.1-0.2,0.3-0.2
		l2.6-0.9c0.1,0,0.1,0,0.2,0s0.1,0,0.2,0c0.1,0,0.1,0.1,0.1,0.1c0,0,0.1,0.1,0.1,0.2c0,0.1,0,0.1,0,0.2c0,0.1,0,0.1,0,0.2
		c0,0.1-0.1,0.1-0.1,0.1c0,0-0.1,0.1-0.2,0.1l-2.6,0.9C195.3,170.4,195.2,170.4,195.2,170.4z"/>
	
		<linearGradient id="SVGID_9_" gradientUnits="userSpaceOnUse" x1="198.2422" y1="89.3963" x2="198.2422" y2="87.5817" gradientTransform="matrix(1 0 0 -1 0 274)">
		<stop  offset="0" style="stop-color:#2755A3"/>
		<stop  offset="1" style="stop-color:#2755A3;stop-opacity:0"/>
	</linearGradient>
	<path class="st19" d="M197,186.4c-0.1,0-0.2,0-0.3-0.1c-0.1-0.1-0.1-0.1-0.2-0.2c0-0.1,0-0.1,0-0.2c0-0.1,0-0.1,0-0.2
		c0-0.1,0.1-0.1,0.1-0.1c0,0,0.1-0.1,0.2-0.1l2.6-0.9c0.1,0,0.2,0,0.3,0c0.1,0.1,0.2,0.1,0.2,0.3c0,0.1,0,0.2,0,0.3
		c-0.1,0.1-0.1,0.2-0.3,0.2l-2.6,0.9C197.1,186.4,197,186.4,197,186.4z"/>
	
		<linearGradient id="SVGID_10_" gradientUnits="userSpaceOnUse" x1="203.2093" y1="101.5973" x2="203.2093" y2="99.7862" gradientTransform="matrix(1 0 0 -1 0 274)">
		<stop  offset="0" style="stop-color:#2755A3"/>
		<stop  offset="1" style="stop-color:#2755A3;stop-opacity:0"/>
	</linearGradient>
	<path class="st20" d="M201.9,174.2c-0.1,0-0.2,0-0.3-0.1c-0.1-0.1-0.1-0.2-0.2-0.3c0-0.1,0-0.2,0.1-0.3c0.1-0.1,0.1-0.2,0.2-0.2
		l2.6-0.9c0.1,0,0.1,0,0.2,0c0.1,0,0.1,0,0.2,0s0.1,0.1,0.1,0.1c0,0,0.1,0.1,0.1,0.2c0,0.1,0,0.2,0,0.3c-0.1,0.1-0.1,0.2-0.3,0.2
		l-2.6,0.9C202,174.2,202,174.2,201.9,174.2z"/>
	
		<linearGradient id="SVGID_11_" gradientUnits="userSpaceOnUse" x1="218.4636" y1="77.1089" x2="218.4636" y2="75.7392" gradientTransform="matrix(1 0 0 -1 0 274)">
		<stop  offset="0" style="stop-color:#2755A3"/>
		<stop  offset="1" style="stop-color:#2755A3;stop-opacity:0"/>
	</linearGradient>
	<path class="st21" d="M219.8,198.3L219.8,198.3l-2.8-0.5c-0.1,0-0.1,0-0.2-0.1c0,0-0.1-0.1-0.1-0.1c0,0-0.1-0.1-0.1-0.2
		c0-0.1,0-0.1,0-0.2c0-0.1,0.1-0.2,0.2-0.3c0.1-0.1,0.2-0.1,0.3-0.1l2.7,0.5c0.1,0,0.2,0.1,0.3,0.2c0.1,0.1,0.1,0.2,0.1,0.3
		c0,0.1-0.1,0.2-0.1,0.3C220,198.2,219.9,198.3,219.8,198.3L219.8,198.3z"/>
	
		<linearGradient id="SVGID_12_" gradientUnits="userSpaceOnUse" x1="218.8041" y1="69.0324" x2="218.8041" y2="67.2148" gradientTransform="matrix(1 0 0 -1 0 274)">
		<stop  offset="0" style="stop-color:#2755A3"/>
		<stop  offset="1" style="stop-color:#2755A3;stop-opacity:0"/>
	</linearGradient>
	<path class="st22" d="M217.5,206.8c-0.1,0-0.2,0-0.3-0.1c-0.1-0.1-0.1-0.2-0.1-0.3c0-0.1,0-0.2,0-0.3c0-0.1,0.1-0.2,0.2-0.2
		l2.6-0.9c0.1,0,0.1,0,0.2,0c0.1,0,0.1,0,0.2,0c0.1,0,0.1,0.1,0.1,0.1s0.1,0.1,0.1,0.2c0,0.1,0,0.2,0,0.3c-0.1,0.1-0.1,0.2-0.3,0.2
		l-2.6,0.9C217.6,206.8,217.6,206.8,217.5,206.8z"/>
	
		<linearGradient id="SVGID_13_" gradientUnits="userSpaceOnUse" x1="194.4999" y1="100.0076" x2="194.4999" y2="97.1237" gradientTransform="matrix(1 0 0 -1 0 274)">
		<stop  offset="0" style="stop-color:#2755A3"/>
		<stop  offset="1" style="stop-color:#2755A3;stop-opacity:0"/>
	</linearGradient>
	<path class="st23" d="M194.5,176.9c-0.1,0-0.1,0-0.2,0c-0.1,0-0.1-0.1-0.1-0.1c0,0-0.1-0.1-0.1-0.1s0-0.1,0-0.2l0.1-2
		c0-0.1,0-0.2,0.1-0.3s0.2-0.1,0.3-0.1s0.2,0,0.3,0.1c0.1,0.1,0.1,0.2,0.1,0.3l-0.1,2c0,0.1,0,0.1,0,0.2c0,0.1-0.1,0.1-0.1,0.2
		c0,0-0.1,0.1-0.2,0.1C194.6,176.9,194.5,176.9,194.5,176.9z"/>
	
		<linearGradient id="SVGID_14_" gradientUnits="userSpaceOnUse" x1="208.5296" y1="97.6549" x2="208.5296" y2="94.7861" gradientTransform="matrix(1 0 0 -1 0 274)">
		<stop  offset="0" style="stop-color:#2755A3"/>
		<stop  offset="1" style="stop-color:#2755A3;stop-opacity:0"/>
	</linearGradient>
	<path class="st24" d="M208.5,179.2c-0.1,0-0.1,0-0.2,0c-0.1,0-0.1-0.1-0.1-0.1c0,0-0.1-0.1-0.1-0.1s0-0.1,0-0.2l0.1-2
		c0-0.1,0.1-0.2,0.1-0.3c0.1-0.1,0.2-0.1,0.3-0.1c0.1,0,0.1,0,0.2,0c0.1,0,0.1,0.1,0.1,0.1s0.1,0.1,0.1,0.1c0,0.1,0,0.1,0,0.2
		l-0.1,2c0,0.1-0.1,0.2-0.1,0.3S208.6,179.2,208.5,179.2z"/>
	
		<linearGradient id="SVGID_15_" gradientUnits="userSpaceOnUse" x1="189.3523" y1="95.4239" x2="189.3523" y2="92.7438" gradientTransform="matrix(1 0 0 -1 0 274)">
		<stop  offset="0" style="stop-color:#2755A3"/>
		<stop  offset="1" style="stop-color:#2755A3;stop-opacity:0"/>
	</linearGradient>
	<path class="st25" d="M188.8,181.3c-0.1,0-0.2,0-0.2-0.1c-0.1-0.1-0.2-0.2-0.2-0.3c0-0.1,0-0.2,0.1-0.3l1.2-1.8
		c0,0,0.1-0.1,0.1-0.1c0,0,0.1-0.1,0.2-0.1c0.1,0,0.1,0,0.2,0c0.1,0,0.1,0,0.2,0.1c0,0,0.1,0.1,0.1,0.1c0,0,0.1,0.1,0.1,0.2
		c0,0.1,0,0.1,0,0.2c0,0.1,0,0.1-0.1,0.2l-1.2,1.8c0,0.1-0.1,0.1-0.2,0.1C188.9,181.2,188.8,181.3,188.8,181.3z"/>
	
		<linearGradient id="SVGID_16_" gradientUnits="userSpaceOnUse" x1="182.8081" y1="105.0812" x2="182.8081" y2="102.4044" gradientTransform="matrix(1 0 0 -1 0 274)">
		<stop  offset="0" style="stop-color:#2755A3"/>
		<stop  offset="1" style="stop-color:#2755A3;stop-opacity:0"/>
	</linearGradient>
	<path class="st26" d="M182.2,171.6c-0.1,0-0.2,0-0.2-0.1c-0.1-0.1-0.2-0.2-0.2-0.3c0-0.1,0-0.2,0.1-0.3l1.2-1.8
		c0,0,0.1-0.1,0.1-0.1c0,0,0.1-0.1,0.2-0.1c0.1,0,0.1,0,0.2,0c0.1,0,0.1,0,0.2,0.1c0.1,0.1,0.2,0.2,0.2,0.3c0,0.1,0,0.2-0.1,0.3
		l-1.2,1.8c0,0.1-0.1,0.1-0.2,0.1C182.4,171.6,182.3,171.6,182.2,171.6z"/>
	
		<linearGradient id="SVGID_17_" gradientUnits="userSpaceOnUse" x1="188.682" y1="106.8406" x2="188.682" y2="104.0854" gradientTransform="matrix(1 0 0 -1 0 274)">
		<stop  offset="0" style="stop-color:#2755A3"/>
		<stop  offset="1" style="stop-color:#2755A3;stop-opacity:0"/>
	</linearGradient>
	<path class="st27" d="M188.1,169.9c-0.1,0-0.2,0-0.3-0.1c0,0-0.1-0.1-0.1-0.1c0,0-0.1-0.1-0.1-0.2c0-0.1,0-0.1,0-0.2
		c0-0.1,0-0.1,0.1-0.2l1.2-1.8c0-0.1,0.1-0.1,0.1-0.2c0,0,0.1-0.1,0.2-0.1c0.1,0,0.1,0,0.2,0c0.1,0,0.1,0,0.2,0.1
		c0.1,0,0.1,0.1,0.1,0.1c0,0.1,0.1,0.1,0.1,0.2c0,0.1,0,0.1,0,0.2c0,0.1-0.1,0.1-0.1,0.2l-1.1,1.8c0,0.1-0.1,0.1-0.2,0.2
		C188.2,169.9,188.2,169.9,188.1,169.9z"/>
	
		<linearGradient id="SVGID_18_" gradientUnits="userSpaceOnUse" x1="206.8028" y1="84.587" x2="206.8028" y2="81.2251" gradientTransform="matrix(1 0 0 -1 0 274)">
		<stop  offset="0" style="stop-color:#2755A3"/>
		<stop  offset="1" style="stop-color:#2755A3;stop-opacity:0"/>
	</linearGradient>
	<path class="st28" d="M206.6,192.8L206.6,192.8c-0.1,0-0.2,0-0.2-0.1c0,0-0.1-0.1-0.1-0.1c0,0-0.1-0.1-0.1-0.2c0-0.1,0-0.1,0-0.2
		l0.5-2.5c0-0.1,0.1-0.2,0.2-0.3c0.1-0.1,0.2-0.1,0.3-0.1c0.1,0,0.2,0.1,0.3,0.2c0.1,0.1,0.1,0.2,0.1,0.3l-0.5,2.5
		c0,0.1-0.1,0.2-0.2,0.3C206.8,192.7,206.7,192.8,206.6,192.8z"/>
	
		<linearGradient id="SVGID_19_" gradientUnits="userSpaceOnUse" x1="258.9767" y1="58.1313" x2="258.9767" y2="57.1951" gradientTransform="matrix(1 0 0 -1 0 274)">
		<stop  offset="0" style="stop-color:#2755A3"/>
		<stop  offset="1" style="stop-color:#2755A3;stop-opacity:0"/>
	</linearGradient>
	<path class="st29" d="M260.3,216.8l-2.7,0c-0.1,0-0.2-0.1-0.3-0.1c-0.1-0.1-0.1-0.2-0.1-0.3c0-0.1,0-0.2,0.1-0.3
		c0.1-0.1,0.2-0.1,0.3-0.1l2.7,0c0.1,0,0.2,0,0.3,0.1c0.1,0.1,0.1,0.2,0.1,0.3c0,0.1,0,0.2-0.1,0.3S260.4,216.8,260.3,216.8
		L260.3,216.8z"/>
	
		<linearGradient id="SVGID_20_" gradientUnits="userSpaceOnUse" x1="193.6713" y1="63.1656" x2="193.6713" y2="59.803" gradientTransform="matrix(1 0 0 -1 0 274)">
		<stop  offset="0" style="stop-color:#2755A3"/>
		<stop  offset="1" style="stop-color:#2755A3;stop-opacity:0"/>
	</linearGradient>
	<path class="st30" d="M193.4,214.2L193.4,214.2c-0.1,0-0.2,0-0.2-0.1c0,0-0.1-0.1-0.1-0.1c0,0-0.1-0.1-0.1-0.2c0-0.1,0-0.1,0-0.2
		l0.5-2.5c0-0.1,0-0.1,0.1-0.2c0,0,0.1-0.1,0.1-0.1c0,0,0.1-0.1,0.2-0.1c0.1,0,0.1,0,0.2,0c0.1,0,0.1,0,0.2,0.1c0,0,0.1,0.1,0.1,0.1
		c0,0,0.1,0.1,0.1,0.2c0,0.1,0,0.1,0,0.2l-0.5,2.5c0,0.1-0.1,0.2-0.2,0.3C193.6,214.2,193.5,214.2,193.4,214.2z"/>
	
		<linearGradient id="SVGID_21_" gradientUnits="userSpaceOnUse" x1="218.0353" y1="63.5562" x2="218.0353" y2="62.6125" gradientTransform="matrix(1 0 0 -1 0 274)">
		<stop  offset="0" style="stop-color:#2755A3"/>
		<stop  offset="1" style="stop-color:#2755A3;stop-opacity:0"/>
	</linearGradient>
	<path class="st31" d="M219.4,211.4l-2.7,0c-0.1,0-0.2,0-0.3-0.1c-0.1-0.1-0.1-0.2-0.1-0.3c0-0.1,0-0.2,0.1-0.3
		c0.1-0.1,0.2-0.1,0.3-0.1l2.7,0c0.1,0,0.2,0,0.3,0.1s0.1,0.2,0.1,0.3c0,0.1,0,0.2-0.1,0.3C219.6,211.3,219.5,211.4,219.4,211.4
		L219.4,211.4z"/>
	
		<linearGradient id="SVGID_22_" gradientUnits="userSpaceOnUse" x1="210.5496" y1="69.0652" x2="210.5496" y2="65.7026" gradientTransform="matrix(1 0 0 -1 0 274)">
		<stop  offset="0" style="stop-color:#2755A3"/>
		<stop  offset="1" style="stop-color:#2755A3;stop-opacity:0"/>
	</linearGradient>
	<path class="st32" d="M210.3,208.3L210.3,208.3c-0.1,0-0.2,0-0.3-0.1c0,0-0.1-0.1-0.1-0.1c0,0-0.1-0.1-0.1-0.2c0-0.1,0-0.1,0-0.2
		l0.5-2.5c0-0.1,0-0.1,0.1-0.2c0,0,0.1-0.1,0.1-0.1c0,0,0.1-0.1,0.2-0.1c0.1,0,0.1,0,0.2,0c0.1,0,0.1,0,0.2,0.1c0,0,0.1,0.1,0.1,0.1
		c0,0,0.1,0.1,0.1,0.2c0,0.1,0,0.1,0,0.2l-0.5,2.5c0,0.1-0.1,0.2-0.2,0.3C210.5,208.3,210.4,208.3,210.3,208.3z"/>
	
		<linearGradient id="SVGID_23_" gradientUnits="userSpaceOnUse" x1="200.3401" y1="63.8002" x2="200.3401" y2="62.863" gradientTransform="matrix(1 0 0 -1 0 274)">
		<stop  offset="0" style="stop-color:#2755A3"/>
		<stop  offset="1" style="stop-color:#2755A3;stop-opacity:0"/>
	</linearGradient>
	<path class="st33" d="M201.7,211.1l-2.7,0c-0.1,0-0.2,0-0.3-0.1c-0.1-0.1-0.1-0.2-0.1-0.3s0-0.2,0.1-0.3c0.1-0.1,0.2-0.1,0.3-0.1
		l2.7,0c0.1,0,0.1,0,0.2,0c0.1,0,0.1,0.1,0.1,0.1c0,0,0.1,0.1,0.1,0.1c0,0.1,0,0.1,0,0.2c0,0.1,0,0.2-0.1,0.3
		C201.9,211.1,201.8,211.1,201.7,211.1z"/>
	
		<linearGradient id="SVGID_24_" gradientUnits="userSpaceOnUse" x1="210.1215" y1="76.1977" x2="210.1215" y2="74.8594" gradientTransform="matrix(1 0 0 -1 0 274)">
		<stop  offset="0" style="stop-color:#2755A3"/>
		<stop  offset="1" style="stop-color:#2755A3;stop-opacity:0"/>
	</linearGradient>
	<path class="st34" d="M211.3,199.1L211.3,199.1l-2.4-0.4c-0.1,0-0.2-0.1-0.3-0.2c-0.1-0.1-0.1-0.2-0.1-0.3c0-0.1,0-0.1,0.1-0.2
		c0,0,0.1-0.1,0.1-0.1c0,0,0.1-0.1,0.2-0.1c0.1,0,0.1,0,0.2,0l2.3,0.4c0.1,0,0.2,0.1,0.3,0.2c0.1,0.1,0.1,0.2,0.1,0.3
		c0,0.1-0.1,0.2-0.2,0.3C211.5,199.1,211.4,199.1,211.3,199.1L211.3,199.1z"/>
	
		<linearGradient id="SVGID_25_" gradientUnits="userSpaceOnUse" x1="208.8684" y1="60.1576" x2="208.8684" y2="58.8302" gradientTransform="matrix(1 0 0 -1 0 274)">
		<stop  offset="0" style="stop-color:#2755A3"/>
		<stop  offset="1" style="stop-color:#2755A3;stop-opacity:0"/>
	</linearGradient>
	<path class="st35" d="M210,215.2L210,215.2l-2.4-0.4c-0.1,0-0.1,0-0.2-0.1c0,0-0.1-0.1-0.1-0.1c0,0-0.1-0.1-0.1-0.2
		c0-0.1,0-0.1,0-0.2c0-0.1,0.1-0.2,0.2-0.3c0.1-0.1,0.2-0.1,0.3-0.1l2.3,0.4c0.1,0,0.1,0,0.2,0.1c0,0,0.1,0.1,0.1,0.1
		s0.1,0.1,0.1,0.2c0,0.1,0,0.1,0,0.2c0,0.1-0.1,0.2-0.2,0.3C210.2,215.1,210.1,215.2,210,215.2z"/>
	
		<linearGradient id="SVGID_26_" gradientUnits="userSpaceOnUse" x1="204.6661" y1="71.7627" x2="204.6661" y2="68.6525" gradientTransform="matrix(1 0 0 -1 0 274)">
		<stop  offset="0" style="stop-color:#2755A3"/>
		<stop  offset="1" style="stop-color:#2755A3;stop-opacity:0"/>
	</linearGradient>
	<path class="st36" d="M205.1,205.3c-0.1,0-0.2,0-0.2-0.1c-0.1,0-0.1-0.1-0.2-0.2l-0.9-2.2c0-0.1,0-0.1,0-0.2c0-0.1,0-0.1,0-0.2
		c0-0.1,0.1-0.1,0.1-0.1c0,0,0.1-0.1,0.1-0.1c0.1,0,0.1,0,0.2,0c0.1,0,0.1,0,0.2,0c0.1,0,0.1,0.1,0.1,0.1c0,0,0.1,0.1,0.1,0.1
		l0.9,2.2c0,0.1,0,0.1,0,0.2c0,0.1,0,0.1,0,0.2c0,0.1-0.1,0.1-0.1,0.1c0,0-0.1,0.1-0.1,0.1C205.2,205.3,205.2,205.3,205.1,205.3z"/>
	
		<linearGradient id="SVGID_27_" gradientUnits="userSpaceOnUse" x1="220.6633" y1="83.924" x2="220.6633" y2="82.5891" gradientTransform="matrix(1 0 0 -1 0 274)">
		<stop  offset="0" style="stop-color:#2755A3"/>
		<stop  offset="1" style="stop-color:#2755A3;stop-opacity:0"/>
	</linearGradient>
	<path class="st37" d="M221.8,191.4L221.8,191.4l-2.4-0.4c-0.1,0-0.2-0.1-0.3-0.2c-0.1-0.1-0.1-0.2-0.1-0.3c0-0.1,0.1-0.2,0.2-0.3
		c0.1-0.1,0.2-0.1,0.3-0.1l2.3,0.4c0.1,0,0.2,0.1,0.3,0.2s0.1,0.2,0.1,0.3c0,0.1-0.1,0.2-0.2,0.3C222,191.4,221.9,191.4,221.8,191.4
		z"/>
	
		<linearGradient id="SVGID_28_" gradientUnits="userSpaceOnUse" x1="214.0932" y1="88.4578" x2="214.0932" y2="85.3471" gradientTransform="matrix(1 0 0 -1 0 274)">
		<stop  offset="0" style="stop-color:#2755A3"/>
		<stop  offset="1" style="stop-color:#2755A3;stop-opacity:0"/>
	</linearGradient>
	<path class="st38" d="M214.5,188.7c-0.1,0-0.2,0-0.2-0.1c-0.1,0-0.1-0.1-0.2-0.2l-0.9-2.2c0-0.1,0-0.2,0-0.3c0-0.1,0.1-0.2,0.2-0.2
		c0.1,0,0.1,0,0.2,0c0.1,0,0.1,0,0.2,0c0.1,0,0.1,0.1,0.1,0.1c0,0,0.1,0.1,0.1,0.1l0.9,2.2c0,0.1,0,0.2,0,0.3c0,0.1-0.1,0.2-0.2,0.2
		C214.7,188.6,214.6,188.7,214.5,188.7z"/>
	
		<linearGradient id="SVGID_29_" gradientUnits="userSpaceOnUse" x1="243.3937" y1="108.7111" x2="243.3937" y2="105.8177" gradientTransform="matrix(1 0 0 -1 0 274)">
		<stop  offset="0" style="stop-color:#2755A3"/>
		<stop  offset="1" style="stop-color:#2755A3;stop-opacity:0"/>
	</linearGradient>
	<path class="st39" d="M242.4,168.2c-0.1,0-0.1,0-0.2,0c-0.1,0-0.1-0.1-0.1-0.1c0,0-0.1-0.1-0.1-0.1c0-0.1,0-0.1,0-0.2s0-0.1,0-0.2
		c0-0.1,0.1-0.1,0.1-0.1l1.9-2c0,0,0.1-0.1,0.1-0.1c0.1,0,0.1,0,0.2,0c0.1,0,0.1,0,0.2,0c0.1,0,0.1,0.1,0.2,0.1c0,0,0.1,0.1,0.1,0.2
		c0,0.1,0,0.1,0,0.2c0,0.1,0,0.1,0,0.2c0,0.1-0.1,0.1-0.1,0.1l-1.9,2c0,0-0.1,0.1-0.2,0.1C242.6,168.2,242.5,168.2,242.4,168.2z"/>
	
		<linearGradient id="SVGID_30_" gradientUnits="userSpaceOnUse" x1="234.4138" y1="102.619" x2="234.4138" y2="99.971" gradientTransform="matrix(1 0 0 -1 0 274)">
		<stop  offset="0" style="stop-color:#2755A3"/>
		<stop  offset="1" style="stop-color:#2755A3;stop-opacity:0"/>
	</linearGradient>
	<path class="st40" d="M235.3,174c-0.1,0-0.2,0-0.3-0.1l-1.8-1.8c-0.1-0.1-0.1-0.2-0.1-0.3c0-0.1,0-0.2,0.1-0.3
		c0.1-0.1,0.2-0.1,0.3-0.1c0.1,0,0.2,0,0.3,0.1l1.8,1.7c0,0,0.1,0.1,0.1,0.1c0,0.1,0,0.1,0,0.2c0,0.1,0,0.1,0,0.2
		c0,0.1-0.1,0.1-0.1,0.1c0,0-0.1,0.1-0.1,0.1C235.4,174,235.4,174,235.3,174z"/>
	
		<linearGradient id="SVGID_31_" gradientUnits="userSpaceOnUse" x1="240.5067" y1="101.6708" x2="240.5067" y2="99.0853" gradientTransform="matrix(1 0 0 -1 0 274)">
		<stop  offset="0" style="stop-color:#2755A3"/>
		<stop  offset="1" style="stop-color:#2755A3;stop-opacity:0"/>
	</linearGradient>
	<path class="st41" d="M239.7,174.9c-0.1,0-0.2,0-0.3-0.1c0,0-0.1-0.1-0.1-0.1c0-0.1,0-0.1,0-0.2s0-0.1,0-0.2c0-0.1,0.1-0.1,0.1-0.1
		l1.7-1.7c0,0,0.1-0.1,0.1-0.1c0.1,0,0.1,0,0.2,0c0.1,0,0.1,0,0.2,0s0.1,0.1,0.1,0.1c0.1,0.1,0.1,0.2,0.1,0.3c0,0.1,0,0.2-0.1,0.3
		l-1.7,1.7C239.9,174.9,239.8,174.9,239.7,174.9z"/>
	
		<linearGradient id="SVGID_32_" gradientUnits="userSpaceOnUse" x1="241.818" y1="114.2845" x2="241.818" y2="111.7176" gradientTransform="matrix(1 0 0 -1 0 274)">
		<stop  offset="0" style="stop-color:#2755A3"/>
		<stop  offset="1" style="stop-color:#2755A3;stop-opacity:0"/>
	</linearGradient>
	<path class="st42" d="M241,162.3c-0.1,0-0.2,0-0.3-0.1c-0.1-0.1-0.1-0.2-0.1-0.3s0-0.2,0.1-0.3l1.7-1.7c0.1-0.1,0.2-0.1,0.3-0.1
		c0.1,0,0.2,0,0.3,0.1c0.1,0.1,0.1,0.2,0.1,0.3c0,0.1,0,0.2-0.1,0.3l-1.7,1.7c0,0-0.1,0.1-0.2,0.1
		C241.1,162.3,241.1,162.3,241,162.3z"/>
	
		<linearGradient id="SVGID_33_" gradientUnits="userSpaceOnUse" x1="235.1457" y1="110.2299" x2="235.1457" y2="108.8716" gradientTransform="matrix(1 0 0 -1 0 274)">
		<stop  offset="0" style="stop-color:#2755A3"/>
		<stop  offset="1" style="stop-color:#2755A3;stop-opacity:0"/>
	</linearGradient>
	<path class="st43" d="M236.3,165.1L236.3,165.1l-2.4-0.5c-0.1,0-0.1,0-0.2-0.1c0,0-0.1-0.1-0.1-0.1c0,0-0.1-0.1-0.1-0.2
		s0-0.1,0-0.2c0-0.1,0-0.1,0.1-0.2c0,0,0.1-0.1,0.1-0.1c0,0,0.1-0.1,0.2-0.1c0.1,0,0.1,0,0.2,0l2.3,0.5c0.1,0,0.2,0.1,0.3,0.2
		c0.1,0.1,0.1,0.2,0.1,0.3c0,0.1-0.1,0.2-0.1,0.3S236.4,165.1,236.3,165.1L236.3,165.1z"/>
	
		<linearGradient id="SVGID_34_" gradientUnits="userSpaceOnUse" x1="227.7569" y1="94.743" x2="227.7569" y2="93.5995" gradientTransform="matrix(1 0 0 -1 0 274)">
		<stop  offset="0" style="stop-color:#2755A3"/>
		<stop  offset="1" style="stop-color:#2755A3;stop-opacity:0"/>
	</linearGradient>
	<path class="st44" d="M226.4,180.4c-0.1,0-0.2,0-0.3-0.1c-0.1-0.1-0.1-0.2-0.1-0.3c0-0.1,0-0.2,0.1-0.3c0.1-0.1,0.2-0.1,0.3-0.2
		l2.7-0.3c0.1,0,0.2,0,0.3,0.1c0.1,0.1,0.1,0.2,0.1,0.3c0,0.1,0,0.2-0.1,0.3c-0.1,0.1-0.2,0.2-0.3,0.2L226.4,180.4L226.4,180.4z"/>
	
		<linearGradient id="SVGID_35_" gradientUnits="userSpaceOnUse" x1="214.8156" y1="99.1012" x2="214.8156" y2="95.6933" gradientTransform="matrix(1 0 0 -1 0 274)">
		<stop  offset="0" style="stop-color:#2755A3"/>
		<stop  offset="1" style="stop-color:#2755A3;stop-opacity:0"/>
	</linearGradient>
	<path class="st45" d="M214.9,178.3c-0.1,0-0.2,0-0.3-0.1c-0.1-0.1-0.1-0.2-0.1-0.3l-0.2-2.5c0-0.1,0-0.1,0-0.2c0-0.1,0-0.1,0.1-0.2
		s0.1-0.1,0.1-0.1c0.1,0,0.1,0,0.2,0c0.1,0,0.2,0,0.3,0.1c0.1,0.1,0.1,0.2,0.2,0.3l0.2,2.5c0,0.1,0,0.2-0.1,0.3
		C215.2,178.2,215.1,178.3,214.9,178.3L214.9,178.3z"/>
	
		<linearGradient id="SVGID_36_" gradientUnits="userSpaceOnUse" x1="219.9578" y1="91.6602" x2="219.9578" y2="90.5757" gradientTransform="matrix(1 0 0 -1 0 274)">
		<stop  offset="0" style="stop-color:#2755A3"/>
		<stop  offset="1" style="stop-color:#2755A3;stop-opacity:0"/>
	</linearGradient>
	<path class="st46" d="M218.8,183.4c-0.1,0-0.2,0-0.3-0.1c-0.1-0.1-0.1-0.2-0.1-0.3c0-0.1,0-0.2,0.1-0.3c0.1-0.1,0.2-0.1,0.3-0.1
		l2.4-0.2c0.1,0,0.1,0,0.2,0c0.1,0,0.1,0,0.2,0.1c0,0,0.1,0.1,0.1,0.1c0,0.1,0,0.1,0.1,0.2c0,0.1,0,0.1,0,0.2c0,0.1-0.1,0.1-0.1,0.2
		c0,0-0.1,0.1-0.2,0.1c-0.1,0-0.1,0-0.2,0L218.8,183.4L218.8,183.4z"/>
	
		<linearGradient id="SVGID_37_" gradientUnits="userSpaceOnUse" x1="228.1236" y1="101.8827" x2="228.1236" y2="100.7965" gradientTransform="matrix(1 0 0 -1 0 274)">
		<stop  offset="0" style="stop-color:#2755A3"/>
		<stop  offset="1" style="stop-color:#2755A3;stop-opacity:0"/>
	</linearGradient>
	<path class="st47" d="M226.9,173.2c-0.1,0-0.2,0-0.3-0.1s-0.1-0.2-0.1-0.3c0-0.1,0-0.2,0.1-0.3c0.1-0.1,0.2-0.1,0.3-0.1l2.4-0.2
		c0.1,0,0.1,0,0.2,0c0.1,0,0.1,0,0.2,0.1c0,0,0.1,0.1,0.1,0.1c0,0.1,0,0.1,0,0.2c0,0.1,0,0.2-0.1,0.3c-0.1,0.1-0.2,0.1-0.3,0.2
		L226.9,173.2L226.9,173.2z"/>
	
		<linearGradient id="SVGID_38_" gradientUnits="userSpaceOnUse" x1="220.8097" y1="104.5121" x2="220.8097" y2="101.7327" gradientTransform="matrix(1 0 0 -1 0 274)">
		<stop  offset="0" style="stop-color:#2755A3"/>
		<stop  offset="1" style="stop-color:#2755A3;stop-opacity:0"/>
	</linearGradient>
	<path class="st48" d="M221.5,172.3c-0.1,0-0.1,0-0.2,0c-0.1,0-0.1-0.1-0.2-0.1l-1.5-1.9c-0.1-0.1-0.1-0.2-0.1-0.3
		c0-0.1,0.1-0.2,0.2-0.3c0,0,0.1-0.1,0.2-0.1c0.1,0,0.1,0,0.2,0c0.1,0,0.1,0,0.2,0.1c0.1,0,0.1,0.1,0.1,0.1l1.5,1.9
		c0,0,0.1,0.1,0.1,0.2c0,0.1,0,0.1,0,0.2c0,0.1,0,0.1-0.1,0.2c0,0.1-0.1,0.1-0.1,0.1C221.7,172.2,221.6,172.3,221.5,172.3z"/>
	
		<linearGradient id="SVGID_39_" gradientUnits="userSpaceOnUse" x1="240.3988" y1="128.9293" x2="240.3988" y2="127.8229" gradientTransform="matrix(1 0 0 -1 0 274)">
		<stop  offset="0" style="stop-color:#2755A3"/>
		<stop  offset="1" style="stop-color:#2755A3;stop-opacity:0"/>
	</linearGradient>
	<path class="st49" d="M241.3,146.2L241.3,146.2l-2-0.2c-0.1,0-0.2-0.1-0.3-0.2c-0.1-0.1-0.1-0.2-0.1-0.3c0-0.1,0.1-0.2,0.2-0.3
		c0.1-0.1,0.2-0.1,0.3-0.1l2,0.2c0.1,0,0.2,0.1,0.3,0.2c0.1,0.1,0.1,0.2,0.1,0.3c0,0.1-0.1,0.2-0.1,0.3
		C241.6,146.1,241.5,146.2,241.3,146.2L241.3,146.2z"/>
	
		<linearGradient id="SVGID_40_" gradientUnits="userSpaceOnUse" x1="237.9495" y1="124.7478" x2="237.9495" y2="123.8481" gradientTransform="matrix(1 0 0 -1 0 274)">
		<stop  offset="0" style="stop-color:#2755A3"/>
		<stop  offset="1" style="stop-color:#2755A3;stop-opacity:0"/>
	</linearGradient>
	<path class="st50" d="M239.2,150.2h-2.5c-0.1,0-0.2,0-0.3-0.1c-0.1-0.1-0.1-0.2-0.1-0.3c0-0.1,0-0.2,0.1-0.3
		c0.1-0.1,0.2-0.1,0.3-0.1h2.5c0.1,0,0.2,0,0.3,0.1c0.1,0.1,0.1,0.2,0.1,0.3c0,0.1,0,0.2-0.1,0.3S239.3,150.2,239.2,150.2
		L239.2,150.2z"/>
	
		<linearGradient id="SVGID_41_" gradientUnits="userSpaceOnUse" x1="245.2756" y1="120.6257" x2="245.2756" y2="117.3587" gradientTransform="matrix(1 0 0 -1 0 274)">
		<stop  offset="0" style="stop-color:#2755A3"/>
		<stop  offset="1" style="stop-color:#2755A3;stop-opacity:0"/>
	</linearGradient>
	<path class="st51" d="M245.3,156.6c-0.1,0-0.2-0.1-0.3-0.1c-0.1-0.1-0.1-0.2-0.1-0.3v-2.4c0-0.1,0-0.2,0.1-0.3
		c0.1-0.1,0.2-0.1,0.3-0.1c0.1,0,0.2,0,0.3,0.1s0.1,0.2,0.1,0.3v2.4c0,0.1,0,0.1,0,0.2c0,0.1-0.1,0.1-0.1,0.1c0,0-0.1,0.1-0.2,0.1
		C245.4,156.6,245.3,156.6,245.3,156.6z"/>
	
		<linearGradient id="SVGID_42_" gradientUnits="userSpaceOnUse" x1="236.1381" y1="136.2971" x2="236.1381" y2="133.0365" gradientTransform="matrix(1 0 0 -1 0 274)">
		<stop  offset="0" style="stop-color:#2755A3"/>
		<stop  offset="1" style="stop-color:#2755A3;stop-opacity:0"/>
	</linearGradient>
	<path class="st52" d="M236.1,141c-0.1,0-0.2,0-0.3-0.1c-0.1-0.1-0.1-0.2-0.1-0.3v-2.4c0-0.1,0-0.1,0-0.2c0-0.1,0.1-0.1,0.1-0.1
		s0.1-0.1,0.1-0.1c0.1,0,0.1,0,0.2,0c0.1,0,0.1,0,0.2,0c0.1,0,0.1,0.1,0.1,0.1c0,0,0.1,0.1,0.1,0.1c0,0.1,0,0.1,0,0.2v2.4
		c0,0.1,0,0.1,0,0.2c0,0.1-0.1,0.1-0.1,0.1c0,0-0.1,0.1-0.1,0.1C236.3,141,236.2,141,236.1,141z"/>
	
		<linearGradient id="SVGID_43_" gradientUnits="userSpaceOnUse" x1="237.2829" y1="116.8454" x2="237.2829" y2="114.6527" gradientTransform="matrix(1 0 0 -1 0 274)">
		<stop  offset="0" style="stop-color:#2755A3"/>
		<stop  offset="1" style="stop-color:#2755A3;stop-opacity:0"/>
	</linearGradient>
	<path class="st53" d="M236.3,159.3c-0.1,0-0.2,0-0.3-0.1c-0.1-0.1-0.1-0.1-0.2-0.2c0-0.1,0-0.2,0-0.3c0-0.1,0.1-0.2,0.2-0.2l2-1.3
		c0,0,0.1-0.1,0.2-0.1c0.1,0,0.1,0,0.2,0c0.1,0,0.1,0,0.2,0.1s0.1,0.1,0.1,0.1c0.1,0.1,0.1,0.2,0.1,0.3c0,0.1-0.1,0.2-0.2,0.3
		l-2,1.3C236.5,159.3,236.4,159.3,236.3,159.3z"/>
	
		<linearGradient id="SVGID_44_" gradientUnits="userSpaceOnUse" x1="175.0179" y1="119.029" x2="175.0179" y2="117.9713" gradientTransform="matrix(1 0 0 -1 0 274)">
		<stop  offset="0" style="stop-color:#2755A3"/>
		<stop  offset="1" style="stop-color:#2755A3;stop-opacity:0"/>
	</linearGradient>
	<path class="st54" d="M173.6,156c-0.1,0-0.2,0-0.3-0.1c-0.1-0.1-0.1-0.2-0.1-0.3c0-0.1,0-0.2,0.1-0.3s0.2-0.1,0.3-0.1l2.7-0.2
		c0.1,0,0.1,0,0.2,0c0.1,0,0.1,0,0.2,0.1c0,0,0.1,0.1,0.1,0.1c0,0.1,0,0.1,0,0.2c0,0.1,0,0.1,0,0.2c0,0.1,0,0.1-0.1,0.2
		c0,0-0.1,0.1-0.1,0.1c-0.1,0-0.1,0-0.2,0L173.6,156L173.6,156z"/>
	
		<linearGradient id="SVGID_45_" gradientUnits="userSpaceOnUse" x1="180.5923" y1="113.2388" x2="180.5923" y2="109.8303" gradientTransform="matrix(1 0 0 -1 0 274)">
		<stop  offset="0" style="stop-color:#2755A3"/>
		<stop  offset="1" style="stop-color:#2755A3;stop-opacity:0"/>
	</linearGradient>
	<path class="st55" d="M180.6,164.2c-0.1,0-0.2,0-0.3-0.1c-0.1-0.1-0.1-0.2-0.1-0.3l-0.1-2.5c0-0.1,0-0.2,0.1-0.3
		c0.1-0.1,0.2-0.1,0.3-0.1c0.1,0,0.1,0,0.2,0c0.1,0,0.1,0,0.2,0.1s0.1,0.1,0.1,0.1c0,0.1,0,0.1,0,0.2l0.1,2.5c0,0.1,0,0.1,0,0.2
		c0,0.1-0.1,0.1-0.1,0.2c0,0-0.1,0.1-0.1,0.1S180.7,164.2,180.6,164.2L180.6,164.2z"/>
	
		<linearGradient id="SVGID_46_" gradientUnits="userSpaceOnUse" x1="175.4201" y1="126.2771" x2="175.4201" y2="123.5608" gradientTransform="matrix(1 0 0 -1 0 274)">
		<stop  offset="0" style="stop-color:#2755A3"/>
		<stop  offset="1" style="stop-color:#2755A3;stop-opacity:0"/>
	</linearGradient>
	<path class="st56" d="M174.6,150.4c-0.1,0-0.2,0-0.3-0.1c-0.1-0.1-0.1-0.2-0.2-0.3c0-0.1,0-0.2,0.1-0.3l1.6-1.8
		c0-0.1,0.1-0.1,0.1-0.1c0.1,0,0.1-0.1,0.2-0.1c0.1,0,0.1,0,0.2,0c0.1,0,0.1,0.1,0.2,0.1c0,0,0.1,0.1,0.1,0.2c0,0.1,0,0.1,0,0.2
		c0,0.1,0,0.1,0,0.2c0,0.1-0.1,0.1-0.1,0.2l-1.6,1.8c0,0-0.1,0.1-0.1,0.1C174.7,150.4,174.7,150.4,174.6,150.4z"/>
	
		<linearGradient id="SVGID_47_" gradientUnits="userSpaceOnUse" x1="182.0827" y1="119.8938" x2="182.0827" y2="117.064" gradientTransform="matrix(1 0 0 -1 0 274)">
		<stop  offset="0" style="stop-color:#2755A3"/>
		<stop  offset="1" style="stop-color:#2755A3;stop-opacity:0"/>
	</linearGradient>
	<path class="st57" d="M182.8,156.9c-0.1,0-0.1,0-0.2,0c-0.1,0-0.1-0.1-0.2-0.1l-1.4-1.9c0,0-0.1-0.1-0.1-0.2c0-0.1,0-0.1,0-0.2
		c0-0.1,0-0.1,0.1-0.2c0,0,0.1-0.1,0.1-0.1c0.1-0.1,0.2-0.1,0.3-0.1c0.1,0,0.2,0.1,0.3,0.2l1.4,1.9c0,0,0.1,0.1,0.1,0.2
		c0,0.1,0,0.1,0,0.2c0,0.1,0,0.1-0.1,0.2c0,0.1-0.1,0.1-0.1,0.1C183,156.9,182.9,156.9,182.8,156.9z"/>
	
		<linearGradient id="SVGID_48_" gradientUnits="userSpaceOnUse" x1="185.5589" y1="137.2718" x2="185.5589" y2="134.9097" gradientTransform="matrix(1 0 0 -1 0 274)">
		<stop  offset="0" style="stop-color:#2755A3"/>
		<stop  offset="1" style="stop-color:#2755A3;stop-opacity:0"/>
	</linearGradient>
	<path class="st58" d="M186.2,139.1c-0.1,0-0.1,0-0.2,0s-0.1-0.1-0.2-0.1l-1.3-1.5c-0.1-0.1-0.1-0.2-0.1-0.3c0-0.1,0.1-0.2,0.2-0.3
		c0.1-0.1,0.2-0.1,0.3-0.1c0.1,0,0.2,0.1,0.3,0.1l1.3,1.5c0,0,0.1,0.1,0.1,0.2c0,0.1,0,0.1,0,0.2c0,0.1,0,0.1,0,0.2
		c0,0.1-0.1,0.1-0.1,0.1C186.4,139.1,186.3,139.1,186.2,139.1z"/>
	
		<linearGradient id="SVGID_49_" gradientUnits="userSpaceOnUse" x1="181.0117" y1="136.0804" x2="181.0117" y2="133.4714" gradientTransform="matrix(1 0 0 -1 0 274)">
		<stop  offset="0" style="stop-color:#2755A3"/>
		<stop  offset="1" style="stop-color:#2755A3;stop-opacity:0"/>
	</linearGradient>
	<path class="st59" d="M181.9,140.5c-0.1,0-0.2,0-0.3-0.1l-1.8-1.7c0,0-0.1-0.1-0.1-0.1c0-0.1,0-0.1,0-0.2c0-0.1,0-0.1,0-0.2
		c0-0.1,0.1-0.1,0.1-0.1c0.1-0.1,0.2-0.1,0.3-0.1c0.1,0,0.2,0,0.3,0.1l1.8,1.7c0.1,0.1,0.1,0.2,0.1,0.3c0,0.1,0,0.2-0.1,0.3
		C182.2,140.5,182,140.5,181.9,140.5z"/>
	
		<linearGradient id="SVGID_50_" gradientUnits="userSpaceOnUse" x1="182.6759" y1="127.2052" x2="182.6759" y2="124.5859" gradientTransform="matrix(1 0 0 -1 0 274)">
		<stop  offset="0" style="stop-color:#2755A3"/>
		<stop  offset="1" style="stop-color:#2755A3;stop-opacity:0"/>
	</linearGradient>
	<path class="st60" d="M181.8,149.4c-0.1,0-0.2,0-0.3-0.1c-0.1-0.1-0.1-0.2-0.1-0.3c0-0.1,0-0.2,0.1-0.3l1.6-1.7
		c0.1-0.1,0.2-0.1,0.3-0.1c0.1,0,0.2,0,0.3,0.1c0.1,0.1,0.1,0.2,0.1,0.3c0,0.1,0,0.2-0.1,0.3l-1.6,1.7c0,0-0.1,0.1-0.2,0.1
		C182,149.4,181.9,149.4,181.8,149.4z"/>
	
		<linearGradient id="SVGID_51_" gradientUnits="userSpaceOnUse" x1="186.7795" y1="144.8809" x2="186.7795" y2="142.2693" gradientTransform="matrix(1 0 0 -1 0 274)">
		<stop  offset="0" style="stop-color:#2755A3"/>
		<stop  offset="1" style="stop-color:#2755A3;stop-opacity:0"/>
	</linearGradient>
	<path class="st61" d="M186,131.7c-0.1,0-0.2,0-0.3-0.1c-0.1-0.1-0.1-0.2-0.1-0.3c0-0.1,0-0.2,0.1-0.3l1.6-1.7c0,0,0.1-0.1,0.1-0.1
		c0.1,0,0.1,0,0.2,0s0.1,0,0.2,0c0.1,0,0.1,0.1,0.1,0.1c0.1,0.1,0.1,0.2,0.1,0.3c0,0.1,0,0.2-0.1,0.3l-1.6,1.7
		C186.2,131.7,186.1,131.7,186,131.7z"/>
	
		<linearGradient id="SVGID_52_" gradientUnits="userSpaceOnUse" x1="177.9422" y1="130.565" x2="177.9422" y2="129.2464" gradientTransform="matrix(1 0 0 -1 0 274)">
		<stop  offset="0" style="stop-color:#2755A3"/>
		<stop  offset="1" style="stop-color:#2755A3;stop-opacity:0"/>
	</linearGradient>
	<path class="st62" d="M179.1,144.8L179.1,144.8l-2.4-0.4c-0.1,0-0.1,0-0.2-0.1c0,0-0.1-0.1-0.1-0.1c0,0-0.1-0.1-0.1-0.2
		c0-0.1,0-0.1,0-0.2c0-0.1,0.1-0.2,0.2-0.3c0.1-0.1,0.2-0.1,0.3-0.1l2.3,0.4c0.1,0,0.1,0,0.2,0.1c0,0,0.1,0.1,0.1,0.1
		c0,0,0.1,0.1,0.1,0.2c0,0.1,0,0.1,0,0.2c0,0.1-0.1,0.2-0.2,0.3S179.2,144.8,179.1,144.8z"/>
	
		<linearGradient id="SVGID_53_" gradientUnits="userSpaceOnUse" x1="195.1304" y1="74.4883" x2="195.1304" y2="71.3808" gradientTransform="matrix(1 0 0 -1 0 274)">
		<stop  offset="0" style="stop-color:#2755A3"/>
		<stop  offset="1" style="stop-color:#2755A3;stop-opacity:0"/>
	</linearGradient>
	<path class="st63" d="M195.6,202.6c-0.1,0-0.2,0-0.3-0.1c-0.1,0-0.1-0.1-0.2-0.2l-0.9-2.2c0-0.1,0-0.1,0-0.2c0-0.1,0-0.1,0-0.2
		c0-0.1,0.1-0.1,0.1-0.1c0,0,0.1-0.1,0.1-0.1c0.1,0,0.2,0,0.3,0c0.1,0,0.2,0.1,0.2,0.2l0.9,2.2c0,0.1,0,0.1,0,0.2c0,0.1,0,0.1,0,0.2
		c0,0.1-0.1,0.1-0.1,0.1c0,0-0.1,0.1-0.1,0.1C195.7,202.6,195.6,202.6,195.6,202.6z"/>
	<path class="st2" d="M132.8,225.2c-0.1,0-0.1,0-0.2,0c-0.1,0-0.1-0.1-0.2-0.1c0,0-0.1-0.1-0.1-0.2c0-0.1,0-0.1,0-0.2
		c0-0.1,0-0.1,0-0.2c0-0.1,0.1-0.1,0.1-0.2c0,0,0.1-0.1,0.2-0.1c0.1,0,0.1,0,0.2,0c0,0,4.7,0,7.6-2.3c2.9-2.3,4.5-6.3,4.5-6.3
		c0-0.1,0.1-0.2,0.2-0.2c0.1,0,0.2,0,0.3,0c0.1,0,0.2,0.1,0.2,0.2c0.1,0.1,0.1,0.2,0,0.3c-0.1,0.2-1.6,4.3-4.8,6.7
		C137.8,225.1,133,225.2,132.8,225.2z"/>
	<path class="st0" d="M101.9,188.1c-0.1,0.7-0.3,1.3-0.6,1.9c-0.3,0.6-0.7,1.1-1.2,1.5c-1,0.9-2.1,1.5-3.4,1.8
		c-1.5-1.5-2.8-3.3-3.9-5.2c-1.8-3.1-1.8-5.5-1.7-6c0.4-1.5,1.2-1.1,1.2-1.1s0.5-1,1.3-1c0.6,0,0.8,0.9,0.8,0.9
		c0.1-0.2,0.3-0.3,0.5-0.3s0.4,0,0.6,0c0.6,0.3,0.5,2.7,1.1,3.7c0.3,0.6,0.7,1.1,1.2,1.7c0,0,0.1-1.8,0.8-1.6
		c0.7,0.2,0.9,1.4,1.7,2.3C100.8,187.1,101.3,187.6,101.9,188.1z"/>
</g>
</svg>
