<?xml version="1.0" encoding="utf-8"?>
<!-- Generator: Adobe Illustrator 25.2.3, SVG Export Plug-In . SVG Version: 6.00 Build 0)  -->
<svg version="1.1" id="Layer_1" xmlns="http://www.w3.org/2000/svg" xmlns:xlink="http://www.w3.org/1999/xlink" x="0px" y="0px"
	 viewBox="0 0 375 404" style="enable-background:new 0 0 375 404;" xml:space="preserve">
<style type="text/css">
	.st0{fill:#80A6E7;}
	.st1{fill:#2755A3;}
	.st2{fill:#FFFFFF;}
	.st3{fill:#F1C4D9;}
	.st4{fill:#827CE0;}
	.st5{fill:#EF6744;}
	.st6{fill:#151E27;}
	.st7{fill:url(#SVGID_1_);}
	.st8{fill:none;stroke:#000000;stroke-width:0.5;stroke-linecap:round;stroke-linejoin:round;}
	.st9{fill:#260933;}
</style>
<g>
	<path class="st0" d="M220.2,232.8c0-7.4-4.7-20.1,6.1-35.6c9-13,48.8-39.6,28.8-87.3c-20-47.7-66.9-45.7-107.1-13.7
		c-36.3,28.9-57.4,70.7-50.5,116.4c6.1,40,23.9,69.9,56.5,77.5C182.5,296.8,220,276.7,220.2,232.8z"/>
	<path class="st1" d="M253.1,138.8l-4.1,2.8c-0.2,0.1-0.4,0.3-0.5,0.5c-0.1,0.2-0.2,0.5-0.3,0.7c-0.1,0.3-0.1,0.5,0,0.8
		c0,0.3,0.1,0.5,0.3,0.7l14.6,23.6c0.3,0.4,0.7,0.7,1.1,0.8c0.5,0.1,0.9,0,1.3-0.3c3.7-2.5,7.6-4.8,11.7-6.8c3.9-1.7,8-3,12.1-4
		c0.1,0,0.1,0,0.2,0c0.1,0,0.1,0.1,0.2,0.1c0.3,0.4,1.4,1,3.3,0.5c0.5-0.1,0.9-0.3,1.3-0.6c0.4-0.3,0.7-0.7,0.9-1.2
		c0.1,0,7.9-2.4,12.2-2.7c2.3-0.1,4.7-0.4,6.4-0.6c0.3,0,0.5-0.1,0.8-0.3c0.2-0.2,0.4-0.4,0.5-0.7c0.1-0.3,0.2-0.6,0.2-0.9
		s-0.1-0.6-0.2-0.9l-6.7-13.2L253.1,138.8z"/>
	<path class="st2" d="M306.1,127.6l10.8,21.6c0,0-8.3-1.4-12.6-0.4c-8.3,2-12.4,5.4-12.4,5.4s1.8-10.9,4.3-16.3
		C298.7,132.7,306.1,127.6,306.1,127.6z"/>
	<path class="st3" d="M291.8,155.1c-0.1,0-0.2,0-0.4-0.1c-0.1-0.1-0.2-0.2-0.3-0.3c-0.1-0.1-0.1-0.3-0.1-0.4
		c0.1-0.4,1.8-11.1,4.4-16.5c2.5-5.4,9.9-10.5,10.2-10.7c0.1-0.1,0.2-0.1,0.3-0.1c0.1,0,0.2,0,0.3,0c0.1,0,0.2,0.1,0.3,0.1
		c0.1,0.1,0.1,0.1,0.2,0.2l10.7,21.6c0.1,0.1,0.1,0.3,0.1,0.4c0,0.1-0.1,0.3-0.1,0.4c-0.1,0.1-0.2,0.2-0.3,0.3
		c-0.1,0.1-0.2,0.1-0.4,0.1c-0.1,0-8.2-1.4-12.4-0.4c-7.9,1.9-12.1,5.3-12.1,5.3C292.1,155,292,155.1,291.8,155.1z M305.8,128.7
		c-1.8,1.3-7.1,5.5-9.1,9.7c-1.8,4-3.3,11.1-3.9,14.3c3.5-2.1,7.3-3.7,11.2-4.6c3.4-0.8,9-0.2,11.5,0.2L305.8,128.7z"/>
	<path class="st2" d="M265.2,164.8c3.6-2.8,7.5-5.2,11.6-7.1c4.8-1.8,9.9-2.9,15-3.3l-11.9-20.5c-5-1.8-10.4-2.1-15.6-1
		c-5.5,1.2-10.8,3.4-15.6,6.6L265.2,164.8z"/>
	<path class="st3" d="M265.2,165.6H265c-0.2,0-0.3-0.1-0.4-0.3l-16.5-25.4c-0.1-0.2-0.1-0.4-0.1-0.6c0-0.2,0.1-0.4,0.3-0.5
		c4.9-3.3,10.2-5.5,15.9-6.7c5.3-1.2,10.8-0.9,16,1c0.1,0.1,0.3,0.2,0.3,0.3l11.9,20.5c0.1,0.1,0.1,0.2,0.1,0.4c0,0.1,0,0.3-0.1,0.4
		c-0.1,0.1-0.1,0.2-0.2,0.3c-0.1,0.1-0.2,0.1-0.3,0.1c-5,0.4-10,1.4-14.8,3.2c-4,1.9-7.8,4.3-11.4,7
		C265.5,165.5,265.3,165.6,265.2,165.6z M249.7,139.7l15.7,24.1c3.5-2.7,7.2-4.9,11.1-6.8c4.5-1.7,9.3-2.8,14.1-3.3l-11.1-19.3
		c-4.8-1.7-10-2-15-0.9C259.2,134.7,254.2,136.8,249.7,139.7L249.7,139.7z"/>
	<path class="st2" d="M312.3,133.6c-4,2.2-7.7,4.9-11.1,7.9c-3.7,3.8-6.9,8.2-9.5,12.9l-11.9-20.5c0.9-5.3,2.9-10.3,5.9-14.7
		c3.2-4.2,7.2-7.6,11.8-9.8L312.3,133.6z"/>
	<path class="st3" d="M291.7,155.1c-0.1,0-0.2,0-0.3-0.1c-0.1-0.1-0.2-0.2-0.3-0.3l-11.9-20.6c-0.1-0.2-0.1-0.3-0.1-0.5
		c0.9-5.4,3-10.6,6-15c3.2-4.3,7.3-7.7,12-10c0.1-0.1,0.3-0.1,0.5,0c0.2,0.1,0.3,0.2,0.4,0.3l14.8,24.2c0.1,0.1,0.1,0.2,0.1,0.3
		c0,0.1,0,0.2,0,0.3c0,0.1-0.1,0.2-0.1,0.3c-0.1,0.1-0.1,0.1-0.2,0.2c-3.9,2.2-7.6,4.8-11,7.8c-3.6,3.8-6.8,8-9.3,12.7
		c-0.1,0.1-0.1,0.2-0.2,0.3C291.9,155,291.8,155,291.7,155.1L291.7,155.1z M280.6,133.6l11.2,19.3c2.5-4.4,5.5-8.5,9-12
		c3.3-2.9,6.8-5.5,10.6-7.6l-14.1-23c-4.3,2.2-8,5.3-11,9.3C283.4,123.7,281.5,128.6,280.6,133.6z"/>
	<path class="st4" d="M221.4,117.5l-21.6-11.6l19.6-32L241.3,85L221.4,117.5z"/>
	<path class="st2" d="M221.4,118.2c-0.1,0-0.2,0-0.3-0.1l-21.6-11.6c-0.1,0-0.2-0.1-0.2-0.2c-0.1-0.1-0.1-0.2-0.1-0.3
		c0-0.1,0-0.2,0-0.3c0-0.1,0.1-0.2,0.1-0.3l19.6-32c0.1-0.1,0.2-0.3,0.4-0.3c0.2,0,0.3,0,0.5,0.1l21.8,11.2c0.1,0,0.2,0.1,0.2,0.2
		c0.1,0.1,0.1,0.2,0.1,0.3c0,0.1,0,0.2,0,0.3c0,0.1,0,0.2-0.1,0.3L222,117.8c-0.1,0.1-0.1,0.2-0.2,0.2
		C221.6,118.2,221.5,118.2,221.4,118.2z M200.8,105.5l20.3,11l19.1-31.2l-20.6-10.6L200.8,105.5z"/>
	<path class="st4" d="M223,79.2c-1.3-1.8-2.6-3.6-3.8-5.5l-19.6,31.9l3.4,6L223,79.2z"/>
	<path class="st2" d="M203.1,112.4c-0.1,0-0.2,0-0.3-0.1c-0.1-0.1-0.2-0.1-0.2-0.3l-3.4-6.1c-0.1-0.1-0.1-0.3-0.1-0.4
		c0-0.1,0-0.3,0.1-0.4l19.6-31.9c0.1-0.1,0.1-0.2,0.2-0.2c0.1-0.1,0.2-0.1,0.3-0.1c0.1,0,0.2,0,0.3,0.1c0.1,0.1,0.2,0.1,0.2,0.2
		c1.4,2.3,3.1,4.8,3.5,5.3h0.1c0.1,0.1,0.2,0.3,0.3,0.5c0,0.2,0,0.4-0.1,0.5l-19.9,32.4c-0.1,0.1-0.1,0.2-0.2,0.2
		C203.4,112.4,203.3,112.4,203.1,112.4z M200.5,105.6l2.7,4.7l19-31c-0.5-0.6-1.3-1.9-2.9-4.3L200.5,105.6z"/>
	<path class="st4" d="M224.7,122.1l-21.6-10.5L223,79.2l21.6,10.5L224.7,122.1z"/>
	<path class="st2" d="M224.7,122.8c-0.1,0-0.2,0-0.3-0.1l-21.6-10.5c-0.1,0-0.2-0.1-0.2-0.2c-0.1-0.1-0.1-0.2-0.1-0.3
		c0-0.1,0-0.2,0-0.3c0-0.1,0.1-0.2,0.1-0.3l19.9-32.4c0.1-0.1,0.2-0.3,0.4-0.3c0.2,0,0.3,0,0.5,0L244.9,89c0.1,0,0.2,0.1,0.2,0.2
		c0.1,0.1,0.1,0.2,0.1,0.3c0,0.1,0,0.2,0,0.3c0,0.1-0.1,0.2-0.1,0.3l-19.9,32.4c-0.1,0.1-0.1,0.2-0.2,0.2
		C225,122.8,224.8,122.8,224.7,122.8z M204.2,111.4l20.3,9.9L243.6,90l-20.3-9.9L204.2,111.4z"/>
	<path class="st3" d="M233.2,100.3l-13.9-7.1l2.6-4.2l13.9,7.1L233.2,100.3z"/>
	<path class="st4" d="M227.4,104.4L219,100l1.5-2.4l8.4,4.4L227.4,104.4z"/>
	<path class="st5" d="M297.3,271.2c0,0-2.4-4.3-5.9-10.8c-6.2-11.8-11.7-14.1-14.5-14.3c-5.4-8.8-13-15.7-23.9-15.6
		c-1.4,0.1-2.8,0.7-4,1.5c-0.2,0.1-0.5,0.1-0.8,0.1c-2.2-0.3-1.4-2-2.2-2.8c-0.4-0.5-10.1-5.9-12.7-3.2c-0.9,1-0.4,2.4,2,4.1
		s8.5,3.6,8.5,3.6c0.3,0.8,0.7,1.6,1.1,2.4c-1.3,1.9-1.9,4.2-1.6,6.5c-0.5,0.3-1.1,0.5-1.6,0.5c-2.2-0.3-1.4-1.9-2.2-2.8
		c-0.4-0.5-10.1-5.9-12.7-3.2c-0.9,1-0.4,2.4,2,4.1c2.3,1.6,8.5,3.6,8.5,3.6s4,7.6,8.7,9.5c0.9,0.5,2,0.6,3,0.3
		c1-0.3,1.9-0.9,2.5-1.8c2.9,2.4,5.9,4.7,9,6.7c0,2,0.5,7,5.6,16.2c3.6,6.5,6.5,10.9,6.5,10.9s3.5,5.8,6.4,4.1
		c2.5-1.4,3.4-4.9-2.9-7.7c-1.7-0.7-5.9-11.4-7.8-16.5c-0.1-0.2-0.2-0.4-0.2-0.6c0-0.2,0.1-0.4,0.2-0.6c1.8,2.1,3.4,4.6,4.5,7.2
		c1.7,3.8,4.9,5.7,5.5,5.4c0.5-0.3,0.8-4.1,0.8-4.1c0.6-0.1,1.3-0.3,1.9-0.6c0.6-0.3,1.5-0.9,1.5-0.9s2.6,2.4,3.1,2.1
		c0.4-0.2,0.3-1.1,0.4-2.5c0-1.8-0.2-3.6-0.6-5.3c-0.9-3.1-2.1-6.5-3.4-9.9c0.3-0.1,0.7,0,1.1,0.5c3.3,4.3,9.2,13.4,9,15.3
		c-0.7,7.2,2.9,8.8,5.3,7.1C300.4,277.8,297.3,271.2,297.3,271.2z"/>
	<path d="M280.9,269.3c-0.4,0-0.8-0.1-1.2-0.3c-0.1,0-0.1-0.1-0.1-0.2c0-0.1,0-0.2,0-0.2c0-0.1,0.1-0.1,0.2-0.1c0.1,0,0.2,0,0.2,0
		c0.2,0.1,0.3,0.2,0.5,0.2s0.4,0,0.5,0c0.2-0.1,0.3-0.2,0.4-0.3c0.1-0.1,0.2-0.3,0.2-0.5c0-0.1,0.1-0.1,0.2-0.2c0.1,0,0.2,0,0.2,0
		c0,0,0.1,0,0.1,0.1c0,0,0.1,0.1,0.1,0.1c0,0,0,0.1,0,0.1c0,0,0,0.1,0,0.1c-0.1,0.3-0.2,0.5-0.4,0.7c-0.2,0.2-0.4,0.4-0.6,0.5
		C281.1,269.2,281,269.3,280.9,269.3z"/>
	<path d="M276.1,271.7c-0.4,0-0.8-0.1-1.1-0.3c-0.1,0-0.1-0.1-0.1-0.2c0-0.1,0-0.2,0-0.2c0,0,0-0.1,0.1-0.1c0,0,0.1,0,0.1-0.1
		c0,0,0.1,0,0.1,0c0,0,0.1,0,0.1,0c0.3,0.2,0.7,0.2,1.1,0.1c0.2-0.1,0.3-0.2,0.4-0.4s0.2-0.3,0.2-0.5c0,0,0-0.1,0.1-0.1
		c0,0,0.1-0.1,0.1-0.1c0,0,0.1,0,0.1,0c0,0,0.1,0,0.1,0c0,0,0.1,0,0.1,0.1c0,0,0.1,0.1,0.1,0.1c0,0,0,0.1,0,0.1c0,0,0,0.1,0,0.1
		c-0.1,0.3-0.2,0.5-0.4,0.7c-0.2,0.2-0.4,0.4-0.6,0.5C276.4,271.7,276.3,271.7,276.1,271.7z"/>
	<path d="M276.8,268.2c-0.1,0-0.2,0-0.2-0.1c0,0-0.1-0.1-0.1-0.1c0-0.1,0-0.1,0-0.2l0.3-1.5c0,0,0-0.1,0.1-0.1c0,0,0.1-0.1,0.1-0.1
		c0,0,0.1,0,0.1,0c0,0,0.1,0,0.1,0l1.1,0.6c0,0,0.1,0.1,0.1,0.1c0,0,0,0.1,0,0.2c0,0.1,0,0.1,0,0.2c0,0.1-0.1,0.1-0.1,0.1l-1.5,0.8
		L276.8,268.2z M277.3,266.9l-0.1,0.4l0.4-0.2L277.3,266.9z"/>
	<path d="M276.5,266c-0.2,0-0.5-0.1-0.7-0.2c-0.2-0.1-0.3-0.4-0.4-0.6c0-0.2-0.1-0.3-0.1-0.5c0-0.2,0-0.3,0.1-0.5
		c0.1-0.2,0.3-0.4,0.6-0.5c0.3-0.1,0.6,0,0.8,0.1c0.2,0.1,0.4,0.4,0.5,0.7c0,0.1,0.1,0.3,0.1,0.4c0,0.1,0,0.3-0.1,0.4
		c-0.1,0.1-0.1,0.3-0.2,0.4c-0.1,0.1-0.2,0.2-0.3,0.2L276.5,266z M276.3,264.3L276.3,264.3c-0.1,0-0.2,0.1-0.2,0.1s-0.1,0.1-0.1,0.1
		c-0.1,0.1-0.1,0.3,0,0.4c0,0.1,0.1,0.2,0.2,0.3c0.1,0.1,0.2,0.1,0.3,0.1c0.1-0.1,0.2-0.2,0.2-0.3c0-0.1,0-0.2,0-0.3
		c0-0.1-0.1-0.2-0.2-0.3C276.5,264.4,276.4,264.3,276.3,264.3z"/>
	<path class="st2" d="M253.6,243.1c-1.1,0.1-2.2,0-3.2-0.3c-4.9-1.4-7.7-8.8-7.7-9.1c0-0.1,0-0.2,0-0.2c0-0.1,0-0.2,0-0.2
		c0-0.1,0.1-0.1,0.1-0.2c0.1-0.1,0.1-0.1,0.2-0.1c0.1-0.1,0.3-0.1,0.5,0c0.1,0.1,0.3,0.2,0.3,0.3c0,0.1,2.7,7.1,6.9,8.3
		c6.1,1.8,9.4-4.5,9.4-4.6c0-0.1,0.1-0.1,0.1-0.2c0.1-0.1,0.1-0.1,0.2-0.1c0.1,0,0.2,0,0.2,0c0.1,0,0.2,0,0.2,0.1
		c0.1,0.1,0.2,0.2,0.3,0.4c0,0.2,0,0.3,0,0.5C261.1,237.7,258.5,242.7,253.6,243.1z"/>
	<path class="st3" d="M191.2,323.5l-3.3-13.8l29.9-13.6l5.6,23.4L191.2,323.5z"/>
	<path class="st2" d="M190.7,323.6l-3.3-13.8c0-0.1,0-0.2,0-0.3c0-0.1,0.1-0.2,0.2-0.2l29.9-13.6c0.1,0,0.1,0,0.2,0
		c0.1,0,0.1,0,0.2,0.1c0.1,0,0.1,0.1,0.2,0.1s0.1,0.1,0.1,0.2l5.6,23.4c0,0.1,0,0.1,0,0.2c0,0.1,0,0.1-0.1,0.2
		c0,0.1-0.1,0.1-0.1,0.1c-0.1,0-0.1,0.1-0.2,0.1l-32.2,4c-0.1,0-0.1,0-0.2,0c-0.1,0-0.1,0-0.2-0.1c-0.1,0-0.1-0.1-0.1-0.1
		C190.7,323.7,190.7,323.7,190.7,323.6z M188.4,309.9l3.1,13l31.2-3.9l-5.3-22.3L188.4,309.9z"/>
	<path class="st5" d="M216.1,314.8c0-0.1,0-0.2,0-0.3c0-0.1,0.1-0.2,0.2-0.2c0.1-0.1,0.2-0.1,0.3-0.1c0.1,0,0.2,0,0.3,0.1l2.2,1.6
		c0.1,0.1,0.2,0.2,0.2,0.3c0,0.1,0,0.3-0.1,0.4s-0.2,0.2-0.3,0.2c-0.1,0-0.3,0-0.4-0.1l-2.2-1.6c0,0-0.1-0.1-0.1-0.1
		C216.1,314.9,216.1,314.8,216.1,314.8z"/>
	<path class="st5" d="M200.5,317.3c0-0.1,0-0.1,0-0.2c0-0.1,0-0.1,0.1-0.2c0.1-0.1,0.2-0.2,0.3-0.2c0.1,0,0.2,0,0.3,0.1l2.2,1.6
		c0.1,0.1,0.2,0.2,0.2,0.3c0,0.1,0,0.3-0.1,0.4c0,0.1-0.1,0.1-0.1,0.1c-0.1,0-0.1,0.1-0.2,0.1c-0.1,0-0.1,0-0.2,0
		c-0.1,0-0.1,0-0.2-0.1l-2.2-1.6C200.6,317.5,200.5,317.4,200.5,317.3z"/>
	<path class="st5" d="M214.6,308.5c0-0.1,0-0.2,0-0.2l0.7-2.9c0-0.1,0.1-0.2,0.2-0.3c0.1-0.1,0.2-0.1,0.4-0.1c0.1,0,0.2,0.1,0.3,0.2
		c0.1,0.1,0.1,0.2,0.1,0.4l-0.7,2.9c0,0.1-0.1,0.2-0.2,0.3c-0.1,0.1-0.2,0.1-0.4,0.1c-0.1,0-0.2-0.1-0.2-0.1
		C214.6,308.7,214.6,308.6,214.6,308.5z"/>
	<path class="st5" d="M205.5,314.2c0-0.1,0-0.2,0-0.2l0.7-2.9c0-0.1,0.1-0.2,0.2-0.3c0.1-0.1,0.2-0.1,0.4-0.1c0.1,0,0.1,0,0.2,0.1
		c0,0,0.1,0.1,0.1,0.1c0,0.1,0.1,0.1,0.1,0.2c0,0.1,0,0.1,0,0.2l-0.7,2.9c0,0.1-0.1,0.2-0.2,0.3c-0.1,0.1-0.2,0.1-0.4,0.1
		c-0.1,0-0.2-0.1-0.2-0.1C205.6,314.4,205.6,314.3,205.5,314.2z"/>
	<path class="st5" d="M207.8,305.9c0-0.1,0-0.1,0-0.2c0-0.1,0-0.1,0.1-0.2c0-0.1,0.1-0.1,0.1-0.1c0,0,0.1-0.1,0.2-0.1
		c0.1,0,0.1,0,0.2,0c0.1,0,0.1,0,0.2,0.1l1.6,1c0.1,0.1,0.1,0.2,0.1,0.3c0,0.1,0,0.2-0.1,0.3c-0.1,0.1-0.1,0.2-0.2,0.2
		c-0.1,0-0.2,0-0.3,0l-1.6-1C207.9,306.1,207.8,306,207.8,305.9z"/>
	<path class="st5" d="M199.8,309.8c0-0.1,0-0.1,0-0.2c0-0.1,0-0.1,0.1-0.2c0-0.1,0.1-0.1,0.1-0.1c0,0,0.1-0.1,0.2-0.1
		c0.1,0,0.1,0,0.2,0c0.1,0,0.1,0,0.2,0.1l1.6,1c0.1,0,0.1,0.1,0.2,0.1c0,0.1,0.1,0.1,0.1,0.2c0,0.1,0,0.1,0,0.2c0,0.1,0,0.1-0.1,0.2
		s-0.1,0.1-0.1,0.2s-0.1,0.1-0.2,0.1c-0.1,0-0.1,0-0.2,0c-0.1,0-0.1-0.1-0.2-0.1l-1.6-1C199.9,310,199.8,309.9,199.8,309.8z"/>
	<path class="st5" d="M194.5,315.6l-0.4-2.4c0-0.1,0-0.3,0.1-0.4c0.1-0.1,0.2-0.2,0.3-0.2c0.1,0,0.2,0,0.3,0.1
		c0.1,0.1,0.2,0.2,0.2,0.3l0.4,2.4c0,0.1,0,0.2-0.1,0.3c-0.1,0.1-0.2,0.2-0.3,0.2c-0.1,0-0.2,0-0.3-0.1
		C194.7,315.9,194.6,315.8,194.5,315.6L194.5,315.6z"/>
	<path class="st5" d="M192,319.9c0-0.1,0-0.1,0-0.2c0-0.1,0-0.1,0.1-0.2c0-0.1,0.1-0.1,0.1-0.1s0.1-0.1,0.2-0.1c0.1,0,0.1,0,0.2,0
		c0.1,0,0.1,0,0.2,0.1l1.6,1.3c0.1,0.1,0.2,0.2,0.2,0.3c0,0.1,0,0.3-0.1,0.4c0,0.1-0.1,0.1-0.1,0.1c-0.1,0-0.1,0.1-0.2,0.1
		c-0.1,0-0.1,0-0.2,0c-0.1,0-0.1,0-0.2-0.1l-1.6-1.3C192,320.1,192,320,192,319.9z"/>
	<path class="st5" d="M209.4,316.2c0-0.1,0-0.2,0-0.3c0-0.1,0.1-0.2,0.2-0.2l2-0.9c0.1,0,0.2,0,0.3,0c0.1,0.1,0.2,0.1,0.2,0.3
		s0,0.2,0,0.4c0,0.1-0.1,0.2-0.2,0.3l-2,0.9c-0.1,0.1-0.2,0.1-0.4,0S209.4,316.4,209.4,316.2C209.4,316.2,209.4,316.2,209.4,316.2z"
		/>
	<path class="st5" d="M212.5,301.8c0-0.1,0-0.2,0-0.3c0-0.1,0.1-0.2,0.2-0.2l2-0.9c0.1,0,0.2,0,0.4,0c0.1,0.1,0.2,0.1,0.3,0.3
		c0,0.1,0,0.1,0,0.2c0,0.1,0,0.1,0,0.2c0,0.1-0.1,0.1-0.1,0.2c0,0-0.1,0.1-0.2,0.1l-2,0.9c-0.1,0.1-0.2,0.1-0.4,0
		C212.7,302.1,212.6,302,212.5,301.8L212.5,301.8z"/>
	<path class="st1" d="M221.1,307.7l0.2,1c5-1.7,12.2-3.9,19-5.9c1.7,0.2,10.8,1.2,16.8-1.6c5-2.3,11.2-6.8,14-8.8
		c0.4-0.3,0.2-0.9-0.4-0.8c-2.8,0.4-10,1.2-15.9,2.5c-5.1,1-9.9,3.6-13.7,7.4C234.1,303.6,226.4,305.9,221.1,307.7z"/>
	<path class="st1" d="M228.6,301.8c-2.8,1.4-5.5,2.9-7.9,4.2l0.2,1c2.7-1.5,5.9-3.1,9-4.8c3.4-0.3,10.6-1.4,14.9-4.4
		c4.3-3.1,9.4-8.4,11.6-10.8c0.4-0.4,0-0.9-0.6-0.7c-2.7,0.9-8.3,2.9-13.9,5.3C235.5,294.4,230.1,300,228.6,301.8z"/>
	<path class="st1" d="M230,308.1c-2.9,0.3-5.9,0.7-8.6,1l0.2,1c2.5-0.3,5.2-0.6,8-0.9c3.1,0.7,10.9,2.3,17.1,1
		c6-1.4,11.8-3.3,17.6-5.5c0.6-0.2,0.5-0.7-0.1-0.8c-3.1-0.1-9.5-0.2-16.2,0.2C240.9,304.4,233.4,306.9,230,308.1z"/>
	<path class="st1" d="M255.5,316.9c-2.6-0.9-8.1-2.7-13.9-4.2c-6.2-1.5-14.1-1-17.6-0.6l-2-0.3l0.2,1l1,0.2
		c2.2,1.5,8.1,5.2,14.2,5.6c5.8,0.3,14.1-0.5,17.8-0.9C255.9,317.7,256.1,317.1,255.5,316.9z"/>
	<path class="st1" d="M220.2,303.9l0.2-0.2c3.1-1.3,9.9-4.5,12.4-8.4s4.3-9.8,5.1-12.4c0.1-0.4-0.6-0.7-1-0.4
		c-3.7,2.7-7.2,5.6-10.6,8.7c-2.9,2.8-5.2,6.3-6.5,10.3L220.2,303.9z"/>
	<path class="st1" d="M185.3,132.8c0,0-7.9,6.6-9.5,14.2c-1.6,7.6,2.8,14.6,2.8,14.6l-14,5.3c0,0-11.4-23.6-1.1-32.6
		c5.5-4.7,11.7-8.4,18.3-11c-0.1,1.9,0.2,3.7,0.9,5.5C183.5,130.2,184.4,131.6,185.3,132.8z"/>
	<path class="st5" d="M185,133.2c-0.8-0.4-1.5-1-2.1-1.7c-0.6-0.7-1-1.5-1.3-2.4c-0.7-1.7-0.9-3.6-0.6-5.4c2.6-1.3,5.4-2.2,8.2-2.7
		c4.7-0.8,7.7,0.3,8.3,0.7c1.7,1.3,0.9,2.1,0.9,2.1s1,1.2,0.6,2.3c-0.3,0.8-1.5,0.7-1.5,0.7s0.5,0.9-0.1,1.6
		c-0.6,0.6-3.4-0.5-5.1-0.3c-0.9,0.1-1.8,0.3-2.6,0.7c0,0,2.2,0.9,1.6,1.9c-0.5,0.9-2.2,0.5-3.7,1.1
		C186.7,132.1,185.8,132.6,185,133.2z"/>
	<path class="st5" d="M95.5,285.4c0,0-9.6,1.9-17.3-0.8c-7.7-2.7-20.2-9.3-20.2-9.3l8.6-4.1l16.2,6.9c0,0,3.9-0.2,10.4-3.2
		c4.6-2.1,4.3,2.7,4.3,2.7L95.5,285.4z"/>
	<path class="st6" d="M81.3,277.4c0,0-4.1,2.1-7.8-0.1c-3.7-2.2-8.4-4.4-10.4-4.1c-1.7,0.4-3.3,1.1-4.7,2.1c-2.6-1.1-5.2-2-7.9-2.7
		c-1.6-0.4-3.3-0.8-4.8-1.3c-0.2-0.1-0.3-0.2-0.4-0.3c-0.1-0.2-0.2-0.3-0.2-0.5c0-0.2,0-0.4,0.1-0.6c0.1-0.2,0.2-0.3,0.4-0.4
		c3-2,6.5-3,10-2.8l10.5,0.9c0,0,2.2,2.1,3.3,1.9c0.1,0,0.2-0.1,0.4-0.2c0.1-0.1,0.2-0.2,0.3-0.3c0.1-0.3,0.4-0.5,0.6-0.7
		c0.3-0.2,0.6-0.2,0.9-0.2l6.7,0.6c0.3,0.1,0.7,0.3,0.9,0.5c0.3,0.2,0.5,0.5,0.7,0.9c0.7,1,1.1,2.2,1.4,3.4
		C81.3,274.6,81.4,276,81.3,277.4z"/>
	<path class="st3" d="M160.1,208.1c-23.6,14.8-26.9,50.4-31.6,52L88,274.3L92,296l53.4-10.7c8.4-1.7,15.8-6.8,20.7-14.3L160.1,208.1
		z"/>
	<path class="st2" d="M151.5,284.1c-1.9,0.8-4,1.4-6,1.8l-54,10.8l-4.2-22.9l41-14.3c1.2-0.4,2.7-4.8,4.4-9.9
		c4-11.9,10.8-31.9,27-42.1l0.8-0.5l6,64.1l-0.1,0.2C162.8,277.1,157.6,281.6,151.5,284.1z M92.5,295.3l52.8-10.6
		c8.2-1.6,15.4-6.6,20.2-13.8l-5.8-61.6c-15.2,10.1-21.8,29.3-25.7,40.9c-2.1,6.3-3.4,10.1-5.2,10.7l-40,13.9L92.5,295.3z"/>
	<path class="st5" d="M111.5,314.3c0,0-8.8,4.4-16.9,3.8s-21.8-3.7-21.8-3.7l7.4-6.2l17.2,2.4c0,0,3.7-1.2,9.3-5.8
		c4-3.2,4.8,1.5,4.8,1.5L111.5,314.3z"/>
	<path class="st6" d="M97.5,310.6c0,0-3.5,3.1-7.6,1.9c-4.1-1.2-9.2-2.1-11-1.2c-1.5,0.8-2.9,1.9-4.1,3.3c-2.8-0.4-5.5-0.6-8.3-0.6
		c-1.8,0.1-3.7,0-5-0.1c-0.2,0-0.4-0.1-0.5-0.2c-0.1-0.1-0.3-0.3-0.3-0.5s-0.1-0.4,0-0.6c0-0.2,0.1-0.4,0.3-0.5
		c2.4-2.7,5.6-4.6,9-5.3l10.4-1.9c0,0,2.6,1.5,3.6,1c0.1-0.1,0.2-0.2,0.3-0.3c0.1-0.1,0.1-0.2,0.2-0.4c0.1-0.3,0.2-0.6,0.4-0.9
		c0.2-0.2,0.5-0.4,0.8-0.4l6.7-1.2c0.7-0.1,1.4,0.5,1.9,0.9c0.9,0.8,1.6,1.8,2.1,2.9C97,308,97.3,309.3,97.5,310.6z"/>
	<path class="st3" d="M160.1,208.2c0,0-7.3,8.5-11.2,27.4c-2.4,11.4-4,23.5-4.9,31.2c-0.3,2.6-1.2,5.1-2.5,7.3
		c-1.3,2.2-3.1,4-5.3,5.3l-36.8,23l8.1,20.3l50-22.5c7.9-3.5,14.1-10.2,17.4-18.6c5.7-14.5,14-36.9,15.6-44.2c7.2-32,2-46.1,2-46.1
		s-9.9,18.1-18.6,16.2C165.2,205.4,160.1,208.2,160.1,208.2z"/>
	<path class="st2" d="M107.1,323.4L98.6,302l37.2-23.2c2-1.3,3.8-3,5.1-5.1c1.3-2.1,2.1-4.5,2.4-7c0.9-8,2.6-19.9,4.9-31.3
		c4-18.8,11-27.3,11.4-27.6l0.2-0.1c0.2-0.1,5.4-2.9,14.3-1c8.2,1.8,17.9-15.7,18-15.9l0.6-1.1l0.4,1.2c0.2,0.6,5.2,14.7-1.9,46.5
		c-1.8,7.9-10.7,31.6-15.7,44.3c-3.3,8.6-9.7,15.4-17.7,19L107.1,323.4z M100.1,302.5l7.7,19.2l49.5-22.2c7.7-3.5,13.9-10,17.1-18.3
		c6.4-16.5,14.1-37.3,15.6-44.1c5.9-26,3.4-40.3,2.4-44.4c-2.4,4.1-10.8,17-18.5,15.3c-7.8-1.7-12.6,0.4-13.4,0.8
		c-0.8,1-7.4,9.6-11,27c-2.4,11.3-4,23.2-4.9,31.1c-0.3,2.7-1.2,5.3-2.6,7.5c-1.4,2.3-3.3,4.1-5.4,5.5L100.1,302.5z"/>
	
		<linearGradient id="SVGID_1_" gradientUnits="userSpaceOnUse" x1="-36187.0938" y1="-55129.8984" x2="-32080.4004" y2="-48896.4062" gradientTransform="matrix(1 0 0 -1 0 256)">
		<stop  offset="0.28" style="stop-color:#151E27"/>
		<stop  offset="0.39" style="stop-color:#192A41"/>
		<stop  offset="0.58" style="stop-color:#1F3C6B"/>
		<stop  offset="0.75" style="stop-color:#234A8A"/>
		<stop  offset="0.9" style="stop-color:#26529C"/>
		<stop  offset="1" style="stop-color:#2755A3"/>
	</linearGradient>
	<path class="st7" d="M218.5,147.2c0,0-12.6,21.1-27.8,16.7c-13.8-4-23.3-16.1-31-8.5c-7.7,7.6-4.1,21.2-2.3,27.8
		c2.8,10.7,2.7,25,2.7,25s12.6,1.3,20.3,6c4.8,3,9.3,6.4,13.6,10.2c0,0,1.7-13.5,1.2-22.8c-0.3-7.1-1.5-9.9-1.5-9.9
		s6.9,1.8,18.5-9.1c14.1-13.2,15.9-33.8,15.9-33.8L218.5,147.2z"/>
	<path class="st5" d="M168.7,136.9c0,0,4.1,3.5,5.4,7.3c0.7,2.4,0.8,5,0.1,7.5c-0.1,0.3-0.3,0.7-0.5,0.9c-0.2,0.3-0.5,0.4-0.9,0.5
		l-1,0.3c0,0,0.5,1.2,0.7,2.1c0.2,0.5-0.1,1.6-2,2.4c-0.5,0.2-1,0.3-1.6,0.3c-0.5,0-1-0.2-1.5-0.4l-3.8-12.5c-0.3-1-0.3-2.1,0-3.1
		c0.3-1,0.9-1.9,1.6-2.6L168.7,136.9z"/>
	<path class="st8" d="M171.1,143.3l1.5,2.4l-1.2,0.6"/>
	<path class="st8" d="M171.4,148.9c0,0,0.5,0.4,1.4-0.3"/>
	<path class="st8" d="M169.2,143.9c-0.1,0.2-0.2,0.3-0.3,0.5c-0.1,0.1-0.3,0.2-0.5,0.3c-0.2,0.1-0.4,0.1-0.5,0.1
		c-0.2,0-0.4-0.1-0.5-0.2"/>
	<path class="st9" d="M173.8,143.5c0,0-4.8-7.5-8.2-3.6c-3.3,3.8,1.9,9.3,0.8,13.3c-2.5,8.8-8.4,6.9-15.3,8.2
		c-3.2,0.6-4.6,4.8-10.4,5c-10.1,0.4-17.6-11.5-24-3.1c-8.4,11.1-36,5.5-28.9-24.4c5.3-22.3,27.2-28.5,38.1-26.2
		c9.8,2.1,11.8,11.2,15.8,14.1c4,2.9,6.8,4.6,12.5,0.4s11.1-4.3,16.1,0.6C177.1,134.6,173.8,143.5,173.8,143.5z"/>
	<path class="st5" d="M218.4,147.2c0.6,0.7,1.2,1.3,2,1.7c0.8,0.4,1.6,0.7,2.5,0.8c1.7,0.3,3.5,0,5.1-0.7c0.5-3,0.6-6.1,0.4-9.1
		c-0.4-5.1-2.2-7.9-2.7-8.4c-1.6-1.5-2.1-0.4-2.1-0.4s-1.3-0.8-2.2-0.1c-0.7,0.5-0.2,1.7-0.2,1.7c-0.3-0.1-0.5-0.1-0.8,0
		c-0.2,0.1-0.5,0.3-0.6,0.5c-0.4,0.8,1.4,3.6,1.6,5.2c0.1,0.9,0.1,1.9,0,2.8c0,0-1.4-2-2.1-1.3c-0.7,0.8,0.1,2.4-0.1,4.1
		C219,145.1,218.8,146.2,218.4,147.2z"/>
	<path class="st2" d="M193.9,192.3c-0.1,0-0.2,0.1-0.3,0c-6.4-1-12.3-4.2-16.9-9.1c-0.1-0.1-0.1-0.1-0.1-0.2s0-0.2,0-0.2
		c0-0.1,0-0.2,0.1-0.2c0-0.1,0.1-0.1,0.1-0.2c0.1-0.1,0.1-0.1,0.2-0.1c0.1,0,0.2,0,0.2,0c0.1,0,0.2,0,0.2,0.1c0.1,0,0.1,0.1,0.2,0.1
		c4.4,4.6,10,7.7,16.1,8.7c0.1,0,0.3,0.1,0.4,0.2c0.1,0.1,0.2,0.2,0.2,0.4c0,0.1,0,0.3-0.1,0.4C194.1,192.1,194,192.2,193.9,192.3
		L193.9,192.3z"/>
</g>
</svg>
