<svg width="321" height="255" viewBox="0 0 321 255" fill="none" xmlns="http://www.w3.org/2000/svg">
<path d="M220.803 152.713C220.853 145.653 216.053 133.453 226.983 118.713C236.203 106.313 276.853 80.8927 256.403 35.2727C235.953 -10.3473 188.053 -8.38729 147.053 22.1627C109.993 49.8027 88.4034 89.7727 95.4634 133.393C101.643 171.583 119.853 200.193 153.113 207.513C182.273 213.923 220.513 194.683 220.803 152.713Z" fill="#80A6E7"/>
<path d="M254.356 62.9075L250.139 65.5833C249.93 65.715 249.749 65.8873 249.608 66.09C249.466 66.2927 249.366 66.5217 249.315 66.7635C249.263 67.0053 249.26 67.255 249.306 67.4979C249.352 67.7408 249.447 67.9721 249.583 68.178L264.515 90.708C264.776 91.1103 265.185 91.3932 265.654 91.4952C266.122 91.5971 266.612 91.5099 267.017 91.2524C270.843 88.8242 274.821 86.6421 278.925 84.7193C282.942 83.1288 287.074 81.8432 291.284 80.8736C291.346 80.8572 291.411 80.8583 291.473 80.8767C291.534 80.8951 291.589 80.9301 291.632 80.9778C291.944 81.3485 293.045 81.9508 294.991 81.4412C295.478 81.3529 295.94 81.1561 296.341 80.8654C296.742 80.5746 297.072 80.1974 297.308 79.7615C297.458 79.7615 305.347 77.4448 309.748 77.2016C312.065 77.0742 314.544 76.8309 316.305 76.6224C316.59 76.5887 316.862 76.4858 317.099 76.3227C317.335 76.1595 317.528 75.9411 317.66 75.6864C317.793 75.4317 317.861 75.1485 317.859 74.8614C317.857 74.5743 317.784 74.2921 317.648 74.0393L310.791 61.4248L254.356 62.9075Z" fill="#2755A3"/>
<path d="M308.451 52.2275L319.467 72.9157C319.467 72.9157 311.011 71.5605 306.562 72.5566C298.106 74.4563 293.925 77.7461 293.925 77.7461C293.925 77.7461 295.767 67.3209 298.327 62.2125C300.887 57.1042 308.451 52.2275 308.451 52.2275Z" fill="white"/>
<path d="M293.879 78.4528C293.754 78.4523 293.63 78.4205 293.52 78.3601C293.397 78.287 293.299 78.178 293.239 78.0476C293.179 77.9173 293.16 77.7717 293.184 77.6304C293.265 77.2018 295.073 67.0662 297.656 61.8999C300.239 56.7337 307.757 51.8338 308.081 51.6253C308.164 51.5757 308.255 51.543 308.351 51.5291C308.446 51.5152 308.543 51.5204 308.637 51.5442C308.733 51.5662 308.823 51.6087 308.901 51.6686C308.979 51.7286 309.043 51.8047 309.089 51.8917L320.058 72.5799C320.116 72.6969 320.141 72.8275 320.131 72.9577C320.12 73.0879 320.074 73.2127 319.998 73.3187C319.922 73.4248 319.818 73.508 319.698 73.5595C319.578 73.6109 319.446 73.6287 319.317 73.6109C319.236 73.6109 310.954 72.2903 306.679 73.2518C298.571 75.082 294.366 78.279 294.331 78.3022C294.203 78.404 294.043 78.4574 293.879 78.4528ZM308.197 53.247C306.343 54.5212 300.934 58.4828 298.93 62.5139C297.042 66.2901 295.536 73.1012 294.899 76.2172C298.466 74.1671 302.337 72.6969 306.366 71.8618C309.842 71.0857 315.541 71.6648 318.159 72.0124L308.197 53.247Z" fill="#F1C4D9"/>
<path d="M266.669 87.7545C270.366 85.0867 274.325 82.8007 278.484 80.9318C283.435 79.195 288.598 78.1351 293.832 77.7811L281.669 58.1586C276.551 56.4333 271.063 56.1093 265.777 57.2203C260.127 58.3466 254.727 60.4853 249.838 63.5334L266.669 87.7545Z" fill="white"/>
<path d="M266.669 88.4955H266.542C266.359 88.4621 266.197 88.3581 266.09 88.2059L249.259 63.9384C249.153 63.7824 249.112 63.5914 249.143 63.4055C249.177 63.2227 249.281 63.0604 249.433 62.9538C254.404 59.8448 259.899 57.6664 265.65 56.5249C271.075 55.3722 276.71 55.7084 281.959 57.4979C282.1 57.5544 282.219 57.6563 282.295 57.7875L294.446 77.41C294.509 77.5153 294.541 77.6353 294.541 77.7575C294.541 77.8798 294.509 77.9998 294.446 78.105C294.39 78.2148 294.306 78.3079 294.202 78.3749C294.098 78.442 293.979 78.4807 293.856 78.4873C288.702 78.8242 283.618 79.8528 278.739 81.5453C274.636 83.3934 270.728 85.648 267.075 88.2754C266.97 88.3951 266.826 88.4732 266.669 88.4955ZM250.834 63.7646L266.843 86.8043C270.404 84.2545 274.22 82.0806 278.229 80.3175C282.867 78.6508 287.704 77.6031 292.616 77.2015L281.241 58.7374C276.3 57.1518 271.035 56.8646 265.951 57.9033C260.625 58.9978 255.517 60.9666 250.834 63.7299V63.7646Z" fill="#F1C4D9"/>
<path d="M314.833 57.892C310.795 60.0115 306.983 62.5383 303.458 65.4329C299.69 69.0805 296.44 73.2274 293.798 77.7578L281.646 58.1237C282.586 53.0559 284.648 48.2627 287.681 44.096C290.908 40.0837 295.019 36.8724 299.694 34.7134L314.833 57.892Z" fill="white"/>
<path d="M293.763 78.4645C293.642 78.4646 293.524 78.4338 293.418 78.375C293.313 78.3162 293.224 78.2314 293.161 78.1286L281.01 58.4366C280.927 58.2886 280.895 58.118 280.917 57.9501C281.863 52.7641 283.974 47.8606 287.091 43.6096C290.386 39.5091 294.595 36.2364 299.381 34.0532C299.534 33.9907 299.705 33.983 299.863 34.0316C300.021 34.0801 300.158 34.1819 300.25 34.3196L315.39 57.4867C315.443 57.5692 315.478 57.6618 315.493 57.7587C315.508 57.8555 315.503 57.9545 315.478 58.0492C315.453 58.144 315.409 58.2326 315.348 58.3092C315.286 58.3859 315.21 58.449 315.123 58.4945C311.141 60.5888 307.38 63.0803 303.899 65.9311C300.194 69.5342 296.987 73.6169 294.365 78.0707C294.307 78.1768 294.222 78.2659 294.118 78.3289C294.014 78.3919 293.896 78.4266 293.775 78.4297L293.763 78.4645ZM282.4 57.9732L293.798 76.4026C296.344 72.184 299.437 68.3203 302.995 64.9118C306.348 62.1182 309.981 59.6803 313.837 57.6373L299.451 35.6286C295.092 37.7143 291.248 40.7361 288.191 44.4784C285.307 48.5045 283.331 53.1088 282.4 57.9732Z" fill="#F1C4D9"/>
<path d="M221.996 42.4904L199.973 31.3816L220.017 0.766602L242.314 11.4979L221.996 42.4904Z" fill="#827CE0"/>
<path d="M221.996 43.1884C221.887 43.1892 221.781 43.1616 221.687 43.1083L199.652 31.9995C199.565 31.9567 199.489 31.8957 199.428 31.8207C199.366 31.7457 199.322 31.6584 199.298 31.5647C199.27 31.4704 199.263 31.371 199.279 31.2739C199.295 31.1769 199.332 31.0846 199.389 31.0041L219.433 0.389152C219.527 0.24718 219.669 0.144416 219.834 0.10017C219.998 0.0559235 220.173 0.0732545 220.325 0.14891L242.612 10.8687C242.702 10.9114 242.781 10.9736 242.845 11.0507C242.908 11.1279 242.953 11.2181 242.978 11.3149C243.004 11.4106 243.011 11.5109 242.997 11.6093C242.984 11.7077 242.95 11.8023 242.898 11.8869L222.579 42.868C222.517 42.9665 222.431 43.0476 222.329 43.1036C222.227 43.1597 222.112 43.1888 221.996 43.1884ZM200.979 31.1071L221.755 41.5867L241.296 11.784L220.268 1.65906L200.979 31.1071Z" fill="white"/>
<path d="M223.643 5.96043C222.275 4.27186 220.992 2.51541 219.799 0.697754L199.824 31.1755L203.336 36.9529L223.643 5.96043Z" fill="#827CE0"/>
<path d="M203.336 37.6509C203.218 37.6525 203.102 37.6226 202.999 37.5643C202.896 37.506 202.811 37.4214 202.752 37.3192L199.24 31.5302C199.17 31.4189 199.133 31.29 199.133 31.1584C199.133 31.0268 199.17 30.8979 199.24 30.7866L219.215 0.320335C219.279 0.225517 219.363 0.147054 219.463 0.0913696C219.562 0.0356848 219.674 0.0043671 219.787 0C219.902 0.00032711 220.016 0.0286193 220.117 0.0824317C220.219 0.136244 220.306 0.213967 220.371 0.3089C221.847 2.48261 223.551 4.88514 223.986 5.3542H224.043C224.191 5.46026 224.293 5.61919 224.327 5.79809C224.361 5.97699 224.325 6.16215 224.226 6.3152L203.919 37.3306C203.856 37.4284 203.77 37.5089 203.668 37.5648C203.566 37.6208 203.452 37.6503 203.336 37.6509ZM200.602 31.187L203.313 35.6488L222.762 6.05206C222.259 5.45715 221.412 4.27878 219.822 1.95635L200.602 31.187Z" fill="white"/>
<path d="M225.382 46.952L203.336 36.953L223.643 5.96045L245.689 15.9595L225.382 46.952Z" fill="#827CE0"/>
<path d="M225.382 47.6501C225.283 47.6506 225.184 47.6271 225.096 47.5815L203.05 37.5824C202.956 37.5444 202.873 37.4854 202.805 37.4101C202.738 37.3347 202.688 37.245 202.661 37.1477C202.633 37.0515 202.626 36.9503 202.642 36.8514C202.658 36.7524 202.696 36.6583 202.753 36.5757L223.06 5.58312C223.149 5.44284 223.287 5.33999 223.447 5.29368C223.607 5.24738 223.778 5.26077 223.929 5.33143L245.975 15.3305C246.068 15.369 246.151 15.4278 246.219 15.5026C246.286 15.5775 246.336 15.6664 246.364 15.7629C246.393 15.8594 246.399 15.9611 246.383 16.0605C246.367 16.1598 246.33 16.2544 246.272 16.3373L225.965 47.3298C225.903 47.4276 225.816 47.5081 225.714 47.564C225.612 47.62 225.498 47.6496 225.382 47.6501ZM204.366 36.6672L225.119 46.0828L244.659 16.2687L223.895 6.85304L204.366 36.6672Z" fill="white"/>
<path d="M233.986 26.1074L219.834 19.3117L222.477 15.2847L236.629 22.0689L233.986 26.1074Z" fill="#F1C4D9"/>
<path d="M228.094 29.9743L219.548 25.81L221.081 23.4761L229.627 27.6404L228.094 29.9743Z" fill="#827CE0"/>
<path d="M299.435 189.479C299.435 189.479 296.963 185.381 293.445 179.121C287.084 167.794 281.521 165.652 278.668 165.436C273.162 157.022 265.361 150.389 254.272 150.48C252.806 150.607 251.399 151.116 250.191 151.956C249.942 152.045 249.675 152.07 249.415 152.029C247.146 151.719 247.954 150.157 247.216 149.352C246.821 148.886 236.905 143.696 234.264 146.283C233.345 147.193 233.868 148.6 236.265 150.174C238.662 151.748 244.954 153.631 244.954 153.631C245.285 154.407 245.667 155.159 246.099 155.884C244.792 157.664 244.202 159.87 244.446 162.064C243.938 162.37 243.357 162.535 242.764 162.543C240.496 162.243 241.309 160.731 240.566 159.876C240.171 159.411 230.255 154.22 227.614 156.807C226.695 157.717 227.228 159.123 229.615 160.698C232.002 162.273 238.271 164.118 238.271 164.118C238.271 164.118 242.391 171.346 247.154 173.201C248.113 173.656 249.199 173.768 250.231 173.518C251.262 173.269 252.177 172.672 252.821 171.828C255.752 174.154 258.82 176.302 262.009 178.261C261.964 180.144 262.537 184.991 267.759 193.794C271.419 199.97 274.447 204.217 274.447 204.217C274.447 204.217 277.978 209.762 280.934 208.181C283.519 206.824 284.372 203.491 278.009 200.851C276.305 200.136 271.971 189.965 270.056 185.062C269.948 184.874 269.894 184.66 269.9 184.443C269.906 184.226 269.973 184.015 270.092 183.834C271.96 185.887 273.514 188.206 274.702 190.715C276.47 194.366 279.722 196.171 280.279 195.898C280.836 195.625 281.077 191.977 281.077 191.977C281.73 191.845 282.368 191.648 282.981 191.388C283.633 191.055 284.558 190.537 284.558 190.537C284.558 190.537 287.174 192.844 287.758 192.538C288.171 192.329 288.084 191.503 288.149 190.161C288.165 188.458 287.966 186.759 287.556 185.105C286.603 182.1 285.447 178.864 284.048 175.61C284.35 175.511 284.721 175.607 285.151 176.13C288.545 180.212 294.544 188.951 294.344 190.788C293.597 197.627 297.298 199.18 299.738 197.566C302.604 195.781 299.435 189.479 299.435 189.479Z" fill="#EF6744"/>
<path d="M282.732 187.655C282.312 187.679 281.893 187.586 281.522 187.386C281.455 187.344 281.406 187.278 281.386 187.202C281.366 187.125 281.375 187.044 281.413 186.974C281.455 186.905 281.522 186.854 281.6 186.832C281.678 186.809 281.762 186.818 281.834 186.855C281.995 186.948 282.174 187.009 282.359 187.033C282.544 187.057 282.732 187.044 282.912 186.995C283.074 186.921 283.217 186.812 283.333 186.676C283.449 186.54 283.534 186.381 283.582 186.209C283.609 186.135 283.665 186.075 283.738 186.041C283.81 186.008 283.892 186.005 283.967 186.033C284.006 186.045 284.042 186.066 284.072 186.093C284.103 186.12 284.128 186.153 284.146 186.19C284.163 186.226 284.173 186.267 284.175 186.307C284.176 186.348 284.169 186.389 284.154 186.427C284.071 186.676 283.935 186.903 283.755 187.093C283.575 187.283 283.356 187.432 283.112 187.529C282.992 187.589 282.864 187.631 282.732 187.655Z" fill="black"/>
<path d="M277.845 189.959C277.444 189.988 277.043 189.903 276.688 189.716C276.617 189.677 276.565 189.613 276.541 189.537C276.517 189.46 276.523 189.378 276.559 189.306C276.577 189.27 276.602 189.238 276.633 189.212C276.664 189.186 276.7 189.167 276.738 189.156C276.777 189.145 276.817 189.142 276.857 189.147C276.897 189.153 276.935 189.166 276.97 189.187C277.307 189.351 277.692 189.387 278.054 189.287C278.217 189.205 278.36 189.089 278.473 188.947C278.586 188.805 278.667 188.639 278.71 188.462C278.722 188.425 278.742 188.39 278.767 188.36C278.793 188.33 278.825 188.306 278.86 188.288C278.895 188.27 278.933 188.26 278.973 188.257C279.012 188.254 279.051 188.259 279.089 188.271C279.126 188.283 279.161 188.303 279.191 188.329C279.22 188.354 279.245 188.386 279.263 188.421C279.28 188.456 279.291 188.494 279.294 188.534C279.297 188.573 279.292 188.612 279.28 188.65C279.214 188.91 279.09 189.151 278.918 189.357C278.746 189.562 278.53 189.727 278.286 189.838C278.145 189.897 277.997 189.938 277.845 189.959Z" fill="black"/>
<path d="M278.539 186.63C278.462 186.637 278.385 186.615 278.323 186.57C278.276 186.534 278.241 186.486 278.221 186.431C278.202 186.375 278.199 186.316 278.213 186.259L278.542 184.832C278.554 184.786 278.575 184.743 278.604 184.705C278.634 184.668 278.671 184.637 278.713 184.615C278.753 184.592 278.798 184.577 278.844 184.573C278.891 184.569 278.938 184.574 278.982 184.59L280.134 185.206C280.181 185.233 280.22 185.271 280.247 185.318C280.274 185.365 280.289 185.418 280.289 185.472C280.29 185.528 280.277 185.583 280.249 185.631C280.222 185.68 280.182 185.72 280.134 185.748L278.653 186.559L278.539 186.63ZM279.043 185.358L278.958 185.737L279.35 185.52L279.043 185.358Z" fill="black"/>
<path d="M278.268 184.486C278.028 184.491 277.792 184.417 277.597 184.276C277.403 184.134 277.26 183.933 277.191 183.703C277.142 183.559 277.122 183.408 277.132 183.257C277.142 183.106 277.182 182.959 277.249 182.823C277.364 182.587 277.567 182.406 277.815 182.319C278.088 182.243 278.381 182.278 278.629 182.417C278.877 182.555 279.06 182.786 279.139 183.059C279.19 183.19 279.213 183.331 279.209 183.472C279.205 183.613 279.173 183.752 279.115 183.88C279.057 184.009 278.974 184.125 278.871 184.221C278.768 184.318 278.647 184.393 278.515 184.443L278.268 184.486ZM278.039 182.89L277.969 182.897C277.92 182.912 277.874 182.938 277.836 182.973C277.798 183.008 277.767 183.051 277.747 183.098C277.689 183.232 277.681 183.383 277.726 183.522C277.757 183.642 277.833 183.745 277.938 183.81C278.044 183.875 278.17 183.897 278.291 183.871C278.387 183.812 278.462 183.723 278.505 183.618C278.547 183.513 278.555 183.397 278.527 183.287C278.498 183.178 278.436 183.08 278.348 183.009C278.26 182.937 278.152 182.896 278.039 182.89Z" fill="black"/>
<path d="M254.875 162.637C253.761 162.736 252.638 162.63 251.561 162.324C246.603 160.959 243.746 153.924 243.658 153.621C243.628 153.547 243.613 153.467 243.613 153.387C243.614 153.307 243.63 153.228 243.662 153.154C243.693 153.08 243.739 153.013 243.796 152.957C243.853 152.901 243.921 152.856 243.995 152.827C244.147 152.771 244.315 152.777 244.463 152.841C244.611 152.906 244.728 153.025 244.791 153.174C244.798 153.244 247.523 159.949 251.884 161.149C258.07 162.861 261.475 156.848 261.519 156.784C261.557 156.714 261.609 156.652 261.671 156.602C261.733 156.552 261.804 156.515 261.88 156.493C261.957 156.471 262.037 156.464 262.116 156.473C262.195 156.483 262.271 156.507 262.341 156.546C262.482 156.623 262.587 156.752 262.633 156.906C262.679 157.059 262.663 157.225 262.588 157.367C262.544 157.431 259.863 162.171 254.875 162.637Z" fill="white"/>
<path d="M191.107 239.415L187.753 226.2L218.293 213.233L223.963 235.589L191.107 239.415Z" fill="#F1C4D9"/>
<path d="M190.639 239.527L187.295 226.313C187.267 226.203 187.28 226.087 187.33 225.986C187.381 225.884 187.466 225.805 187.571 225.761L218.11 212.794C218.174 212.77 218.243 212.761 218.311 212.767C218.379 212.772 218.445 212.793 218.505 212.828C218.565 212.86 218.619 212.904 218.662 212.957C218.705 213.01 218.738 213.071 218.757 213.137L224.443 235.503C224.465 235.566 224.473 235.633 224.467 235.7C224.461 235.766 224.442 235.831 224.41 235.889C224.373 235.948 224.323 235.996 224.264 236.032C224.205 236.068 224.139 236.09 224.07 236.097L191.215 239.915C191.152 239.928 191.086 239.929 191.022 239.917C190.959 239.905 190.898 239.88 190.844 239.844C190.791 239.807 190.745 239.761 190.709 239.706C190.674 239.652 190.65 239.591 190.639 239.527ZM188.321 226.477L191.481 238.889L223.379 235.183L217.982 213.891L188.321 226.477Z" fill="white"/>
<path d="M216.516 231.09C216.495 230.996 216.501 230.899 216.535 230.809C216.57 230.72 216.63 230.642 216.708 230.587C216.787 230.532 216.88 230.502 216.975 230.5C217.071 230.498 217.165 230.525 217.246 230.577L219.469 232.072C219.575 232.144 219.648 232.255 219.672 232.381C219.696 232.506 219.669 232.637 219.597 232.743C219.525 232.849 219.414 232.922 219.288 232.946C219.162 232.97 219.032 232.943 218.926 232.871L216.712 231.377C216.662 231.345 216.618 231.303 216.585 231.253C216.551 231.204 216.528 231.148 216.516 231.09Z" fill="#EF6744"/>
<path d="M200.616 233.509C200.594 233.446 200.587 233.379 200.592 233.313C200.598 233.246 200.617 233.182 200.649 233.123C200.72 233.019 200.83 232.947 200.954 232.922C201.078 232.898 201.206 232.924 201.311 232.994L203.526 234.487C203.63 234.559 203.702 234.668 203.726 234.792C203.75 234.916 203.725 235.045 203.655 235.15C203.621 235.203 203.577 235.249 203.525 235.285C203.472 235.321 203.414 235.345 203.351 235.358C203.289 235.37 203.226 235.369 203.164 235.355C203.102 235.342 203.044 235.316 202.992 235.279L200.778 233.785C200.691 233.717 200.634 233.618 200.616 233.509Z" fill="#EF6744"/>
<path d="M214.995 225.096C214.981 225.017 214.988 224.936 215.015 224.861L215.72 222.079C215.753 221.958 215.832 221.855 215.94 221.792C216.049 221.728 216.177 221.71 216.299 221.74C216.422 221.771 216.527 221.85 216.592 221.959C216.657 222.067 216.677 222.197 216.647 222.32L215.942 225.093C215.911 225.216 215.833 225.321 215.724 225.386C215.615 225.451 215.485 225.471 215.363 225.441C215.276 225.421 215.196 225.379 215.132 225.318C215.067 225.258 215.02 225.181 214.995 225.096Z" fill="#EF6744"/>
<path d="M205.775 230.57C205.761 230.491 205.768 230.41 205.795 230.335L206.5 227.553C206.533 227.433 206.612 227.329 206.721 227.266C206.829 227.203 206.958 227.184 207.079 227.214C207.14 227.23 207.197 227.257 207.246 227.295C207.296 227.332 207.338 227.379 207.37 227.433C207.401 227.487 207.422 227.546 207.43 227.608C207.439 227.67 207.435 227.733 207.419 227.793L206.723 230.567C206.691 230.69 206.613 230.795 206.504 230.86C206.396 230.925 206.266 230.945 206.143 230.915C206.056 230.895 205.977 230.853 205.912 230.793C205.847 230.732 205.8 230.655 205.775 230.57Z" fill="#EF6744"/>
<path d="M208.093 222.624C208.073 222.563 208.066 222.499 208.071 222.436C208.077 222.372 208.095 222.31 208.125 222.254C208.156 222.2 208.197 222.152 208.247 222.114C208.297 222.077 208.354 222.049 208.414 222.034C208.475 222.018 208.538 222.016 208.6 222.025C208.661 222.035 208.721 222.057 208.774 222.09L210.431 223.079C210.511 223.154 210.562 223.254 210.577 223.363C210.592 223.471 210.569 223.582 210.513 223.676C210.456 223.769 210.369 223.841 210.266 223.879C210.164 223.917 210.051 223.918 209.947 223.883L208.29 222.894C208.195 222.829 208.126 222.733 208.093 222.624Z" fill="#EF6744"/>
<path d="M199.942 226.311C199.922 226.252 199.915 226.19 199.92 226.128C199.925 226.065 199.943 226.005 199.973 225.95C200.005 225.896 200.047 225.848 200.097 225.81C200.148 225.772 200.205 225.744 200.266 225.728C200.327 225.712 200.391 225.708 200.453 225.717C200.516 225.726 200.576 225.747 200.631 225.779L202.288 226.767C202.355 226.792 202.415 226.831 202.465 226.882C202.515 226.932 202.553 226.993 202.576 227.061C202.599 227.128 202.607 227.199 202.6 227.27C202.592 227.34 202.569 227.408 202.532 227.469C202.495 227.53 202.444 227.581 202.385 227.62C202.326 227.659 202.258 227.684 202.188 227.694C202.117 227.704 202.046 227.698 201.978 227.676C201.91 227.655 201.848 227.619 201.796 227.571L200.138 226.582C200.04 226.521 199.969 226.424 199.942 226.311Z" fill="#EF6744"/>
<path d="M194.536 231.902L194.175 229.612C194.155 229.487 194.186 229.359 194.259 229.256C194.333 229.153 194.445 229.084 194.57 229.063C194.694 229.049 194.819 229.081 194.92 229.154C195.022 229.227 195.093 229.335 195.119 229.457L195.48 231.747C195.489 231.862 195.455 231.977 195.386 232.07C195.316 232.163 195.215 232.227 195.102 232.252C194.988 232.276 194.87 232.258 194.768 232.202C194.667 232.146 194.589 232.055 194.55 231.945L194.536 231.902Z" fill="#EF6744"/>
<path d="M191.939 236.035C191.914 235.968 191.904 235.896 191.91 235.825C191.916 235.754 191.938 235.685 191.974 235.623C192.012 235.573 192.058 235.53 192.112 235.498C192.166 235.466 192.226 235.444 192.288 235.436C192.351 235.427 192.414 235.43 192.475 235.446C192.536 235.462 192.592 235.49 192.642 235.529L194.23 236.74C194.329 236.819 194.394 236.934 194.41 237.06C194.426 237.186 194.392 237.314 194.315 237.416C194.278 237.465 194.23 237.507 194.176 237.539C194.122 237.57 194.062 237.59 194 237.598C193.938 237.606 193.875 237.602 193.814 237.585C193.754 237.569 193.697 237.54 193.648 237.502L192.061 236.291C191.996 236.219 191.954 236.13 191.939 236.035Z" fill="#EF6744"/>
<path d="M209.691 232.456C209.663 232.345 209.675 232.227 209.726 232.125C209.777 232.022 209.862 231.941 209.968 231.896L211.97 231.045C212.083 231.012 212.203 231.022 212.309 231.073C212.415 231.123 212.499 231.211 212.545 231.319C212.591 231.427 212.596 231.548 212.558 231.659C212.521 231.771 212.444 231.864 212.342 231.923L210.341 232.766C210.224 232.816 210.093 232.818 209.975 232.771C209.857 232.724 209.762 232.633 209.711 232.517C209.703 232.497 209.696 232.477 209.691 232.456Z" fill="#EF6744"/>
<path d="M212.891 218.68C212.863 218.569 212.876 218.452 212.926 218.349C212.977 218.246 213.063 218.165 213.168 218.12L215.17 217.269C215.288 217.222 215.419 217.223 215.537 217.271C215.654 217.319 215.748 217.41 215.799 217.526C215.824 217.584 215.836 217.646 215.837 217.708C215.837 217.771 215.825 217.833 215.801 217.89C215.777 217.948 215.742 218.001 215.698 218.045C215.653 218.089 215.601 218.124 215.543 218.147L213.541 218.998C213.424 219.048 213.292 219.05 213.174 219.004C213.056 218.957 212.962 218.866 212.911 218.749L212.891 218.68Z" fill="#EF6744"/>
<path d="M221.71 224.33L221.943 225.255C227.037 223.672 234.419 221.542 241.39 219.571C243.124 219.771 252.442 220.71 258.5 218.043C263.573 215.815 269.944 211.585 272.758 209.653C273.217 209.337 272.965 208.825 272.375 208.893C269.498 209.296 262.203 210.012 256.174 211.261C250.943 212.25 246.101 214.708 242.215 218.348C234.907 220.4 227.039 222.657 221.71 224.33Z" fill="#2755A3"/>
<path d="M229.303 218.673C226.486 220.046 223.695 221.413 221.254 222.649L221.494 223.6C224.262 222.198 227.495 220.607 230.717 219.049C234.17 218.737 241.531 217.739 245.928 214.819C250.325 211.899 255.554 206.783 257.815 204.499C258.186 204.117 257.778 203.65 257.211 203.847C254.421 204.714 248.711 206.574 243.055 208.895C236.409 211.613 230.902 217.009 229.303 218.673Z" fill="#2755A3"/>
<path d="M230.753 224.72C227.749 225.028 224.734 225.352 222.018 225.659L222.25 226.593C224.814 226.298 227.589 225.995 230.389 225.704C233.602 226.412 241.504 227.863 247.812 226.622C253.902 225.257 259.9 223.514 265.773 221.402C266.375 221.192 266.282 220.693 265.641 220.68C262.467 220.601 255.901 220.517 249.073 220.826C241.931 221.149 234.187 223.544 230.753 224.72Z" fill="#2755A3"/>
<path d="M256.833 233.16C254.167 232.287 248.597 230.564 242.617 229.185C236.239 227.714 228.173 228.253 224.692 228.588L222.673 228.27L222.924 229.273L223.917 229.435C226.193 230.908 232.224 234.448 238.372 234.766C244.267 235.071 252.791 234.317 256.556 233.923C257.179 233.858 257.376 233.333 256.833 233.16Z" fill="#2755A3"/>
<path d="M220.748 220.668L220.905 220.513C224.083 219.272 230.984 216.247 233.522 212.515C236.06 208.783 237.948 203.168 238.723 200.655C238.852 200.234 238.145 199.996 237.696 200.304C233.939 202.88 230.313 205.642 226.831 208.58C223.848 211.261 221.558 214.625 220.158 218.384L220.748 220.668Z" fill="#2755A3"/>
<path d="M185.156 57.1763C185.156 57.1763 177.136 63.4678 175.5 70.7641C173.865 78.0604 178.362 84.6771 178.362 84.6771L164.083 89.7326C164.083 89.7326 152.407 67.1968 162.926 58.5647C168.543 54.0523 174.864 50.4935 181.635 48.0306C181.526 49.8222 181.858 51.6131 182.6 53.2471C183.288 54.6565 184.147 55.9761 185.156 57.1763Z" fill="#2755A3"/>
<path d="M184.776 57.4965C183.969 57.1109 183.248 56.5666 182.655 55.896C182.063 55.2255 181.612 54.4425 181.329 53.5938C180.635 51.953 180.421 50.1487 180.713 48.3911C183.387 47.1717 186.214 46.3194 189.117 45.8575C193.923 45.1062 196.94 46.1494 197.544 46.5683C199.319 47.7856 198.442 48.5902 198.442 48.5902C198.442 48.5902 199.493 49.7146 199.097 50.7607C198.794 51.5234 197.569 51.4116 197.569 51.4116C197.569 51.4116 198.073 52.2884 197.446 52.9092C196.819 53.5301 193.958 52.4472 192.221 52.5895C191.306 52.6581 190.412 52.8913 189.58 53.2781C189.58 53.2781 191.824 54.1834 191.264 55.0574C190.703 55.9313 189.03 55.5226 187.508 56.1067C186.554 56.4799 185.639 56.9454 184.776 57.4965Z" fill="#EF6744"/>
<path d="M93.4238 203.011C93.4238 203.011 83.6601 204.841 75.8009 202.287C67.9417 199.733 55.1321 193.359 55.1321 193.359L63.9354 189.456L80.4666 196.04C80.4666 196.04 84.4257 195.813 91.0758 192.966C95.7599 190.996 95.438 195.556 95.438 195.556L93.4238 203.011Z" fill="#EF6744"/>
<path d="M78.9104 195.342C78.9104 195.342 74.7421 197.368 70.926 195.242C67.1099 193.115 62.3188 190.994 60.2825 191.36C58.5755 191.717 56.955 192.406 55.5126 193.386C52.8877 192.315 50.1855 191.443 47.4291 190.78C45.7587 190.437 44.1071 190.007 42.4811 189.493C42.3079 189.426 42.1568 189.312 42.0447 189.164C41.9326 189.016 41.8639 188.84 41.8463 188.655C41.8287 188.47 41.8628 188.284 41.9449 188.118C42.027 187.951 42.1539 187.811 42.3112 187.713C45.3555 185.812 48.9069 184.884 52.4919 185.054L63.1758 185.935C63.1758 185.935 65.4606 187.962 66.5248 187.718C66.6544 187.687 66.7766 187.63 66.884 187.551C66.9915 187.472 67.0821 187.373 67.1505 187.258C67.2895 186.973 67.5112 186.736 67.7867 186.579C68.0622 186.421 68.3787 186.35 68.695 186.375L75.5711 186.909C75.9234 187.014 76.251 187.188 76.5343 187.423C76.8177 187.657 77.0511 187.946 77.2205 188.272C77.8932 189.247 78.3754 190.341 78.6417 191.496C78.9608 192.751 79.0518 194.054 78.9104 195.342Z" fill="#151E27"/>
<path d="M159.394 129.186C135.29 143.333 131.975 177.344 127.157 178.916L85.8007 192.408L89.821 213.158L144.381 202.955C152.939 201.362 160.528 196.467 165.509 189.328L159.394 129.186Z" fill="#F1C4D9"/>
<path d="M150.571 201.791C148.586 202.566 146.533 203.153 144.439 203.544L89.3379 213.873L85.0831 192.001L126.981 178.33C128.245 177.911 129.758 173.733 131.507 168.894C135.634 157.478 142.542 138.372 159.101 128.657L159.913 128.179L166.086 189.457L165.952 189.638C162.15 195.13 156.794 199.362 150.571 201.791ZM90.3203 212.459L144.233 202.358C152.564 200.815 159.96 196.07 164.835 189.14L158.92 130.252C143.36 139.888 136.665 158.278 132.677 169.36C130.514 175.338 129.206 178.995 127.382 179.547L86.5303 192.874L90.3203 212.459Z" fill="white"/>
<path d="M109.776 230.697C109.776 230.697 100.755 234.868 92.5104 234.322C84.2658 233.776 70.2748 230.752 70.2748 230.752L77.85 224.806L95.4601 227.145C95.4601 227.145 99.241 225.968 104.985 221.629C109.038 218.563 109.836 223.051 109.836 223.051L109.776 230.697Z" fill="#EF6744"/>
<path d="M95.4731 227.151C95.4731 227.151 91.9362 230.133 87.7055 229.006C83.4748 227.879 78.3322 227.001 76.435 227.861C74.8598 228.623 73.4524 229.691 72.2951 231.004C69.4868 230.608 66.6524 230.427 63.8166 230.463C61.9682 230.542 60.0652 230.48 58.6899 230.395C58.5051 230.373 58.33 230.301 58.1843 230.185C58.0387 230.069 57.9282 229.915 57.8653 229.74C57.8024 229.565 57.7897 229.376 57.8284 229.194C57.8672 229.012 57.956 228.844 58.0848 228.71C60.5695 226.121 63.7842 224.352 67.3002 223.637L77.877 221.854C77.877 221.854 80.5771 223.268 81.5522 222.768C81.6708 222.706 81.7756 222.621 81.8607 222.518C81.9457 222.415 82.0091 222.295 82.0472 222.167C82.114 221.856 82.2725 221.572 82.5023 221.352C82.7322 221.132 83.0227 220.986 83.3364 220.933L90.1495 219.794C90.8504 219.692 91.5964 220.227 92.1238 220.698C93.0123 221.478 93.7447 222.419 94.282 223.472C94.8951 224.618 95.2985 225.864 95.4731 227.151Z" fill="#151E27"/>
<path d="M159.33 129.212C159.33 129.212 151.913 137.351 147.853 155.365C145.394 166.269 143.732 177.784 142.814 185.186C142.503 187.663 141.626 190.034 140.25 192.117C138.875 194.2 137.038 195.939 134.883 197.198L97.2913 219.139L105.608 238.575L156.717 217.073C164.735 213.693 171.104 207.297 174.451 199.265C180.244 185.383 188.728 164.018 190.422 156.978C197.79 126.386 192.435 112.879 192.435 112.879C192.435 112.879 182.336 130.194 173.44 128.367C164.545 126.54 159.33 129.212 159.33 129.212Z" fill="#F1C4D9"/>
<path d="M105.303 239.36L96.5336 218.877L134.567 196.666C136.639 195.448 138.403 193.772 139.726 191.766C141.049 189.76 141.895 187.477 142.198 185.094C143.163 177.426 144.818 166.032 147.243 155.206C151.29 137.24 158.524 129.13 158.87 128.78L159.044 128.647C159.286 128.553 164.6 125.885 173.597 127.726C181.955 129.441 191.836 112.694 191.932 112.527L192.58 111.437L193.038 112.61C193.257 113.169 198.369 126.632 191.084 157.052C189.275 164.566 180.183 187.232 175.09 199.444C171.692 207.637 165.194 214.156 157.012 217.58L105.303 239.36ZM98.0728 219.381L105.95 237.776L156.508 216.51C164.398 213.211 170.664 206.926 173.938 199.025C180.515 183.247 188.323 163.338 189.869 156.829C195.869 131.936 193.348 118.32 192.288 114.343C189.8 118.279 181.285 130.583 173.359 128.957C165.433 127.331 160.455 129.373 159.7 129.722C158.921 130.639 152.189 138.853 148.437 155.513C146.021 166.281 144.364 177.644 143.407 185.276C143.075 187.842 142.161 190.299 140.735 192.458C139.309 194.618 137.409 196.423 135.179 197.737L98.0728 219.381Z" fill="white"/>
<path d="M218.977 70.8834C218.977 70.8834 206.116 91.0495 190.614 86.8234C176.527 82.9779 166.817 71.4307 158.999 78.7061C151.181 85.9816 154.827 98.9332 156.611 105.311C159.476 115.551 159.329 129.212 159.329 129.212C159.329 129.212 172.176 130.407 180.056 134.993C184.936 137.858 189.578 141.109 193.938 144.716C193.938 144.716 195.665 131.855 195.202 122.899C194.865 116.159 193.661 113.462 193.661 113.462C193.661 113.462 200.686 115.172 212.539 104.762C226.927 92.1271 228.789 72.4166 228.789 72.4166L218.977 70.8834Z" fill="url(#paint0_linear)"/>
<path d="M168.126 61.1274C168.126 61.1274 172.334 64.4753 173.653 68.1255C174.399 70.4465 174.442 72.9361 173.777 75.2815C173.689 75.6141 173.516 75.9183 173.275 76.1647C173.035 76.411 172.735 76.5911 172.405 76.6876L171.348 77.0042C171.348 77.0042 171.81 78.1871 172.087 79.0342C172.277 79.5185 171.966 80.5634 170.09 81.3397C169.588 81.5466 169.048 81.6414 168.507 81.6176C167.965 81.5937 167.435 81.4518 166.954 81.2018L163.106 69.2958C162.816 68.3248 162.82 67.2896 163.118 66.321C163.416 65.3524 163.994 64.4936 164.779 63.8531L168.126 61.1274Z" fill="#EF6744"/>
<path d="M170.614 67.219L172.16 69.4707L170.976 70.0408" stroke="black" stroke-width="0.5" stroke-linecap="round" stroke-linejoin="round"/>
<path d="M170.918 72.5552C170.918 72.5552 171.401 72.9675 172.321 72.2431" stroke="black" stroke-width="0.5" stroke-linecap="round" stroke-linejoin="round"/>
<path d="M168.664 67.7781C168.592 67.9533 168.483 68.1111 168.345 68.2409C168.206 68.3706 168.042 68.4693 167.863 68.5303C167.683 68.5913 167.493 68.6133 167.304 68.5947C167.115 68.576 166.933 68.5173 166.769 68.4224" stroke="black" stroke-width="0.5" stroke-linecap="round" stroke-linejoin="round"/>
<path d="M173.33 67.3816C173.33 67.3816 168.439 60.1991 164.961 63.9637C161.603 67.5956 166.934 72.8558 165.75 76.7221C163.173 85.127 157.147 83.3061 150.085 84.6061C146.825 85.1932 145.397 89.2302 139.472 89.3989C129.116 89.7426 121.469 78.4196 115.014 86.4077C106.446 96.9827 78.2154 91.6443 85.4825 63.046C90.921 41.6905 113.268 35.822 124.439 38.0047C134.472 39.9668 136.455 48.6936 140.525 51.4406C144.594 54.1877 147.422 55.8738 153.261 51.8307C159.1 47.7876 164.642 47.6827 169.743 52.41C176.765 58.9203 173.33 67.3816 173.33 67.3816Z" fill="#260933"/>
<path d="M218.964 70.9317C219.535 71.6187 220.239 72.1835 221.033 72.5924C221.828 73.0013 222.696 73.2459 223.588 73.3117C225.35 73.5824 227.153 73.3467 228.787 72.6321C229.313 69.7489 229.445 66.8076 229.181 63.8887C228.744 59.0347 226.984 56.3728 226.43 55.8912C224.8 54.467 224.251 55.5082 224.251 55.5082C224.251 55.5082 222.891 54.7732 221.983 55.4179C221.316 55.8824 221.73 57.0519 221.73 57.0519C221.472 56.9738 221.196 56.9791 220.942 57.0672C220.687 57.1552 220.466 57.3214 220.312 57.5421C219.878 58.3019 221.774 60.9538 221.895 62.5277C221.973 63.433 221.97 64.3434 221.885 65.2481C221.885 65.2481 220.469 63.3001 219.753 64.0521C219.038 64.8041 219.838 66.3276 219.654 67.9455C219.52 68.9607 219.289 69.9607 218.964 70.9317Z" fill="#EF6744"/>
<path d="M193.917 114.006C193.826 114.043 193.728 114.055 193.631 114.043C187.091 113.078 181.039 110.024 176.377 105.337C176.321 105.28 176.278 105.212 176.249 105.138C176.22 105.064 176.206 104.985 176.207 104.905C176.209 104.825 176.227 104.747 176.259 104.674C176.292 104.601 176.339 104.536 176.397 104.481C176.455 104.425 176.523 104.381 176.598 104.352C176.672 104.322 176.752 104.308 176.833 104.309C176.913 104.311 176.993 104.328 177.066 104.36C177.14 104.393 177.206 104.439 177.262 104.497C181.746 108.933 187.519 111.837 193.754 112.793C193.89 112.808 194.017 112.868 194.114 112.964C194.212 113.06 194.274 113.187 194.291 113.322C194.309 113.458 194.28 113.596 194.209 113.713C194.138 113.83 194.03 113.921 193.902 113.969L193.917 114.006Z" fill="white"/>
<defs>
<linearGradient id="paint0_linear" x1="-101234" y1="11184.2" x2="-97193.2" y2="5050.73" gradientUnits="userSpaceOnUse">
<stop offset="0.28" stop-color="#151E27"/>
<stop offset="0.39" stop-color="#192A41"/>
<stop offset="0.58" stop-color="#1F3C6B"/>
<stop offset="0.75" stop-color="#234A8A"/>
<stop offset="0.9" stop-color="#26529C"/>
<stop offset="1" stop-color="#2755A3"/>
</linearGradient>
</defs>
</svg>
