<svg width="137" height="128" viewBox="0 0 137 128" fill="none" xmlns="http://www.w3.org/2000/svg">
<g clip-path="url(#clip0)" filter="url(#filter0_d)">
<path d="M12.0625 23.1207C17.207 19.9743 22.7258 17.4814 28.4904 15.7001C38.0173 12.7935 46.2169 12.4852 55.6985 12.1234C61.173 11.9178 65.7448 12.0042 68.9727 12.1234C70.8696 15.9465 73.0509 19.6226 75.4985 23.1207C78.0627 26.7797 80.532 29.6986 91.0112 40.7987C96.0983 46.1885 98.6377 48.8854 99.5776 49.8227C107.276 57.4069 115.803 64.1048 125.001 69.7906C118.648 74.8268 113.252 78.4857 109.702 80.7839C97.3763 88.7554 90.7598 91.0289 78.4749 99.3334C73.0951 102.968 68.9562 106.187 66.5198 108.152L60.6454 116.012C58.0689 111.798 54.268 105.459 49.8446 97.6191C46.1097 90.9878 45.615 89.8079 36.7971 73.3879C27.7277 56.4499 24.2938 50.3284 19.924 43.0969C17.5165 39.0803 15.4635 35.8201 14.0866 33.6618C14.2402 32.3204 14.2402 30.966 14.0866 29.6246C13.8278 27.3491 13.1411 25.1426 12.0625 23.1207Z" fill="url(#paint0_linear)"/>
<path d="M23.5433 36.8765C25.7695 40.2764 29.1169 45.4359 33.1115 51.8082C36.8918 57.8434 36.3765 57.1897 40.8617 64.4007C47.2597 74.6786 49.9723 78.7075 55.014 87.304C56.4197 89.6967 57.4627 91.522 57.7307 91.9948C61.5563 98.7166 64.5368 104.328 66.5073 108.148L60.6452 116.012C54.4396 105.077 48.2463 94.1408 42.0654 83.2051C32.9164 67.0291 23.7948 50.8311 14.7007 34.6112C14.6183 33.789 14.474 32.6009 14.1937 31.1702C13.1795 25.9778 11.6749 23.3754 12.0624 23.1205C12.4499 22.8657 15.1212 25.5667 23.5433 36.8765Z" fill="#6D95D7"/>
<path d="M60.6455 116.012C64.702 113.813 69.2655 111.297 74.0187 108.612C77.2672 106.783 80.2271 105.081 83.6445 103.013C87.1981 100.867 89.115 99.6169 93.6414 96.7185C109.768 86.4036 114.08 83.9739 119.32 77.984C120.194 76.9808 120.874 76.1339 121.286 75.6036L120.309 73.3877C117.956 75.1637 114.311 77.8113 109.69 80.7878C102.2 85.602 100.093 86.1323 89.0779 92.7101C83.5786 95.9991 87.6309 93.7462 74.7483 101.899C71.7225 103.814 69.2573 105.356 66.5035 108.135C64.1943 110.478 62.2228 113.129 60.6455 116.012Z" fill="#E5EDFA"/>
<path d="M88.7847 34.854C88.2982 34.5786 86.9337 33.9783 81.2324 36.2929C78.5753 37.3706 76.0098 38.6602 73.5605 40.1492C74.3685 41.8978 75.1738 43.6451 75.9763 45.3909C77.3171 44.4383 78.7442 43.6125 80.2389 42.9242C82.4774 41.8841 84.3613 41.3867 86.9131 40.7207C88.6198 40.2684 90.042 39.9642 91.0355 39.7669C90.9696 38.7226 90.7057 35.9353 88.7847 34.854Z" fill="#B6B6F8"/>
<path d="M65.18 49.3377L77.7823 56.4706C78.0173 56.601 78.2885 56.6515 78.5548 56.6144C78.8211 56.5773 79.068 56.4546 79.2581 56.265L88.7769 46.5586C88.904 46.4238 88.9992 46.2623 89.0552 46.0859C89.1113 45.9095 89.1268 45.7228 89.1007 45.5396C89.0746 45.3564 89.0074 45.1814 88.9043 45.0275C88.8011 44.8737 88.6646 44.745 88.5048 44.651L75.8984 37.514C75.663 37.3842 75.3915 37.3344 75.1252 37.3722C74.8589 37.41 74.6122 37.5334 74.4225 37.7237L64.8915 47.426C64.7642 47.5619 64.6694 47.7247 64.6142 47.9023C64.5589 48.0799 64.5446 48.2676 64.5724 48.4514C64.6001 48.6353 64.6692 48.8105 64.7744 48.964C64.8797 49.1175 65.0183 49.2452 65.18 49.3377Z" fill="#0E1C4F"/>
<path d="M77.337 38.406L76.9248 38.1141C78.5326 35.3802 81.0926 34.6731 83.9989 35.1911L83.2527 35.5611C82.0948 35.3944 80.9132 35.576 79.8594 36.0829C78.8055 36.5897 77.9273 37.3986 77.337 38.406Z" fill="#0E1C4F"/>
<path d="M87.1857 44.5689L86.7734 44.3098C87.4701 42.9038 87.8411 41.8678 87.903 40.7455L88.3647 40.5522C88.2455 41.9564 87.8446 43.3223 87.1857 44.5689Z" fill="#0E1C4F"/>
<path d="M79.9956 46.7108C80.2298 46.4152 80.3764 46.0601 80.4187 45.6857C80.461 45.3113 80.3974 44.9326 80.2352 44.5923C80.0729 44.2521 79.8183 43.964 79.5004 43.7605C79.1824 43.5571 78.8137 43.4464 78.4359 43.4411C78.0582 43.4358 77.6864 43.536 77.3628 43.7304C77.0392 43.9248 76.7766 44.2057 76.6048 44.5412C76.4329 44.8767 76.3586 45.2535 76.3904 45.629C76.4221 46.0044 76.5585 46.3635 76.7842 46.6656L74.4551 49.5804L75.3002 50.2341L77.6335 47.3069C78.0382 47.4803 78.4889 47.5159 78.9159 47.4081C79.3429 47.3004 79.7223 47.0553 79.9956 46.7108Z" fill="url(#paint1_linear)"/>
</g>
<defs>
<filter id="filter0_d" x="0" y="0" width="137" height="128" filterUnits="userSpaceOnUse" color-interpolation-filters="sRGB">
<feFlood flood-opacity="0" result="BackgroundImageFix"/>
<feColorMatrix in="SourceAlpha" type="matrix" values="0 0 0 0 0 0 0 0 0 0 0 0 0 0 0 0 0 0 127 0"/>
<feOffset/>
<feGaussianBlur stdDeviation="6"/>
<feColorMatrix type="matrix" values="0 0 0 0 0.270729 0 0 0 0 0.458592 0 0 0 0 0.941667 0 0 0 0.54 0"/>
<feBlend mode="normal" in2="BackgroundImageFix" result="effect1_dropShadow"/>
<feBlend mode="normal" in="SourceGraphic" in2="effect1_dropShadow" result="shape"/>
</filter>
<linearGradient id="paint0_linear" x1="7.4212" y1="31.2612" x2="123.829" y2="37.9068" gradientUnits="userSpaceOnUse">
<stop stop-color="#6492E1"/>
<stop offset="0.5" stop-color="#C2DDEC"/>
<stop offset="1" stop-color="#BABAF7"/>
</linearGradient>
<linearGradient id="paint1_linear" x1="74.2095" y1="44.6989" x2="80.3763" y2="44.9842" gradientUnits="userSpaceOnUse">
<stop stop-color="#6492E1"/>
<stop offset="0.5" stop-color="#C2DDEC"/>
<stop offset="1" stop-color="#BABAF7"/>
</linearGradient>
<clipPath id="clip0">
<rect width="113" height="104" fill="white" transform="translate(12 12)"/>
</clipPath>
</defs>
</svg>
