<svg width="11" height="11" viewBox="0 0 11 11" fill="none" xmlns="http://www.w3.org/2000/svg">
<path d="M10.3125 1.375H8.9375V0H7.5625V1.375H6.1875V0H4.8125V1.375H3.4375V0H2.0625V1.375H0.6875C0.275 1.375 0 1.65 0 2.0625V10.3125C0 10.725 0.275 11 0.6875 11H10.3125C10.725 11 11 10.725 11 10.3125V2.0625C11 1.65 10.725 1.375 10.3125 1.375ZM9.625 9.625H1.375V2.75H9.625V9.625Z" fill="white" fill-opacity="0.33"/>
<path d="M4.125 5.5C4.5375 5.5 4.8125 5.225 4.8125 4.8125C4.8125 4.4 4.5375 4.125 4.125 4.125C3.7125 4.125 3.4375 4.4 3.4375 4.8125C3.4375 5.225 3.7125 5.5 4.125 5.5Z" fill="white" fill-opacity="0.33"/>
<path d="M6.875 4.8125L4.8125 7.5625L3.4375 6.1875L2.0625 8.9375H8.9375L6.875 4.8125Z" fill="white" fill-opacity="0.33"/>
</svg>
