<svg width="25" height="25" viewBox="0 0 25 25" fill="none" xmlns="http://www.w3.org/2000/svg">
<path d="M24.5016 10.2135L21.413 9.96035C21.209 9.21665 20.9093 8.50195 20.5212 7.83379L22.5272 5.48897C22.6152 5.38606 22.661 5.25416 22.6554 5.11945C22.6497 4.98473 22.5931 4.85703 22.4967 4.76166L20.1859 2.48082C20.0895 2.3855 19.9603 2.3295 19.8241 2.32392C19.6879 2.31835 19.5546 2.3636 19.4505 2.45071L17.0804 4.43429C16.4047 4.04939 15.682 3.7515 14.9299 3.54786L14.6739 0.492941C14.6626 0.358242 14.6003 0.232712 14.4996 0.14136C14.3989 0.0500072 14.2671 -0.000463112 14.1304 3.20273e-06H10.8696C10.7329 -0.000463112 10.6011 0.0500072 10.5004 0.14136C10.3997 0.232712 10.3374 0.358242 10.3261 0.492941L10.0701 3.54786C9.31821 3.74963 8.59563 4.0461 7.92011 4.42999L5.54946 2.44803C5.44541 2.36092 5.31206 2.31566 5.17586 2.32124C5.03966 2.32681 4.91055 2.38281 4.81413 2.47813L2.50815 4.76166C2.41179 4.85703 2.35517 4.98473 2.34953 5.11945C2.3439 5.25416 2.38965 5.38606 2.47772 5.48897L4.48315 7.83325C4.09401 8.50162 3.79284 9.21644 3.58696 9.96035L0.498373 10.2135C0.362189 10.2248 0.235277 10.2863 0.142918 10.3859C0.0505583 10.4856 -0.000468215 10.6159 3.23802e-06 10.7511V13.9764C-0.000468215 14.1116 0.0505583 14.242 0.142918 14.3416C0.235277 14.4412 0.362189 14.5028 0.498373 14.514L3.58913 14.7693C3.79313 15.513 4.09286 16.2277 4.48098 16.8959L2.475 19.2385C2.38693 19.3415 2.34118 19.4734 2.34682 19.6081C2.35245 19.7428 2.40907 19.8705 2.50544 19.9659L4.81141 22.2467C4.9078 22.3419 5.0368 22.3978 5.17288 22.4033C5.30895 22.4089 5.44218 22.3638 5.5462 22.2768L7.91685 20.2932C8.59331 20.6786 9.31697 20.9765 10.0701 21.1797L10.3261 24.2346C10.3374 24.3693 10.3997 24.4948 10.5004 24.5862C10.6011 24.6775 10.7329 24.728 10.8696 24.7275H14.1304C14.2671 24.728 14.3989 24.6775 14.4996 24.5862C14.6003 24.4948 14.6626 24.3693 14.6739 24.2346L14.9326 21.1754C15.6842 20.9729 16.4065 20.6763 17.0821 20.2927L19.4527 22.2768C19.5568 22.3639 19.6901 22.4092 19.8263 22.4036C19.9625 22.398 20.0916 22.342 20.188 22.2467L22.494 19.9659C22.5904 19.8705 22.647 19.7428 22.6526 19.6081C22.6583 19.4734 22.6125 19.3415 22.5245 19.2385L20.519 16.8943C20.9072 16.2257 21.2076 15.5109 21.413 14.7672L24.5016 14.514C24.6378 14.5028 24.7647 14.4412 24.8571 14.3416C24.9494 14.242 25.0005 14.1116 25 13.9764V10.7511C25.0005 10.6159 24.9494 10.4856 24.8571 10.3859C24.7647 10.2863 24.6378 10.2248 24.5016 10.2135ZM12.5 16.1266C11.7476 16.1266 11.012 15.906 10.3864 15.4925C9.7608 15.079 9.27318 14.4913 8.98524 13.8038C8.6973 13.1162 8.62196 12.3596 8.76875 11.6297C8.91554 10.8997 9.27787 10.2292 9.80992 9.703C10.342 9.17675 11.0198 8.81837 11.7578 8.67318C12.4958 8.52799 13.2607 8.60251 13.9559 8.88731C14.651 9.17211 15.2452 9.65441 15.6632 10.2732C16.0812 10.892 16.3043 11.6195 16.3043 12.3638C16.3043 13.3617 15.9035 14.3188 15.1901 15.0245C14.4766 15.7302 13.509 16.1266 12.5 16.1266Z" fill="#80A6E7" fill-opacity="0.75"/>
<path d="M12.5002 6.98828C11.4253 6.98828 10.3746 7.30355 9.48081 7.89422C8.58707 8.4849 7.89048 9.32444 7.47913 10.3067C7.06778 11.2889 6.96016 12.3698 7.16986 13.4125C7.37956 14.4553 7.89717 15.4131 8.65724 16.1649C9.41731 16.9167 10.3857 17.4287 11.4399 17.6361C12.4942 17.8435 13.5869 17.737 14.58 17.3302C15.5731 16.9233 16.4219 16.2343 17.0191 15.3503C17.6163 14.4663 17.935 13.427 17.935 12.3638C17.935 10.9381 17.3624 9.57085 16.3432 8.56274C15.324 7.55463 13.9416 6.98828 12.5002 6.98828ZM12.5002 16.1267C11.7478 16.1267 11.0123 15.906 10.3866 15.4926C9.76101 15.0791 9.2734 14.4914 8.98545 13.8038C8.69751 13.1162 8.62217 12.3597 8.76897 11.6297C8.91576 10.8998 9.27809 10.2293 9.81013 9.70307C10.3422 9.17682 11.0201 8.81844 11.758 8.67325C12.496 8.52806 13.2609 8.60257 13.9561 8.88738C14.6512 9.17218 15.2454 9.65448 15.6634 10.2733C16.0814 10.8921 16.3046 11.6196 16.3046 12.3638C16.3046 13.3618 15.9037 14.3189 15.1903 15.0246C14.4768 15.7303 13.5092 16.1267 12.5002 16.1267Z" fill="#80A6E7"/>
</svg>
