<svg width="25" height="23" viewBox="0 0 25 23" fill="none" xmlns="http://www.w3.org/2000/svg">
<g clip-path="url(#clip0)">
<path d="M12.109 23C18.7967 23 24.2181 17.8513 24.2181 11.5C24.2181 5.14873 18.7967 0 12.109 0C5.4214 0 0 5.14873 0 11.5C0 17.8513 5.4214 23 12.109 23Z" fill="#7CC8FB"/>
<path d="M8.76025 15.22C12.1848 15.22 14.9609 12.5835 14.9609 9.33119C14.9609 6.07889 12.1848 3.44238 8.76025 3.44238C5.33571 3.44238 2.55957 6.07889 2.55957 9.33119C2.55957 12.5835 5.33571 15.22 8.76025 15.22Z" fill="#A4DCFC"/>
<path d="M18.2996 19.5586C20.2067 19.5586 21.7526 18.0904 21.7526 16.2793C21.7526 14.4682 20.2067 13 18.2996 13C16.3926 13 14.8467 14.4682 14.8467 16.2793C14.8467 18.0904 16.3926 19.5586 18.2996 19.5586Z" fill="#A4DCFC"/>
<path d="M18.1282 17.1392L15.8421 13.0801L15.1562 13.8833L16.642 16.8679L18.1282 17.1392Z" fill="#DDDDDD"/>
<path d="M9.21297 13.7529L8.66428 17.1391L7.52148 15.446L8.36723 13.2754L9.21297 13.7529Z" fill="#DDDDDD"/>
<path d="M16.4814 12.5369L15.8414 13.8828L14.333 12.2764L16.4814 12.5369Z" fill="#DDDDDD"/>
<path d="M12.0928 15.3913L17.3044 17.6167L15.8414 13.8828L12.0928 15.3913Z" fill="white"/>
<path d="M4.82422 12.2764L7.15616 17.1387L8.46639 13.837L4.82422 12.2764Z" fill="white"/>
<path d="M14.5158 5.29688L13.373 10.2899L14.9732 12.5369L17.9447 13.275L20.6418 11.6686L22.3791 7.93469L19.0416 9.00922L16.3904 8.32551L14.5158 5.29688Z" fill="#AA60FA"/>
<path d="M1.80664 6.1543L4.82397 12.2762L12.0932 15.3911L15.8418 13.8827L13.3731 9.84463L6.97285 9.8882L1.80664 6.1543Z" fill="#AA60FA"/>
<path d="M1.80664 6.1543L6.19569 10.4309L6.97285 9.8882L1.80664 6.1543Z" fill="#934CF5"/>
<path d="M4.82422 12.277L6.19595 10.4316L5.30905 12.4846L4.82422 12.277Z" fill="#934CF5"/>
<path d="M6.19531 10.4316L12.0928 15.3919L15.8414 13.8834L12.0928 14.7733L6.19531 10.4316Z" fill="#934CF5"/>
<path d="M16.3904 8.32617L13.373 10.2906L14.9732 12.5376L13.7846 10.2906L16.3904 8.32617Z" fill="#934CF5"/>
<path d="M19.042 9.00912L20.6422 11.6685L20.8158 11.2952L19.2922 8.92871L19.042 9.00912Z" fill="#934CF5"/>
<path d="M4.82422 12.2764L8.46639 13.837L8.21191 14.4784L4.99829 12.6393L4.82422 12.2764Z" fill="#DDDDDD"/>
<path d="M12.0928 15.3913L15.8414 13.8828L16.075 14.4785L12.6665 15.6366L12.0928 15.3913Z" fill="#DDDDDD"/>
<path d="M7.72656 15.7497L7.92523 16.0435L8.74968 13.9587L8.46635 13.8369L7.72656 15.7497Z" fill="#C6C6C6"/>
<path d="M17.0399 16.9404L17.4628 17.0177L16.049 13.4473L15.8418 13.883L17.0399 16.9404Z" fill="#C6C6C6"/>
<path d="M19.0383 10.6682C19.2692 10.6682 19.4564 10.4904 19.4564 10.2711C19.4564 10.0518 19.2692 9.87402 19.0383 9.87402C18.8073 9.87402 18.6201 10.0518 18.6201 10.2711C18.6201 10.4904 18.8073 10.6682 19.0383 10.6682Z" fill="#B885F9"/>
<path d="M18.6692 9.80266C18.8327 9.80266 18.9653 9.67676 18.9653 9.52145C18.9653 9.36614 18.8327 9.24023 18.6692 9.24023C18.5056 9.24023 18.373 9.36614 18.373 9.52145C18.373 9.67676 18.5056 9.80266 18.6692 9.80266Z" fill="#B885F9"/>
<path d="M15.7677 11.3976C16.0579 11.3976 16.2932 11.1741 16.2932 10.8985C16.2932 10.6229 16.0579 10.3994 15.7677 10.3994C15.4775 10.3994 15.2422 10.6229 15.2422 10.8985C15.2422 11.1741 15.4775 11.3976 15.7677 11.3976Z" fill="#32314B"/>
<path d="M18.0939 11.8966C18.3841 11.8966 18.6194 11.6732 18.6194 11.3975C18.6194 11.1219 18.3841 10.8984 18.0939 10.8984C17.8036 10.8984 17.5684 11.1219 17.5684 11.3975C17.5684 11.6732 17.8036 11.8966 18.0939 11.8966Z" fill="#32314B"/>
</g>
<defs>
<clipPath id="clip0">
<rect width="24.2181" height="23" fill="white"/>
</clipPath>
</defs>
</svg>
