<svg width="15" height="15" viewBox="0 0 15 15" fill="none" xmlns="http://www.w3.org/2000/svg">
<path d="M14.3751 5.625H9.43443L7.79756 0.529375C7.77701 0.466854 7.73724 0.412416 7.68394 0.373823C7.63063 0.335231 7.56649 0.314453 7.50068 0.314453C7.43487 0.314453 7.37074 0.335231 7.31743 0.373823C7.26412 0.412416 7.22436 0.466854 7.20381 0.529375L5.56568 5.625H0.625057C0.559861 5.62499 0.496293 5.64537 0.443256 5.68328C0.390219 5.7212 0.350369 5.77476 0.329288 5.83645C0.308206 5.89815 0.306949 5.96489 0.325691 6.02733C0.344433 6.08978 0.382237 6.1448 0.433807 6.18469L4.37506 9.23563L2.73506 14.2784C2.71465 14.3412 2.71465 14.4088 2.73504 14.4716C2.75544 14.5344 2.79519 14.5891 2.84858 14.6279C2.90198 14.6667 2.9663 14.6875 3.0323 14.6875C3.0983 14.6875 3.16261 14.6666 3.216 14.6278L7.50006 11.5156L11.7841 14.6278C11.8375 14.6666 11.9018 14.6875 11.9678 14.6875C12.0338 14.6875 12.0981 14.6667 12.1515 14.6279C12.2049 14.5891 12.2447 14.5344 12.2651 14.4716C12.2855 14.4088 12.2855 14.3412 12.2651 14.2784L10.6251 9.23563L14.5651 6.18469C14.6165 6.14486 14.6543 6.08996 14.6731 6.02763C14.6919 5.96531 14.6907 5.89868 14.6698 5.83704C14.6489 5.77541 14.6092 5.72184 14.5564 5.68383C14.5035 5.64581 14.4401 5.62525 14.3751 5.625Z" fill="#FFD764"/>
</svg>
